<svg width="33" height="45" viewBox="0 0 33 45" fill="none" xmlns="http://www.w3.org/2000/svg">
<g filter="url(#filter0_d_275_161)">
<path d="M28.8047 32.3125V37H4.97656V32.9717L16.5488 20.3496C17.8184 18.9173 18.8193 17.6803 19.5518 16.6387C20.2842 15.597 20.7969 14.6611 21.0898 13.8311C21.3991 12.9847 21.5537 12.1628 21.5537 11.3652C21.5537 10.2422 21.3421 9.25749 20.9189 8.41113C20.512 7.5485 19.9098 6.87305 19.1123 6.38477C18.3148 5.88021 17.3464 5.62793 16.207 5.62793C14.8887 5.62793 13.7819 5.91276 12.8867 6.48242C11.9915 7.05208 11.3161 7.84147 10.8604 8.85059C10.4046 9.84342 10.1768 10.9827 10.1768 12.2686H4.29297C4.29297 10.2015 4.76497 8.31348 5.70898 6.60449C6.65299 4.87923 8.02018 3.51204 9.81055 2.50293C11.6009 1.47754 13.7575 0.964844 16.2803 0.964844C18.6566 0.964844 20.6748 1.36361 22.335 2.16113C23.9951 2.95866 25.2565 4.08984 26.1191 5.55469C26.998 7.01953 27.4375 8.75293 27.4375 10.7549C27.4375 11.8617 27.2585 12.9603 26.9004 14.0508C26.5423 15.1413 26.0296 16.2318 25.3623 17.3223C24.7113 18.3965 23.9382 19.4788 23.043 20.5693C22.1478 21.6436 21.1631 22.734 20.0889 23.8408L12.3984 32.3125H28.8047Z" fill="white"/>
</g>
<defs>
<filter id="filter0_d_275_161" x="0.292969" y="0.964844" width="32.5117" height="44.0352" filterUnits="userSpaceOnUse" color-interpolation-filters="sRGB">
<feFlood flood-opacity="0" result="BackgroundImageFix"/>
<feColorMatrix in="SourceAlpha" type="matrix" values="0 0 0 0 0 0 0 0 0 0 0 0 0 0 0 0 0 0 127 0" result="hardAlpha"/>
<feOffset dy="4"/>
<feGaussianBlur stdDeviation="2"/>
<feComposite in2="hardAlpha" operator="out"/>
<feColorMatrix type="matrix" values="0 0 0 0 0 0 0 0 0 0 0 0 0 0 0 0 0 0 0.25 0"/>
<feBlend mode="normal" in2="BackgroundImageFix" result="effect1_dropShadow_275_161"/>
<feBlend mode="normal" in="SourceGraphic" in2="effect1_dropShadow_275_161" result="shape"/>
</filter>
</defs>
</svg>
