<svg width="32" height="46" viewBox="0 0 32 46" fill="none" xmlns="http://www.w3.org/2000/svg">
<g filter="url(#filter0_d_275_162)">
<path d="M11.8857 16.5654H15.4014C16.7686 16.5654 17.8997 16.3294 18.7949 15.8574C19.7064 15.3854 20.3818 14.7344 20.8213 13.9043C21.2607 13.0742 21.4805 12.1221 21.4805 11.0479C21.4805 9.9248 21.277 8.96452 20.8701 8.16699C20.4795 7.35319 19.8773 6.72656 19.0635 6.28711C18.266 5.84766 17.2487 5.62793 16.0117 5.62793C14.9701 5.62793 14.026 5.83952 13.1797 6.2627C12.3496 6.6696 11.6904 7.25553 11.2021 8.02051C10.7139 8.76921 10.4697 9.66439 10.4697 10.7061H4.56152C4.56152 8.81803 5.05794 7.1416 6.05078 5.67676C7.04362 4.21191 8.39453 3.06445 10.1035 2.23438C11.8288 1.38802 13.7656 0.964844 15.9141 0.964844C18.209 0.964844 20.2109 1.34733 21.9199 2.1123C23.6452 2.861 24.988 3.98405 25.9482 5.48145C26.9085 6.97884 27.3887 8.83431 27.3887 11.0479C27.3887 12.057 27.1527 13.0824 26.6807 14.124C26.2087 15.1657 25.5088 16.1178 24.5811 16.9805C23.6533 17.8268 22.4977 18.5186 21.1143 19.0557C19.7308 19.5765 18.1276 19.8369 16.3047 19.8369H11.8857V16.5654ZM11.8857 21.1553V17.9326H16.3047C18.388 17.9326 20.1621 18.1768 21.627 18.665C23.1081 19.1533 24.3125 19.8288 25.2402 20.6914C26.168 21.5378 26.8434 22.5062 27.2666 23.5967C27.7061 24.6872 27.9258 25.8428 27.9258 27.0635C27.9258 28.7236 27.6247 30.2048 27.0225 31.5068C26.4365 32.7926 25.5983 33.8831 24.5078 34.7783C23.4173 35.6735 22.1396 36.349 20.6748 36.8047C19.2262 37.2604 17.6475 37.4883 15.9385 37.4883C14.4085 37.4883 12.9437 37.2767 11.5439 36.8535C10.1442 36.4303 8.89095 35.8037 7.78418 34.9736C6.67741 34.1273 5.7985 33.0775 5.14746 31.8242C4.5127 30.5547 4.19531 29.0898 4.19531 27.4297H10.0791C10.0791 28.4876 10.3232 29.4235 10.8115 30.2373C11.3161 31.0348 12.016 31.6615 12.9111 32.1172C13.8226 32.5729 14.8643 32.8008 16.0361 32.8008C17.2731 32.8008 18.3392 32.5811 19.2344 32.1416C20.1296 31.7021 20.8132 31.0511 21.2852 30.1885C21.7734 29.3258 22.0176 28.2842 22.0176 27.0635C22.0176 25.68 21.749 24.557 21.2119 23.6943C20.6748 22.8317 19.9098 22.1969 18.917 21.79C17.9242 21.3669 16.7523 21.1553 15.4014 21.1553H11.8857Z" fill="white"/>
</g>
<defs>
<filter id="filter0_d_275_162" x="0.195312" y="0.964844" width="31.7305" height="44.5234" filterUnits="userSpaceOnUse" color-interpolation-filters="sRGB">
<feFlood flood-opacity="0" result="BackgroundImageFix"/>
<feColorMatrix in="SourceAlpha" type="matrix" values="0 0 0 0 0 0 0 0 0 0 0 0 0 0 0 0 0 0 127 0" result="hardAlpha"/>
<feOffset dy="4"/>
<feGaussianBlur stdDeviation="2"/>
<feComposite in2="hardAlpha" operator="out"/>
<feColorMatrix type="matrix" values="0 0 0 0 0 0 0 0 0 0 0 0 0 0 0 0 0 0 0.25 0"/>
<feBlend mode="normal" in2="BackgroundImageFix" result="effect1_dropShadow_275_162"/>
<feBlend mode="normal" in="SourceGraphic" in2="effect1_dropShadow_275_162" result="shape"/>
</filter>
</defs>
</svg>
