<svg width="36" height="36" viewBox="0 0 36 36" fill="none" xmlns="http://www.w3.org/2000/svg">
<path d="M18 0C8.0558 0 0 8.0558 0 18C0 27.9401 8.0558 36 18 36C27.9401 36 36 27.9401 36 18C36 8.0558 27.9401 0 18 0ZM25.2008 19.8012H15.1446L18 22.6525C18.7014 23.3581 18.7014 24.4994 18 25.2008C17.2986 25.9022 16.1573 25.9022 15.4517 25.2008L9.52502 19.27C8.82361 18.5686 8.82361 17.4273 9.52502 16.7258L15.4517 10.7992C16.1573 10.0978 17.2986 10.0978 18 10.7992C18.7014 11.5006 18.7014 12.6419 18 13.3433L15.1446 16.1988H25.2008C26.1928 16.1988 26.9979 17.0039 26.9979 18C26.9979 18.9919 26.1928 19.8012 25.2008 19.8012Z" fill="white"/>
</svg>
