<svg width="89" height="53" viewBox="0 0 89 53" fill="none" xmlns="http://www.w3.org/2000/svg">
<path d="M77.0089 19V16.1591L82.435 11.6705C82.7949 11.3722 83.1026 11.0928 83.3583 10.8324C83.6187 10.5672 83.8176 10.295 83.9549 10.0156C84.0969 9.73627 84.168 9.42614 84.168 9.08523C84.168 8.71117 84.0875 8.39157 83.9265 8.12642C83.7702 7.86127 83.5524 7.65767 83.2731 7.51562C82.9937 7.36884 82.6718 7.29545 82.3072 7.29545C81.9426 7.29545 81.6206 7.36884 81.3413 7.51562C81.0666 7.66241 80.8536 7.87784 80.7021 8.16193C80.5505 8.44602 80.4748 8.79167 80.4748 9.19886H76.7248C76.7248 8.17614 76.9544 7.29545 77.4137 6.55682C77.873 5.81818 78.5217 5.25 79.3597 4.85227C80.1978 4.45455 81.1803 4.25568 82.3072 4.25568C83.4719 4.25568 84.4805 4.44271 85.3327 4.81676C86.1897 5.18608 86.8503 5.70691 87.3143 6.37926C87.783 7.05161 88.0174 7.83996 88.0174 8.74432C88.0174 9.30303 87.9014 9.85937 87.6694 10.4134C87.4374 10.9626 87.0207 11.571 86.4194 12.2386C85.8181 12.9062 84.9634 13.7017 83.8555 14.625L82.4918 15.7614V15.8466H88.1737V19H77.0089Z" fill="black"/>
<path d="M70.2303 12.0174C70.2317 12.4631 69.8722 12.8261 69.4265 12.8275C68.9808 12.8296 68.6179 12.4694 68.6165 12.0237C68.6143 11.578 68.9745 11.2157 69.4202 11.2136C69.8659 11.2122 70.2282 11.5717 70.2303 12.0174Z" fill="black" stroke="black" stroke-width="3.99808" stroke-linecap="round" stroke-linejoin="round"/>
<path d="M2.02734 12.2852L68.4804 12.0245" stroke="black" stroke-width="3.99808"/>
<path d="M2 52.2715L2 11.6725" stroke="black" stroke-width="3.99809"/>
</svg>
