<svg width="69" height="20" viewBox="0 0 69 20" fill="none" xmlns="http://www.w3.org/2000/svg">
<path d="M62.6477 4.25568C63.4953 4.25568 64.2978 4.39062 65.0554 4.66051C65.813 4.92566 66.483 5.3447 67.0653 5.91761C67.6525 6.49053 68.1117 7.23864 68.4432 8.16193C68.7794 9.08049 68.9498 10.1932 68.9545 11.5C68.9593 12.6932 68.8101 13.7656 68.5071 14.7173C68.2088 15.6643 67.7803 16.4716 67.2216 17.1392C66.6676 17.8068 66 18.3182 65.2188 18.6733C64.4422 19.0237 63.5758 19.1989 62.6193 19.1989C61.5445 19.1989 60.5999 18.9929 59.7855 18.581C58.9711 18.169 58.3224 17.6151 57.8395 16.919C57.3565 16.223 57.0748 15.4489 56.9943 14.5966H60.8864C60.9811 15.0369 61.1894 15.3565 61.5114 15.5554C61.8333 15.7495 62.2027 15.8466 62.6193 15.8466C63.4527 15.8466 64.0611 15.4867 64.4446 14.767C64.8329 14.0426 65.0294 13.0767 65.0341 11.8693H64.9489C64.7642 12.3144 64.4848 12.6955 64.1108 13.0128C63.7367 13.33 63.3011 13.5739 62.804 13.7443C62.3068 13.9148 61.7813 14 61.2273 14C60.3513 14 59.5843 13.8035 58.9261 13.4105C58.268 13.0128 57.7543 12.4706 57.3849 11.7841C57.0156 11.0928 56.8286 10.3068 56.8239 9.42614C56.8191 8.39394 57.063 7.48958 57.5554 6.71307C58.0478 5.93655 58.732 5.33286 59.608 4.90199C60.4839 4.47112 61.4972 4.25568 62.6477 4.25568ZM62.6761 7.23864C62.2831 7.23864 61.9328 7.3286 61.625 7.50852C61.322 7.68845 61.0829 7.93229 60.9077 8.24006C60.7372 8.54782 60.6544 8.89583 60.6591 9.28409C60.6638 9.67235 60.7514 10.0204 60.9219 10.3281C61.0971 10.6359 61.3338 10.8797 61.6321 11.0597C61.9351 11.2396 62.2831 11.3295 62.6761 11.3295C62.965 11.3295 63.2325 11.2798 63.4787 11.1804C63.7249 11.0762 63.938 10.9318 64.1179 10.7472C64.3026 10.5578 64.4446 10.34 64.544 10.0938C64.6482 9.8428 64.6979 9.57292 64.6932 9.28409C64.6884 8.89583 64.5985 8.54782 64.4233 8.24006C64.2481 7.93229 64.009 7.68845 63.706 7.50852C63.4029 7.3286 63.0597 7.23864 62.6761 7.23864Z" fill="black"/>
<path d="M0 13.8672H50.9279" stroke="black" stroke-width="3.99809"/>
<path d="M52.7545 13.8073C52.7545 14.2529 52.3929 14.6138 51.9472 14.6138C51.5015 14.6138 51.1406 14.2529 51.1406 13.8073C51.1406 13.3616 51.5015 13 51.9472 13C52.3929 13 52.7545 13.3616 52.7545 13.8073Z" fill="black" stroke="black" stroke-width="3.99809" stroke-linecap="round" stroke-linejoin="round"/>
</svg>
