<svg width="52" height="21" viewBox="0 0 52 21" fill="none" xmlns="http://www.w3.org/2000/svg">
<path d="M45.6477 19.1989C44.5019 19.1989 43.4839 19.0024 42.5938 18.6094C41.7083 18.2116 41.0123 17.6648 40.5057 16.9688C39.9991 16.2727 39.7434 15.4725 39.7386 14.5682H43.7159C43.7206 14.8475 43.8059 15.0985 43.9716 15.321C44.142 15.5388 44.3741 15.7093 44.6676 15.8324C44.9612 15.9555 45.2973 16.017 45.6761 16.017C46.0407 16.017 46.3627 15.9531 46.642 15.8253C46.9214 15.6927 47.1392 15.5104 47.2955 15.2784C47.4517 15.0464 47.5275 14.7812 47.5227 14.483C47.5275 14.1894 47.4375 13.929 47.2528 13.7017C47.0729 13.4744 46.8196 13.2969 46.4929 13.169C46.1662 13.0412 45.7898 12.9773 45.3636 12.9773H43.8864V10.25H45.3636C45.7566 10.25 46.1023 10.1861 46.4006 10.0582C46.7036 9.9304 46.938 9.75284 47.1037 9.52557C47.2741 9.2983 47.357 9.03788 47.3523 8.74432C47.357 8.46023 47.2884 8.20928 47.1463 7.99148C47.0043 7.77367 46.8054 7.60322 46.5497 7.48011C46.2988 7.35701 46.0076 7.29545 45.6761 7.29545C45.3163 7.29545 44.9943 7.35937 44.7102 7.48722C44.4309 7.61506 44.2107 7.79261 44.0497 8.01989C43.8887 8.24716 43.8059 8.50758 43.8011 8.80114H40.0227C40.0275 7.91098 40.2713 7.125 40.7543 6.44318C41.242 5.76136 41.9096 5.22633 42.7571 4.83807C43.6046 4.44981 44.5777 4.25568 45.6761 4.25568C46.7509 4.25568 47.7003 4.43797 48.5241 4.80256C49.3527 5.16714 49.9991 5.66903 50.4631 6.30824C50.9318 6.94271 51.1638 7.66951 51.1591 8.48864C51.1686 9.30303 50.8892 9.97064 50.321 10.4915C49.7576 11.0123 49.0426 11.3201 48.1761 11.4148V11.5284C49.3504 11.6562 50.2334 12.0161 50.8253 12.608C51.4171 13.1951 51.7083 13.9337 51.6989 14.8239C51.7036 15.6761 51.4479 16.4313 50.9318 17.0895C50.4205 17.7476 49.7079 18.2637 48.794 18.6378C47.8849 19.0118 46.8362 19.1989 45.6477 19.1989Z" fill="black"/>
<path d="M34.3013 11.3756C34.3013 11.8213 33.9404 12.1822 33.4948 12.1822C33.0491 12.1822 32.6875 11.8213 32.6875 11.3756C32.6875 10.9299 33.0491 10.5684 33.4948 10.5684C33.9404 10.5684 34.3013 10.9299 34.3013 11.3756Z" fill="black" stroke="black" stroke-width="3.99809" stroke-linecap="round" stroke-linejoin="round"/>
<path d="M0.636719 11.2148L32.5506 11.3747" stroke="black" stroke-width="3.99809"/>
</svg>
