<svg width="70" height="16" viewBox="0 0 70 16" fill="none" xmlns="http://www.w3.org/2000/svg">
<path d="M62.9034 15.1989C61.7292 15.1989 60.6804 15.0166 59.7571 14.652C58.8385 14.2874 58.1141 13.7926 57.5838 13.1676C57.0582 12.5426 56.7955 11.8371 56.7955 11.0511C56.7955 10.4498 56.9446 9.90057 57.2429 9.40341C57.5459 8.90625 57.9531 8.49432 58.4645 8.16761C58.9759 7.83617 59.5464 7.62311 60.1761 7.52841V7.41477C59.3475 7.27273 58.6657 6.90578 58.1307 6.31392C57.6004 5.71733 57.3352 5.0142 57.3352 4.20455C57.3352 3.44223 57.5767 2.76515 58.0597 2.1733C58.5426 1.5767 59.2031 1.10795 60.0412 0.767045C60.8793 0.426136 61.8333 0.255681 62.9034 0.255681C63.9735 0.255681 64.9276 0.428503 65.7656 0.774148C66.6037 1.11506 67.2642 1.58381 67.7472 2.1804C68.2301 2.77225 68.4716 3.44697 68.4716 4.20455C68.4716 5.01894 68.2017 5.72206 67.6619 6.31392C67.1222 6.90578 66.4451 7.27273 65.6307 7.41477V7.52841C66.2557 7.62311 66.8239 7.83617 67.3352 8.16761C67.8466 8.49432 68.2538 8.90625 68.5568 9.40341C68.8598 9.90057 69.0114 10.4498 69.0114 11.0511C69.0114 11.8371 68.7462 12.5426 68.2159 13.1676C67.6903 13.7926 66.9659 14.2874 66.0426 14.652C65.1241 15.0166 64.0777 15.1989 62.9034 15.1989ZM62.9034 12.4716C63.2775 12.4716 63.6089 12.3958 63.8977 12.2443C64.1866 12.0928 64.4138 11.8845 64.5795 11.6193C64.75 11.3494 64.8352 11.0464 64.8352 10.7102C64.8352 10.3741 64.75 10.0758 64.5795 9.81534C64.4138 9.55492 64.1866 9.35133 63.8977 9.20455C63.6089 9.05303 63.2775 8.97727 62.9034 8.97727C62.5341 8.97727 62.2027 9.05303 61.9091 9.20455C61.6203 9.35133 61.3906 9.55492 61.2202 9.81534C61.0545 10.0758 60.9716 10.3741 60.9716 10.7102C60.9716 11.0464 61.0545 11.3471 61.2202 11.6122C61.3906 11.8774 61.6203 12.0881 61.9091 12.2443C62.2027 12.3958 62.5341 12.4716 62.9034 12.4716ZM62.9034 6.25C63.2348 6.25 63.5284 6.18134 63.7841 6.04403C64.0398 5.90672 64.241 5.71733 64.3878 5.47585C64.5346 5.23437 64.608 4.96212 64.608 4.65909C64.608 4.35606 64.5346 4.08854 64.3878 3.85653C64.241 3.61979 64.0398 3.43513 63.7841 3.30256C63.5284 3.16525 63.2348 3.09659 62.9034 3.09659C62.5767 3.09659 62.2831 3.16525 62.0227 3.30256C61.767 3.43513 61.5658 3.61979 61.419 3.85653C61.2723 4.08854 61.1989 4.35606 61.1989 4.65909C61.1989 4.96212 61.2723 5.23437 61.419 5.47585C61.5658 5.71259 61.767 5.90199 62.0227 6.04403C62.2831 6.18134 62.5767 6.25 62.9034 6.25Z" fill="black"/>
<path d="M0 9.86719H50.9279" stroke="black" stroke-width="3.99809"/>
<path d="M52.7545 9.80727C52.7545 10.2529 52.3929 10.6138 51.9472 10.6138C51.5015 10.6138 51.1406 10.2529 51.1406 9.80727C51.1406 9.36159 51.5015 9 51.9472 9C52.3929 9 52.7545 9.36159 52.7545 9.80727Z" fill="black" stroke="black" stroke-width="3.99809" stroke-linecap="round" stroke-linejoin="round"/>
</svg>
