<svg width="81" height="20" viewBox="0 0 81 20" fill="none" xmlns="http://www.w3.org/2000/svg">
<path d="M64.0966 4.45455V19H60.1477V8.09091H60.0625L56.8807 9.99432V6.64205L60.4602 4.45455H64.0966ZM73.0183 19.3977C71.6973 19.393 70.5562 19.0876 69.595 18.4815C68.6339 17.8755 67.8929 17.0019 67.372 15.8608C66.8512 14.7197 66.5931 13.3513 66.5979 11.7557C66.6026 10.1553 66.863 8.7964 67.3791 7.67898C67.9 6.56155 68.6386 5.71165 69.595 5.12926C70.5562 4.54687 71.6973 4.25568 73.0183 4.25568C74.3393 4.25568 75.4804 4.54924 76.4416 5.13636C77.4028 5.71875 78.1438 6.56865 78.6646 7.68608C79.1855 8.8035 79.4435 10.16 79.4388 11.7557C79.4388 13.3608 79.1784 14.7339 78.6575 15.875C78.1367 17.0161 77.3957 17.8897 76.4345 18.4957C75.4781 19.0971 74.3393 19.3977 73.0183 19.3977ZM73.0183 16.1875C73.7001 16.1875 74.2589 15.8324 74.6945 15.1222C75.1348 14.4072 75.3526 13.285 75.3479 11.7557C75.3479 10.7566 75.2484 9.93987 75.0496 9.3054C74.8507 8.67093 74.5761 8.20218 74.2257 7.89915C73.8753 7.59138 73.4729 7.4375 73.0183 7.4375C72.3365 7.4375 71.7802 7.78314 71.3493 8.47443C70.9184 9.16572 70.6982 10.2595 70.6888 11.7557C70.684 12.7737 70.7811 13.6117 70.98 14.2699C71.1788 14.9233 71.4535 15.4062 71.8038 15.7188C72.1589 16.0312 72.5638 16.1875 73.0183 16.1875Z" fill="black"/>
<path d="M0 13.8672H50.9279" stroke="black" stroke-width="3.99809"/>
<path d="M52.7545 13.8073C52.7545 14.2529 52.3929 14.6138 51.9472 14.6138C51.5015 14.6138 51.1406 14.2529 51.1406 13.8073C51.1406 13.3616 51.5015 13 51.9472 13C52.3929 13 52.7545 13.3616 52.7545 13.8073Z" fill="black" stroke="black" stroke-width="3.99809" stroke-linecap="round" stroke-linejoin="round"/>
</svg>
