<svg width="69" height="20" viewBox="0 0 69 20" fill="none" xmlns="http://www.w3.org/2000/svg">
<path d="M62.7898 19.1989C61.6723 19.1989 60.6804 19.0024 59.8139 18.6094C58.9522 18.2116 58.2727 17.6648 57.7756 16.9688C57.2831 16.2727 57.0322 15.4725 57.0227 14.5682H60.858C60.8722 15.0701 61.0663 15.4702 61.4403 15.7685C61.8191 16.0668 62.2689 16.2159 62.7898 16.2159C63.1922 16.2159 63.5473 16.1307 63.8551 15.9602C64.1629 15.785 64.4044 15.5388 64.5795 15.2216C64.7547 14.9044 64.84 14.535 64.8352 14.1136C64.84 13.6875 64.7547 13.3182 64.5795 13.0057C64.4044 12.6884 64.1629 12.4446 63.8551 12.2741C63.5473 12.099 63.1922 12.0114 62.7898 12.0114C62.3731 12.0114 61.9872 12.1132 61.6321 12.3168C61.2817 12.5156 61.0237 12.7926 60.858 13.1477L57.392 12.4659L57.9602 4.45455H67.733V7.60795H61.1989L60.9148 10.8182H61C61.2273 10.3778 61.6203 10.0133 62.179 9.72443C62.7377 9.43087 63.3864 9.28409 64.125 9.28409C64.9915 9.28409 65.7633 9.48532 66.4403 9.88778C67.1222 10.2902 67.6596 10.8466 68.0526 11.5568C68.4503 12.2623 68.6468 13.0767 68.642 14C68.6468 15.0133 68.4053 15.9129 67.9176 16.6989C67.4347 17.4801 66.7552 18.0933 65.8793 18.5384C65.0033 18.9787 63.9735 19.1989 62.7898 19.1989Z" fill="black"/>
<path d="M0 13.8672H50.9279" stroke="black" stroke-width="3.99809"/>
<path d="M52.7545 13.8073C52.7545 14.2529 52.3929 14.6138 51.9472 14.6138C51.5015 14.6138 51.1406 14.2529 51.1406 13.8073C51.1406 13.3616 51.5015 13 51.9472 13C52.3929 13 52.7545 13.3616 52.7545 13.8073Z" fill="black" stroke="black" stroke-width="3.99809" stroke-linecap="round" stroke-linejoin="round"/>
</svg>
