<svg width="69" height="20" viewBox="0 0 69 20" fill="none" xmlns="http://www.w3.org/2000/svg">
<path d="M63.0455 19.1989C62.1979 19.1989 61.393 19.0663 60.6307 18.8011C59.8731 18.5312 59.2008 18.1075 58.6136 17.5298C58.0265 16.9522 57.5649 16.1993 57.2287 15.2713C56.8973 14.3433 56.7339 13.2187 56.7386 11.8977C56.7434 10.7187 56.8949 9.65814 57.1932 8.71591C57.4962 7.77367 57.9247 6.97112 58.4787 6.30824C59.0374 5.64536 59.705 5.13873 60.4815 4.78835C61.258 4.43324 62.1222 4.25568 63.0739 4.25568C64.1439 4.25568 65.0862 4.46165 65.9006 4.87358C66.715 5.28551 67.3636 5.83712 67.8466 6.52841C68.3343 7.21496 68.6184 7.97254 68.6989 8.80114H64.8068C64.7169 8.3892 64.5085 8.08854 64.1818 7.89915C63.8598 7.70502 63.4905 7.60795 63.0739 7.60795C62.2453 7.60795 61.6368 7.9678 61.2486 8.6875C60.8651 9.4072 60.6686 10.3542 60.6591 11.5284H60.7443C60.929 11.0833 61.2083 10.7022 61.5824 10.3849C61.9564 10.0677 62.392 9.82386 62.8892 9.65341C63.3864 9.48295 63.9119 9.39773 64.4659 9.39773C65.3466 9.39773 66.116 9.59659 66.7741 9.99432C67.437 10.392 67.9531 10.9366 68.3224 11.6278C68.6918 12.3191 68.8741 13.1098 68.8693 14C68.8741 15.0417 68.6278 15.9531 68.1307 16.7344C67.6383 17.5156 66.9541 18.1217 66.0781 18.5526C65.2022 18.9834 64.1913 19.1989 63.0455 19.1989ZM63.017 16.2159C63.41 16.2159 63.758 16.1259 64.0611 15.946C64.3688 15.7661 64.608 15.5199 64.7784 15.2074C64.9536 14.8949 65.0388 14.5398 65.0341 14.142C65.0388 13.7396 64.9536 13.3845 64.7784 13.0767C64.608 12.7642 64.3688 12.518 64.0611 12.3381C63.758 12.1581 63.41 12.0682 63.017 12.0682C62.7282 12.0682 62.4607 12.1203 62.2145 12.2244C61.973 12.3239 61.7623 12.4683 61.5824 12.6577C61.4025 12.8423 61.2604 13.0625 61.1562 13.3182C61.0568 13.5691 61.0047 13.8437 61 14.142C61.0047 14.5398 61.0947 14.8949 61.2699 15.2074C61.4451 15.5199 61.6842 15.7661 61.9872 15.946C62.2902 16.1259 62.6335 16.2159 63.017 16.2159Z" fill="black"/>
<path d="M0 13.8672H50.9279" stroke="black" stroke-width="3.99809"/>
<path d="M52.7545 13.8073C52.7545 14.2529 52.3929 14.6138 51.9472 14.6138C51.5015 14.6138 51.1406 14.2529 51.1406 13.8073C51.1406 13.3616 51.5015 13 51.9472 13C52.3929 13 52.7545 13.3616 52.7545 13.8073Z" fill="black" stroke="black" stroke-width="3.99809" stroke-linecap="round" stroke-linejoin="round"/>
</svg>
