<svg width="48" height="36" viewBox="0 0 48 36" fill="none" xmlns="http://www.w3.org/2000/svg">
<path d="M33.5038 10.6504C39.7177 12.124 44.306 16.9799 44.306 22.808C44.306 24.3071 43.9956 25.7705 43.4138 27.1041L46.9485 32.3367C47.3714 32.9678 46.8312 33.8077 46.1076 33.6423L39.5148 32.1076C37.1828 34.0546 33.428 35.4314 29.5388 35.4314C22.9045 35.4314 17.2553 31.6953 15.4023 26.4984C16.0355 26.6638 16.6735 26.7885 17.3237 26.8674C19.2598 30.8809 23.9825 33.7466 29.5388 33.7466C33.0662 33.7466 36.3761 32.581 38.8255 30.5475C39.0112 30.3897 39.263 30.3286 39.4977 30.3821L44.416 31.5299L41.8297 27.6996C41.6537 27.4451 41.6293 27.1117 41.7637 26.8394C42.37 25.5618 42.6902 24.2027 42.6902 22.808C42.6902 18.1023 39.0772 14.0429 34 12.5185C33.8925 11.8771 33.7238 11.2561 33.5038 10.6504Z" fill="#460BFF"/>
<mask id="mask0_526_880" style="mask-type:luminance" maskUnits="userSpaceOnUse" x="0" y="0" width="37" height="30">
<path d="M0 0H36.2958V29.2323H0V0Z" fill="white"/>
</mask>
<g mask="url(#mask0_526_880)">
<path d="M4.31438 19.3202C3.71792 18.0756 3.3048 16.2712 3.3048 14.3955C3.3048 6.46263 10.6041 0.0898438 19.546 0.0898438C28.4782 0.0898438 35.7774 6.46263 35.7774 14.3955C35.7774 22.3284 28.4782 28.7012 19.546 28.7012C15.4026 28.7012 11.4963 27.332 8.52624 24.904L1.20987 26.6575C0.493637 26.8331 -0.0539286 26.0009 0.359191 25.3697L4.31438 19.3202ZM19.546 1.77212C11.4376 1.77212 4.92061 7.46028 4.92061 14.3955C4.92061 16.0167 5.27506 17.5845 5.95708 19.058C6.08419 19.3304 6.0573 19.6536 5.88863 19.9004L2.87702 24.5273L8.5409 23.1683C8.78535 23.1174 9.03958 23.1785 9.2327 23.3439C11.951 25.6751 15.6226 27.0164 19.546 27.0164C27.6446 27.0164 34.1616 21.3282 34.1616 14.3955C34.1616 7.46028 27.6446 1.77212 19.546 1.77212Z" fill="#460BFF"/>
</g>
<path fill-rule="evenodd" clip-rule="evenodd" d="M13.9548 14.3958C13.9548 15.3247 13.2312 16.078 12.339 16.078C11.4467 16.078 10.7207 15.3247 10.7207 14.3958C10.7207 13.4668 11.4467 12.7109 12.339 12.7109C13.2312 12.7109 13.9548 13.4668 13.9548 14.3958Z" fill="#460BFF"/>
<path fill-rule="evenodd" clip-rule="evenodd" d="M21.2302 14.3958C21.2302 15.3247 20.5041 16.078 19.6119 16.078C18.7197 16.078 17.9961 15.3247 17.9961 14.3958C17.9961 13.4668 18.7197 12.7109 19.6119 12.7109C20.5041 12.7109 21.2302 13.4668 21.2302 14.3958Z" fill="#460BFF"/>
<path fill-rule="evenodd" clip-rule="evenodd" d="M28.5031 14.3958C28.5031 15.3247 27.7795 16.078 26.8873 16.078C25.9951 16.078 25.2715 15.3247 25.2715 14.3958C25.2715 13.4668 25.9951 12.7109 26.8873 12.7109C27.7795 12.7109 28.5031 13.4668 28.5031 14.3958Z" fill="#460BFF"/>
</svg>
