<svg width="111" height="38" viewBox="0 0 111 38" fill="none" xmlns="http://www.w3.org/2000/svg">
<g clip-path="url(#clip0_764_3946)">
<path d="M15.9004 30.2169H96.2826C103.589 30.2169 109.51 24.2926 109.51 16.9895C109.51 9.6829 103.589 3.76196 96.2826 3.76196H15.9004V30.2169Z" fill="#460BFF"/>
<mask id="mask0_764_3946" style="mask-type:luminance" maskUnits="userSpaceOnUse" x="0" y="0" width="36" height="34">
<path d="M0.796875 0.135742H35.1904V33.681H0.796875V0.135742Z" fill="white"/>
</mask>
<g mask="url(#mask0_764_3946)">
<path d="M34.5141 16.9895C34.5141 17.5403 34.4871 18.0912 34.433 18.6421C34.3789 19.1896 34.2978 19.7337 34.1897 20.2778C34.0815 20.8185 33.9463 21.3525 33.7875 21.8797C33.6287 22.4102 33.4428 22.9273 33.2299 23.4376C33.0204 23.9479 32.7838 24.4447 32.5236 24.9348C32.2633 25.4214 31.9795 25.8912 31.6719 26.3508C31.3678 26.8104 31.0366 27.2531 30.6885 27.6789C30.337 28.1081 29.9686 28.5137 29.5766 28.9057C29.188 29.2944 28.779 29.6661 28.3532 30.0176C27.924 30.3657 27.4813 30.6935 27.0251 31.001C26.5654 31.3086 26.0923 31.5924 25.6057 31.8527C25.119 32.1129 24.6188 32.3461 24.1085 32.559C23.5982 32.7685 23.0811 32.9544 22.5539 33.1166C22.0233 33.2754 21.4894 33.4106 20.9487 33.5188C20.4079 33.6235 19.8604 33.7046 19.313 33.7587C18.7621 33.8128 18.2112 33.8398 17.6604 33.8398C17.1095 33.8398 16.5586 33.8128 16.0078 33.7587C15.4603 33.7046 14.9128 33.6235 14.3721 33.5188C13.8314 33.4106 13.2974 33.2754 12.7702 33.1166C12.2396 32.9544 11.7225 32.7685 11.2122 32.559C10.7019 32.3461 10.2017 32.1129 9.71509 31.8527C9.22844 31.5924 8.7553 31.3086 8.29907 31.001C7.83945 30.6935 7.39673 30.3657 6.97091 30.0176C6.54171 29.6661 6.13617 29.2944 5.74414 28.9057C5.35549 28.5137 4.98374 28.1081 4.63227 27.6789C4.28418 27.2531 3.95637 26.8104 3.64883 26.3508C3.34129 25.8912 3.05741 25.4214 2.79719 24.9348C2.53696 24.4447 2.30377 23.9479 2.09086 23.4376C1.88133 22.9273 1.69546 22.4102 1.53324 21.8797C1.3744 21.3525 1.23922 20.8185 1.13108 20.2778C1.02293 19.7337 0.941822 19.1896 0.887749 18.6421C0.833677 18.0912 0.806641 17.5403 0.806641 16.9895C0.806641 16.4386 0.833677 15.8877 0.887749 15.3369C0.941822 14.7894 1.02293 14.2419 1.13108 13.7012C1.23922 13.1605 1.3744 12.6265 1.53324 12.0959C1.69546 11.5687 1.88133 11.0483 2.09086 10.5413C2.30377 10.031 2.53696 9.53084 2.79719 9.04419C3.05741 8.55754 3.34129 8.0844 3.64883 7.62479C3.95637 7.16855 4.28418 6.72583 4.63227 6.29663C4.98374 5.87081 5.35549 5.46189 5.74414 5.07324C6.13617 4.68121 6.54171 4.31285 6.97091 3.96137C7.39673 3.61328 7.83945 3.28209 8.29907 2.97793C8.7553 2.67039 9.22844 2.38651 9.71509 2.12629C10.2017 1.86606 10.7019 1.6295 11.2122 1.41996C11.7225 1.20705 12.2396 1.02118 12.7702 0.862342C13.2974 0.703504 13.8314 0.568322 14.3721 0.460177C14.9128 0.352032 15.4603 0.270924 16.0078 0.216851C16.5586 0.162778 17.1095 0.135742 17.6604 0.135742C18.2112 0.135742 18.7621 0.162778 19.313 0.216851C19.8604 0.270924 20.4079 0.352032 20.9487 0.460177C21.4894 0.568322 22.0233 0.703504 22.5539 0.862342C23.0811 1.02118 23.5982 1.20705 24.1085 1.41996C24.6188 1.6295 25.119 1.86606 25.6057 2.12629C26.0923 2.38651 26.5654 2.67039 27.0251 2.97793C27.4813 3.28209 27.924 3.61328 28.3532 3.96137C28.779 4.31285 29.188 4.68121 29.5766 5.07324C29.9686 5.46189 30.337 5.87081 30.6885 6.29663C31.0366 6.72583 31.3678 7.16855 31.6719 7.62479C31.9795 8.0844 32.2633 8.55754 32.5236 9.04419C32.7838 9.53084 33.0204 10.031 33.2299 10.5413C33.4428 11.0483 33.6287 11.5687 33.7875 12.0959C33.9463 12.6265 34.0815 13.1605 34.1897 13.7012C34.2978 14.2419 34.3789 14.7894 34.433 15.3369C34.4871 15.8877 34.5141 16.4386 34.5141 16.9895Z" fill="white"/>
</g>
<path d="M17.6611 31.8898C9.44546 31.8898 2.76074 25.2051 2.76074 16.9894C2.76074 8.77041 9.44546 2.08569 17.6611 2.08569C25.8801 2.08569 32.5615 8.77041 32.5615 16.9894C32.5615 25.2051 25.8801 31.8898 17.6611 31.8898ZM17.6611 2.51151C9.67865 2.51151 3.18318 9.00698 3.18318 16.9894C3.18318 24.9719 9.67865 31.4674 17.6611 31.4674C25.6436 31.4674 32.139 24.9719 32.139 16.9894C32.139 9.00698 25.6436 2.51151 17.6611 2.51151Z" fill="#460BFF"/>
<path d="M49.2388 15.7965C49.2388 17.2396 48.0762 18.3988 46.5791 18.3988H45.4402V20.7881H43.7031V13.1909H46.5791C48.0762 13.1909 49.2388 14.3535 49.2388 15.7965ZM47.5017 15.7965C47.5017 15.2423 47.1097 14.8199 46.5791 14.8199H45.4402V16.7732H46.5791C47.1097 16.7732 47.5017 16.3474 47.5017 15.7965Z" fill="#FFFAF3"/>
<path d="M54.5549 19.1152V20.7881H50.1074V13.1909H51.8411V19.1152H54.5549Z" fill="#FFFAF3"/>
<path d="M59.9796 19.5918H57.1577L56.7792 20.7881H54.8799L57.4618 13.1909H59.6754L62.2574 20.7881H60.3581L59.9796 19.5918ZM59.4592 17.9662L58.5703 15.1781L57.6815 17.9662H59.4592Z" fill="#FFFAF3"/>
<path d="M65.566 17.8682V20.7881H63.8323V17.8682L61.2842 13.1909H63.2578L64.7009 16.121L66.1439 13.1909H68.1176L65.566 17.8682Z" fill="#FFFAF3"/>
<path d="M77.4483 13.1909V20.7881H76.1472L73.2171 16.6651V20.7881H71.4834V13.1909H72.7845L75.7112 17.3139V13.1909H77.4483Z" fill="#FFFAF3"/>
<path d="M78.4248 16.9895C78.4248 14.7556 80.1923 13.0388 82.3721 13.0388C84.5553 13.0388 86.3228 14.7556 86.3228 16.9895C86.3228 19.2234 84.5553 20.9402 82.3721 20.9402C80.1923 20.9402 78.4248 19.2234 78.4248 16.9895ZM84.5857 16.9895C84.5857 15.6343 83.6124 14.732 82.3721 14.732C81.1352 14.732 80.1585 15.6343 80.1585 16.9895C80.1585 18.3447 81.1352 19.247 82.3721 19.247C83.609 19.247 84.5891 18.3447 84.5891 16.9895H84.5857Z" fill="#FFFAF3"/>
<path d="M86.4307 13.1909H88.2556L89.5669 18.5069L91.0336 13.1909H92.4395L93.9062 18.5069L95.2208 13.1909H97.0424L94.9471 20.7881H92.9734L91.7365 16.3068L90.4996 20.7881H88.526L86.4307 13.1909Z" fill="#FFFAF3"/>
<path d="M12.3211 16.9896C12.3211 15.3167 12.3481 13.6404 12.311 11.9676C12.2805 10.4265 13.923 9.49713 15.2444 10.2541C18.2285 11.954 21.2262 13.6269 24.2137 15.3201C25.3188 15.9453 25.5722 17.3106 24.7476 18.2265C24.6023 18.3887 24.43 18.5239 24.2373 18.632C21.2296 20.3353 18.2184 22.0352 15.2038 23.7317C13.8757 24.4752 12.3211 23.5492 12.3211 22.0284C12.3177 20.3488 12.3177 18.6692 12.3211 16.9896Z" fill="#460BFF"/>
</g>
<defs>
<clipPath id="clip0_764_3946">
<rect width="109.659" height="36.9856" fill="white" transform="translate(0.583984 0.135742)"/>
</clipPath>
</defs>
</svg>
