<svg width="35" height="40" viewBox="0 0 35 40" fill="none" xmlns="http://www.w3.org/2000/svg">
<mask id="mask0_526_931" style="mask-type:luminance" maskUnits="userSpaceOnUse" x="0" y="0" width="35" height="40">
<path d="M0.269531 0.669922H34.3377V39.4374H0.269531V0.669922Z" fill="white"/>
</mask>
<g mask="url(#mask0_526_931)">
<path fill-rule="evenodd" clip-rule="evenodd" d="M17.0777 18.2699L15.3528 19.9445C15.107 20.1827 14.7143 20.1872 14.4616 19.9578L13.7014 19.2631C13.3385 19.4501 12.9573 19.6038 12.5622 19.7196L12.5301 20.7327C12.5209 21.069 12.2407 21.3339 11.8916 21.3339H9.45008C9.10326 21.3339 8.82076 21.069 8.80927 20.7327L8.77712 19.7196C8.38437 19.6038 8.00081 19.4501 7.64021 19.2631L6.87998 19.9578C6.62504 20.1894 6.23688 20.1827 5.98653 19.9445L4.26165 18.2699C4.0136 18.0317 4.009 17.6509 4.24787 17.406L4.96446 16.6689C4.76694 16.3171 4.61306 15.9475 4.49133 15.5645L3.45089 15.5355C3.09948 15.5244 2.83075 15.2527 2.83075 14.9143V12.5472C2.83075 12.2088 3.09948 11.9371 3.45089 11.9282L4.49133 11.897C4.61306 11.5163 4.76694 11.1466 4.96446 10.7948L4.24787 10.0577C4.009 9.8128 4.0136 9.43203 4.26165 9.19154L5.98653 7.51926C6.23688 7.27878 6.62504 7.27432 6.87998 7.5059L7.64021 8.19842C8.0054 8.01137 8.38437 7.85773 8.77712 7.74194L8.80927 6.731C8.82076 6.39253 9.10097 6.12755 9.45008 6.12755H11.8916C12.2407 6.12755 12.5209 6.39253 12.5301 6.731L12.5622 7.74194C12.955 7.85773 13.3362 8.01137 13.7014 8.19842L14.4616 7.50368C14.7143 7.27432 15.107 7.27878 15.3528 7.51704L17.0823 9.19154C17.328 9.4298 17.3349 9.81057 17.0938 10.0577L16.3795 10.7948C16.5724 11.1466 16.7263 11.5163 16.848 11.897L17.893 11.9282C18.2422 11.9371 18.5155 12.211 18.5155 12.5472V13.2264H21.1591V9.79721C21.1591 8.73061 22.0525 7.86441 23.1504 7.86441H24.579C24.7995 7.20975 25.4334 6.73323 26.1844 6.73323C27.1146 6.73323 27.8725 7.46582 27.8725 8.36988C27.8725 9.2717 27.1146 10.0043 26.1844 10.0043C25.4334 10.0043 24.7995 9.53001 24.579 8.87312H23.1504C22.6267 8.87312 22.2018 9.28729 22.2018 9.79499V13.2264H24.579C24.7995 12.5695 25.4334 12.0952 26.1844 12.0952C27.1146 12.0952 27.8725 12.8278 27.8725 13.7319C27.8725 14.6337 27.1146 15.3663 26.1844 15.3663C25.4334 15.3663 24.7995 14.892 24.579 14.2351H22.2018V17.6643C22.2018 18.1742 22.6267 18.5884 23.1504 18.5884H24.579C24.7995 17.9315 25.4334 17.455 26.1844 17.455C27.1146 17.455 27.8725 18.1898 27.8725 19.0916C27.8725 19.9934 27.1146 20.7283 26.1844 20.7283C25.4334 20.7283 24.7995 20.2517 24.579 19.5971H23.1504C22.0525 19.5971 21.1591 18.7309 21.1591 17.6643V14.2351H18.5155V14.9143C18.5155 15.2527 18.2422 15.5244 17.893 15.5333L16.848 15.5667C16.7263 15.9475 16.5724 16.3171 16.3795 16.6689L17.0938 17.406C17.3326 17.6531 17.3257 18.0317 17.0777 18.2699ZM25.5344 8.36988C25.5344 8.71502 25.8238 8.99559 26.1821 8.99559C26.5358 8.99559 26.8275 8.71502 26.8275 8.36988C26.8275 8.02473 26.5358 7.74416 26.1821 7.74416C25.8238 7.74194 25.5344 8.02473 25.5344 8.36988ZM26.1821 18.4681C25.8261 18.4681 25.5344 18.7487 25.5344 19.0938C25.5344 19.439 25.8261 19.7196 26.1821 19.7196C26.5381 19.7196 26.8275 19.439 26.8275 19.0938C26.8275 18.7487 26.5381 18.4681 26.1821 18.4681ZM25.5344 13.7319C25.5344 14.077 25.8238 14.3576 26.1821 14.3576C26.5358 14.3576 26.8275 14.077 26.8275 13.7319C26.8275 13.3867 26.5358 13.1061 26.1821 13.1061C25.8238 13.1039 25.5344 13.3867 25.5344 13.7319ZM10.6697 15.177C11.0716 15.177 11.4437 15.0256 11.7262 14.7539C12.3073 14.1906 12.3073 13.2731 11.7262 12.7098C11.4437 12.4359 11.0716 12.2867 10.6697 12.2867C10.2746 12.2867 9.89795 12.4359 9.61774 12.7098C9.33294 12.9814 9.18135 13.3466 9.18135 13.7319C9.18135 14.1171 9.33524 14.48 9.61774 14.7539C9.89795 15.0278 10.2723 15.177 10.6697 15.177ZM10.6697 16.9651C11.5608 16.9651 12.4014 16.6266 13.0262 16.0165C14.3284 14.7562 14.3284 12.7053 13.0262 11.4472C12.3991 10.8349 11.5608 10.4986 10.6697 10.4986C9.78081 10.4986 8.94478 10.8349 8.31317 11.4472C7.01319 12.7076 7.01319 14.7584 8.31317 16.0165C8.94478 16.6266 9.78081 16.9651 10.6697 16.9651ZM12.4635 15.4687C13.4488 14.5112 13.4488 12.9525 12.4635 11.995C11.9857 11.5318 11.3472 11.2758 10.6697 11.2758C9.99441 11.2758 9.3582 11.5318 8.88047 11.995C8.40274 12.4604 8.14091 13.0772 8.14091 13.7319C8.14091 14.3865 8.40274 15.0033 8.88047 15.4687C9.3582 15.9319 9.99441 16.1879 10.6697 16.1879C11.3472 16.1857 11.9857 15.9319 12.4635 15.4687ZM14.8911 18.9647L16.0694 17.8224L15.4194 17.1521C15.2219 16.9473 15.1874 16.6489 15.3344 16.4106C15.5963 15.9809 15.7961 15.5177 15.9224 15.0345C15.9936 14.7628 16.2348 14.5758 16.5219 14.5669L17.4727 14.5379V12.9258L16.5219 12.8968C16.2348 12.8879 15.9936 12.6987 15.9224 12.4292C15.7961 11.946 15.5963 11.4829 15.3344 11.0531C15.1874 10.8126 15.2219 10.5164 15.4194 10.3116L16.0694 9.64134L14.8911 8.49903L14.1998 9.13142C13.9885 9.32069 13.6807 9.35409 13.435 9.21158C12.9917 8.95773 12.514 8.76624 12.0133 8.64154C11.7331 8.57251 11.5401 8.3387 11.5333 8.05813L11.5034 7.13849H9.83823L9.80837 8.05813C9.80148 8.3387 9.60626 8.57251 9.32835 8.64154C8.82765 8.76624 8.34992 8.95773 7.90664 9.21158C7.65859 9.35409 7.35082 9.32069 7.14181 9.13142L6.45048 8.49903L5.27223 9.64134L5.92452 10.3094C6.12434 10.512 6.1542 10.8126 6.0095 11.0531C5.74537 11.4806 5.55014 11.946 5.42152 12.4314C5.35032 12.7031 5.10686 12.8902 4.81977 12.8991L3.8689 12.9258V14.5379L4.81977 14.5669C5.10686 14.5758 5.35032 14.7628 5.42152 15.0345C5.55014 15.5177 5.74537 15.9831 6.0095 16.4128C6.1542 16.6511 6.12434 16.9517 5.92452 17.1544L5.27223 17.8246L6.45048 18.9647L7.14181 18.3345C7.35312 18.143 7.65859 18.1096 7.90664 18.2521C8.34992 18.5082 8.82765 18.6997 9.32835 18.8222C9.60855 18.8912 9.79919 19.125 9.80837 19.4056L9.83823 20.3252H11.5034L11.5333 19.4056C11.5424 19.125 11.7377 18.8912 12.0133 18.8222C12.514 18.6997 12.9917 18.5082 13.435 18.2521C13.683 18.1096 13.9885 18.143 14.1998 18.3345L14.8911 18.9647ZM13.7634 16.7313C15.4676 15.0768 15.4676 12.3847 13.7634 10.7324C12.9389 9.93082 11.8387 9.48992 10.6697 9.48992C9.5006 9.48992 8.40045 9.93082 7.5759 10.7324C5.8694 12.3869 5.8694 15.0768 7.5759 16.7313C8.40045 17.5329 9.5006 17.9738 10.6697 17.9738C11.8387 17.9738 12.9389 17.5329 13.7634 16.7313ZM27.2754 5.68889C22.2202 1.42246 15.6031 -0.0494132 10.0036 1.84777C5.15969 3.4911 1.81787 7.39011 0.841743 12.5406C0.171083 16.0722 2.45408 20.0736 4.65899 23.9437C5.10457 24.7253 5.52717 25.4668 5.92911 26.2083C5.9383 26.2283 5.94978 26.2483 5.95667 26.2706C7.5805 30.6506 7.09358 35.8634 4.78302 39.5709H22.7875V34.7077C22.7875 34.5719 22.8449 34.4427 22.9437 34.3492C23.0424 34.2535 23.1779 34.2045 23.3157 34.2022C29.0715 34.2713 30.9227 33.336 31.4578 32.5433C31.9447 31.8219 31.5244 30.9067 31.1891 30.1719C30.9181 29.5884 30.6838 29.083 31.0467 28.6978C31.3476 28.3704 31.4394 27.9607 31.3085 27.5421C31.1707 27.1056 31.4188 26.7783 31.6025 26.54C31.8299 26.2417 32.0113 26.0056 31.8046 25.44C31.3545 24.1864 31.8758 23.8346 32.7302 23.4427C32.9461 23.3447 33.1919 23.2311 33.4698 23.073C34.0164 22.7613 34.2048 22.0799 33.8855 21.5477L31.0306 16.8114C30.9525 16.6778 30.9388 16.5131 30.9985 16.3683C32.6292 12.4626 31.5129 9.26948 27.2754 5.68889Z" fill="#460BFF"/>
</g>
</svg>
