<svg width="309" height="58" viewBox="0 0 309 58" fill="none" xmlns="http://www.w3.org/2000/svg">
<g filter="url(#filter0_d_731_3730)">
<rect x="4" width="301" height="49.3516" rx="24.6758" fill="#F5F6FA"/>
<path d="M31.4648 34.5254L31.6016 24.3203H33.2324L33.3691 34.5254H31.4648ZM33.4277 21.2734C33.4277 21.5599 33.3366 21.804 33.1543 22.0059C32.9785 22.2077 32.7148 22.3086 32.3633 22.3086C32.0182 22.3086 31.7513 22.2077 31.5625 22.0059C31.3802 21.804 31.2891 21.5599 31.2891 21.2734C31.2891 20.987 31.3802 20.7461 31.5625 20.5508C31.7513 20.349 32.0182 20.248 32.3633 20.248C32.7148 20.248 32.9785 20.349 33.1543 20.5508C33.3366 20.7461 33.4277 20.987 33.4277 21.2734ZM45.752 22.8945V24.4277H38.0566V22.8945H45.752ZM38.3496 16.7812V31H36.4648V16.7812H38.3496ZM47.3926 16.7812V31H45.5176V16.7812H47.3926ZM49.9902 25.834V25.6094C49.9902 24.8477 50.1009 24.1413 50.3223 23.4902C50.5436 22.8327 50.8626 22.263 51.2793 21.7812C51.696 21.293 52.2005 20.9154 52.793 20.6484C53.3854 20.375 54.0495 20.2383 54.7852 20.2383C55.5273 20.2383 56.1947 20.375 56.7871 20.6484C57.3861 20.9154 57.8939 21.293 58.3105 21.7812C58.7337 22.263 59.056 22.8327 59.2773 23.4902C59.4987 24.1413 59.6094 24.8477 59.6094 25.6094V25.834C59.6094 26.5957 59.4987 27.3021 59.2773 27.9531C59.056 28.6042 58.7337 29.1738 58.3105 29.6621C57.8939 30.1439 57.3893 30.5215 56.7969 30.7949C56.2109 31.0618 55.5469 31.1953 54.8047 31.1953C54.0625 31.1953 53.3952 31.0618 52.8027 30.7949C52.2103 30.5215 51.7025 30.1439 51.2793 29.6621C50.8626 29.1738 50.5436 28.6042 50.3223 27.9531C50.1009 27.3021 49.9902 26.5957 49.9902 25.834ZM51.7969 25.6094V25.834C51.7969 26.3613 51.8587 26.8594 51.9824 27.3281C52.1061 27.7904 52.2917 28.2005 52.5391 28.5586C52.793 28.9167 53.1087 29.1999 53.4863 29.4082C53.8639 29.61 54.3034 29.7109 54.8047 29.7109C55.2995 29.7109 55.7324 29.61 56.1035 29.4082C56.4811 29.1999 56.7936 28.9167 57.041 28.5586C57.2884 28.2005 57.474 27.7904 57.5977 27.3281C57.7279 26.8594 57.793 26.3613 57.793 25.834V25.6094C57.793 25.0885 57.7279 24.597 57.5977 24.1348C57.474 23.666 57.2852 23.2526 57.0312 22.8945C56.7839 22.5299 56.4714 22.2435 56.0938 22.0352C55.7227 21.8268 55.2865 21.7227 54.7852 21.7227C54.2904 21.7227 53.8542 21.8268 53.4766 22.0352C53.1055 22.2435 52.793 22.5299 52.5391 22.8945C52.2917 23.2526 52.1061 23.666 51.9824 24.1348C51.8587 24.597 51.7969 25.0885 51.7969 25.6094ZM63.6816 22.0938V31H61.875V20.4336H63.6328L63.6816 22.0938ZM66.9824 20.375L66.9727 22.0547C66.8229 22.0221 66.6797 22.0026 66.543 21.9961C66.4128 21.9831 66.263 21.9766 66.0938 21.9766C65.6771 21.9766 65.3092 22.0417 64.9902 22.1719C64.6712 22.3021 64.401 22.4844 64.1797 22.7188C63.9583 22.9531 63.7826 23.2331 63.6523 23.5586C63.5286 23.8776 63.4473 24.2292 63.4082 24.6133L62.9004 24.9062C62.9004 24.2682 62.9622 23.6693 63.0859 23.1094C63.2161 22.5495 63.4147 22.0547 63.6816 21.625C63.9486 21.1888 64.2871 20.8503 64.6973 20.6094C65.1139 20.362 65.6087 20.2383 66.1816 20.2383C66.3118 20.2383 66.4616 20.2546 66.6309 20.2871C66.8001 20.3132 66.9173 20.3424 66.9824 20.375ZM74.4922 29.1934V23.7539C74.4922 23.3372 74.4076 22.9759 74.2383 22.6699C74.0755 22.3574 73.8281 22.1165 73.4961 21.9473C73.1641 21.778 72.7539 21.6934 72.2656 21.6934C71.8099 21.6934 71.4095 21.7715 71.0645 21.9277C70.7259 22.084 70.459 22.2891 70.2637 22.543C70.0749 22.7969 69.9805 23.0703 69.9805 23.3633H68.1738C68.1738 22.9857 68.2715 22.6113 68.4668 22.2402C68.6621 21.8691 68.9421 21.5339 69.3066 21.2344C69.6777 20.9284 70.1204 20.6875 70.6348 20.5117C71.1556 20.3294 71.735 20.2383 72.373 20.2383C73.1413 20.2383 73.8184 20.3685 74.4043 20.6289C74.9967 20.8893 75.459 21.2832 75.791 21.8105C76.1296 22.3314 76.2988 22.9857 76.2988 23.7734V28.6953C76.2988 29.0469 76.3281 29.4212 76.3867 29.8184C76.4518 30.2155 76.5462 30.5573 76.6699 30.8438V31H74.7852C74.694 30.7917 74.6224 30.515 74.5703 30.1699C74.5182 29.8184 74.4922 29.4928 74.4922 29.1934ZM74.8047 24.5938L74.8242 25.8633H72.998C72.4837 25.8633 72.0247 25.9056 71.6211 25.9902C71.2174 26.0684 70.8789 26.1888 70.6055 26.3516C70.332 26.5143 70.1237 26.7194 69.9805 26.9668C69.8372 27.2077 69.7656 27.4909 69.7656 27.8164C69.7656 28.1484 69.8405 28.4512 69.9902 28.7246C70.14 28.998 70.3646 29.2161 70.6641 29.3789C70.9701 29.5352 71.3444 29.6133 71.7871 29.6133C72.3405 29.6133 72.8288 29.4961 73.252 29.2617C73.6751 29.0273 74.0104 28.7409 74.2578 28.4023C74.5117 28.0638 74.6484 27.735 74.668 27.416L75.4395 28.2852C75.3939 28.5586 75.2702 28.8613 75.0684 29.1934C74.8665 29.5254 74.5964 29.8444 74.2578 30.1504C73.9258 30.4499 73.5286 30.7005 73.0664 30.9023C72.6107 31.0977 72.0964 31.1953 71.5234 31.1953C70.8073 31.1953 70.179 31.0553 69.6387 30.7754C69.1048 30.4954 68.6882 30.1211 68.3887 29.6523C68.0957 29.1771 67.9492 28.6465 67.9492 28.0605C67.9492 27.4941 68.0599 26.9961 68.2812 26.5664C68.5026 26.1302 68.8216 25.7689 69.2383 25.4824C69.6549 25.1895 70.1562 24.9681 70.7422 24.8184C71.3281 24.6686 71.9824 24.5938 72.7051 24.5938H74.8047ZM90.7617 28.9492V16H92.5781V31H90.918L90.7617 28.9492ZM83.6523 25.834V25.6289C83.6523 24.8216 83.75 24.0892 83.9453 23.4316C84.1471 22.7676 84.4303 22.1979 84.7949 21.7227C85.166 21.2474 85.6055 20.8828 86.1133 20.6289C86.6276 20.3685 87.2005 20.2383 87.832 20.2383C88.4961 20.2383 89.0755 20.3555 89.5703 20.5898C90.0716 20.8177 90.4948 21.153 90.8398 21.5957C91.1914 22.0319 91.4681 22.5592 91.6699 23.1777C91.8717 23.7962 92.0117 24.4961 92.0898 25.2773V26.1758C92.0182 26.9505 91.8783 27.6471 91.6699 28.2656C91.4681 28.8841 91.1914 29.4115 90.8398 29.8477C90.4948 30.2839 90.0716 30.6191 89.5703 30.8535C89.069 31.0814 88.4831 31.1953 87.8125 31.1953C87.194 31.1953 86.6276 31.0618 86.1133 30.7949C85.6055 30.528 85.166 30.1536 84.7949 29.6719C84.4303 29.1901 84.1471 28.6237 83.9453 27.9727C83.75 27.3151 83.6523 26.6022 83.6523 25.834ZM85.4688 25.6289V25.834C85.4688 26.3613 85.5208 26.8561 85.625 27.3184C85.7357 27.7806 85.9049 28.1875 86.1328 28.5391C86.3607 28.8906 86.6504 29.1673 87.002 29.3691C87.3535 29.5645 87.7734 29.6621 88.2617 29.6621C88.8607 29.6621 89.3522 29.5352 89.7363 29.2812C90.127 29.0273 90.4395 28.6921 90.6738 28.2754C90.9082 27.8587 91.0905 27.4062 91.2207 26.918V24.5645C91.1426 24.2064 91.0286 23.8613 90.8789 23.5293C90.7357 23.1908 90.5469 22.8913 90.3125 22.6309C90.0846 22.3639 89.8014 22.1523 89.4629 21.9961C89.1309 21.8398 88.737 21.7617 88.2812 21.7617C87.7865 21.7617 87.36 21.8659 87.002 22.0742C86.6504 22.276 86.3607 22.556 86.1328 22.9141C85.9049 23.2656 85.7357 23.6758 85.625 24.1445C85.5208 24.6068 85.4688 25.1016 85.4688 25.6289ZM99.7754 31.1953C99.0397 31.1953 98.3724 31.0716 97.7734 30.8242C97.181 30.5703 96.6699 30.2155 96.2402 29.7598C95.8171 29.304 95.4915 28.7637 95.2637 28.1387C95.0358 27.5137 94.9219 26.8301 94.9219 26.0879V25.6777C94.9219 24.8184 95.0488 24.0534 95.3027 23.3828C95.5566 22.7057 95.9017 22.1328 96.3379 21.6641C96.7741 21.1953 97.2689 20.8405 97.8223 20.5996C98.3757 20.3587 98.9486 20.2383 99.541 20.2383C100.296 20.2383 100.947 20.3685 101.494 20.6289C102.048 20.8893 102.5 21.2539 102.852 21.7227C103.203 22.1849 103.464 22.7318 103.633 23.3633C103.802 23.9883 103.887 24.6719 103.887 25.4141V26.2246H95.9961V24.75H102.08V24.6133C102.054 24.1445 101.956 23.6888 101.787 23.2461C101.624 22.8034 101.364 22.4388 101.006 22.1523C100.648 21.8659 100.16 21.7227 99.541 21.7227C99.1309 21.7227 98.7533 21.8105 98.4082 21.9863C98.0632 22.1556 97.7669 22.4095 97.5195 22.748C97.2721 23.0866 97.0801 23.5 96.9434 23.9883C96.8066 24.4766 96.7383 25.0397 96.7383 25.6777V26.0879C96.7383 26.5892 96.8066 27.0612 96.9434 27.5039C97.0866 27.9401 97.2917 28.3242 97.5586 28.6562C97.832 28.9883 98.1608 29.2487 98.5449 29.4375C98.9355 29.6263 99.3783 29.7207 99.873 29.7207C100.511 29.7207 101.051 29.5905 101.494 29.3301C101.937 29.0697 102.324 28.7214 102.656 28.2852L103.75 29.1543C103.522 29.4993 103.232 29.8281 102.881 30.1406C102.529 30.4531 102.096 30.707 101.582 30.9023C101.074 31.0977 100.472 31.1953 99.7754 31.1953ZM112.764 22.0938V31H110.957V20.4336H112.715L112.764 22.0938ZM116.064 20.375L116.055 22.0547C115.905 22.0221 115.762 22.0026 115.625 21.9961C115.495 21.9831 115.345 21.9766 115.176 21.9766C114.759 21.9766 114.391 22.0417 114.072 22.1719C113.753 22.3021 113.483 22.4844 113.262 22.7188C113.04 22.9531 112.865 23.2331 112.734 23.5586C112.611 23.8776 112.529 24.2292 112.49 24.6133L111.982 24.9062C111.982 24.2682 112.044 23.6693 112.168 23.1094C112.298 22.5495 112.497 22.0547 112.764 21.625C113.031 21.1888 113.369 20.8503 113.779 20.6094C114.196 20.362 114.691 20.2383 115.264 20.2383C115.394 20.2383 115.544 20.2546 115.713 20.2871C115.882 20.3132 115.999 20.3424 116.064 20.375ZM117.061 25.834V25.6094C117.061 24.8477 117.171 24.1413 117.393 23.4902C117.614 22.8327 117.933 22.263 118.35 21.7812C118.766 21.293 119.271 20.9154 119.863 20.6484C120.456 20.375 121.12 20.2383 121.855 20.2383C122.598 20.2383 123.265 20.375 123.857 20.6484C124.456 20.9154 124.964 21.293 125.381 21.7812C125.804 22.263 126.126 22.8327 126.348 23.4902C126.569 24.1413 126.68 24.8477 126.68 25.6094V25.834C126.68 26.5957 126.569 27.3021 126.348 27.9531C126.126 28.6042 125.804 29.1738 125.381 29.6621C124.964 30.1439 124.46 30.5215 123.867 30.7949C123.281 31.0618 122.617 31.1953 121.875 31.1953C121.133 31.1953 120.465 31.0618 119.873 30.7949C119.281 30.5215 118.773 30.1439 118.35 29.6621C117.933 29.1738 117.614 28.6042 117.393 27.9531C117.171 27.3021 117.061 26.5957 117.061 25.834ZM118.867 25.6094V25.834C118.867 26.3613 118.929 26.8594 119.053 27.3281C119.176 27.7904 119.362 28.2005 119.609 28.5586C119.863 28.9167 120.179 29.1999 120.557 29.4082C120.934 29.61 121.374 29.7109 121.875 29.7109C122.37 29.7109 122.803 29.61 123.174 29.4082C123.551 29.1999 123.864 28.9167 124.111 28.5586C124.359 28.2005 124.544 27.7904 124.668 27.3281C124.798 26.8594 124.863 26.3613 124.863 25.834V25.6094C124.863 25.0885 124.798 24.597 124.668 24.1348C124.544 23.666 124.355 23.2526 124.102 22.8945C123.854 22.5299 123.542 22.2435 123.164 22.0352C122.793 21.8268 122.357 21.7227 121.855 21.7227C121.361 21.7227 120.924 21.8268 120.547 22.0352C120.176 22.2435 119.863 22.5299 119.609 22.8945C119.362 23.2526 119.176 23.666 119.053 24.1348C118.929 24.597 118.867 25.0885 118.867 25.6094ZM130.742 22.5332V31H128.926V20.4336H130.645L130.742 22.5332ZM130.371 25.3164L129.531 25.2871C129.538 24.5645 129.632 23.8971 129.814 23.2852C129.997 22.6667 130.267 22.1296 130.625 21.6738C130.983 21.2181 131.429 20.8665 131.963 20.6191C132.497 20.3652 133.115 20.2383 133.818 20.2383C134.313 20.2383 134.769 20.3099 135.186 20.4531C135.602 20.5898 135.964 20.8079 136.27 21.1074C136.576 21.4069 136.813 21.791 136.982 22.2598C137.152 22.7285 137.236 23.2949 137.236 23.959V31H135.43V24.0469C135.43 23.4935 135.335 23.0508 135.146 22.7188C134.964 22.3867 134.704 22.1458 134.365 21.9961C134.027 21.8398 133.63 21.7617 133.174 21.7617C132.64 21.7617 132.194 21.8561 131.836 22.0449C131.478 22.2337 131.191 22.4941 130.977 22.8262C130.762 23.1582 130.605 23.5391 130.508 23.9688C130.417 24.3919 130.371 24.8411 130.371 25.3164ZM137.217 24.3203L136.006 24.6914C136.012 24.112 136.107 23.5553 136.289 23.0215C136.478 22.4876 136.748 22.0124 137.1 21.5957C137.458 21.179 137.897 20.8503 138.418 20.6094C138.939 20.362 139.535 20.2383 140.205 20.2383C140.771 20.2383 141.273 20.3132 141.709 20.4629C142.152 20.6126 142.523 20.8438 142.822 21.1562C143.128 21.4622 143.359 21.8561 143.516 22.3379C143.672 22.8197 143.75 23.3926 143.75 24.0566V31H141.934V24.0371C141.934 23.4447 141.839 22.9857 141.65 22.6602C141.468 22.3281 141.208 22.097 140.869 21.9668C140.537 21.8301 140.14 21.7617 139.678 21.7617C139.281 21.7617 138.929 21.8301 138.623 21.9668C138.317 22.1035 138.06 22.2923 137.852 22.5332C137.643 22.7676 137.484 23.0378 137.373 23.3438C137.269 23.6497 137.217 23.9753 137.217 24.3203ZM148.291 22.4648V35.0625H146.475V20.4336H148.135L148.291 22.4648ZM155.41 25.6289V25.834C155.41 26.6022 155.319 27.3151 155.137 27.9727C154.954 28.6237 154.688 29.1901 154.336 29.6719C153.991 30.1536 153.564 30.528 153.057 30.7949C152.549 31.0618 151.966 31.1953 151.309 31.1953C150.638 31.1953 150.046 31.0846 149.531 30.8633C149.017 30.6419 148.581 30.3197 148.223 29.8965C147.865 29.4733 147.578 28.9655 147.363 28.373C147.155 27.7806 147.012 27.1133 146.934 26.3711V25.2773C147.012 24.4961 147.158 23.7962 147.373 23.1777C147.588 22.5592 147.871 22.0319 148.223 21.5957C148.581 21.153 149.014 20.8177 149.521 20.5898C150.029 20.3555 150.615 20.2383 151.279 20.2383C151.943 20.2383 152.533 20.3685 153.047 20.6289C153.561 20.8828 153.994 21.2474 154.346 21.7227C154.697 22.1979 154.961 22.7676 155.137 23.4316C155.319 24.0892 155.41 24.8216 155.41 25.6289ZM153.594 25.834V25.6289C153.594 25.1016 153.538 24.6068 153.428 24.1445C153.317 23.6758 153.145 23.2656 152.91 22.9141C152.682 22.556 152.389 22.276 152.031 22.0742C151.673 21.8659 151.247 21.7617 150.752 21.7617C150.296 21.7617 149.899 21.8398 149.561 21.9961C149.229 22.1523 148.945 22.3639 148.711 22.6309C148.477 22.8913 148.285 23.1908 148.135 23.5293C147.992 23.8613 147.884 24.2064 147.812 24.5645V27.0938C147.943 27.5495 148.125 27.9792 148.359 28.3828C148.594 28.7799 148.906 29.1022 149.297 29.3496C149.688 29.5905 150.179 29.7109 150.771 29.7109C151.26 29.7109 151.68 29.61 152.031 29.4082C152.389 29.1999 152.682 28.9167 152.91 28.5586C153.145 28.2005 153.317 27.7904 153.428 27.3281C153.538 26.8594 153.594 26.3613 153.594 25.834ZM162.1 31.1953C161.364 31.1953 160.697 31.0716 160.098 30.8242C159.505 30.5703 158.994 30.2155 158.564 29.7598C158.141 29.304 157.816 28.7637 157.588 28.1387C157.36 27.5137 157.246 26.8301 157.246 26.0879V25.6777C157.246 24.8184 157.373 24.0534 157.627 23.3828C157.881 22.7057 158.226 22.1328 158.662 21.6641C159.098 21.1953 159.593 20.8405 160.146 20.5996C160.7 20.3587 161.273 20.2383 161.865 20.2383C162.62 20.2383 163.271 20.3685 163.818 20.6289C164.372 20.8893 164.824 21.2539 165.176 21.7227C165.527 22.1849 165.788 22.7318 165.957 23.3633C166.126 23.9883 166.211 24.6719 166.211 25.4141V26.2246H158.32V24.75H164.404V24.6133C164.378 24.1445 164.281 23.6888 164.111 23.2461C163.949 22.8034 163.688 22.4388 163.33 22.1523C162.972 21.8659 162.484 21.7227 161.865 21.7227C161.455 21.7227 161.077 21.8105 160.732 21.9863C160.387 22.1556 160.091 22.4095 159.844 22.748C159.596 23.0866 159.404 23.5 159.268 23.9883C159.131 24.4766 159.062 25.0397 159.062 25.6777V26.0879C159.062 26.5892 159.131 27.0612 159.268 27.5039C159.411 27.9401 159.616 28.3242 159.883 28.6562C160.156 28.9883 160.485 29.2487 160.869 29.4375C161.26 29.6263 161.702 29.7207 162.197 29.7207C162.835 29.7207 163.376 29.5905 163.818 29.3301C164.261 29.0697 164.648 28.7214 164.98 28.2852L166.074 29.1543C165.846 29.4993 165.557 29.8281 165.205 30.1406C164.854 30.4531 164.421 30.707 163.906 30.9023C163.398 31.0977 162.796 31.1953 162.1 31.1953ZM170.127 22.0938V31H168.32V20.4336H170.078L170.127 22.0938ZM173.428 20.375L173.418 22.0547C173.268 22.0221 173.125 22.0026 172.988 21.9961C172.858 21.9831 172.708 21.9766 172.539 21.9766C172.122 21.9766 171.755 22.0417 171.436 22.1719C171.117 22.3021 170.846 22.4844 170.625 22.7188C170.404 22.9531 170.228 23.2331 170.098 23.5586C169.974 23.8776 169.893 24.2292 169.854 24.6133L169.346 24.9062C169.346 24.2682 169.408 23.6693 169.531 23.1094C169.661 22.5495 169.86 22.0547 170.127 21.625C170.394 21.1888 170.732 20.8503 171.143 20.6094C171.559 20.362 172.054 20.2383 172.627 20.2383C172.757 20.2383 172.907 20.2546 173.076 20.2871C173.245 20.3132 173.363 20.3424 173.428 20.375ZM184.443 31.1953C183.708 31.1953 183.04 31.0716 182.441 30.8242C181.849 30.5703 181.338 30.2155 180.908 29.7598C180.485 29.304 180.16 28.7637 179.932 28.1387C179.704 27.5137 179.59 26.8301 179.59 26.0879V25.6777C179.59 24.8184 179.717 24.0534 179.971 23.3828C180.225 22.7057 180.57 22.1328 181.006 21.6641C181.442 21.1953 181.937 20.8405 182.49 20.5996C183.044 20.3587 183.617 20.2383 184.209 20.2383C184.964 20.2383 185.615 20.3685 186.162 20.6289C186.715 20.8893 187.168 21.2539 187.52 21.7227C187.871 22.1849 188.132 22.7318 188.301 23.3633C188.47 23.9883 188.555 24.6719 188.555 25.4141V26.2246H180.664V24.75H186.748V24.6133C186.722 24.1445 186.624 23.6888 186.455 23.2461C186.292 22.8034 186.032 22.4388 185.674 22.1523C185.316 21.8659 184.827 21.7227 184.209 21.7227C183.799 21.7227 183.421 21.8105 183.076 21.9863C182.731 22.1556 182.435 22.4095 182.188 22.748C181.94 23.0866 181.748 23.5 181.611 23.9883C181.475 24.4766 181.406 25.0397 181.406 25.6777V26.0879C181.406 26.5892 181.475 27.0612 181.611 27.5039C181.755 27.9401 181.96 28.3242 182.227 28.6562C182.5 28.9883 182.829 29.2487 183.213 29.4375C183.604 29.6263 184.046 29.7207 184.541 29.7207C185.179 29.7207 185.719 29.5905 186.162 29.3301C186.605 29.0697 186.992 28.7214 187.324 28.2852L188.418 29.1543C188.19 29.4993 187.9 29.8281 187.549 30.1406C187.197 30.4531 186.764 30.707 186.25 30.9023C185.742 31.0977 185.14 31.1953 184.443 31.1953ZM192.627 16V31H190.811V16H192.627ZM202.295 16V31H200.488V16H202.295ZM201.865 25.3164L201.113 25.2871C201.12 24.5645 201.227 23.8971 201.436 23.2852C201.644 22.6667 201.937 22.1296 202.314 21.6738C202.692 21.2181 203.141 20.8665 203.662 20.6191C204.189 20.3652 204.772 20.2383 205.41 20.2383C205.931 20.2383 206.4 20.3099 206.816 20.4531C207.233 20.5898 207.588 20.8112 207.881 21.1172C208.18 21.4232 208.408 21.8203 208.564 22.3086C208.721 22.7904 208.799 23.3796 208.799 24.0762V31H206.982V24.0566C206.982 23.5033 206.901 23.0605 206.738 22.7285C206.576 22.39 206.338 22.1458 206.025 21.9961C205.713 21.8398 205.329 21.7617 204.873 21.7617C204.424 21.7617 204.014 21.8561 203.643 22.0449C203.278 22.2337 202.962 22.4941 202.695 22.8262C202.435 23.1582 202.23 23.5391 202.08 23.9688C201.937 24.3919 201.865 24.8411 201.865 25.3164ZM213.467 20.4336V31H211.65V20.4336H213.467ZM211.514 17.6309C211.514 17.3379 211.602 17.0905 211.777 16.8887C211.96 16.6868 212.227 16.5859 212.578 16.5859C212.923 16.5859 213.187 16.6868 213.369 16.8887C213.558 17.0905 213.652 17.3379 213.652 17.6309C213.652 17.9108 213.558 18.1517 213.369 18.3535C213.187 18.5488 212.923 18.6465 212.578 18.6465C212.227 18.6465 211.96 18.5488 211.777 18.3535C211.602 18.1517 211.514 17.9108 211.514 17.6309ZM220.752 31.1953C220.016 31.1953 219.349 31.0716 218.75 30.8242C218.158 30.5703 217.646 30.2155 217.217 29.7598C216.794 29.304 216.468 28.7637 216.24 28.1387C216.012 27.5137 215.898 26.8301 215.898 26.0879V25.6777C215.898 24.8184 216.025 24.0534 216.279 23.3828C216.533 22.7057 216.878 22.1328 217.314 21.6641C217.751 21.1953 218.245 20.8405 218.799 20.5996C219.352 20.3587 219.925 20.2383 220.518 20.2383C221.273 20.2383 221.924 20.3685 222.471 20.6289C223.024 20.8893 223.477 21.2539 223.828 21.7227C224.18 22.1849 224.44 22.7318 224.609 23.3633C224.779 23.9883 224.863 24.6719 224.863 25.4141V26.2246H216.973V24.75H223.057V24.6133C223.031 24.1445 222.933 23.6888 222.764 23.2461C222.601 22.8034 222.34 22.4388 221.982 22.1523C221.624 21.8659 221.136 21.7227 220.518 21.7227C220.107 21.7227 219.73 21.8105 219.385 21.9863C219.04 22.1556 218.743 22.4095 218.496 22.748C218.249 23.0866 218.057 23.5 217.92 23.9883C217.783 24.4766 217.715 25.0397 217.715 25.6777V26.0879C217.715 26.5892 217.783 27.0612 217.92 27.5039C218.063 27.9401 218.268 28.3242 218.535 28.6562C218.809 28.9883 219.137 29.2487 219.521 29.4375C219.912 29.6263 220.355 29.7207 220.85 29.7207C221.488 29.7207 222.028 29.5905 222.471 29.3301C222.913 29.0697 223.301 28.7214 223.633 28.2852L224.727 29.1543C224.499 29.4993 224.209 29.8281 223.857 30.1406C223.506 30.4531 223.073 30.707 222.559 30.9023C222.051 31.0977 221.449 31.1953 220.752 31.1953ZM228.936 16V31H227.119V16H228.936ZM231.357 25.834V25.6094C231.357 24.8477 231.468 24.1413 231.689 23.4902C231.911 22.8327 232.23 22.263 232.646 21.7812C233.063 21.293 233.568 20.9154 234.16 20.6484C234.753 20.375 235.417 20.2383 236.152 20.2383C236.895 20.2383 237.562 20.375 238.154 20.6484C238.753 20.9154 239.261 21.293 239.678 21.7812C240.101 22.263 240.423 22.8327 240.645 23.4902C240.866 24.1413 240.977 24.8477 240.977 25.6094V25.834C240.977 26.5957 240.866 27.3021 240.645 27.9531C240.423 28.6042 240.101 29.1738 239.678 29.6621C239.261 30.1439 238.757 30.5215 238.164 30.7949C237.578 31.0618 236.914 31.1953 236.172 31.1953C235.43 31.1953 234.762 31.0618 234.17 30.7949C233.577 30.5215 233.07 30.1439 232.646 29.6621C232.23 29.1738 231.911 28.6042 231.689 27.9531C231.468 27.3021 231.357 26.5957 231.357 25.834ZM233.164 25.6094V25.834C233.164 26.3613 233.226 26.8594 233.35 27.3281C233.473 27.7904 233.659 28.2005 233.906 28.5586C234.16 28.9167 234.476 29.1999 234.854 29.4082C235.231 29.61 235.671 29.7109 236.172 29.7109C236.667 29.7109 237.1 29.61 237.471 29.4082C237.848 29.1999 238.161 28.9167 238.408 28.5586C238.656 28.2005 238.841 27.7904 238.965 27.3281C239.095 26.8594 239.16 26.3613 239.16 25.834V25.6094C239.16 25.0885 239.095 24.597 238.965 24.1348C238.841 23.666 238.652 23.2526 238.398 22.8945C238.151 22.5299 237.839 22.2435 237.461 22.0352C237.09 21.8268 236.654 21.7227 236.152 21.7227C235.658 21.7227 235.221 21.8268 234.844 22.0352C234.473 22.2435 234.16 22.5299 233.906 22.8945C233.659 23.2526 233.473 23.666 233.35 24.1348C233.226 24.597 233.164 25.0885 233.164 25.6094ZM245.391 16.7812L245.264 26.9863H243.633L243.496 16.7812H245.391ZM243.438 30.0918C243.438 29.7988 243.525 29.5514 243.701 29.3496C243.883 29.1478 244.15 29.0469 244.502 29.0469C244.847 29.0469 245.111 29.1478 245.293 29.3496C245.482 29.5514 245.576 29.7988 245.576 30.0918C245.576 30.3717 245.482 30.6126 245.293 30.8145C245.111 31.0163 244.847 31.1172 244.502 31.1172C244.15 31.1172 243.883 31.0163 243.701 30.8145C243.525 30.6126 243.438 30.3717 243.438 30.0918Z" fill="#A9A0A0"/>
<path d="M288.636 24.9102L276.591 31.5331L276.694 18.1153L288.636 24.9102Z" fill="black" fill-opacity="0.25"/>
</g>
<defs>
<filter id="filter0_d_731_3730" x="0" y="0" width="309" height="57.3516" filterUnits="userSpaceOnUse" color-interpolation-filters="sRGB">
<feFlood flood-opacity="0" result="BackgroundImageFix"/>
<feColorMatrix in="SourceAlpha" type="matrix" values="0 0 0 0 0 0 0 0 0 0 0 0 0 0 0 0 0 0 127 0" result="hardAlpha"/>
<feOffset dy="4"/>
<feGaussianBlur stdDeviation="2"/>
<feComposite in2="hardAlpha" operator="out"/>
<feColorMatrix type="matrix" values="0 0 0 0 0 0 0 0 0 0 0 0 0 0 0 0 0 0 0.25 0"/>
<feBlend mode="normal" in2="BackgroundImageFix" result="effect1_dropShadow_731_3730"/>
<feBlend mode="normal" in="SourceGraphic" in2="effect1_dropShadow_731_3730" result="shape"/>
</filter>
</defs>
</svg>
