<svg width="117" height="34" viewBox="0 0 117 34" fill="none" xmlns="http://www.w3.org/2000/svg">
<g filter="url(#filter0_d_1063_346)">
<rect x="4" width="109" height="26" rx="13" fill="#8FFF00"/>
<path d="M20.5777 18.2116H19.1757L19.2865 11.9943H20.4669L20.5777 18.2116ZM19.8788 9.40341C20.1089 9.40341 20.3078 9.48722 20.4754 9.65483C20.643 9.8196 20.7282 10.0199 20.7311 10.2557C20.7282 10.4886 20.643 10.6889 20.4754 10.8565C20.3078 11.0213 20.1089 11.1037 19.8788 11.1037C19.643 11.1037 19.4413 11.0213 19.2737 10.8565C19.1061 10.6889 19.0237 10.4886 19.0265 10.2557C19.0237 10.0966 19.0606 9.95312 19.1373 9.82528C19.2169 9.69744 19.3206 9.59517 19.4484 9.51847C19.5791 9.44176 19.7226 9.40341 19.8788 9.40341ZM29.3693 10.1108H28.0398C27.9887 9.8267 27.8935 9.5767 27.7543 9.3608C27.6151 9.14489 27.4446 8.96165 27.2429 8.81108C27.0412 8.66051 26.8154 8.54687 26.5654 8.47017C26.3182 8.39347 26.0554 8.35511 25.777 8.35511C25.2742 8.35511 24.8239 8.48153 24.4262 8.73438C24.0313 8.98722 23.7188 9.35795 23.4887 9.84659C23.2614 10.3352 23.1477 10.9318 23.1477 11.6364C23.1477 12.3466 23.2614 12.946 23.4887 13.4347C23.7188 13.9233 24.0327 14.2926 24.4304 14.5426C24.8281 14.7926 25.2756 14.9176 25.7727 14.9176C26.0483 14.9176 26.3097 14.8807 26.5568 14.8068C26.8068 14.7301 27.0327 14.6179 27.2344 14.4702C27.4361 14.3224 27.6066 14.142 27.7458 13.929C27.8878 13.7131 27.9858 13.4659 28.0398 13.1875L29.3693 13.1918C29.2983 13.6207 29.1605 14.0156 28.956 14.3764C28.7543 14.7344 28.4943 15.044 28.1762 15.3054C27.8608 15.5639 27.5 15.7642 27.0938 15.9062C26.6875 16.0483 26.2443 16.1193 25.7642 16.1193C25.0085 16.1193 24.3352 15.9403 23.7443 15.5824C23.1534 15.2216 22.6875 14.706 22.3466 14.0355C22.0085 13.3651 21.8395 12.5653 21.8395 11.6364C21.8395 10.7045 22.01 9.90483 22.3509 9.23722C22.6918 8.56676 23.1577 8.05256 23.7486 7.6946C24.3395 7.33381 25.0114 7.15341 25.7642 7.15341C26.2273 7.15341 26.6591 7.22017 27.0597 7.35369C27.4631 7.48437 27.8253 7.67756 28.1463 7.93324C28.4674 8.18608 28.733 8.49574 28.9432 8.86222C29.1534 9.22585 29.2955 9.64205 29.3693 10.1108ZM33.1198 16.1321C32.5062 16.1321 31.9707 15.9915 31.5133 15.7102C31.0559 15.429 30.7008 15.0355 30.4479 14.5298C30.1951 14.0241 30.0687 13.4332 30.0687 12.7571C30.0687 12.0781 30.1951 11.4844 30.4479 10.9759C30.7008 10.4673 31.0559 10.0724 31.5133 9.79119C31.9707 9.50994 32.5062 9.36932 33.1198 9.36932C33.7334 9.36932 34.269 9.50994 34.7263 9.79119C35.1837 10.0724 35.5388 10.4673 35.7917 10.9759C36.0445 11.4844 36.1709 12.0781 36.1709 12.7571C36.1709 13.4332 36.0445 14.0241 35.7917 14.5298C35.5388 15.0355 35.1837 15.429 34.7263 15.7102C34.269 15.9915 33.7334 16.1321 33.1198 16.1321ZM33.1241 15.0625C33.5218 15.0625 33.8513 14.9574 34.1127 14.7472C34.3741 14.5369 34.5673 14.2571 34.6923 13.9077C34.8201 13.5582 34.884 13.1733 34.884 12.7528C34.884 12.3352 34.8201 11.9517 34.6923 11.6023C34.5673 11.25 34.3741 10.9673 34.1127 10.7543C33.8513 10.5412 33.5218 10.4347 33.1241 10.4347C32.7235 10.4347 32.3911 10.5412 32.1269 10.7543C31.8655 10.9673 31.6709 11.25 31.5431 11.6023C31.4181 11.9517 31.3556 12.3352 31.3556 12.7528C31.3556 13.1733 31.4181 13.5582 31.5431 13.9077C31.6709 14.2571 31.8655 14.5369 32.1269 14.7472C32.3911 14.9574 32.7235 15.0625 33.1241 15.0625ZM37.1132 16V9.45455H38.3362V10.5199H38.4171C38.5535 10.1591 38.7765 9.87784 39.0862 9.67614C39.3958 9.47159 39.7666 9.36932 40.1984 9.36932C40.6359 9.36932 41.0024 9.47159 41.2978 9.67614C41.5961 9.88068 41.8163 10.1619 41.9583 10.5199H42.0265C42.1828 10.1705 42.4314 9.89205 42.7723 9.68466C43.1132 9.47443 43.5194 9.36932 43.991 9.36932C44.5848 9.36932 45.0691 9.5554 45.4441 9.92756C45.822 10.2997 46.0109 10.8608 46.0109 11.6108V16H44.7368V11.7301C44.7368 11.2869 44.616 10.9659 44.3745 10.767C44.1331 10.5682 43.8447 10.4688 43.5095 10.4688C43.0947 10.4688 42.7723 10.5966 42.5421 10.8523C42.312 11.1051 42.197 11.4304 42.197 11.8281V16H40.9271V11.6491C40.9271 11.294 40.8163 11.0085 40.5947 10.7926C40.3731 10.5767 40.0848 10.4688 39.7296 10.4688C39.4882 10.4688 39.2652 10.5327 39.0606 10.6605C38.8589 10.7855 38.6956 10.9602 38.5706 11.1847C38.4484 11.4091 38.3873 11.669 38.3873 11.9645V16H37.1132ZM50.0597 16.1321C49.4148 16.1321 48.8594 15.9943 48.3935 15.7188C47.9304 15.4403 47.5725 15.0497 47.3196 14.5469C47.0696 14.0412 46.9446 13.4489 46.9446 12.7699C46.9446 12.0994 47.0696 11.5085 47.3196 10.9972C47.5725 10.4858 47.9247 10.0866 48.3764 9.79972C48.831 9.51278 49.3622 9.36932 49.9702 9.36932C50.3395 9.36932 50.6975 9.4304 51.044 9.55256C51.3906 9.67472 51.7017 9.86648 51.9773 10.1278C52.2528 10.3892 52.4702 10.7287 52.6293 11.1463C52.7884 11.5611 52.8679 12.0653 52.8679 12.6591V13.1108H47.6648V12.1562H51.6193C51.6193 11.821 51.5511 11.5241 51.4148 11.2656C51.2784 11.0043 51.0867 10.7983 50.8395 10.6477C50.5952 10.4972 50.3082 10.4219 49.9787 10.4219C49.6207 10.4219 49.3082 10.5099 49.0412 10.6861C48.777 10.8594 48.5725 11.0866 48.4276 11.3679C48.2855 11.6463 48.2145 11.9489 48.2145 12.2756V13.0213C48.2145 13.4588 48.2912 13.831 48.4446 14.1378C48.6009 14.4446 48.8182 14.679 49.0966 14.8409C49.375 15 49.7003 15.0795 50.0725 15.0795C50.3139 15.0795 50.5341 15.0455 50.733 14.9773C50.9318 14.9062 51.1037 14.8011 51.2486 14.6619C51.3935 14.5227 51.5043 14.3509 51.581 14.1463L52.7869 14.3636C52.6903 14.7187 52.5171 15.0298 52.2671 15.2969C52.0199 15.5611 51.7088 15.767 51.3338 15.9148C50.9617 16.0597 50.5369 16.1321 50.0597 16.1321ZM55.0758 12.1136V16H53.8016V9.45455H55.0246V10.5199H55.1056C55.2562 10.1733 55.492 9.89489 55.813 9.68466C56.1368 9.47443 56.5445 9.36932 57.036 9.36932C57.482 9.36932 57.8726 9.46307 58.2079 9.65057C58.5431 9.83523 58.803 10.1108 58.9877 10.4773C59.1723 10.8437 59.2647 11.2969 59.2647 11.8366V16H57.9905V11.9901C57.9905 11.5156 57.867 11.1449 57.6198 10.8778C57.3726 10.608 57.0331 10.473 56.6013 10.473C56.3059 10.473 56.0431 10.5369 55.813 10.6648C55.5857 10.7926 55.4053 10.9801 55.2718 11.2273C55.1411 11.4716 55.0758 11.767 55.0758 12.1136ZM63.2506 16.1321C62.6171 16.1321 62.0716 15.9886 61.6142 15.7017C61.1597 15.4119 60.8102 15.0128 60.5659 14.5043C60.3216 13.9957 60.1995 13.4134 60.1995 12.7571C60.1995 12.0923 60.3245 11.5057 60.5745 10.9972C60.8245 10.4858 61.1767 10.0866 61.6313 9.79972C62.0858 9.51278 62.6213 9.36932 63.2378 9.36932C63.735 9.36932 64.1781 9.46165 64.5673 9.64631C64.9566 9.82812 65.2705 10.0838 65.5091 10.4134C65.7506 10.7429 65.8941 11.1278 65.9395 11.5682H64.6995C64.6313 11.2614 64.475 10.9972 64.2307 10.7756C63.9892 10.554 63.6654 10.4432 63.2591 10.4432C62.904 10.4432 62.5929 10.5369 62.3259 10.7244C62.0617 10.9091 61.8557 11.1733 61.708 11.517C61.5602 11.858 61.4864 12.2614 61.4864 12.7273C61.4864 13.2045 61.5588 13.6165 61.7037 13.9631C61.8486 14.3097 62.0531 14.5781 62.3173 14.7685C62.5844 14.9588 62.8983 15.054 63.2591 15.054C63.5006 15.054 63.7193 15.0099 63.9154 14.9219C64.1142 14.831 64.2804 14.7017 64.4139 14.5341C64.5503 14.3665 64.6455 14.1648 64.6995 13.929H65.9395C65.8941 14.3523 65.7563 14.7301 65.5262 15.0625C65.296 15.3949 64.9878 15.6562 64.6014 15.8466C64.2179 16.0369 63.7676 16.1321 63.2506 16.1321ZM69.6431 16.1321C68.9982 16.1321 68.4428 15.9943 67.9769 15.7188C67.5138 15.4403 67.1559 15.0497 66.903 14.5469C66.653 14.0412 66.528 13.4489 66.528 12.7699C66.528 12.0994 66.653 11.5085 66.903 10.9972C67.1559 10.4858 67.5082 10.0866 67.9599 9.79972C68.4144 9.51278 68.9457 9.36932 69.5536 9.36932C69.9229 9.36932 70.2809 9.4304 70.6275 9.55256C70.9741 9.67472 71.2851 9.86648 71.5607 10.1278C71.8363 10.3892 72.0536 10.7287 72.2127 11.1463C72.3718 11.5611 72.4513 12.0653 72.4513 12.6591V13.1108H67.2482V12.1562H71.2028C71.2028 11.821 71.1346 11.5241 70.9982 11.2656C70.8619 11.0043 70.6701 10.7983 70.4229 10.6477C70.1786 10.4972 69.8917 10.4219 69.5621 10.4219C69.2042 10.4219 68.8917 10.5099 68.6246 10.6861C68.3604 10.8594 68.1559 11.0866 68.011 11.3679C67.869 11.6463 67.7979 11.9489 67.7979 12.2756V13.0213C67.7979 13.4588 67.8746 13.831 68.028 14.1378C68.1843 14.4446 68.4016 14.679 68.68 14.8409C68.9584 15 69.2837 15.0795 69.6559 15.0795C69.8974 15.0795 70.1175 15.0455 70.3164 14.9773C70.5153 14.9062 70.6871 14.8011 70.832 14.6619C70.9769 14.5227 71.0877 14.3509 71.1644 14.1463L72.3704 14.3636C72.2738 14.7187 72.1005 15.0298 71.8505 15.2969C71.6033 15.5611 71.2923 15.767 70.9173 15.9148C70.5451 16.0597 70.1204 16.1321 69.6431 16.1321ZM73.3851 16V9.45455H74.6081V10.5199H74.689C74.8254 10.1591 75.0484 9.87784 75.3581 9.67614C75.6677 9.47159 76.0385 9.36932 76.4703 9.36932C76.9078 9.36932 77.2743 9.47159 77.5697 9.67614C77.868 9.88068 78.0882 10.1619 78.2302 10.5199H78.2984C78.4547 10.1705 78.7032 9.89205 79.0441 9.68466C79.3851 9.47443 79.7913 9.36932 80.2629 9.36932C80.8566 9.36932 81.341 9.5554 81.716 9.92756C82.0939 10.2997 82.2828 10.8608 82.2828 11.6108V16H81.0086V11.7301C81.0086 11.2869 80.8879 10.9659 80.6464 10.767C80.4049 10.5682 80.1166 10.4688 79.7814 10.4688C79.3666 10.4688 79.0441 10.5966 78.814 10.8523C78.5839 11.1051 78.4689 11.4304 78.4689 11.8281V16H77.199V11.6491C77.199 11.294 77.0882 11.0085 76.8666 10.7926C76.645 10.5767 76.3566 10.4688 76.0015 10.4688C75.7601 10.4688 75.537 10.5327 75.3325 10.6605C75.1308 10.7855 74.9674 10.9602 74.8424 11.1847C74.7203 11.4091 74.6592 11.669 74.6592 11.9645V16H73.3851ZM86.2676 16.1321C85.654 16.1321 85.1185 15.9915 84.6611 15.7102C84.2037 15.429 83.8486 15.0355 83.5957 14.5298C83.3429 14.0241 83.2165 13.4332 83.2165 12.7571C83.2165 12.0781 83.3429 11.4844 83.5957 10.9759C83.8486 10.4673 84.2037 10.0724 84.6611 9.79119C85.1185 9.50994 85.654 9.36932 86.2676 9.36932C86.8813 9.36932 87.4168 9.50994 87.8742 9.79119C88.3315 10.0724 88.6867 10.4673 88.9395 10.9759C89.1923 11.4844 89.3188 12.0781 89.3188 12.7571C89.3188 13.4332 89.1923 14.0241 88.9395 14.5298C88.6867 15.0355 88.3315 15.429 87.8742 15.7102C87.4168 15.9915 86.8813 16.1321 86.2676 16.1321ZM86.2719 15.0625C86.6696 15.0625 86.9992 14.9574 87.2605 14.7472C87.5219 14.5369 87.7151 14.2571 87.8401 13.9077C87.9679 13.5582 88.0318 13.1733 88.0318 12.7528C88.0318 12.3352 87.9679 11.9517 87.8401 11.6023C87.7151 11.25 87.5219 10.9673 87.2605 10.7543C86.9992 10.5412 86.6696 10.4347 86.2719 10.4347C85.8713 10.4347 85.5389 10.5412 85.2747 10.7543C85.0134 10.9673 84.8188 11.25 84.6909 11.6023C84.5659 11.9517 84.5034 12.3352 84.5034 12.7528C84.5034 13.1733 84.5659 13.5582 84.6909 13.9077C84.8188 14.2571 85.0134 14.5369 85.2747 14.7472C85.5389 14.9574 85.8713 15.0625 86.2719 15.0625ZM95.1658 11.0526L94.011 11.2571C93.9627 11.1094 93.886 10.9687 93.7809 10.8352C93.6786 10.7017 93.5394 10.5923 93.3633 10.5071C93.1871 10.4219 92.9669 10.3793 92.7027 10.3793C92.3419 10.3793 92.0408 10.4602 91.7993 10.6222C91.5579 10.7812 91.4371 10.9872 91.4371 11.2401C91.4371 11.4588 91.5181 11.6349 91.68 11.7685C91.8419 11.902 92.1033 12.0114 92.4641 12.0966L93.5039 12.3352C94.1062 12.4744 94.555 12.6889 94.8505 12.9787C95.1459 13.2685 95.2937 13.6449 95.2937 14.108C95.2937 14.5 95.18 14.8494 94.9527 15.1562C94.7283 15.4602 94.4144 15.6989 94.011 15.8722C93.6104 16.0455 93.1459 16.1321 92.6175 16.1321C91.8846 16.1321 91.2866 15.9759 90.8235 15.6634C90.3604 15.348 90.0763 14.9006 89.9712 14.321L91.2027 14.1335C91.2794 14.4545 91.4371 14.6974 91.6758 14.8622C91.9144 15.0241 92.2255 15.1051 92.609 15.1051C93.0266 15.1051 93.3604 15.0185 93.6104 14.8452C93.8604 14.669 93.9854 14.4545 93.9854 14.2017C93.9854 13.9972 93.9087 13.8253 93.7553 13.6861C93.6047 13.5469 93.3732 13.4418 93.0607 13.3707L91.9527 13.1278C91.3419 12.9886 90.8902 12.767 90.5976 12.4631C90.3079 12.1591 90.163 11.7741 90.163 11.3082C90.163 10.9219 90.2709 10.5838 90.4868 10.294C90.7027 10.0043 91.001 9.77841 91.3817 9.61648C91.7624 9.4517 92.1985 9.36932 92.69 9.36932C93.3973 9.36932 93.9542 9.52273 94.3604 9.82955C94.7667 10.1335 95.0351 10.5412 95.1658 11.0526ZM97.8211 7.27273L97.7103 13.4901H96.5299L96.4191 7.27273H97.8211ZM97.1223 16.081C96.8865 16.081 96.6848 15.9986 96.5171 15.8338C96.3495 15.6662 96.2671 15.4645 96.27 15.2287C96.2671 14.9957 96.3495 14.7969 96.5171 14.6321C96.6848 14.4645 96.8865 14.3807 97.1223 14.3807C97.3524 14.3807 97.5512 14.4645 97.7188 14.6321C97.8865 14.7969 97.9717 14.9957 97.9745 15.2287C97.9717 15.3849 97.9305 15.5284 97.8509 15.6591C97.7742 15.7869 97.672 15.8892 97.5441 15.9659C97.4163 16.0426 97.2757 16.081 97.1223 16.081Z" fill="#2020B3"/>
</g>
<defs>
<filter id="filter0_d_1063_346" x="0" y="0" width="117" height="34" filterUnits="userSpaceOnUse" color-interpolation-filters="sRGB">
<feFlood flood-opacity="0" result="BackgroundImageFix"/>
<feColorMatrix in="SourceAlpha" type="matrix" values="0 0 0 0 0 0 0 0 0 0 0 0 0 0 0 0 0 0 127 0" result="hardAlpha"/>
<feOffset dy="4"/>
<feGaussianBlur stdDeviation="2"/>
<feComposite in2="hardAlpha" operator="out"/>
<feColorMatrix type="matrix" values="0 0 0 0 0 0 0 0 0 0 0 0 0 0 0 0 0 0 0.25 0"/>
<feBlend mode="normal" in2="BackgroundImageFix" result="effect1_dropShadow_1063_346"/>
<feBlend mode="normal" in="SourceGraphic" in2="effect1_dropShadow_1063_346" result="shape"/>
</filter>
</defs>
</svg>
