<svg width="35" height="48" viewBox="0 0 35 48" fill="none" xmlns="http://www.w3.org/2000/svg">
<path d="M9.147 12.394C11.2325 12.394 12.9252 11.7483 12.9252 10.9533C12.9252 10.3766 12.0341 9.87779 10.7456 9.64844C10.6238 9.80431 10.5067 9.9535 10.3964 10.0893C11.306 10.2252 11.933 10.5057 11.933 10.8286C11.933 11.2873 10.6858 11.657 9.147 11.657C7.61045 11.657 6.3633 11.2873 6.3633 10.8286C6.3633 10.5057 6.98803 10.2252 7.89985 10.0893C7.78731 9.9535 7.67017 9.80431 7.54844 9.64844C6.26224 9.87779 5.37109 10.3766 5.37109 10.9533C5.37109 11.7483 7.06152 12.394 9.147 12.394Z" fill="#460BFF"/>
<mask id="mask0_526_937" style="mask-type:luminance" maskUnits="userSpaceOnUse" x="4" y="0" width="10" height="12">
<path d="M4.95898 0.441406H13.1906V11.3079H4.95898V0.441406Z" fill="white"/>
</mask>
<g mask="url(#mask0_526_937)">
<path d="M7.52972 3.94629C7.52972 3.07786 8.25551 2.37644 9.14895 2.37644C10.0447 2.37644 10.7682 3.07786 10.7682 3.94629C10.7682 4.81249 10.0447 5.51614 9.14895 5.51614C8.25551 5.51614 7.52972 4.81249 7.52972 3.94629ZM12.9272 4.10216C12.9272 2.08028 11.2344 0.441406 9.14895 0.441406C7.06348 0.441406 5.37305 2.08028 5.37305 4.10216C5.37305 6.75643 9.14895 10.798 9.14895 10.798C9.14895 10.798 12.9272 6.75643 12.9272 4.10216Z" fill="#460BFF"/>
</g>
<mask id="mask1_526_937" style="mask-type:luminance" maskUnits="userSpaceOnUse" x="17" y="44" width="8" height="4">
<path d="M17.3027 44.9395H24.9464V47.999H17.3027V44.9395Z" fill="white"/>
</mask>
<g mask="url(#mask1_526_937)">
<path d="M22.7147 45.2695C22.5929 45.4254 22.4758 45.5746 22.3632 45.7104C23.2751 45.8463 23.8998 46.1268 23.8998 46.4497C23.8998 46.9062 22.6526 47.278 21.1161 47.278C19.5773 47.278 18.3324 46.9062 18.3324 46.4497C18.3324 46.1268 18.9571 45.8463 19.8689 45.7104C19.7564 45.5746 19.6393 45.4254 19.5175 45.2695C18.229 45.4989 17.3379 45.9954 17.3379 46.5744C17.3379 47.3693 19.0306 48.0129 21.1161 48.0129C23.2016 48.0129 24.892 47.3693 24.892 46.5744C24.892 45.9954 24.0009 45.4989 22.7147 45.2695Z" fill="#460BFF"/>
</g>
<path d="M21.118 41.1372C20.2246 41.1372 19.4988 40.4336 19.4988 39.5674C19.4988 38.699 20.2246 37.9953 21.118 37.9953C22.0115 37.9953 22.7373 38.699 22.7373 39.5674C22.7373 40.4336 22.0115 41.1372 21.118 41.1372ZM21.118 36.0625C19.0326 36.0625 17.3398 37.7014 17.3398 39.7233C17.3398 42.3753 21.118 46.4191 21.118 46.4191C21.118 46.4191 24.894 42.3753 24.894 39.7233C24.894 37.7014 23.2035 36.0625 21.118 36.0625Z" fill="#460BFF"/>
<path d="M16.2182 11.7167C15.8255 11.661 15.4258 11.6031 15.017 11.5452C14.684 11.4985 14.3808 11.7234 14.3326 12.0418C14.2843 12.3624 14.514 12.6608 14.8448 12.7053C15.249 12.7632 15.6463 12.8189 16.0368 12.8768C16.0666 12.8813 16.0965 12.8835 16.1287 12.8835C16.4226 12.8835 16.6799 12.6742 16.7235 12.3847C16.774 12.064 16.5467 11.7657 16.2182 11.7167Z" fill="#460BFF"/>
<mask id="mask2_526_937" style="mask-type:luminance" maskUnits="userSpaceOnUse" x="0" y="39" width="4" height="4">
<path d="M0.378906 39.2402H3.19476V42.6605H0.378906V39.2402Z" fill="white"/>
</mask>
<g mask="url(#mask2_526_937)">
<path d="M1.65173 39.7336C1.5277 39.433 1.174 39.2883 0.866229 39.4107C0.556164 39.5332 0.406874 39.8761 0.533197 40.1745C0.836372 40.8937 1.3899 41.5929 2.18228 42.2565C2.29712 42.3523 2.43723 42.399 2.57733 42.399C2.74729 42.399 2.91496 42.3322 3.03669 42.1964C3.25488 41.9514 3.22502 41.5818 2.97238 41.3703C2.32698 40.8292 1.88141 40.2769 1.65173 39.7336Z" fill="#460BFF"/>
</g>
<path d="M8.95406 32.4265C9.64769 32.108 10.3941 31.7874 11.1705 31.4712C11.4782 31.3465 11.6229 31.0036 11.4966 30.7052C11.3657 30.4068 11.012 30.2665 10.7042 30.3912C9.91182 30.7119 9.14699 31.0414 8.43499 31.3688C8.13411 31.5068 8.00549 31.8564 8.14789 32.1481C8.25125 32.3597 8.46944 32.4843 8.69453 32.4843C8.7818 32.4843 8.86908 32.4643 8.95406 32.4265Z" fill="#460BFF"/>
<path d="M4.41835 34.8102C4.53778 34.8102 4.65721 34.7746 4.76287 34.7055C5.36003 34.3047 6.04677 33.8972 6.80241 33.492C7.0941 33.3339 7.19975 32.9776 7.03668 32.6948C6.87591 32.412 6.50842 32.3096 6.21673 32.4654C5.42664 32.8907 4.70545 33.3183 4.07613 33.7413C3.80052 33.9239 3.73161 34.2891 3.92225 34.5563C4.03938 34.7211 4.22772 34.8102 4.41835 34.8102Z" fill="#460BFF"/>
<path d="M7.03076 43.6674C6.23837 43.3334 5.51718 42.9904 4.89016 42.6453C4.60077 42.4872 4.23099 42.5874 4.06562 42.868C3.90255 43.1508 4.0059 43.507 4.2953 43.6674C4.95907 44.0303 5.7193 44.3911 6.55074 44.7407C6.62883 44.7741 6.71151 44.7896 6.7919 44.7896C7.02387 44.7896 7.24666 44.6583 7.34542 44.4378C7.47863 44.1394 7.33853 43.7965 7.03076 43.6674Z" fill="#460BFF"/>
<path d="M18.4476 13.2518C19.279 13.3898 20.0852 13.5323 20.8454 13.6748C20.8844 13.6837 20.9235 13.686 20.9625 13.686C21.245 13.686 21.4977 13.4922 21.5528 13.2117C21.6171 12.8955 21.4035 12.586 21.0751 12.5258C20.308 12.3811 19.4903 12.2364 18.652 12.0961C18.3235 12.0426 18.0089 12.2564 17.9538 12.577C17.8986 12.8955 18.1191 13.1983 18.4476 13.2518Z" fill="#460BFF"/>
<mask id="mask3_526_937" style="mask-type:luminance" maskUnits="userSpaceOnUse" x="0" y="34" width="4" height="5">
<path d="M0.378906 34.6797H3.19476V38.67H0.378906V34.6797Z" fill="white"/>
</mask>
<g mask="url(#mask3_526_937)">
<path d="M0.882863 38.1893C0.95636 38.2183 1.03445 38.2316 1.10795 38.2316C1.34681 38.2316 1.57419 38.0936 1.66836 37.8642C1.90034 37.3097 2.32754 36.7308 2.94308 36.1385C3.17964 35.9114 3.17964 35.5395 2.94537 35.3101C2.7111 35.0808 2.32983 35.0786 2.09097 35.3057C1.36059 36.0116 0.841521 36.7241 0.547533 37.4278C0.423507 37.7261 0.572798 38.0691 0.882863 38.1893Z" fill="#460BFF"/>
</g>
<mask id="mask4_526_937" style="mask-type:luminance" maskUnits="userSpaceOnUse" x="31" y="15" width="4" height="5">
<path d="M31.418 15.8672H34.5439V19.8575H31.418V15.8672Z" fill="white"/>
</mask>
<g mask="url(#mask4_526_937)">
<path d="M34.4138 18.7352C34.2851 17.918 33.7592 17.1498 32.8474 16.4506C32.5855 16.2502 32.2043 16.2925 31.9976 16.5464C31.7908 16.8002 31.8345 17.1676 32.0963 17.3703C32.7624 17.8779 33.1391 18.3968 33.2194 18.9112C33.2654 19.2006 33.5226 19.4077 33.8166 19.4077C33.8465 19.4077 33.8763 19.4055 33.9085 19.401C34.2369 19.352 34.4643 19.0537 34.4138 18.7352Z" fill="#460BFF"/>
</g>
<path d="M33.4179 20.5355C33.1584 20.3329 32.7771 20.3729 32.5681 20.6246C32.173 21.0989 31.6034 21.5999 30.8731 22.112C30.6043 22.3035 30.5446 22.6687 30.7398 22.9315C30.857 23.0896 31.043 23.1719 31.2291 23.1719C31.3531 23.1719 31.4771 23.1363 31.5851 23.0606C32.4004 22.4861 33.0481 21.9138 33.5098 21.3594C33.7188 21.1078 33.6774 20.7381 33.4179 20.5355Z" fill="#460BFF"/>
<path d="M25.8948 13.591C25.1483 13.395 24.3399 13.2013 23.4901 13.0165C23.1662 12.9452 22.8424 13.1434 22.7689 13.4596C22.6954 13.7735 22.8998 14.0875 23.2259 14.1588C24.0574 14.3414 24.8497 14.5306 25.5801 14.7221C25.633 14.7355 25.6858 14.7422 25.7386 14.7422C26.005 14.7422 26.2485 14.5707 26.3197 14.3102C26.407 13.9962 26.2163 13.6756 25.8948 13.591Z" fill="#460BFF"/>
<path d="M11.5774 45.2579C10.7644 45.0152 9.99037 44.768 9.27837 44.5187C8.96141 44.4095 8.61689 44.5699 8.50435 44.8727C8.39181 45.1778 8.55488 45.514 8.86954 45.6231C9.59992 45.877 10.39 46.1308 11.2214 46.378C11.2812 46.3958 11.3409 46.4047 11.3983 46.4047C11.6578 46.4047 11.8967 46.2421 11.9771 45.9905C12.0758 45.681 11.8967 45.3537 11.5774 45.2579Z" fill="#460BFF"/>
<path d="M30.9125 15.9544C31.0526 15.6604 30.9194 15.3108 30.6162 15.175C29.9364 14.8699 29.1486 14.5716 28.2758 14.2843C27.9612 14.1819 27.6166 14.3467 27.511 14.6517C27.403 14.959 27.573 15.2908 27.89 15.3955C28.7214 15.6671 29.4679 15.9521 30.1087 16.2394C30.1913 16.2772 30.2786 16.2928 30.3636 16.2928C30.591 16.2928 30.8092 16.1681 30.9125 15.9544Z" fill="#460BFF"/>
<path d="M28.8586 23.3475C28.2155 23.6971 27.4943 24.06 26.7134 24.423C26.4125 24.5633 26.2839 24.9128 26.4286 25.2046C26.532 25.4161 26.7502 25.5363 26.9753 25.5363C27.0625 25.5363 27.1521 25.5185 27.2348 25.4807C28.041 25.1043 28.7851 24.7303 29.4512 24.3673C29.7429 24.2092 29.8439 23.8529 29.6809 23.5701C29.5178 23.2896 29.148 23.1871 28.8586 23.3475Z" fill="#460BFF"/>
<path d="M24.4987 25.3909C23.7936 25.6848 23.0334 25.9854 22.2433 26.2838C21.9332 26.4018 21.7794 26.7425 21.9011 27.0431C21.9953 27.2747 22.2226 27.4172 22.4638 27.4172C22.5373 27.4172 22.6131 27.4039 22.6843 27.3749C23.4859 27.0721 24.2576 26.767 24.9742 26.4686C25.2819 26.3417 25.4243 25.9966 25.2934 25.7004C25.1625 25.402 24.8042 25.264 24.4987 25.3909Z" fill="#460BFF"/>
<path d="M17.8538 29.0589C17.9204 29.0589 17.987 29.05 18.0536 29.0277C18.7771 28.7828 19.5603 28.5133 20.3756 28.2239C20.688 28.1125 20.8488 27.7763 20.7339 27.4712C20.6191 27.1684 20.2723 27.0125 19.9599 27.1239C19.1491 27.4111 18.3728 27.6783 17.6539 27.921C17.3393 28.0279 17.1739 28.3619 17.2842 28.667C17.3691 28.9075 17.6034 29.0589 17.8538 29.0589Z" fill="#460BFF"/>
<path d="M15.3342 28.6989L14.7324 28.9015C14.1421 29.0997 13.5611 29.3046 13.0075 29.5072C12.6952 29.6208 12.5367 29.9592 12.6538 30.2621C12.7457 30.4959 12.9754 30.6406 13.2188 30.6406C13.29 30.6406 13.3635 30.6295 13.4324 30.6027C13.9791 30.4046 14.551 30.2042 15.1298 30.006L15.7269 29.8056C16.0439 29.7009 16.2115 29.3669 16.1013 29.0596C15.9933 28.7546 15.6488 28.592 15.3342 28.6989Z" fill="#460BFF"/>
<path d="M15.0814 46.212C14.6841 46.114 14.2959 46.0138 13.9193 45.9158C13.5954 45.829 13.2647 46.016 13.1774 46.3278C13.0901 46.6395 13.2808 46.9624 13.6023 47.047C13.9859 47.1472 14.3786 47.2474 14.7806 47.3476C14.8311 47.361 14.8816 47.3654 14.9322 47.3654C15.2009 47.3654 15.4466 47.1895 15.5155 46.9268C15.5982 46.6128 15.4053 46.2921 15.0814 46.212Z" fill="#460BFF"/>
</svg>
