<svg width="1280" height="832" viewBox="0 0 1280 832" fill="none" xmlns="http://www.w3.org/2000/svg">
<g clip-path="url(#clip0_1052_1092)">
<rect width="1280" height="832" fill="#70C800"/>
<g filter="url(#filter0_d_1052_1092)">
<path d="M1292.85 303.519C1292.85 303.519 1188.69 474.548 986.836 444.788C775.657 413.654 1013.73 164.115 911.062 111.531C808.397 58.9472 759.56 233.504 766.478 371.333C773.397 509.163 883.008 552.018 762.574 682.028C553.771 907.434 407.293 580.232 383.934 471.665C353.117 328.425 393.749 152.911 271.361 169.378C26.6924 202.297 458.903 842.569 217.075 792.913C86 766 0.999978 583 0.999978 583" stroke="white" stroke-opacity="0.81" stroke-width="3" stroke-linecap="round" stroke-dasharray="6 6" shape-rendering="crispEdges"/>
</g>
</g>
<defs>
<filter id="filter0_d_1052_1092" x="-4.5" y="100.444" width="1302.85" height="704.714" filterUnits="userSpaceOnUse" color-interpolation-filters="sRGB">
<feFlood flood-opacity="0" result="BackgroundImageFix"/>
<feColorMatrix in="SourceAlpha" type="matrix" values="0 0 0 0 0 0 0 0 0 0 0 0 0 0 0 0 0 0 127 0" result="hardAlpha"/>
<feOffset dy="4"/>
<feGaussianBlur stdDeviation="2"/>
<feComposite in2="hardAlpha" operator="out"/>
<feColorMatrix type="matrix" values="0 0 0 0 0 0 0 0 0 0 0 0 0 0 0 0 0 0 0.25 0"/>
<feBlend mode="normal" in2="BackgroundImageFix" result="effect1_dropShadow_1052_1092"/>
<feBlend mode="normal" in="SourceGraphic" in2="effect1_dropShadow_1052_1092" result="shape"/>
</filter>
<clipPath id="clip0_1052_1092">
<rect width="1280" height="832" fill="white"/>
</clipPath>
</defs>
</svg>
