<svg width="395" height="852" viewBox="0 0 395 852" fill="none" xmlns="http://www.w3.org/2000/svg">
<g clip-path="url(#clip0_1050_1063)">
<rect width="395" height="852" fill="#70C800"/>
<g filter="url(#filter0_d_1050_1063)">
<path d="M102 -4.00025C102 -4.00025 410.629 69.1077 386.266 204.641C360.778 346.434 60.4243 199.441 22.772 267.578C-14.8803 335.715 45.3775 365.005 138.499 363.266C231.621 361.527 320.042 289.262 348 372.5C371.938 443.769 324 464.5 278.5 507C206.237 574.498 48.5 449.766 32 608C14.7198 773.716 450 387.385 450 554C450 737.5 185.5 852 185.5 852" stroke="white" stroke-opacity="0.81" stroke-width="3" stroke-linecap="round" stroke-dasharray="6 6" shape-rendering="crispEdges"/>
</g>
</g>
<defs>
<filter id="filter0_d_1050_1063" x="5.89844" y="-5.50049" width="449.602" height="867" filterUnits="userSpaceOnUse" color-interpolation-filters="sRGB">
<feFlood flood-opacity="0" result="BackgroundImageFix"/>
<feColorMatrix in="SourceAlpha" type="matrix" values="0 0 0 0 0 0 0 0 0 0 0 0 0 0 0 0 0 0 127 0" result="hardAlpha"/>
<feOffset dy="4"/>
<feGaussianBlur stdDeviation="2"/>
<feComposite in2="hardAlpha" operator="out"/>
<feColorMatrix type="matrix" values="0 0 0 0 0 0 0 0 0 0 0 0 0 0 0 0 0 0 0.25 0"/>
<feBlend mode="normal" in2="BackgroundImageFix" result="effect1_dropShadow_1050_1063"/>
<feBlend mode="normal" in="SourceGraphic" in2="effect1_dropShadow_1050_1063" result="shape"/>
</filter>
<clipPath id="clip0_1050_1063">
<rect width="395" height="852" fill="white"/>
</clipPath>
</defs>
</svg>
