<svg width="71" height="71" viewBox="0 0 71 71" fill="none" xmlns="http://www.w3.org/2000/svg">
<circle cx="35.5" cy="35.5" r="35.5" fill="#385500"/>
<mask id="mask0_0_1" style="mask-type:luminance" maskUnits="userSpaceOnUse" x="23" y="18" width="25" height="35">
<path d="M23.7617 18.0996H47.4093V52.9204H23.7617V18.0996Z" fill="white"/>
</mask>
<g mask="url(#mask0_0_1)">
<mask id="mask1_0_1" style="mask-type:luminance" maskUnits="userSpaceOnUse" x="1" y="3" width="69" height="69">
<path d="M1.84766 37.5883L35.6921 3.85742L69.5365 37.5883L35.6921 71.3198L1.84766 37.5883Z" fill="white"/>
</mask>
<g mask="url(#mask1_0_1)">
<mask id="mask2_0_1" style="mask-type:luminance" maskUnits="userSpaceOnUse" x="1" y="3" width="69" height="69">
<path d="M1.84766 37.5883L35.6921 3.85742L69.5365 37.5883L35.6921 71.3198L1.84766 37.5883Z" fill="white"/>
</mask>
<g mask="url(#mask2_0_1)">
<path d="M26.4955 18.1094C32.6314 19.864 38.731 19.817 44.8569 18.1248C45.0255 18.5453 45.168 18.8661 45.2943 19.1916C48.2306 26.8888 48.078 34.5546 45.0041 42.1889C43.6233 45.6256 41.8205 48.8199 39.7007 51.8569C39.2054 52.5607 38.6411 52.8916 37.7555 52.85C36.2692 52.7764 34.7721 52.7971 33.2798 52.8132C32.6946 52.8185 32.2625 52.6498 31.9145 52.1669C27.8977 46.5136 24.9031 40.4289 24.0651 33.467C23.443 28.2864 24.3548 23.3108 26.2583 18.4931C26.3 18.3879 26.3739 18.3036 26.4955 18.1094ZM32.1994 24.4773C30.3066 26.3638 30.3012 29.4583 32.1886 31.3495C34.0969 33.2621 37.2972 33.2568 39.1792 31.3394C41.0297 29.453 40.9927 26.3055 39.0946 24.4565C37.1655 22.5754 34.0969 22.5861 32.1994 24.4773Z" fill="#273A03"/>
</g>
</g>
</g>
<mask id="mask3_0_1" style="mask-type:luminance" maskUnits="userSpaceOnUse" x="27" y="5" width="18" height="15">
<path d="M27.1953 5.5918H44.4388V19.3104H27.1953V5.5918Z" fill="white"/>
</mask>
<g mask="url(#mask3_0_1)">
<mask id="mask4_0_1" style="mask-type:luminance" maskUnits="userSpaceOnUse" x="2" y="5" width="68" height="68">
<path d="M2.29297 38.6336L35.8477 5.19141L69.4024 38.6336L35.8477 72.0763L2.29297 38.6336Z" fill="white"/>
</mask>
<g mask="url(#mask4_0_1)">
<mask id="mask5_0_1" style="mask-type:luminance" maskUnits="userSpaceOnUse" x="2" y="5" width="68" height="68">
<path d="M2.29297 38.6336L35.8477 5.19141L69.4024 38.6336L35.8477 72.0763L2.29297 38.6336Z" fill="white"/>
</mask>
<g mask="url(#mask5_0_1)">
<path d="M44.3326 17.9666C38.5942 19.5607 32.9964 19.566 27.3047 17.9772C27.4093 17.6645 27.4666 17.4301 27.5658 17.2163C29.3792 13.3874 31.6947 9.87117 34.47 6.66764C34.5645 6.56341 34.6585 6.45918 34.7524 6.35553C35.6984 5.33971 35.9861 5.34442 36.9055 6.43857C37.6742 7.35016 38.4476 8.26705 39.1638 9.22046C41.0504 11.7262 42.6918 14.3826 44.0247 17.2216C44.1134 17.4042 44.1866 17.602 44.3326 17.9666Z" fill="#273A03"/>
</g>
</g>
</g>
<mask id="mask6_0_1" style="mask-type:luminance" maskUnits="userSpaceOnUse" x="32" y="54" width="8" height="12">
<path d="M32.125 54.3984H39.8415V65.7867H32.125V54.3984Z" fill="white"/>
</mask>
<g mask="url(#mask6_0_1)">
<mask id="mask7_0_1" style="mask-type:luminance" maskUnits="userSpaceOnUse" x="3" y="5" width="66" height="66">
<path d="M3.09375 38.008L36.0129 5.19922L68.9321 38.008L36.0129 70.8173L3.09375 38.008Z" fill="white"/>
</mask>
<g mask="url(#mask7_0_1)">
<mask id="mask8_0_1" style="mask-type:luminance" maskUnits="userSpaceOnUse" x="3" y="5" width="66" height="66">
<path d="M3.09375 38.008L36.0129 5.19922L68.9321 38.008L36.0129 70.8173L3.09375 38.008Z" fill="white"/>
</mask>
<g mask="url(#mask8_0_1)">
<path d="M38.8509 55.7549C39.6253 56.629 40.0867 57.8347 39.605 59.1941C39.1535 60.4512 38.5796 61.6679 38.0052 62.8737C37.6203 63.6761 37.1589 64.4532 36.6772 65.199C36.2923 65.797 35.708 65.8178 35.359 65.2348C34.195 63.2879 33.016 61.3357 32.3952 59.1329C31.9135 57.4262 32.7337 55.6884 34.3081 54.8859C35.7694 54.1349 37.5229 54.4209 38.8509 55.7549Z" fill="#273A03"/>
</g>
</g>
</g>
<mask id="mask9_0_1" style="mask-type:luminance" maskUnits="userSpaceOnUse" x="23" y="42" width="7" height="17">
<path d="M23.5156 42.8613H29.5998V58.6865H23.5156V42.8613Z" fill="white"/>
</mask>
<g mask="url(#mask9_0_1)">
<mask id="mask10_0_1" style="mask-type:luminance" maskUnits="userSpaceOnUse" x="3" y="5" width="66" height="66">
<path d="M3.08984 38.006L36.009 5.19727L68.9282 38.006L36.009 70.8154L3.08984 38.006Z" fill="white"/>
</mask>
<g mask="url(#mask10_0_1)">
<mask id="mask11_0_1" style="mask-type:luminance" maskUnits="userSpaceOnUse" x="3" y="5" width="66" height="66">
<path d="M3.08984 38.006L36.009 5.19727L68.9282 38.006L36.009 70.8154L3.08984 38.006Z" fill="white"/>
</mask>
<g mask="url(#mask11_0_1)">
<path d="M25.3886 42.9414C26.85 45.7266 28.2243 48.3432 29.5831 50.9337C28.9217 51.5219 28.1728 52.084 27.5525 52.7634C26.3683 54.0668 25.7167 55.6665 25.2043 57.3223C25.1115 57.6187 25.0756 57.9607 24.8965 58.1912C24.7324 58.3951 24.409 58.5638 24.1476 58.5898C23.7992 58.6205 23.6091 58.3391 23.558 57.9919C23.5476 57.8896 23.543 57.7822 23.543 57.6799C23.5633 55.0327 23.543 52.3752 23.6195 49.7228C23.6711 47.8931 24.0299 46.0941 24.7017 44.3823C24.8861 43.912 25.1324 43.4723 25.3886 42.9414Z" fill="#273A03"/>
</g>
</g>
</g>
<mask id="mask12_0_1" style="mask-type:luminance" maskUnits="userSpaceOnUse" x="42" y="42" width="7" height="17">
<path d="M42.3633 42.8613H48.5958V58.6865H42.3633V42.8613Z" fill="white"/>
</mask>
<g mask="url(#mask12_0_1)">
<mask id="mask13_0_1" style="mask-type:luminance" maskUnits="userSpaceOnUse" x="3" y="5" width="66" height="66">
<path d="M3.08984 38.006L36.009 5.19727L68.9282 38.006L36.009 70.8154L3.08984 38.006Z" fill="white"/>
</mask>
<g mask="url(#mask13_0_1)">
<mask id="mask14_0_1" style="mask-type:luminance" maskUnits="userSpaceOnUse" x="3" y="5" width="66" height="66">
<path d="M3.08984 38.006L36.009 5.19727L68.9282 38.006L36.009 70.8154L3.08984 38.006Z" fill="white"/>
</mask>
<g mask="url(#mask14_0_1)">
<path d="M46.6002 42.9668C47.4053 44.3718 47.8876 45.7723 48.0771 47.2391C48.2922 48.9457 48.4052 50.6633 48.4667 52.3803C48.5281 54.0974 48.4667 55.8248 48.4568 57.5418C48.4516 57.6799 48.4719 57.8232 48.4568 57.9508C48.4157 58.3391 48.2 58.5944 47.8053 58.6302C47.4615 58.6661 47.2001 58.5182 47.0772 58.1808C46.9949 57.956 46.9335 57.7209 46.8517 57.4962C46.5028 56.5966 46.2054 55.6763 45.7904 54.8126C45.031 53.2285 43.8983 51.9563 42.3906 51.0666C43.7853 48.3686 45.1597 45.7312 46.6002 42.9668Z" fill="#273A03"/>
</g>
</g>
</g>
<mask id="mask15_0_1" style="mask-type:luminance" maskUnits="userSpaceOnUse" x="32" y="25" width="8" height="7">
<path d="M32.5703 25.2617H39.3964V31.9172H32.5703V25.2617Z" fill="white"/>
</mask>
<g mask="url(#mask15_0_1)">
<mask id="mask16_0_1" style="mask-type:luminance" maskUnits="userSpaceOnUse" x="3" y="5" width="66" height="66">
<path d="M3.09375 38.008L36.0129 5.19922L68.9321 38.008L36.0129 70.8173L3.09375 38.008Z" fill="white"/>
</mask>
<g mask="url(#mask16_0_1)">
<mask id="mask17_0_1" style="mask-type:luminance" maskUnits="userSpaceOnUse" x="3" y="5" width="66" height="66">
<path d="M3.09375 38.008L36.0129 5.19922L68.9321 38.008L36.0129 70.8173L3.09375 38.008Z" fill="white"/>
</mask>
<g mask="url(#mask17_0_1)">
<path d="M33.6299 26.2971C34.9272 24.9833 36.9525 24.9579 38.2805 26.2405C39.6242 27.5386 39.6398 29.6699 38.3165 30.9681C37.0244 32.235 34.9272 32.22 33.6403 30.9374C32.343 29.6445 32.3378 27.6051 33.6299 26.2971Z" fill="#273A03"/>
</g>
</g>
</g>
<mask id="mask18_0_1" style="mask-type:luminance" maskUnits="userSpaceOnUse" x="23" y="18" width="24" height="35">
<path d="M23.3672 18.7539H46.5167V52.7707H23.3672V18.7539Z" fill="white"/>
</mask>
<g mask="url(#mask18_0_1)">
<mask id="mask19_0_1" style="mask-type:luminance" maskUnits="userSpaceOnUse" x="2" y="4" width="66" height="67">
<path d="M2.01562 37.8723L35.0131 4.98438L67.9322 37.7937L34.9348 70.6816L2.01562 37.8723Z" fill="white"/>
</mask>
<g mask="url(#mask19_0_1)">
<mask id="mask20_0_1" style="mask-type:luminance" maskUnits="userSpaceOnUse" x="2" y="4" width="66" height="67">
<path d="M2.01562 37.8723L35.0131 4.98438L67.9322 37.7937L34.9348 70.6816L2.01562 37.8723Z" fill="white"/>
</mask>
<g mask="url(#mask20_0_1)">
<path d="M26.0336 18.8926C32.0123 20.6021 37.9556 20.5564 43.9244 18.9076C44.089 19.3172 44.2275 19.6298 44.351 19.9469C47.2117 27.447 47.0627 34.9165 44.0681 42.3548C42.7222 45.7033 40.9658 48.8156 38.901 51.7747C38.4181 52.4611 37.868 52.7834 37.0055 52.7424C35.5569 52.6708 34.0979 52.691 32.6441 52.7066C32.0743 52.7118 31.6529 52.5477 31.3138 52.0769C27.3999 46.5682 24.4824 40.6401 23.6657 33.8564C23.0593 28.8088 23.948 23.9604 25.8023 19.2664C25.8435 19.1635 25.9154 19.0815 26.0336 18.8926ZM31.5914 25.0974C29.7475 26.9352 29.7423 29.9504 31.581 31.7933C33.4406 33.6571 36.5586 33.6519 38.3921 31.7835C40.1954 29.9452 40.1595 26.8786 38.3103 25.0766C36.4299 23.244 33.4406 23.2544 31.5914 25.0974Z" fill="white"/>
</g>
</g>
</g>
<mask id="mask21_0_1" style="mask-type:luminance" maskUnits="userSpaceOnUse" x="26" y="5" width="18" height="14">
<path d="M26.4844 5.29492H43.4013V18.7537H26.4844V5.29492Z" fill="white"/>
</mask>
<g mask="url(#mask21_0_1)">
<mask id="mask22_0_1" style="mask-type:luminance" maskUnits="userSpaceOnUse" x="2" y="4" width="66" height="67">
<path d="M2.01953 37.8723L35.017 4.98438L67.9361 37.7937L34.9387 70.6816L2.01953 37.8723Z" fill="white"/>
</mask>
<g mask="url(#mask22_0_1)">
<mask id="mask23_0_1" style="mask-type:luminance" maskUnits="userSpaceOnUse" x="2" y="4" width="66" height="67">
<path d="M2.01953 37.8723L35.017 4.98438L67.9361 37.7937L34.9387 70.6816L2.01953 37.8723Z" fill="white"/>
</mask>
<g mask="url(#mask23_0_1)">
<path d="M43.3365 17.5604C37.6964 19.1266 32.1953 19.1318 26.6016 17.5702C26.7042 17.2634 26.7604 17.0329 26.8584 16.8232C28.6408 13.0605 30.916 9.60447 33.6439 6.45583C33.7361 6.35357 33.8288 6.25131 33.921 6.14906C34.8508 5.15074 35.1331 5.15594 36.0374 6.23052C36.7927 7.12658 37.5526 8.02784 38.2563 8.96434C40.1107 11.4272 41.7233 14.038 43.0333 16.8278C43.1209 17.0075 43.1927 17.2016 43.3365 17.5604Z" fill="white"/>
</g>
</g>
</g>
<mask id="mask24_0_1" style="mask-type:luminance" maskUnits="userSpaceOnUse" x="31" y="54" width="8" height="12">
<path d="M31.2344 54.25H38.8025V65.6382H31.2344V54.25Z" fill="white"/>
</mask>
<g mask="url(#mask24_0_1)">
<mask id="mask25_0_1" style="mask-type:luminance" maskUnits="userSpaceOnUse" x="2" y="4" width="66" height="67">
<path d="M2.01953 37.8723L35.017 4.98438L67.9361 37.7937L34.9387 70.6816L2.01953 37.8723Z" fill="white"/>
</mask>
<g mask="url(#mask25_0_1)">
<mask id="mask26_0_1" style="mask-type:luminance" maskUnits="userSpaceOnUse" x="2" y="4" width="66" height="67">
<path d="M2.01953 37.8723L35.017 4.98438L67.9361 37.7937L34.9387 70.6816L2.01953 37.8723Z" fill="white"/>
</mask>
<g mask="url(#mask26_0_1)">
<path d="M37.8388 55.6496C38.6144 56.5254 39.077 57.7335 38.5941 59.0952C38.142 60.3546 37.567 61.5731 36.9914 62.7811C36.6065 63.5847 36.1439 64.3629 35.661 65.1105C35.2756 65.7096 34.6901 65.7298 34.3411 65.1463C33.1749 63.1959 31.9935 61.2403 31.3721 59.0339C30.8892 57.3239 31.7112 55.5832 33.2879 54.7795C34.7521 54.0267 36.5085 54.3133 37.8388 55.6496Z" fill="white"/>
</g>
</g>
</g>
<mask id="mask27_0_1" style="mask-type:luminance" maskUnits="userSpaceOnUse" x="22" y="42" width="7" height="17">
<path d="M22.4766 42.7148H28.5607V58.5401H22.4766V42.7148Z" fill="white"/>
</mask>
<g mask="url(#mask27_0_1)">
<mask id="mask28_0_1" style="mask-type:luminance" maskUnits="userSpaceOnUse" x="2" y="4" width="66" height="67">
<path d="M2.01562 37.8723L35.0131 4.98438L67.9322 37.7937L34.9348 70.6816L2.01562 37.8723Z" fill="white"/>
</mask>
<g mask="url(#mask28_0_1)">
<mask id="mask29_0_1" style="mask-type:luminance" maskUnits="userSpaceOnUse" x="2" y="4" width="66" height="67">
<path d="M2.01562 37.8723L35.0131 4.98438L67.9322 37.7937L34.9348 70.6816L2.01562 37.8723Z" fill="white"/>
</mask>
<g mask="url(#mask29_0_1)">
<path d="M24.353 42.8145C25.8173 45.6043 27.194 48.2255 28.555 50.8212C27.8925 51.4099 27.1424 51.9732 26.521 52.6538C25.3344 53.9595 24.6817 55.5621 24.1681 57.2208C24.076 57.5177 24.04 57.8603 23.8597 58.0908C23.6957 58.2959 23.3722 58.4646 23.1102 58.49C22.7607 58.5212 22.5706 58.2393 22.5196 57.8915C22.5091 57.7887 22.5039 57.6812 22.5039 57.5789C22.5248 54.9272 22.5039 52.265 22.581 49.608C22.6326 47.7749 22.992 45.9729 23.665 44.2582C23.8499 43.7868 24.0962 43.3465 24.353 42.8145Z" fill="white"/>
</g>
</g>
</g>
<mask id="mask30_0_1" style="mask-type:luminance" maskUnits="userSpaceOnUse" x="41" y="42" width="7" height="17">
<path d="M41.3242 42.7148H47.5568V58.5401H41.3242V42.7148Z" fill="white"/>
</mask>
<g mask="url(#mask30_0_1)">
<mask id="mask31_0_1" style="mask-type:luminance" maskUnits="userSpaceOnUse" x="2" y="4" width="66" height="67">
<path d="M2.01953 37.8723L35.017 4.98438L67.9361 37.7937L34.9387 70.6816L2.01953 37.8723Z" fill="white"/>
</mask>
<g mask="url(#mask31_0_1)">
<mask id="mask32_0_1" style="mask-type:luminance" maskUnits="userSpaceOnUse" x="2" y="4" width="66" height="67">
<path d="M2.01953 37.8723L35.017 4.98438L67.9361 37.7937L34.9387 70.6816L2.01953 37.8723Z" fill="white"/>
</mask>
<g mask="url(#mask32_0_1)">
<path d="M45.6044 42.8398C46.4107 44.2478 46.8935 45.6505 47.0837 47.1197C47.2993 48.8298 47.4123 50.5497 47.4738 52.2701C47.5358 53.9901 47.4738 55.7204 47.4639 57.4408C47.4587 57.5789 47.479 57.7222 47.4639 57.8505C47.4228 58.2393 47.2066 58.4952 46.8112 58.531C46.4669 58.5668 46.2049 58.4184 46.082 58.0804C45.9997 57.8557 45.9382 57.6199 45.8559 57.3946C45.5064 56.4934 45.2085 55.5719 44.7928 54.707C44.0323 53.12 42.8973 51.8449 41.3867 50.9541C42.7843 48.2515 44.161 45.6095 45.6044 42.8398Z" fill="white"/>
</g>
</g>
</g>
<mask id="mask33_0_1" style="mask-type:luminance" maskUnits="userSpaceOnUse" x="31" y="25" width="8" height="7">
<path d="M31.5312 25.1152H38.3574V31.7707H31.5312V25.1152Z" fill="white"/>
</mask>
<g mask="url(#mask33_0_1)">
<mask id="mask34_0_1" style="mask-type:luminance" maskUnits="userSpaceOnUse" x="2" y="4" width="66" height="67">
<path d="M2.01953 37.8723L35.017 4.98438L67.9361 37.7937L34.9387 70.6816L2.01953 37.8723Z" fill="white"/>
</mask>
<g mask="url(#mask34_0_1)">
<mask id="mask35_0_1" style="mask-type:luminance" maskUnits="userSpaceOnUse" x="2" y="4" width="66" height="67">
<path d="M2.01953 37.8723L35.017 4.98438L67.9361 37.7937L34.9387 70.6816L2.01953 37.8723Z" fill="white"/>
</mask>
<g mask="url(#mask35_0_1)">
<path d="M32.6121 26.1401C33.9117 24.8246 35.9411 24.7992 37.2714 26.0841C38.6168 27.3845 38.6325 29.5193 37.3074 30.8197C36.013 32.089 33.9117 32.074 32.6225 30.7885C31.3229 29.4938 31.3177 27.451 32.6121 26.1401Z" fill="white"/>
</g>
</g>
</g>
</svg>
