<svg width="43" height="29" viewBox="0 0 43 29" fill="none" xmlns="http://www.w3.org/2000/svg">
<path d="M21.7028 17.9533C21.4364 17.9533 21.1722 17.9132 20.9104 17.8308L8.76042 13.9029C8.53993 14.4573 8.42969 15.1721 8.42969 16.2164C9.22208 16.6618 9.9938 17.5547 9.9938 19.0978C9.9938 20.042 9.50688 20.7234 9.08886 21.1732C10.8918 23.2017 15.8506 24.6602 21.7051 24.6602C29.08 24.6602 35.0563 22.3466 35.0563 19.4964C35.0563 18.8663 35.0563 16.2944 35.0563 13.7715L22.4929 17.8308C22.2333 17.9132 21.9692 17.9533 21.7028 17.9533Z" fill="#460BFF"/>
<mask id="mask0_526_924" style="mask-type:luminance" maskUnits="userSpaceOnUse" x="0" y="0" width="43" height="29">
<path d="M0 0.277344H42.4858V28.7284H0V0.277344Z" fill="white"/>
</mask>
<g mask="url(#mask0_526_924)">
<path d="M41.9878 6.92476L21.9599 0.453861C21.7853 0.398192 21.6039 0.398192 21.4316 0.453861L1.40371 6.92476C1.06379 7.03609 0.831813 7.34561 0.831813 7.69298C0.831813 8.04035 1.06379 8.34987 1.40371 8.45898L5.99498 9.94421C4.93846 11.1311 4.32522 12.8056 4.10013 15.5311C3.37205 15.8629 2.85987 16.571 2.85987 17.4016C2.85987 18.2477 3.38354 18.9692 4.13229 19.2943C3.48 24.8032 0.0761719 26.6403 0.0761719 27.1101C0.0761719 27.3506 2.71288 28.729 3.3376 28.729C4.30684 28.729 6.62889 27.1368 6.62889 23.6988C6.62889 21.6724 6.44055 20.1404 6.24303 19.056C6.77818 18.6797 7.15026 18.0941 7.15026 17.4016C7.15026 16.6467 6.71387 16.0143 6.09144 15.6513C6.44515 11.1533 7.87834 10.4007 11.3465 9.00676C11.6933 8.87315 12.3502 8.61708 12.7291 8.46566C13.409 8.19177 14.0245 7.94906 14.6148 7.7197C16.5234 6.98488 18.1358 6.39479 19.3668 5.95613C20.7127 5.49074 21.3168 5.32151 21.3398 5.31483C21.8542 5.14559 22.4284 5.41503 22.6053 5.92495C22.7821 6.43488 22.4996 6.98488 21.976 7.15634C21.9346 7.16747 19.5919 7.81768 13.494 10.2604C13.1012 10.4185 12.7291 10.561 12.3731 10.6968C11.6496 10.973 11.0502 11.1956 10.5472 11.4183L21.4316 14.9343C21.5189 14.9611 21.6062 14.9744 21.6958 14.9744C21.7853 14.9744 21.8726 14.9611 21.9599 14.9321L41.9878 8.45898C42.33 8.34987 42.5597 8.04035 42.5597 7.69298C42.5597 7.34561 42.33 7.03609 41.9878 6.92476Z" fill="#460BFF"/>
</g>
</svg>
