<svg width="213" height="96" viewBox="0 0 213 96" fill="none" xmlns="http://www.w3.org/2000/svg">
<g filter="url(#filter0_d_1050_1091)">
<mask id="path-1-outside-1_1050_1091" maskUnits="userSpaceOnUse" x="4" y="31.3135" width="104" height="33" fill="black">
<rect fill="white" x="4" y="31.3135" width="104" height="33"/>
<path d="M10.125 33.876V62.3135H5.22266V33.876H10.125ZM27.332 33.876V62.3135H22.4688V33.876H27.332ZM36.2578 33.876V37.7822H13.6211V33.876H36.2578ZM44.0117 32.3135V35.0674C44.0117 35.8877 43.862 36.7406 43.5625 37.626C43.276 38.4984 42.8724 39.3382 42.3516 40.1455C41.8307 40.9398 41.2318 41.6299 40.5547 42.2158L38.1914 40.7314C38.7253 39.9242 39.1549 39.0713 39.4805 38.1729C39.819 37.2614 39.9883 36.2393 39.9883 35.1064V32.3135H44.0117ZM63.6016 54.9893C63.6016 54.4033 63.5104 53.8825 63.3281 53.4268C63.1589 52.971 62.8529 52.5544 62.4102 52.1768C61.9674 51.7992 61.3424 51.4346 60.5352 51.083C59.7409 50.7184 58.7253 50.3473 57.4883 49.9697C56.1341 49.5531 54.8841 49.0908 53.7383 48.583C52.6055 48.0622 51.6159 47.4632 50.7695 46.7861C49.9232 46.096 49.2656 45.3083 48.7969 44.4229C48.3281 43.5244 48.0938 42.4893 48.0938 41.3174C48.0938 40.1585 48.3346 39.1038 48.8164 38.1533C49.3112 37.2028 50.0078 36.3825 50.9062 35.6924C51.8177 34.9893 52.8919 34.4489 54.1289 34.0713C55.3659 33.6807 56.7331 33.4854 58.2305 33.4854C60.3398 33.4854 62.1562 33.876 63.6797 34.6572C65.2161 35.4385 66.3945 36.4867 67.2148 37.8018C68.0482 39.1169 68.4648 40.5687 68.4648 42.1572H63.6016C63.6016 41.2197 63.3997 40.3929 62.9961 39.6768C62.6055 38.9476 62.0065 38.3747 61.1992 37.958C60.4049 37.5413 59.3958 37.333 58.1719 37.333C57.013 37.333 56.0495 37.5088 55.2812 37.8604C54.513 38.2119 53.9401 38.6872 53.5625 39.2861C53.1849 39.8851 52.9961 40.5622 52.9961 41.3174C52.9961 41.8512 53.1198 42.3395 53.3672 42.7822C53.6146 43.2119 53.9922 43.6156 54.5 43.9932C55.0078 44.3577 55.6458 44.7028 56.4141 45.0283C57.1823 45.3538 58.0872 45.6663 59.1289 45.9658C60.7044 46.4346 62.0781 46.9554 63.25 47.5283C64.4219 48.0882 65.3984 48.7262 66.1797 49.4424C66.9609 50.1585 67.5469 50.9723 67.9375 51.8838C68.3281 52.7822 68.5234 53.8044 68.5234 54.9502C68.5234 56.1481 68.2826 57.2288 67.8008 58.1924C67.319 59.1429 66.6289 59.9567 65.7305 60.6338C64.8451 61.2979 63.7773 61.8122 62.5273 62.1768C61.2904 62.5283 59.9102 62.7041 58.3867 62.7041C57.0195 62.7041 55.6719 62.5218 54.3438 62.1572C53.0286 61.7926 51.8307 61.2393 50.75 60.4971C49.6693 59.7419 48.8099 58.8044 48.1719 57.6846C47.5339 56.5518 47.2148 55.2301 47.2148 53.7197H52.1172C52.1172 54.6442 52.2734 55.432 52.5859 56.083C52.9115 56.734 53.3607 57.2679 53.9336 57.6846C54.5065 58.0882 55.1706 58.3877 55.9258 58.583C56.694 58.7783 57.5143 58.876 58.3867 58.876C59.5326 58.876 60.4896 58.7132 61.2578 58.3877C62.0391 58.0622 62.625 57.6064 63.0156 57.0205C63.4062 56.4346 63.6016 55.7575 63.6016 54.9893ZM93.8945 37.665L85.3984 62.3135H80.2617L90.9648 33.876H94.2461L93.8945 37.665ZM101.004 62.3135L92.4883 37.665L92.1172 33.876H95.418L106.16 62.3135H101.004ZM100.594 51.7666V55.6533H85.125V51.7666H100.594Z"/>
</mask>
<path d="M10.125 33.876V62.3135H5.22266V33.876H10.125ZM27.332 33.876V62.3135H22.4688V33.876H27.332ZM36.2578 33.876V37.7822H13.6211V33.876H36.2578ZM44.0117 32.3135V35.0674C44.0117 35.8877 43.862 36.7406 43.5625 37.626C43.276 38.4984 42.8724 39.3382 42.3516 40.1455C41.8307 40.9398 41.2318 41.6299 40.5547 42.2158L38.1914 40.7314C38.7253 39.9242 39.1549 39.0713 39.4805 38.1729C39.819 37.2614 39.9883 36.2393 39.9883 35.1064V32.3135H44.0117ZM63.6016 54.9893C63.6016 54.4033 63.5104 53.8825 63.3281 53.4268C63.1589 52.971 62.8529 52.5544 62.4102 52.1768C61.9674 51.7992 61.3424 51.4346 60.5352 51.083C59.7409 50.7184 58.7253 50.3473 57.4883 49.9697C56.1341 49.5531 54.8841 49.0908 53.7383 48.583C52.6055 48.0622 51.6159 47.4632 50.7695 46.7861C49.9232 46.096 49.2656 45.3083 48.7969 44.4229C48.3281 43.5244 48.0938 42.4893 48.0938 41.3174C48.0938 40.1585 48.3346 39.1038 48.8164 38.1533C49.3112 37.2028 50.0078 36.3825 50.9062 35.6924C51.8177 34.9893 52.8919 34.4489 54.1289 34.0713C55.3659 33.6807 56.7331 33.4854 58.2305 33.4854C60.3398 33.4854 62.1562 33.876 63.6797 34.6572C65.2161 35.4385 66.3945 36.4867 67.2148 37.8018C68.0482 39.1169 68.4648 40.5687 68.4648 42.1572H63.6016C63.6016 41.2197 63.3997 40.3929 62.9961 39.6768C62.6055 38.9476 62.0065 38.3747 61.1992 37.958C60.4049 37.5413 59.3958 37.333 58.1719 37.333C57.013 37.333 56.0495 37.5088 55.2812 37.8604C54.513 38.2119 53.9401 38.6872 53.5625 39.2861C53.1849 39.8851 52.9961 40.5622 52.9961 41.3174C52.9961 41.8512 53.1198 42.3395 53.3672 42.7822C53.6146 43.2119 53.9922 43.6156 54.5 43.9932C55.0078 44.3577 55.6458 44.7028 56.4141 45.0283C57.1823 45.3538 58.0872 45.6663 59.1289 45.9658C60.7044 46.4346 62.0781 46.9554 63.25 47.5283C64.4219 48.0882 65.3984 48.7262 66.1797 49.4424C66.9609 50.1585 67.5469 50.9723 67.9375 51.8838C68.3281 52.7822 68.5234 53.8044 68.5234 54.9502C68.5234 56.1481 68.2826 57.2288 67.8008 58.1924C67.319 59.1429 66.6289 59.9567 65.7305 60.6338C64.8451 61.2979 63.7773 61.8122 62.5273 62.1768C61.2904 62.5283 59.9102 62.7041 58.3867 62.7041C57.0195 62.7041 55.6719 62.5218 54.3438 62.1572C53.0286 61.7926 51.8307 61.2393 50.75 60.4971C49.6693 59.7419 48.8099 58.8044 48.1719 57.6846C47.5339 56.5518 47.2148 55.2301 47.2148 53.7197H52.1172C52.1172 54.6442 52.2734 55.432 52.5859 56.083C52.9115 56.734 53.3607 57.2679 53.9336 57.6846C54.5065 58.0882 55.1706 58.3877 55.9258 58.583C56.694 58.7783 57.5143 58.876 58.3867 58.876C59.5326 58.876 60.4896 58.7132 61.2578 58.3877C62.0391 58.0622 62.625 57.6064 63.0156 57.0205C63.4062 56.4346 63.6016 55.7575 63.6016 54.9893ZM93.8945 37.665L85.3984 62.3135H80.2617L90.9648 33.876H94.2461L93.8945 37.665ZM101.004 62.3135L92.4883 37.665L92.1172 33.876H95.418L106.16 62.3135H101.004ZM100.594 51.7666V55.6533H85.125V51.7666H100.594Z" fill="white" shape-rendering="crispEdges"/>
<path d="M10.125 33.876H11.125V32.876H10.125V33.876ZM10.125 62.3135V63.3135H11.125V62.3135H10.125ZM5.22266 62.3135H4.22266V63.3135H5.22266V62.3135ZM5.22266 33.876V32.876H4.22266V33.876H5.22266ZM10.125 33.876H9.125V62.3135H10.125H11.125V33.876H10.125ZM10.125 62.3135V61.3135H5.22266V62.3135V63.3135H10.125V62.3135ZM5.22266 62.3135H6.22266V33.876H5.22266H4.22266V62.3135H5.22266ZM5.22266 33.876V34.876H10.125V33.876V32.876H5.22266V33.876ZM27.332 33.876H28.332V32.876H27.332V33.876ZM27.332 62.3135V63.3135H28.332V62.3135H27.332ZM22.4688 62.3135H21.4688V63.3135H22.4688V62.3135ZM22.4688 33.876V32.876H21.4688V33.876H22.4688ZM36.2578 33.876H37.2578V32.876H36.2578V33.876ZM36.2578 37.7822V38.7822H37.2578V37.7822H36.2578ZM13.6211 37.7822H12.6211V38.7822H13.6211V37.7822ZM13.6211 33.876V32.876H12.6211V33.876H13.6211ZM27.332 33.876H26.332V62.3135H27.332H28.332V33.876H27.332ZM27.332 62.3135V61.3135H22.4688V62.3135V63.3135H27.332V62.3135ZM22.4688 62.3135H23.4688V33.876H22.4688H21.4688V62.3135H22.4688ZM22.4688 33.876V34.876H27.332V33.876V32.876H22.4688V33.876ZM36.2578 33.876H35.2578V37.7822H36.2578H37.2578V33.876H36.2578ZM36.2578 37.7822V36.7822H13.6211V37.7822V38.7822H36.2578V37.7822ZM13.6211 37.7822H14.6211V33.876H13.6211H12.6211V37.7822H13.6211ZM13.6211 33.876V34.876H36.2578V33.876V32.876H13.6211V33.876ZM44.0117 32.3135H45.0117V31.3135H44.0117V32.3135ZM43.5625 37.626L42.6152 37.3056L42.6124 37.314L43.5625 37.626ZM42.3516 40.1455L43.1878 40.6939L43.1919 40.6876L42.3516 40.1455ZM40.5547 42.2158L40.0228 43.0626L40.6495 43.4562L41.2091 42.972L40.5547 42.2158ZM38.1914 40.7314L37.3573 40.1799L36.7926 41.0338L37.6595 41.5783L38.1914 40.7314ZM39.4805 38.1729L38.543 37.8247L38.5403 37.8322L39.4805 38.1729ZM39.9883 32.3135V31.3135H38.9883V32.3135H39.9883ZM44.0117 32.3135H43.0117V35.0674H44.0117H45.0117V32.3135H44.0117ZM44.0117 35.0674H43.0117C43.0117 35.7647 42.8846 36.5092 42.6152 37.3056L43.5625 37.626L44.5098 37.9464C44.8394 36.9719 45.0117 36.0107 45.0117 35.0674H44.0117ZM43.5625 37.626L42.6124 37.314C42.3538 38.1016 41.988 38.8645 41.5113 39.6034L42.3516 40.1455L43.1919 40.6876C43.7568 39.8119 44.1983 38.8951 44.5126 37.9379L43.5625 37.626ZM42.3516 40.1455L41.5153 39.5972C41.0421 40.3188 40.5033 40.9378 39.9003 41.4597L40.5547 42.2158L41.2091 42.972C41.9602 42.322 42.6193 41.5608 43.1878 40.6939L42.3516 40.1455ZM40.5547 42.2158L41.0866 41.369L38.7233 39.8846L38.1914 40.7314L37.6595 41.5783L40.0228 43.0626L40.5547 42.2158ZM38.1914 40.7314L39.0255 41.283C39.6024 40.4107 40.0679 39.4871 40.4207 38.5135L39.4805 38.1729L38.5403 37.8322C38.242 38.6554 37.8481 39.4376 37.3573 40.1799L38.1914 40.7314ZM39.4805 38.1729L40.4179 38.521C40.804 37.4814 40.9883 36.3388 40.9883 35.1064H39.9883H38.9883C38.9883 36.1397 38.834 37.0414 38.543 37.8247L39.4805 38.1729ZM39.9883 35.1064H40.9883V32.3135H39.9883H38.9883V35.1064H39.9883ZM39.9883 32.3135V33.3135H44.0117V32.3135V31.3135H39.9883V32.3135ZM63.3281 53.4268L62.3907 53.7749L62.395 53.7866L62.3996 53.7981L63.3281 53.4268ZM62.4102 52.1768L61.7612 52.9376L62.4102 52.1768ZM60.5352 51.083L60.118 51.9918L60.1269 51.9959L60.1359 51.9998L60.5352 51.083ZM57.4883 49.9697L57.1942 50.9255L57.1963 50.9262L57.4883 49.9697ZM53.7383 48.583L53.3205 49.4917L53.3331 49.4972L53.7383 48.583ZM50.7695 46.7861L50.1376 47.5612L50.1448 47.567L50.7695 46.7861ZM48.7969 44.4229L47.9103 44.8854L47.9131 44.8907L48.7969 44.4229ZM48.8164 38.1533L47.9293 37.6916L47.9244 37.7012L48.8164 38.1533ZM50.9062 35.6924L51.5154 36.4854L51.5171 36.4842L50.9062 35.6924ZM54.1289 34.0713L54.4209 35.0278L54.43 35.0249L54.1289 34.0713ZM63.6797 34.6572L63.2234 35.547L63.2264 35.5486L63.6797 34.6572ZM67.2148 37.8018L66.3664 38.331L66.3702 38.337L67.2148 37.8018ZM68.4648 42.1572V43.1572H69.4648V42.1572H68.4648ZM63.6016 42.1572H62.6016V43.1572H63.6016V42.1572ZM62.9961 39.6768L62.1146 40.149L62.1197 40.1584L62.1249 40.1678L62.9961 39.6768ZM61.1992 37.958L60.7347 38.8436L60.7406 38.8466L61.1992 37.958ZM55.2812 37.8604L54.8651 36.951L55.2812 37.8604ZM53.3672 42.7822L52.4942 43.2701L52.5006 43.2812L53.3672 42.7822ZM54.5 43.9932L53.9033 44.7956L53.91 44.8006L53.9168 44.8055L54.5 43.9932ZM56.4141 45.0283L56.0239 45.9491L56.4141 45.0283ZM59.1289 45.9658L59.4141 45.0073L59.4052 45.0048L59.1289 45.9658ZM63.25 47.5283L62.8108 48.4267L62.8189 48.4306L63.25 47.5283ZM67.9375 51.8838L67.0183 52.2777L67.0204 52.2825L67.9375 51.8838ZM67.8008 58.1924L68.6928 58.6445L68.6952 58.6396L67.8008 58.1924ZM65.7305 60.6338L66.3305 61.4338L66.3323 61.4324L65.7305 60.6338ZM62.5273 62.1768L62.8007 63.1387L62.8073 63.1368L62.5273 62.1768ZM54.3438 62.1572L54.0766 63.1209L54.079 63.1216L54.3438 62.1572ZM50.75 60.4971L50.1772 61.3168L50.1839 61.3214L50.75 60.4971ZM48.1719 57.6846L47.3006 58.1753L47.303 58.1796L48.1719 57.6846ZM47.2148 53.7197V52.7197H46.2148V53.7197H47.2148ZM52.1172 53.7197H53.1172V52.7197H52.1172V53.7197ZM52.5859 56.083L51.6844 56.5157L51.6879 56.523L51.6915 56.5302L52.5859 56.083ZM53.9336 57.6846L53.3454 58.4933L53.3515 58.4977L53.3576 58.5021L53.9336 57.6846ZM55.9258 58.583L55.6754 59.5512L55.6794 59.5522L55.9258 58.583ZM61.2578 58.3877L60.8732 57.4646L60.8677 57.4669L61.2578 58.3877ZM63.6016 54.9893H64.6016C64.6016 54.3002 64.4943 53.6497 64.2566 53.0554L63.3281 53.4268L62.3996 53.7981C62.5265 54.1153 62.6016 54.5064 62.6016 54.9893H63.6016ZM63.3281 53.4268L64.2656 53.0786C64.0262 52.4342 63.6061 51.8825 63.0591 51.4159L62.4102 52.1768L61.7612 52.9376C62.0997 53.2263 62.2915 53.5079 62.3907 53.7749L63.3281 53.4268ZM62.4102 52.1768L63.0591 51.4159C62.5133 50.9504 61.7908 50.5391 60.9344 50.1662L60.5352 51.083L60.1359 51.9998C60.8941 52.33 61.4216 52.6479 61.7612 52.9376L62.4102 52.1768ZM60.5352 51.083L60.9523 50.1742C60.1032 49.7844 59.0418 49.3984 57.7802 49.0133L57.4883 49.9697L57.1963 50.9262C58.4088 51.2963 59.3786 51.6524 60.118 51.9918L60.5352 51.083ZM57.4883 49.9697L57.7824 49.0139C56.4612 48.6074 55.2488 48.1586 54.1435 47.6688L53.7383 48.583L53.3331 49.4972C54.5194 50.023 55.807 50.4987 57.1942 50.9255L57.4883 49.9697ZM53.7383 48.583L54.156 47.6744C53.0863 47.1826 52.1684 46.6246 51.3942 46.0053L50.7695 46.7861L50.1448 47.567C51.0634 48.3018 52.1246 48.9417 53.3205 49.4916L53.7383 48.583ZM50.7695 46.7861L51.4015 46.0111C50.6494 45.3979 50.0814 44.7119 49.6807 43.955L48.7969 44.4229L47.9131 44.8907C48.4498 45.9046 49.197 46.7942 50.1376 47.5612L50.7695 46.7861ZM48.7969 44.4229L49.6835 43.9603C49.3001 43.2255 49.0938 42.3535 49.0938 41.3174H48.0938H47.0938C47.0938 42.625 47.3562 43.8233 47.9103 44.8854L48.7969 44.4229ZM48.0938 41.3174H49.0938C49.0938 40.3016 49.3037 39.4038 49.7084 38.6054L48.8164 38.1533L47.9244 37.7012C47.3656 38.8039 47.0938 40.0155 47.0938 41.3174H48.0938ZM48.8164 38.1533L49.7034 38.6151C50.127 37.8013 50.7259 37.0919 51.5154 36.4854L50.9062 35.6924L50.2971 34.8993C49.2897 35.6731 48.4954 36.6043 47.9294 37.6916L48.8164 38.1533ZM50.9062 35.6924L51.5171 36.4842C52.322 35.8632 53.2851 35.3744 54.4209 35.0277L54.1289 34.0713L53.8369 33.1149C52.4988 33.5234 51.3134 34.1153 50.2954 34.9006L50.9062 35.6924ZM54.1289 34.0713L54.43 35.0249C55.5559 34.6693 56.8198 34.4854 58.2305 34.4854V33.4854V32.4854C56.6463 32.4854 55.1759 32.692 53.8278 33.1177L54.1289 34.0713ZM58.2305 33.4854V34.4854C60.2174 34.4854 61.8702 34.8531 63.2234 35.547L63.6797 34.6572L64.136 33.7674C62.4423 32.8989 60.4623 32.4854 58.2305 32.4854V33.4854ZM63.6797 34.6572L63.2264 35.5486C64.6193 36.2569 65.6529 37.1872 66.3664 38.331L67.2148 37.8018L68.0633 37.2725C67.1361 35.7861 65.8129 34.6201 64.1329 33.7658L63.6797 34.6572ZM67.2148 37.8018L66.3702 38.337C67.0999 39.4886 67.4648 40.7541 67.4648 42.1572H68.4648H69.4648C69.4648 40.3832 68.9965 38.7451 68.0595 37.2665L67.2148 37.8018ZM68.4648 42.1572V41.1572H63.6016V42.1572V43.1572H68.4648V42.1572ZM63.6016 42.1572H64.6016C64.6016 41.0722 64.3666 40.0717 63.8672 39.1857L62.9961 39.6768L62.1249 40.1678C62.4329 40.7141 62.6016 41.3673 62.6016 42.1572H63.6016ZM62.9961 39.6768L63.8776 39.2045C63.382 38.2795 62.6265 37.5693 61.6579 37.0694L61.1992 37.958L60.7406 38.8466C61.3865 39.18 61.8289 39.6157 62.1146 40.149L62.9961 39.6768ZM61.1992 37.958L61.6638 37.0725C60.6836 36.5583 59.5015 36.333 58.1719 36.333V37.333V38.333C59.2902 38.333 60.1263 38.5244 60.7347 38.8436L61.1992 37.958ZM58.1719 37.333V36.333C56.9196 36.333 55.803 36.5219 54.8651 36.951L55.2812 37.8604L55.6974 38.7697C56.296 38.4957 57.1064 38.333 58.1719 38.333V37.333ZM55.2812 37.8604L54.8651 36.951C53.9548 37.3676 53.2165 37.9599 52.7166 38.7528L53.5625 39.2861L54.4084 39.8194C54.6637 39.4144 55.0713 39.0562 55.6974 38.7697L55.2812 37.8604ZM53.5625 39.2861L52.7166 38.7528C52.2315 39.5222 51.9961 40.3866 51.9961 41.3174H52.9961H53.9961C53.9961 40.7378 54.1383 40.248 54.4084 39.8194L53.5625 39.2861ZM52.9961 41.3174H51.9961C51.9961 42.0127 52.1591 42.6703 52.4942 43.27L53.3672 42.7822L54.2401 42.2944C54.0805 42.0087 53.9961 41.6898 53.9961 41.3174H52.9961ZM53.3672 42.7822L52.5006 43.2812C52.8323 43.8573 53.3149 44.3581 53.9033 44.7956L54.5 43.9932L55.0967 43.1907C54.6695 42.873 54.3969 42.5665 54.2338 42.2833L53.3672 42.7822ZM54.5 43.9932L53.9168 44.8055C54.5009 45.2248 55.2087 45.6036 56.0239 45.9491L56.4141 45.0283L56.8042 44.1076C56.083 43.802 55.5147 43.4906 55.0832 43.1808L54.5 43.9932ZM56.4141 45.0283L56.0239 45.9491C56.8383 46.2941 57.783 46.6194 58.8526 46.9269L59.1289 45.9658L59.4052 45.0048C58.3915 44.7133 57.5263 44.4135 56.8042 44.1076L56.4141 45.0283ZM59.1289 45.9658L58.8437 46.9243C60.3793 47.3812 61.6993 47.8833 62.8108 48.4267L63.25 47.5283L63.6892 46.6299C62.4569 46.0275 61.0296 45.488 59.4141 45.0073L59.1289 45.9658ZM63.25 47.5283L62.8189 48.4306C63.9208 48.9571 64.8099 49.5433 65.504 50.1795L66.1797 49.4424L66.8554 48.7052C65.987 47.9092 64.9229 47.2193 63.6811 46.626L63.25 47.5283ZM66.1797 49.4424L65.504 50.1795C66.188 50.8065 66.6874 51.5054 67.0184 52.2777L67.9375 51.8838L68.8566 51.4899C68.4064 50.4392 67.7339 49.5105 66.8554 48.7052L66.1797 49.4424ZM67.9375 51.8838L67.0204 52.2825C67.3479 53.0356 67.5234 53.9185 67.5234 54.9502H68.5234H69.5234C69.5234 53.6902 69.3084 52.5288 68.8546 51.4851L67.9375 51.8838ZM68.5234 54.9502H67.5234C67.5234 56.0105 67.3112 56.9354 66.9064 57.7452L67.8008 58.1924L68.6952 58.6396C69.2539 57.5223 69.5234 56.2858 69.5234 54.9502H68.5234ZM67.8008 58.1924L66.9088 57.7403C66.4999 58.5471 65.9121 59.2447 65.1286 59.8352L65.7305 60.6338L66.3323 61.4324C67.3457 60.6687 68.1381 59.7387 68.6928 58.6445L67.8008 58.1924ZM65.7305 60.6338L65.1305 59.8338C64.3566 60.4142 63.4019 60.88 62.2473 61.2168L62.5273 62.1768L62.8073 63.1368C64.1528 62.7443 65.3335 62.1815 66.3305 61.4338L65.7305 60.6338ZM62.5273 62.1768L62.254 61.2149C61.1205 61.537 59.8342 61.7041 58.3867 61.7041V62.7041V63.7041C59.9861 63.7041 61.4602 63.5197 62.8007 63.1387L62.5273 62.1768ZM58.3867 62.7041V61.7041C57.1096 61.7041 55.851 61.534 54.6085 61.1929L54.3438 62.1572L54.079 63.1216C55.4928 63.5096 56.9294 63.7041 58.3867 63.7041V62.7041ZM54.3438 62.1572L54.6109 61.1936C53.3981 60.8573 52.3019 60.3497 51.3161 59.6727L50.75 60.4971L50.1839 61.3214C51.3596 62.1288 52.6592 62.7279 54.0766 63.1209L54.3438 62.1572ZM50.75 60.4971L51.3228 59.6774C50.3607 59.0051 49.6036 58.1775 49.0407 57.1895L48.1719 57.6846L47.303 58.1796C48.0162 59.4313 48.9778 60.4786 50.1772 61.3168L50.75 60.4971ZM48.1719 57.6846L49.0432 57.1938C48.5023 56.2335 48.2148 55.0863 48.2148 53.7197H47.2148H46.2148C46.2148 55.374 46.5654 56.87 47.3006 58.1753L48.1719 57.6846ZM47.2148 53.7197V54.7197H52.1172V53.7197V52.7197H47.2148V53.7197ZM52.1172 53.7197H51.1172C51.1172 54.7534 51.2916 55.6973 51.6844 56.5157L52.5859 56.083L53.4875 55.6503C53.2553 55.1666 53.1172 54.535 53.1172 53.7197H52.1172ZM52.5859 56.083L51.6915 56.5302C52.0866 57.3205 52.6393 57.9798 53.3454 58.4933L53.9336 57.6846L54.5218 56.8758C54.0821 56.5561 53.7363 56.1476 53.4804 55.6358L52.5859 56.083ZM53.9336 57.6846L53.3576 58.5021C54.0396 58.9825 54.8166 59.3291 55.6754 59.5512L55.9258 58.583L56.1762 57.6149C55.5245 57.4463 54.9734 57.1939 54.5095 56.8671L53.9336 57.6846ZM55.9258 58.583L55.6794 59.5522C56.5358 59.7699 57.4395 59.876 58.3867 59.876V58.876V57.876C57.5892 57.876 56.8523 57.7867 56.1722 57.6138L55.9258 58.583ZM58.3867 58.876V59.876C59.6197 59.876 60.7194 59.7019 61.648 59.3084L61.2578 58.3877L60.8677 57.4669C60.2597 57.7245 59.4454 57.876 58.3867 57.876V58.876ZM61.2578 58.3877L61.6424 59.3108C62.5686 58.9249 63.3271 58.3561 63.8477 57.5752L63.0156 57.0205L62.1836 56.4658C61.9229 56.8568 61.5095 57.1995 60.8732 57.4646L61.2578 58.3877ZM63.0156 57.0205L63.8477 57.5752C64.3578 56.8101 64.6016 55.9362 64.6016 54.9893H63.6016H62.6016C62.6016 55.5788 62.4547 56.0591 62.1836 56.4658L63.0156 57.0205ZM93.8945 37.665L94.8399 37.9909L94.8791 37.8772L94.8903 37.7574L93.8945 37.665ZM85.3984 62.3135V63.3135H86.1115L86.3439 62.6394L85.3984 62.3135ZM80.2617 62.3135L79.3258 61.9612L78.8169 63.3135H80.2617V62.3135ZM90.9648 33.876V32.876H90.2727L90.0289 33.5237L90.9648 33.876ZM94.2461 33.876L95.2418 33.9684L95.3432 32.876H94.2461V33.876ZM101.004 62.3135L100.059 62.64L100.291 63.3135H101.004V62.3135ZM92.4883 37.665L91.493 37.7625L91.5045 37.88L91.5431 37.9916L92.4883 37.665ZM92.1172 33.876V32.876H91.0145L91.1219 33.9734L92.1172 33.876ZM95.418 33.876L96.3535 33.5226L96.1092 32.876H95.418V33.876ZM106.16 62.3135V63.3135H107.607L107.096 61.9601L106.16 62.3135ZM100.594 51.7666H101.594V50.7666H100.594V51.7666ZM100.594 55.6533V56.6533H101.594V55.6533H100.594ZM85.125 55.6533H84.125V56.6533H85.125V55.6533ZM85.125 51.7666V50.7666H84.125V51.7666H85.125ZM93.8945 37.665L92.9491 37.3392L84.453 61.9876L85.3984 62.3135L86.3439 62.6394L94.8399 37.9909L93.8945 37.665ZM85.3984 62.3135V61.3135H80.2617V62.3135V63.3135H85.3984V62.3135ZM80.2617 62.3135L81.1976 62.6657L91.9007 34.2282L90.9648 33.876L90.0289 33.5237L79.3258 61.9612L80.2617 62.3135ZM90.9648 33.876V34.876H94.2461V33.876V32.876H90.9648V33.876ZM94.2461 33.876L93.2504 33.7836L92.8988 37.5727L93.8945 37.665L94.8903 37.7574L95.2418 33.9684L94.2461 33.876ZM101.004 62.3135L101.949 61.9869L93.4335 37.3385L92.4883 37.665L91.5431 37.9916L100.059 62.64L101.004 62.3135ZM92.4883 37.665L93.4835 37.5676L93.1124 33.7785L92.1172 33.876L91.1219 33.9734L91.493 37.7625L92.4883 37.665ZM92.1172 33.876V34.876H95.418V33.876V32.876H92.1172V33.876ZM95.418 33.876L94.4825 34.2294L105.225 62.6669L106.16 62.3135L107.096 61.9601L96.3535 33.5226L95.418 33.876ZM106.16 62.3135V61.3135H101.004V62.3135V63.3135H106.16V62.3135ZM100.594 51.7666H99.5938V55.6533H100.594H101.594V51.7666H100.594ZM100.594 55.6533V54.6533H85.125V55.6533V56.6533H100.594V55.6533ZM85.125 55.6533H86.125V51.7666H85.125H84.125V55.6533H85.125ZM85.125 51.7666V52.7666H100.594V51.7666V50.7666H85.125V51.7666Z" fill="black" fill-opacity="0.1" mask="url(#path-1-outside-1_1050_1091)"/>
</g>
<path d="M206.702 0.755991C207.05 0.611256 207.354 0.609819 207.612 0.751682C208.024 0.675329 208.43 0.57897 208.83 0.462608C209.218 0.306236 209.644 0.20406 210.107 0.156079C210.227 0.12117 210.347 0.0862614 210.467 0.0513526C210.628 0.00480753 210.753 -0.0100968 210.845 0.00663951C211.212 0.0735848 211.559 0.298016 211.887 0.679932C212.215 1.06185 212.291 1.47357 212.116 1.91511C212.289 2.2119 212.371 2.49197 212.36 2.75529C212.339 2.97861 212.348 3.23612 212.39 3.52781C212.188 4.32433 212.025 5.1092 211.903 5.88245C211.809 6.60404 211.624 7.3089 211.346 7.99702C211.291 8.40365 211.247 8.69861 211.213 8.88192C211.18 9.06523 211.152 9.26854 211.13 9.49186C211.108 9.71518 211.041 9.93012 210.927 10.1367C210.842 10.2916 210.789 10.4808 210.767 10.7041C210.683 11.1624 210.588 11.5806 210.481 11.9589C210.414 12.3255 210.333 12.7179 210.238 13.1362C210.087 13.9611 209.89 14.7776 209.648 15.5857C209.406 16.3939 209.261 17.2388 209.214 18.1204C209.107 18.4987 209.011 18.9169 208.928 19.3752C208.872 19.7818 208.791 20.1742 208.684 20.5525C208.577 20.9308 208.476 21.329 208.381 21.7473C208.326 22.1539 208.25 22.5663 208.155 22.9846L207.656 24.6267C207.634 24.85 207.613 25.0734 207.591 25.2967C207.597 25.4683 207.59 25.6658 207.568 25.8892C207.524 26.3358 207.475 26.7624 207.419 27.169C207.404 27.564 207.349 27.9707 207.253 28.3889C207.17 28.8472 207.074 29.2654 206.967 29.6437C206.901 30.0103 206.814 30.3827 206.707 30.761C206.611 31.1793 206.536 31.5917 206.481 31.9983C206.465 32.3933 206.338 32.7774 206.1 33.1505C206.125 33.5339 206.092 33.8689 206.002 34.1555C205.911 34.4421 205.853 34.7629 205.826 35.1178C205.71 36.0627 205.529 37.0051 205.281 37.9449C205.062 38.8331 204.849 39.7413 204.642 40.6694C204.408 40.9109 204.186 41.1924 203.976 41.5139C203.794 41.7838 203.483 41.9827 203.043 42.1107C202.855 42.2089 202.695 42.2555 202.563 42.2504C202.42 42.2052 202.256 42.166 202.073 42.1325C201.638 42.1288 201.337 42.0644 201.171 41.9393C201.044 41.8025 200.929 41.7058 200.826 41.649C200.768 41.449 200.71 41.2489 200.651 41.0489C200.622 40.7972 200.529 40.6288 200.374 40.5437C200.427 39.5304 200.473 38.4971 200.514 37.4438C200.543 36.3505 200.644 35.2797 200.816 34.2315C200.9 33.7733 200.99 33.335 201.085 32.9167C201.22 32.4868 201.33 32.0427 201.414 31.5845C201.509 31.1662 201.558 30.7396 201.562 30.3046C201.554 29.8296 201.624 29.3971 201.77 29.0072C201.938 28.0907 202.005 27.2033 201.973 26.3449C201.968 25.4349 202.067 24.5816 202.269 23.7851C202.312 23.0352 202.38 22.2994 202.474 21.5778C202.596 20.8045 202.684 20.0629 202.738 19.353C202.825 18.4597 202.937 17.9498 203.074 17.8232C202.999 17.7148 202.978 17.569 203.012 17.3857C203.034 17.1624 203.067 16.9791 203.112 16.8358C203.076 16.4124 203.097 16.0374 203.176 15.7108C203.189 15.0125 203.215 14.3542 203.252 13.7359C203.329 13.1059 203.452 12.4844 203.621 11.8712C203.608 11.5278 203.606 11.2245 203.617 10.9611C203.655 10.6462 203.668 10.317 203.655 9.97368C203.654 9.67034 203.658 9.38701 203.668 9.12369C203.678 8.86036 203.708 8.59122 203.759 8.31626C203.722 7.89289 203.7 7.44371 203.692 6.9687C203.684 6.4937 203.696 6.01287 203.728 5.52623C203.805 4.89629 203.874 4.31218 203.935 3.77389C204.035 3.22396 204.199 2.74242 204.426 2.32926C204.511 2.17433 204.616 2.01357 204.741 1.847C204.855 1.64042 205.006 1.48803 205.194 1.38984C205.451 1.22837 205.711 1.15274 205.974 1.16294C206.226 1.13313 206.468 0.99748 206.702 0.755991ZM201.565 45.5346C202.062 45.3033 202.474 45.227 202.801 45.3055C203.15 45.4641 203.345 45.5376 203.385 45.526C203.414 45.4743 203.454 45.4627 203.505 45.4911C204.107 45.6199 204.598 46.0411 204.979 46.7547C205.349 47.4283 205.475 48.0859 205.358 48.7275C205.104 49.4956 204.884 50.0805 204.697 50.482C204.51 50.8835 204.225 51.2483 203.843 51.5763C203.581 51.8695 203.328 52.1168 203.083 52.3183C202.878 52.5081 202.563 52.6212 202.14 52.6575C200.893 52.8466 200.022 52.6876 199.528 52.1806C199.073 51.6619 198.807 51.045 198.729 50.3299C198.705 49.9466 198.717 49.6174 198.768 49.3425C198.801 49.1592 198.826 49.0217 198.843 48.93C198.9 48.8267 198.951 48.7034 198.996 48.5601C199.335 47.6371 199.88 46.8275 200.632 46.1314C200.809 45.9932 200.952 45.8866 201.06 45.8117C201.157 45.6968 201.325 45.6044 201.565 45.5346Z" fill="#3E00FF"/>
<path d="M169.048 53.9959C169.736 52.9281 170.326 51.8235 170.818 50.6822C171.339 49.4893 171.92 48.2789 172.561 47.051C172.703 46.7928 172.833 46.4946 172.952 46.1563C173.07 45.8181 173.183 45.4598 173.29 45.0816C173.38 44.795 173.516 44.5168 173.698 44.2469C173.868 43.937 174.004 43.6588 174.106 43.4122C174.168 43.1773 174.261 42.9765 174.387 42.8099C174.552 42.6317 174.711 42.4335 174.865 42.2153C175.006 41.9571 175.14 41.7447 175.265 41.5781C175.378 41.3715 175.512 41.1591 175.665 40.9409C175.944 40.5561 176.203 40.1771 176.441 39.804C176.668 39.3908 176.973 39.0202 177.355 38.6922C177.583 38.5824 177.74 38.45 177.825 38.295C177.898 38.1001 177.992 37.8993 178.105 37.6927C178.317 37.6746 178.491 37.6022 178.628 37.4756C178.765 37.3491 178.922 37.2167 179.098 37.0785C179.693 37.0356 180.198 37.1277 180.611 37.3547C181.064 37.57 181.497 37.7912 181.91 38.0181C182.225 38.0567 182.48 38.1127 182.675 38.1862C182.858 38.2197 183.048 38.2732 183.242 38.3467C183.496 38.6202 183.723 38.8795 183.924 39.1247C184.126 39.3698 184.279 39.6724 184.384 40.0325C184.453 40.2726 184.503 40.5184 184.533 40.7701C184.563 41.0218 184.593 41.2735 184.623 41.5252C184.602 42.0519 184.618 42.3294 184.669 42.3577C184.721 42.3861 184.759 42.4403 184.782 42.5203C184.915 42.8288 184.894 43.2037 184.718 43.6453C184.571 44.0352 184.61 44.3927 184.835 44.7179C184.91 44.8263 184.937 45.1438 184.917 45.6704C184.937 46.1854 184.984 46.4971 185.059 46.6055C185.209 46.8223 185.342 47.1308 185.458 47.5308C185.563 47.8909 185.738 48.1219 185.985 48.2237C186.432 48.2674 186.735 48.266 186.895 48.2194C187.055 48.1729 187.195 48.1322 187.315 48.0973C187.725 47.7176 188.209 47.1429 188.766 46.3734C189.312 45.5638 189.707 44.9066 189.95 44.4018C190.257 43.9653 190.53 43.5605 190.769 43.1874C190.996 42.7742 191.349 42.3461 191.827 41.9032C192.214 41.4435 192.465 41.1103 192.578 40.9038C192.68 40.6572 192.853 40.2815 193.096 39.7766C193.182 39.6217 193.287 39.461 193.412 39.2944C193.577 39.1162 193.716 38.9238 193.83 38.7172C193.915 38.5623 194.04 38.3957 194.205 38.2175C194.359 37.9993 194.49 37.8527 194.598 37.7778C194.758 37.7312 194.978 37.6672 195.258 37.5858C195.578 37.4927 195.801 37.5145 195.928 37.6513C196.101 37.9481 196.183 38.2282 196.172 38.4915C196.162 38.7548 196.126 39.0039 196.064 39.2389C195.974 39.5255 195.858 39.7979 195.716 40.0561C195.638 40.3827 195.533 40.6952 195.403 40.9934C195.261 41.2516 195.111 41.5557 194.952 41.9056C194.782 42.2154 194.56 42.4969 194.287 42.75C194.156 43.0483 194.02 43.3265 193.878 43.5847C193.765 43.7913 193.637 44.0237 193.495 44.2819C193.354 44.5402 193.238 44.8126 193.147 45.0992C193.057 45.3858 192.941 45.6582 192.799 45.9164C192.464 46.4045 192.128 46.8926 191.793 47.3807C191.486 47.8171 191.217 48.3077 190.984 48.8525C190.808 48.9907 190.677 49.1373 190.592 49.2922C190.495 49.4072 190.378 49.5279 190.241 49.6545C189.876 49.8909 189.554 50.2015 189.276 50.5862C188.997 50.971 188.704 51.3816 188.397 51.8181C188.119 52.2029 187.814 52.5735 187.484 52.9299C187.154 53.2863 186.743 53.5143 186.251 53.6139C185.869 53.942 185.495 54.0725 185.128 54.0056C184.75 53.8986 184.372 53.7917 183.993 53.6847C183.472 53.5327 182.959 53.3348 182.454 53.0911C181.949 52.8473 181.563 52.417 181.297 51.8002C180.915 50.7832 180.75 49.7681 180.802 48.7548C180.854 47.7415 180.827 46.7515 180.719 45.7847C180.696 45.7047 180.675 45.5589 180.657 45.3472C180.667 45.0839 180.638 44.8322 180.568 44.5921C180.526 44.3004 180.476 44.0546 180.418 43.8545C180.388 43.6028 180.342 43.4428 180.279 43.3744C180.175 43.3177 180.075 43.1951 179.976 43.0067C179.918 42.8066 179.7 42.6531 179.322 42.5462C179.087 42.4843 179.001 42.4876 179.064 42.556C179.128 42.6244 178.979 42.7109 178.619 42.8156C178.334 43.0288 178.1 43.2702 177.919 43.5401C177.737 43.81 177.535 44.0857 177.313 44.3671C177.041 44.9236 176.697 45.4575 176.282 45.9689C175.906 46.4686 175.608 47.0109 175.388 47.5957C175.173 48.0489 174.977 48.4962 174.802 48.9377C174.627 49.3793 174.411 49.8324 174.156 50.2973C173.81 51.0487 173.445 51.8059 173.059 52.5689C172.674 53.332 172.282 54.075 171.885 54.798C171.698 55.1996 171.531 55.5953 171.384 55.9851C171.237 56.375 171.07 56.7707 170.883 57.1723C170.578 57.912 170.226 58.6434 169.829 59.3665C169.705 59.8364 169.476 60.3154 169.14 60.8034C168.805 61.2915 168.441 61.6796 168.047 61.9676C167.904 61.9225 167.784 61.9574 167.687 62.0723C167.55 62.1989 167.422 62.2796 167.302 62.3145C166.763 62.2541 166.448 62.2156 166.357 62.1988C166.277 62.2221 166.194 62.1595 166.107 62.0111C165.637 61.8874 165.381 61.5281 165.338 60.9331C165.267 60.3897 165.213 59.9063 165.176 59.4829C165.053 57.5662 165.095 55.6229 165.303 53.653C165.46 51.6548 165.488 49.7373 165.388 47.9006C165.39 47.1623 165.41 46.4839 165.447 45.8656C165.472 45.2073 165.532 44.5174 165.626 43.7958C165.743 43.1542 165.76 42.5417 165.677 41.9583C165.623 41.3233 165.654 40.685 165.771 40.0434C165.85 39.7168 165.903 39.376 165.929 39.021C165.956 38.666 165.989 38.331 166.028 38.0161C166.235 37.0879 166.37 35.9855 166.433 34.7089C166.484 33.3922 166.595 32.2098 166.768 31.1616C166.876 29.7417 167.015 28.356 167.186 27.0044C167.357 25.6529 167.594 24.3039 167.897 22.9575C167.864 22.0991 167.889 21.2891 167.971 20.5275C168.082 19.7143 168.258 18.9036 168.5 18.0954C168.749 17.459 168.887 16.9632 168.914 16.6083C168.981 16.2416 169.074 15.8892 169.192 15.551C169.509 14.8512 169.922 14.254 170.429 13.7594C170.924 13.2248 171.31 12.6134 171.588 11.9253C171.861 11.6722 172.126 11.4649 172.383 11.3034C172.68 11.1303 172.951 10.943 173.196 10.7415C173.299 10.7983 173.374 10.9066 173.421 11.0667C173.496 11.1751 173.551 11.2893 173.585 11.4093C173.665 11.386 173.72 11.5002 173.75 11.7519C173.78 12.0036 173.838 12.2037 173.925 12.3521C174.099 12.9522 174.156 13.3697 174.094 13.6047C174.072 13.828 174.056 14.0713 174.046 14.3347C174.076 14.5863 174.12 14.8122 174.178 15.0123C174.224 15.1723 174.251 15.3381 174.257 15.5098C174.242 15.9048 174.246 16.1423 174.269 16.2223C174.321 16.2507 174.358 16.3049 174.382 16.3849C174.428 16.5449 174.461 16.7308 174.479 16.9425C174.497 17.1542 174.535 17.36 174.593 17.5601C174.681 18.0118 174.695 18.5068 174.635 19.0451C174.614 19.5718 174.602 20.0526 174.599 20.4876C174.44 20.8375 174.364 21.0982 174.37 21.2699C174.377 21.4416 174.326 21.5649 174.218 21.6398C174.175 22.3898 174.147 23.1139 174.134 23.8122C174.12 24.5106 173.994 25.198 173.757 25.8744C173.725 26.3611 173.633 26.8652 173.481 27.3867C173.357 27.8566 173.253 28.3207 173.17 28.779C173.148 29.0023 173.106 29.2314 173.044 29.4664C173.011 29.6497 172.983 29.853 172.961 30.0763C172.832 30.6779 172.689 31.3053 172.532 31.9585C172.404 32.5601 172.203 33.1391 171.931 33.6956C171.653 35.4253 171.341 37.1868 170.994 38.9798C170.636 40.7329 170.287 42.4401 169.946 44.1016C169.794 44.6231 169.704 45.0614 169.677 45.4163C169.639 45.7313 169.634 46.0146 169.664 46.2663C169.722 46.4664 169.68 46.6955 169.538 46.9537C169.523 47.3487 169.502 47.7237 169.475 48.0787C169.488 48.422 169.435 48.7628 169.317 49.1011C169.401 49.9878 169.362 50.8236 169.2 51.6085C169.066 52.3417 169.015 53.1375 169.048 53.9959Z" fill="#3E00FF"/>
<path d="M168.693 47.2975C169.175 47.7353 169.41 48.0602 169.397 48.2723C169.426 48.4786 169.457 48.7056 169.492 48.9532C169.32 49.2296 169.192 49.5208 169.109 49.8269C169.019 50.0918 168.865 50.3446 168.646 50.5854C168.463 50.7792 168.253 50.9347 168.017 51.0517C167.817 51.1217 167.648 51.2713 167.512 51.5007C167.276 51.6177 167.084 51.7496 166.936 51.8964C166.788 52.0432 166.546 52.1189 166.21 52.1236C165.358 53.252 164.582 54.1802 163.885 54.9085C163.228 55.6309 162.527 56.3385 161.782 57.0312C161.238 57.6539 160.647 58.241 160.008 58.7927C159.411 59.3386 158.793 59.8873 158.155 60.439C157.977 60.6741 157.82 60.9063 157.684 61.1356C157.542 61.3236 157.356 61.4968 157.125 61.6551C156.699 62.2193 156.247 62.7451 155.768 63.2325C155.324 63.6728 154.904 64.131 154.508 64.6069C154.1 65.0002 153.636 65.2961 153.117 65.4947C152.639 65.6874 152.187 65.9186 151.762 66.1881C151.024 66.6275 150.434 66.7727 149.993 66.6238C149.55 66.7695 149.167 66.886 148.842 66.9733C148.565 67.096 148.191 67.1271 147.719 67.0665C147.59 67.0425 147.457 66.9978 147.322 66.9325C147.187 66.8672 147.031 66.8048 146.854 66.7453C146.419 66.6377 146.063 66.4979 145.786 66.3261C145.557 66.1897 145.348 66.0505 145.16 65.9084C145.019 65.8018 144.849 65.6362 144.649 65.4116C144.455 65.2283 144.306 65.0598 144.2 64.9062C143.948 64.6048 143.77 64.23 143.665 63.7818C143.514 63.298 143.344 62.8378 143.157 62.4011C143.012 61.9587 142.825 61.5219 142.596 61.091C142.368 60.66 142.24 60.194 142.212 59.6931C142.208 59.3572 142.247 59.0362 142.331 58.73C142.367 58.3884 142.404 58.0468 142.44 57.7051C142.608 57.0929 142.739 56.5277 142.835 56.0095C142.931 55.4912 143.051 54.9908 143.194 54.5081C143.289 54.2845 143.39 54.1022 143.497 53.9612C143.644 53.8144 143.766 53.6292 143.861 53.4056C143.932 53.3116 143.956 53.182 143.933 53.017C143.951 52.8461 143.993 52.6931 144.058 52.5578C144.337 52.1404 144.636 51.7201 144.956 51.297C145.27 50.8326 145.539 50.3533 145.765 49.8591C145.931 49.5415 146.103 49.2652 146.281 49.0301C146.494 48.748 146.683 48.4482 146.85 48.1305C147.051 47.7659 147.19 47.5572 147.267 47.5045C147.38 47.4047 147.468 47.2872 147.534 47.1519C147.747 46.8698 147.939 46.5905 148.111 46.3142C148.277 45.9966 148.443 45.679 148.609 45.3614C148.858 45.0323 149.104 44.6825 149.347 44.3122C149.631 43.936 149.924 43.6218 150.225 43.3695C150.568 43.1114 150.913 42.874 151.262 42.6572C151.652 42.4347 152.059 42.1886 152.484 41.9191C152.679 41.8078 152.85 41.6788 152.998 41.532C153.187 41.3795 153.379 41.2476 153.574 41.1363C153.81 41.0193 154.029 40.9258 154.229 40.8558C154.43 40.7858 154.601 40.6567 154.743 40.4687C154.997 40.4755 155.218 40.4026 155.407 40.2501C155.596 40.0975 155.788 39.9656 155.983 39.8544C156.184 39.7844 156.369 39.7585 156.54 39.7768C156.752 39.7893 156.911 39.7251 157.018 39.584C157.153 39.6493 157.283 39.6733 157.407 39.6561C157.572 39.6331 157.701 39.6571 157.795 39.7282C157.966 39.7465 158.125 39.8295 158.272 39.9774C158.46 40.1195 158.589 40.2908 158.659 40.4914C158.828 41.0989 158.752 41.7616 158.431 42.4793C158.151 43.1913 157.89 43.7325 157.647 44.1029C157.487 44.4618 157.3 44.7823 157.087 45.0644C156.868 45.3052 156.608 45.5518 156.307 45.8041C155.811 45.873 155.301 45.9861 154.776 46.1434C154.287 46.2536 153.83 46.2962 153.406 46.2711C153.346 46.4477 153.24 46.5887 153.086 46.6942C152.968 46.7527 152.962 46.8588 153.067 47.0124C151.831 48.4045 150.771 49.8562 149.887 51.3675C148.998 52.8375 148.371 54.5235 148.005 56.4255C147.896 57.1558 147.761 57.7004 147.601 58.0593C147.435 58.3769 147.375 58.7008 147.421 59.0309C147.789 59.8631 148.305 60.5485 148.969 61.087C149.627 61.5843 150.251 61.834 150.84 61.8361C151.512 61.8267 152.073 61.6225 152.522 61.2234C153.012 60.8185 153.467 60.4607 153.887 60.1499C154.407 59.6567 154.913 59.2077 155.403 58.8029C155.935 58.3923 156.484 57.9582 157.052 57.5006C157.205 57.395 157.359 57.2895 157.513 57.184C157.66 57.0372 157.808 56.8904 157.956 56.7436C158.441 56.2975 158.867 55.8806 159.233 55.493C159.635 55.0584 160.041 54.6444 160.449 54.251C160.649 54.181 160.785 54.099 160.856 54.005C160.963 53.864 161.119 53.7791 161.325 53.7503C161.976 52.9866 162.701 52.2968 163.498 51.6809C164.29 51.0237 165.123 50.3608 165.998 49.6922C166.247 49.3631 166.501 49.0752 166.761 48.8287C167.057 48.5351 167.329 48.2237 167.578 47.8946C167.866 47.8544 168.064 47.7638 168.171 47.6227C168.272 47.4404 168.446 47.332 168.693 47.2975Z" fill="#3E00FF"/>
<path d="M135.701 33.6887C136.205 33.6326 136.629 33.5771 136.973 33.5223C137.316 33.4674 137.624 33.4233 137.894 33.3899C138.189 33.3041 138.484 33.2183 138.778 33.1326C139.061 33.0051 139.412 32.8354 139.83 32.6235C140.605 32.2627 141.293 31.9495 141.896 31.6839C142.523 31.3659 143.212 31.0527 143.962 30.7443C144.171 30.6383 144.392 30.574 144.625 30.5513C144.895 30.5179 145.141 30.469 145.362 30.4047C145.841 30.2653 146.296 30.1104 146.727 29.9401C147.194 29.7591 147.624 29.5888 148.017 29.4292C148.153 29.3446 148.27 29.2655 148.368 29.1917C148.467 29.1178 148.577 29.0857 148.7 29.0952C149.032 28.9987 149.363 28.9022 149.695 28.8057C150.015 28.6675 150.346 28.7067 150.689 28.9231C150.921 29.3075 151.024 29.5258 151 29.5782C150.975 29.6305 150.956 29.7037 150.943 29.7977C151.064 30.3499 151.069 30.642 150.958 30.6742C150.885 30.6956 150.86 30.748 150.884 30.8313C150.613 31.0004 150.38 31.1587 150.183 31.3064C150.01 31.4016 149.899 31.5694 149.849 31.8098C149.271 32.1587 148.693 32.3719 148.116 32.4495C147.564 32.4746 147.053 32.7134 146.585 33.1657C146.363 33.3657 146.135 33.6128 145.901 33.9068C145.691 34.1484 145.36 34.2449 144.906 34.1963C144.537 34.3035 144.119 34.4476 143.652 34.6287C143.185 34.8097 142.736 34.9854 142.306 35.1557C141.482 35.4856 140.769 35.7833 140.166 36.0489C139.589 36.2621 139.029 36.4699 138.489 36.6724C137.936 36.8332 137.37 37.0203 136.792 37.2335C136.252 37.4359 135.576 37.6551 134.765 37.891C134.554 38.2683 134.455 38.6813 134.465 39.1299C134.513 39.5679 134.425 39.9546 134.203 40.2903C134.138 41.1674 134.056 41.7785 133.956 42.1236C133.845 42.4271 133.807 42.777 133.842 43.1733C133.544 44.073 133.295 45.0037 133.094 45.9653C132.919 46.8746 132.658 47.7636 132.311 48.6325C132.37 49.112 132.344 49.5714 132.232 50.0105C132.144 50.3973 132.149 50.893 132.244 51.4975C132.021 52.2401 131.925 53.0131 131.959 53.8163C131.993 54.6196 131.983 55.4806 131.931 56.3993C131.954 56.7539 131.959 57.1139 131.945 57.4793C131.956 57.7923 131.955 58.1314 131.941 58.4968C131.915 58.9561 131.845 59.4054 131.733 59.8445C131.646 60.2313 131.57 60.6598 131.507 61.1298C131.458 61.2346 131.457 61.3702 131.506 61.5368C131.542 61.6618 131.554 61.7713 131.541 61.8653C131.515 62.189 131.484 62.4918 131.446 62.7739C131.396 63.0143 131.364 63.2493 131.351 63.479C131.338 63.7087 131.349 63.9538 131.385 64.2144C131.445 64.4227 131.469 64.6416 131.456 64.8713C131.455 65.007 131.455 65.1427 131.454 65.2783C131.442 65.3723 131.435 65.4872 131.435 65.6228C131.494 66.2381 131.609 66.6337 131.78 66.8098C131.951 66.9859 132.104 67.1673 132.238 67.3541C132.384 67.5825 132.525 67.7901 132.659 67.9769C132.781 68.1221 132.891 68.2934 132.988 68.4909C133.197 68.5206 133.387 68.5556 133.559 68.596C133.767 68.6257 133.964 68.6138 134.148 68.5602C134.381 68.5375 134.591 68.3637 134.776 68.0387C134.949 67.6721 135.122 67.4412 135.294 67.346C135.528 67.1876 135.756 67.0763 135.977 67.0119C136.235 66.9369 136.438 66.8101 136.586 66.6315C136.747 66.3589 136.87 66.0971 136.957 65.846C137.044 65.5949 137.205 65.3901 137.438 65.2318C137.98 64.8936 138.257 64.6775 138.27 64.5835C138.27 64.4479 138.351 64.2437 138.511 63.9712C138.709 63.6879 138.875 63.4361 139.011 63.2159C139.172 62.9434 139.369 62.6601 139.604 62.3661C139.912 62.0506 140.078 61.8667 140.103 61.8143C140.165 61.7512 140.288 61.5572 140.474 61.2323C140.782 60.9168 141.028 60.5966 141.214 60.2717C141.399 59.9467 141.627 59.6319 141.899 59.3272C142.219 59.0534 142.41 58.8849 142.471 58.8218C142.521 58.7171 142.54 58.6439 142.528 58.6022C142.552 58.5499 142.571 58.4767 142.584 58.3827C142.633 58.2779 142.775 58.0785 143.009 57.7845C143.06 57.4085 143.147 57.0895 143.271 56.8277C143.395 56.5658 143.537 56.2308 143.698 55.8225C143.835 55.4667 143.983 55.1525 144.144 54.8799C144.341 54.5966 144.502 54.324 144.626 54.0622C144.712 53.9467 144.78 53.8366 144.83 53.7319C144.867 53.5855 144.972 53.4647 145.144 53.3694C145.305 53.0968 145.422 52.882 145.496 52.7249C145.595 52.5154 145.75 52.222 145.96 51.8447C146.01 51.74 146.071 51.6091 146.146 51.4519C146.22 51.2948 146.288 51.1847 146.35 51.1216C146.497 51.0788 146.626 51.1091 146.736 51.2126C146.883 51.3053 147.03 51.3303 147.177 51.2874C147.298 51.8395 147.383 52.1989 147.431 52.3655C147.467 52.4904 147.473 52.6469 147.448 52.8349C147.335 53.2741 147.138 53.5574 146.855 53.6848C146.609 53.8015 146.473 54.0895 146.447 54.5489C146.312 54.4978 146.158 54.5198 145.986 54.6151C145.851 54.6996 145.758 54.7943 145.709 54.899C145.831 55.0442 145.91 55.1792 145.947 55.3041C145.983 55.4291 146.044 55.5695 146.129 55.7254C145.684 56.668 145.417 57.4006 145.329 57.923C145.044 58.5931 144.895 58.9751 144.882 59.0692C144.858 59.1215 144.845 59.1477 144.845 59.1477C144.845 59.1477 144.833 59.1739 144.808 59.2263C144.783 59.2786 144.697 59.4619 144.548 59.7761C144.165 60.3844 143.906 60.9343 143.769 61.4258C143.632 61.9173 143.354 62.4047 142.934 62.888C142.626 63.3391 142.422 63.6694 142.323 63.8789C142.224 64.0884 142.069 64.3818 141.859 64.7591C141.76 64.9686 141.667 65.1989 141.58 65.45C141.518 65.6487 141.419 65.8582 141.283 66.0784C141.086 66.3617 140.882 66.6242 140.673 66.8658C140.5 67.0968 140.358 67.364 140.246 67.6675C139.778 68.1198 139.469 68.5709 139.32 69.0208C139.208 69.46 138.961 69.9158 138.578 70.3884C138.319 70.7348 137.949 71.1812 137.468 71.7276C137.024 72.2632 136.624 72.6733 136.267 72.9578C136.168 73.0317 136.07 73.1055 135.971 73.1793C135.91 73.2424 135.83 73.3108 135.731 73.3846C135.376 73.2622 135.02 73.1397 134.665 73.0173C134.346 72.8841 134.04 72.6569 133.747 72.3357C133.33 72.1406 132.993 72.0128 132.736 71.9522C132.515 71.8809 132.282 71.7679 132.037 71.6133C131.463 71.0125 130.833 70.4278 130.148 69.8592C129.499 69.2798 128.919 68.5904 128.407 67.7909C128.284 67.6457 128.181 67.4952 128.095 67.3393C128.035 67.1311 127.956 66.9282 127.858 66.7307C127.688 66.419 127.529 66.1489 127.383 65.9205C127.236 65.692 127.127 65.385 127.055 64.9995C126.982 64.7496 126.94 64.4682 126.929 64.1552C126.918 63.8422 126.901 63.5084 126.878 63.1538C126.868 62.5695 126.882 62.0007 126.921 61.4473C126.997 60.8832 127.006 60.2935 126.947 59.6783C126.924 59.188 126.914 58.7394 126.915 58.3324C126.917 57.9254 126.925 57.4714 126.939 56.9704C126.952 56.7407 126.934 56.5426 126.886 56.376C126.862 56.157 126.93 55.9791 127.091 55.8422C126.996 54.9663 127.005 54.1053 127.119 53.2592C127.221 52.3714 127.334 51.5252 127.46 50.7207C127.611 49.7282 127.72 48.7256 127.785 47.7128C127.887 46.6894 128.014 45.6814 128.165 44.6888C128.056 44.1783 128.083 43.719 128.244 43.3107C128.148 42.8419 128.168 42.3617 128.305 41.8702C128.43 41.337 128.481 40.8253 128.458 40.335C128.016 40.328 127.555 40.462 127.076 40.7371C126.621 40.9598 126.221 41.1664 125.876 41.3569C125.225 41.5915 124.524 41.7952 123.775 41.968C123.505 42.0014 123.235 42.0349 122.965 42.0683C122.719 42.0493 122.486 42.072 122.265 42.1363C121.945 42.2745 121.681 42.3287 121.472 42.299C121.288 42.217 121.116 42.2444 120.956 42.3813C120.344 42.0626 119.903 41.8521 119.633 41.7498C119.364 41.6476 119.118 41.5608 118.898 41.4894C118.628 41.3872 118.395 41.2742 118.199 41.1505C117.954 40.9959 117.722 40.7472 117.503 40.4046C117.466 40.2796 117.491 40.1594 117.578 40.044C117.664 39.9285 117.732 39.8184 117.781 39.7137C118.052 39.5446 118.378 39.4273 118.759 39.3617C119.127 39.2545 119.398 39.0854 119.571 38.8545C120.185 38.7662 120.707 38.5691 121.138 38.2631C121.606 37.9464 122.122 37.7285 122.687 37.6093C122.798 37.5771 122.915 37.5658 123.037 37.5753C123.16 37.5847 123.277 37.5734 123.387 37.5412C123.584 37.5293 123.731 37.4864 123.83 37.4126C123.965 37.328 124.119 37.2381 124.291 37.1429C124.5 37.0369 124.74 36.9672 125.01 36.9338C125.28 36.9004 125.538 36.8253 125.784 36.7086C126.251 36.5276 126.841 36.4239 127.553 36.3975C128.29 36.3187 128.886 36.1001 129.341 35.7418C129.356 35.1051 129.389 34.4631 129.441 33.8157C129.517 33.1159 129.544 32.4531 129.522 31.8271C129.597 31.5343 129.666 31.2207 129.728 30.8863C129.779 30.5102 129.799 30.1657 129.788 29.8528C129.888 29.3719 129.957 28.9905 129.995 28.7085C130.069 28.4157 130.163 28.1176 130.274 27.8141C130.363 27.156 130.384 26.5401 130.337 25.9665C130.315 25.3406 130.317 24.6622 130.345 23.9316C130.654 23.2091 130.928 22.3617 131.165 21.3894C131.435 21.356 131.613 21.2137 131.7 20.9626C131.824 20.7007 132.088 20.6465 132.493 20.7999C132.529 20.9248 132.602 21.0391 132.712 21.1425C132.847 21.1937 132.908 21.3341 132.895 21.5638C133.14 21.7184 133.342 21.8629 133.501 21.9973C133.66 22.1318 133.806 22.2924 133.941 22.4792C134.111 22.7909 134.19 23.1973 134.175 23.6983C134.186 24.1469 134.338 24.5318 134.631 24.8531C134.765 25.0398 134.844 25.2427 134.868 25.4617C134.88 25.639 134.947 25.8002 135.069 25.9454C135.203 26.1322 135.356 26.3136 135.527 26.4897C135.735 26.655 135.887 26.9043 135.984 27.2374C136.021 27.3624 136.032 27.5397 136.019 27.7694C136.031 27.9467 136.03 28.1502 136.017 28.3799C136.051 29.0475 136.068 29.5169 136.066 29.7883C136.065 30.0596 136.07 30.3517 136.081 30.6647C135.92 31.0729 135.858 31.3395 135.894 31.4645C135.918 31.5478 135.924 31.6364 135.912 31.7304C135.874 32.0125 135.836 32.3624 135.797 32.7801C135.783 33.1454 135.752 33.4483 135.701 33.6887Z" fill="#3E00FF"/>
<path d="M118.636 58.1602C118.691 58.2796 118.679 58.5327 118.597 58.9195C118.419 59.1917 118.325 59.475 118.317 59.7695C118.253 59.9446 118.187 60.099 118.119 60.2326C118.092 60.3616 118.069 60.5319 118.051 60.7436C117.997 61.0015 117.989 61.296 118.027 61.6272C118.106 61.9536 118.142 62.2641 118.134 62.5586C118.103 63.0234 118.094 63.4859 118.104 63.946C118.111 64.3647 118.119 64.8041 118.13 65.2642C118.182 65.7195 118.2 66.2417 118.184 66.8307C118.168 67.4198 118.144 67.9467 118.114 68.4116C118.312 68.6823 118.452 68.9809 118.531 69.3073C118.61 69.6337 118.786 69.8862 119.058 70.0646C119.872 69.8455 120.513 69.5832 120.981 69.2778C121.445 68.931 121.875 68.4832 122.274 67.9342C122.627 67.7258 122.859 67.5525 122.969 67.414C123.12 67.2708 123.35 67.0767 123.657 66.8318C123.73 66.7395 123.804 66.6472 123.877 66.5549C123.95 66.4626 124.024 66.3703 124.097 66.278C124.524 65.9774 124.774 65.7809 124.847 65.6887C124.962 65.5916 125.097 65.4922 125.253 65.3904C125.905 64.8543 126.388 64.3165 126.704 63.777C127.043 63.4445 127.263 63.1676 127.363 62.9464C127.5 62.679 127.805 62.4134 128.278 62.1494C128.53 61.785 128.789 61.4827 129.055 61.2424C129.358 60.9561 129.635 60.6307 129.887 60.2663C130.094 60.2425 130.264 60.2649 130.398 60.3335C130.531 60.402 130.686 60.4682 130.861 60.5319C131.023 60.8489 131.084 61.1983 131.044 61.5804C130.999 61.9211 130.89 62.2481 130.716 62.5617C130.543 62.8752 130.458 63.0526 130.463 63.094C130.468 63.1354 130.452 63.1792 130.415 63.2253C130.31 63.4052 130.163 63.5897 129.975 63.7791C129.824 63.9223 129.696 64.0838 129.591 64.2636C129.426 64.6599 129.282 64.8652 129.158 64.8794C129.034 64.8937 128.935 64.947 128.862 65.0392C128.513 65.289 128.263 65.4854 128.111 65.6286C128.002 65.7671 127.793 65.9588 127.485 66.2037C127.059 66.5043 126.809 66.7008 126.735 66.7931C126.662 66.8854 126.586 66.957 126.508 67.0079C126.037 67.6492 125.595 68.1822 125.182 68.607C124.806 68.9857 124.403 69.4933 123.973 70.1298C123.821 70.273 123.67 70.4162 123.519 70.5594C123.367 70.7025 123.241 70.8847 123.141 71.106C122.797 71.3971 122.515 71.6811 122.295 71.958C122.117 72.2301 121.902 72.5483 121.65 72.9128C121.416 73.0654 121.168 73.2826 120.907 73.5642C120.641 73.8045 120.352 74.0264 120.039 74.2299C119.883 74.3317 119.709 74.4566 119.516 74.6045C119.36 74.7063 119.179 74.7691 118.972 74.7928C118.484 74.9326 118.024 74.9435 117.591 74.8254C117.158 74.7073 116.751 74.6283 116.369 74.5882C116.175 74.3589 115.944 74.1756 115.677 74.0386C115.252 73.626 114.921 73.1187 114.684 72.5168C114.447 71.9149 114.206 71.2715 113.959 70.5868C113.652 70.8318 113.372 71.1365 113.121 71.5009C112.869 71.8653 112.527 72.1771 112.096 72.4364C111.358 73.3179 110.556 74.1858 109.689 75.0402C108.859 75.8484 108.014 76.7004 107.152 77.5961C107.042 77.7346 106.929 77.8523 106.815 77.9493C106.7 78.0464 106.599 78.079 106.511 78.0471C106.333 78.3192 106.06 78.4973 105.692 78.5815C105.37 78.7023 104.998 78.745 104.574 78.7097C104.137 78.5502 103.747 78.4481 103.407 78.4033C103.066 78.3585 102.721 78.2723 102.371 78.1448C101.653 78.1013 101.037 77.8574 100.525 77.4129C99.9713 76.9731 99.4909 76.4411 99.0837 75.8168C98.9215 75.4999 98.8031 75.1989 98.7285 74.9139C98.6124 74.6337 98.4916 74.312 98.3661 73.9489C98.2867 73.6225 98.1937 73.3606 98.0872 73.1631C97.9759 72.9242 97.9498 72.6966 98.0088 72.4801C97.9118 72.3654 97.8768 72.2436 97.904 72.1147C97.9264 71.9443 97.9281 71.7764 97.9091 71.6108C97.8012 71.036 97.792 70.408 97.8816 69.7266C97.9298 69.0501 98.0472 68.4285 98.2338 67.8618C98.2976 67.6868 98.4394 67.4608 98.6593 67.1839C98.7278 67.0502 98.7757 66.9189 98.8028 66.79C98.83 66.661 98.8802 66.5504 98.9535 66.4581C99.022 66.3245 99.1319 66.186 99.2833 66.0428C99.4346 65.8996 99.5652 65.7588 99.6752 65.6204C99.8489 65.3069 100.048 65.0324 100.273 64.7969C100.534 64.5153 100.775 64.236 100.994 63.9592C101.104 63.8207 101.191 63.664 101.255 63.4889C101.36 63.3091 101.511 63.1659 101.709 63.0593C101.841 62.7506 102.001 62.5015 102.189 62.3122C102.373 62.0815 102.577 61.8484 102.801 61.6129C103.405 60.6628 104.191 59.8387 105.16 59.1404C106.128 58.4421 106.983 57.6729 107.726 56.8328C108.001 56.6754 108.233 56.502 108.421 56.3127C108.609 56.1233 108.797 55.934 108.985 55.7447C109.471 55.2276 110.013 55.0186 110.612 55.1176C111.21 55.2167 111.765 55.2998 112.276 55.367C112.733 55.6921 113.169 56.0195 113.584 56.3493C114.041 56.6744 114.44 57.0479 114.782 57.47C115.067 57.3954 115.398 57.3574 115.775 57.356C116.148 57.3133 116.537 57.2268 116.941 57.0965C117.065 57.0822 117.187 57.0473 117.306 56.9916C117.421 56.8946 117.52 56.8413 117.603 56.8318C118.247 56.9675 118.593 57.2424 118.641 57.6563L118.636 58.1602ZM110.552 59.5282C109.496 60.1946 108.555 60.9526 107.73 61.8022C106.9 62.6105 106.119 63.476 105.386 64.3989C105.202 64.6296 104.998 64.8627 104.774 65.0982C104.586 65.2876 104.421 65.4952 104.279 65.7212C104.137 65.9472 104 66.2145 103.868 66.5233C103.777 66.8273 103.684 67.1106 103.588 67.3733C103.524 67.5483 103.458 67.7027 103.39 67.8364C103.316 67.9287 103.245 68.0417 103.177 68.1754C103.118 68.3918 103.1 68.6036 103.124 68.8105C103.189 69.0128 103.236 69.2381 103.264 69.4864C103.288 69.6934 103.312 69.9004 103.336 70.1074C103.359 70.3143 103.404 70.5189 103.469 70.7212C103.645 71.1622 103.76 71.6105 103.812 72.0658C103.85 72.397 103.918 72.8085 104.017 73.3005C104.152 73.7464 104.353 74.0378 104.62 74.1749C104.888 74.312 105.141 74.3249 105.38 74.2136C105.66 74.0976 105.901 74.007 106.103 73.9418C107.424 72.6579 108.657 71.3421 109.802 69.9944C110.943 68.6053 111.922 67.0879 112.74 65.4423C112.534 64.3755 112.394 63.343 112.322 62.3448C112.286 61.3004 112.094 60.3578 111.746 59.517C111.57 59.4533 111.361 59.4563 111.118 59.5262C110.911 59.55 110.722 59.5506 110.552 59.5282Z" fill="#3E00FF"/>
<path d="M59.7698 85.3022C59.9582 85.204 60.095 85.0775 60.1801 84.9225C60.2536 84.7276 60.3529 84.5468 60.478 84.3802C60.5748 84.2653 60.6715 84.1504 60.7683 84.0355C60.9051 83.9089 61.0218 83.7882 61.1186 83.6732C61.4939 83.1735 61.8177 82.6454 62.0898 82.089C62.4019 81.5209 62.7314 81.0128 63.0784 80.5647C63.424 79.8133 63.787 79.1219 64.1675 78.4906C64.5764 77.8075 64.9077 77.0819 65.1617 76.3138C65.6338 75.6992 66.0827 75.0045 66.5082 74.2298C66.7701 73.9367 67.0062 73.6294 67.2164 73.3079C67.4551 72.9347 67.7253 72.5958 68.0272 72.291C68.1574 71.9928 68.3019 71.6687 68.4605 71.3188C68.6191 70.9689 68.8293 70.6474 69.0912 70.3543C69.3182 69.9411 69.5884 69.6022 69.902 69.3374C70.2555 69.061 70.5458 68.7162 70.7727 68.3031C71.2798 67.8085 71.8083 67.6114 72.3582 67.7118C72.8965 67.7722 73.3522 67.9217 73.7254 68.1603C73.8636 68.3371 74.0218 68.508 74.2 68.6732C74.3665 68.7983 74.5589 68.9376 74.7772 69.0911C74.8921 69.1879 75.007 69.2846 75.1219 69.3814C75.2252 69.4381 75.306 69.5665 75.3641 69.7666C75.5038 70.2467 75.5776 70.7242 75.5855 71.1992C75.5935 71.6742 75.6215 72.1434 75.6695 72.6068C75.7524 73.1902 75.8553 73.7678 75.9782 74.3395C76.1294 74.8596 76.2065 75.423 76.2094 76.0297C76.5425 76.28 76.8215 76.5677 77.0462 76.8928C77.311 77.2064 77.5983 77.4483 77.9082 77.6185C78.0566 77.5319 78.1901 77.3195 78.3087 76.9813C78.4622 76.7631 78.6415 76.5591 78.8466 76.3692C79.0801 76.1277 79.2678 75.8779 79.4097 75.6196C79.6367 75.2065 79.8353 74.845 80.0055 74.5351C80.2158 74.2136 80.4144 73.8521 80.6013 73.4505C80.7999 73.089 81.0044 72.7475 81.2146 72.426C81.4249 72.1045 81.6493 71.7572 81.8879 71.384C82.1149 70.9709 82.3019 70.5693 82.4488 70.1794C82.6242 69.7379 82.8253 69.3106 83.0523 68.8974C83.1258 68.7025 83.2167 68.5675 83.3251 68.4926C83.4619 68.3661 83.5412 68.1911 83.563 67.9678C83.8365 67.7147 84.0326 67.419 84.1512 67.0807C84.3098 66.7309 84.5717 66.4377 84.9368 66.2013C85.3253 66.045 85.5854 65.9693 85.717 65.9744C85.8487 65.9795 86.0695 66.0672 86.3793 66.2374C86.6259 66.3393 86.8241 66.4986 86.974 66.7154C87.1638 66.9205 87.382 67.074 87.6286 67.1759C87.945 67.5178 88.1723 67.7771 88.3105 67.9539C88.4771 68.079 88.6578 68.1783 88.8528 68.2518C89.1059 68.5253 89.219 68.8396 89.1921 69.1946C89.2052 69.5379 89.2182 69.8813 89.2313 70.2246C89.3309 70.7163 89.384 71.048 89.3905 71.2197C89.3854 71.3514 89.392 71.5231 89.4101 71.7347C89.5774 73.2049 89.6129 74.6699 89.5168 76.1298C89.6499 76.4383 89.8172 76.715 90.0187 76.9602C90.2085 77.1653 90.3474 77.4938 90.4354 77.9455C90.6871 77.9157 90.9072 77.8517 91.0956 77.7535C91.324 77.6437 91.5124 77.5455 91.6608 77.4589C92.0143 77.1825 92.3621 76.8861 92.704 76.5697C93.0342 76.2133 93.3587 75.8369 93.6773 75.4405C94.0811 74.8891 94.5107 74.352 94.9661 73.829C95.4098 73.266 95.8336 72.7088 96.2373 72.1574C96.3908 71.9392 96.5101 71.7526 96.5953 71.5977C96.6687 71.4028 96.7822 71.1962 96.9357 70.978C97.2427 70.5415 97.5472 70.1709 97.8491 69.8661C98.191 69.5497 98.5329 69.2333 98.8748 68.9169C99.0399 68.7387 99.1651 68.5721 99.2502 68.4172C99.3353 68.2623 99.4346 68.0815 99.5481 67.8749C99.6899 67.6167 99.9118 67.3352 100.214 67.0304C100.504 66.6857 100.786 66.3867 101.059 66.1336C101.608 65.9307 101.917 65.9492 101.987 66.1893C102.085 66.3777 102.177 66.5461 102.264 66.6945C101.849 67.2059 101.459 67.7314 101.095 68.2711C100.76 68.7592 100.41 69.2731 100.047 69.8128C99.9499 69.9277 99.8531 70.0427 99.7563 70.1576C99.688 70.2209 99.5654 70.3216 99.3886 70.4598C99.2919 70.5748 99.2067 70.7297 99.1333 70.9246C99.0882 71.0679 98.9972 71.2029 98.8605 71.3294C98.6786 71.5993 98.4967 71.8691 98.3148 72.139C98.1213 72.3689 97.9536 72.6129 97.8118 72.8711C97.5899 73.1526 97.388 73.4283 97.2062 73.6982C97.0243 73.968 96.8624 74.2321 96.7206 74.4903C96.5787 74.7485 96.4627 75.0209 96.3724 75.3075C96.2822 75.5941 96.1462 75.8724 95.9643 76.1422C95.7875 76.2804 95.6366 76.4328 95.5114 76.5994C95.4263 76.7543 95.3212 76.9151 95.1961 77.0816C95.1859 77.345 95.1899 77.5825 95.208 77.7941C95.2146 77.9658 95.1469 78.1808 95.0051 78.439C94.7948 78.7605 94.6529 79.0187 94.5795 79.2137C94.5344 79.357 94.4834 79.4803 94.4267 79.5835C94.3299 79.6985 94.2132 79.8192 94.0764 79.9458C93.928 80.0323 93.7854 80.1389 93.6487 80.2655C93.4835 80.4437 93.3442 80.6361 93.2307 80.8426C93.1172 81.0492 92.9837 81.2616 92.8302 81.4798C92.5683 81.773 92.3407 82.0345 92.1471 82.2643C91.982 82.4425 91.731 82.624 91.3942 82.8087C91.0756 83.2052 90.8163 83.4325 90.6162 83.4907C90.4045 83.5088 90.2045 83.567 90.0161 83.6652C89.9477 83.7285 89.836 83.7176 89.6811 83.6324C89.5662 83.5357 89.4487 83.5048 89.3287 83.5397C88.9788 83.3811 88.7497 83.3392 88.6413 83.4142C88.5329 83.4891 88.387 83.5098 88.2037 83.4763C87.6756 83.1526 87.3767 82.8707 87.3069 82.6306C87.237 82.3906 87.1414 82.1363 87.0199 81.8679C86.7654 81.2911 86.5108 80.7142 86.2563 80.1373C85.9901 79.5205 85.738 78.8778 85.5002 78.2093C85.4188 77.9292 85.3631 77.6633 85.3333 77.4116C85.3435 77.1483 85.3279 76.8708 85.2865 76.5791C85.2399 76.4191 85.1792 76.2849 85.1043 76.1765C85.0177 76.0281 84.957 75.8939 84.9221 75.7738C84.869 75.4421 84.8417 75.1246 84.8403 74.8213C84.8389 74.5179 84.7774 74.232 84.656 73.9636C84.3104 74.715 84.0383 75.2715 83.8397 75.633C83.6294 75.9545 83.4508 76.3102 83.3039 76.7001C82.8368 77.1831 82.4214 77.6944 82.0577 78.2342C81.6823 78.7339 81.2237 79.171 80.6817 79.5456C80.2845 80.2686 79.8898 80.9258 79.4977 81.5172C79.1056 82.1086 78.7109 82.7658 78.3137 83.4888C78.11 83.982 77.8747 84.441 77.6077 84.8658C77.3807 85.2789 77.0821 85.6695 76.7118 86.0376C76.455 86.1991 76.2524 86.3231 76.104 86.4096C75.944 86.4562 75.7665 86.4427 75.5715 86.3692C74.5917 86.1335 73.9112 85.6588 73.5301 84.9452C73.149 84.2315 72.9246 83.3855 72.857 82.4072C72.6672 82.202 72.5515 81.9536 72.5101 81.6619C72.457 81.3302 72.4098 81.0185 72.3683 80.7268C72.3552 80.3834 72.3338 80.0859 72.304 79.8342C72.3025 79.5309 72.2385 79.3109 72.112 79.1741C72.0575 78.5391 72.0371 77.8724 72.051 77.174C72.0649 76.4757 72.0245 75.8149 71.93 75.1915C72.0486 74.8532 72.0046 74.6273 71.798 74.5139C71.6315 74.3887 71.4707 74.2836 71.3158 74.1985C70.752 74.7964 70.2315 75.4685 69.7542 76.2148C69.3054 76.9095 68.8423 77.6299 68.3651 78.3762C68.1265 78.7494 67.8879 79.1225 67.6492 79.4957C67.439 79.8172 67.2146 80.1645 66.9759 80.5377C66.7373 80.9108 66.4987 81.284 66.2601 81.6571C66.0098 81.9903 65.8112 82.3518 65.6643 82.7417C65.4889 83.1832 65.3387 83.4873 65.2136 83.6538C65.1285 83.8088 65.0375 83.9437 64.9408 84.0586C64.7756 84.2368 64.6505 84.4034 64.5654 84.5584C64.4803 84.7133 64.3893 84.8482 64.2926 84.9632C64.1675 85.1297 64.0365 85.2763 63.8997 85.4029C63.7514 85.4894 63.5888 85.6018 63.412 85.74C63.2185 85.9698 63.0224 86.2655 62.8238 86.627C62.6536 86.9369 62.4975 87.221 62.3557 87.4792C62.2138 87.7374 62.0803 87.9498 61.9552 88.1164C61.8301 88.2829 61.7166 88.4895 61.6147 88.7361C61.451 89.2177 61.2557 89.665 61.0287 90.0782C60.8417 90.4797 60.6606 90.9012 60.4852 91.3428C60.5034 91.5544 60.4416 91.7894 60.2997 92.0476C60.1862 92.2542 60.0585 92.4866 59.9167 92.7448C59.8032 92.9514 59.6755 93.1838 59.5336 93.442C59.4318 93.6886 59.2925 93.881 59.1157 94.0192C59.0073 94.0941 58.8731 94.1549 58.7131 94.2014C58.5647 94.288 58.4221 94.3945 58.2853 94.5211C58.0685 94.6709 57.8376 94.8466 57.5924 95.0481C57.3473 95.2495 57.0588 95.3768 56.7271 95.4299C56.4354 95.4713 56.1837 95.5012 55.9721 95.5193C55.772 95.5775 55.5487 95.5557 55.3021 95.4538C55.209 95.1337 55.045 94.9428 54.81 94.8809C54.7504 94.3776 54.7508 93.8567 54.8112 93.3184C54.8316 92.7918 54.8178 92.2968 54.7699 91.8334C54.9336 91.3519 55.0456 90.842 55.106 90.3037C55.1148 89.737 55.1694 89.1787 55.2698 88.6288C55.3069 88.0105 55.3757 87.4264 55.4761 86.8764C55.5365 86.3382 55.5969 85.7999 55.6574 85.2616C55.6778 84.7349 55.6898 84.2541 55.6935 83.8191C55.6971 83.3841 55.7524 82.9775 55.8594 82.5992C55.9831 82.1293 56.0358 81.7885 56.0177 81.5769C56.1195 81.3303 56.1839 81.0295 56.2108 80.6745C56.2662 80.2679 56.2647 79.9645 56.2065 79.7645C56.3651 79.4146 56.4263 79.028 56.3899 78.6046C56.3536 78.1813 56.3631 77.7663 56.4184 77.3597C56.4518 77.1764 56.4711 77.0189 56.4762 76.8872C56.5213 76.7439 56.5348 76.5664 56.5166 76.3547C56.4985 76.1431 56.4461 75.963 56.3595 75.8146C56.3014 75.6146 56.3032 75.3971 56.365 75.1621C56.4669 74.9155 56.5804 74.709 56.7055 74.5424C56.819 74.3358 56.9267 74.1092 57.0285 73.8626C57.2169 73.7644 57.3279 73.6237 57.3613 73.4404C57.3948 73.2571 57.4799 73.1021 57.6167 72.9756C58.0503 72.6759 58.2612 72.5061 58.2496 72.4661C58.278 72.4144 58.3263 72.3569 58.3947 72.2937C58.805 71.914 59.0643 71.6867 59.1727 71.6118C59.2695 71.4968 59.3862 71.3761 59.523 71.2495C59.6598 71.123 59.7682 71.048 59.8482 71.0248C59.9166 70.9615 60.0191 70.8666 60.1559 70.74C60.2126 70.6367 60.3378 70.4701 60.5313 70.2403C60.7248 70.0104 60.8499 69.8439 60.9067 69.7406C61.3533 69.7842 61.769 69.9454 62.1538 70.224C62.5269 70.4626 62.735 70.8795 62.7778 71.4745C62.796 71.6862 62.7942 71.9037 62.7723 72.127C62.7389 72.3103 62.7054 72.4936 62.6719 72.6769C62.6501 72.9002 62.6483 73.1177 62.6664 73.3294C62.713 73.4894 62.7195 73.6611 62.686 73.8444C62.5456 74.406 62.4761 74.8384 62.4775 75.1418C62.4673 75.4051 62.4371 75.6742 62.3869 75.9492C62.3418 76.0925 62.2967 76.2358 62.2516 76.3791C62.2465 76.5108 62.2272 76.6682 62.1937 76.8516C62.1668 77.2065 62.1224 77.5015 62.0606 77.7365C62.0387 77.9598 61.9569 78.2005 61.815 78.4588C61.7415 78.6537 61.6622 78.8286 61.5771 78.9836C61.492 79.1385 61.4185 79.3335 61.3567 79.5684C61.1813 80.01 61.0176 80.4915 60.8656 81.013C60.7135 81.5346 60.5298 82.022 60.3145 82.4751C60.2308 82.9334 60.1271 83.3975 60.0034 83.8674C59.9197 84.3257 59.8419 84.8039 59.7698 85.3022Z" fill="#3E00FF"/>
<defs>
<filter id="filter0_d_1050_1091" x="0.222656" y="31.3135" width="111.385" height="40.3906" filterUnits="userSpaceOnUse" color-interpolation-filters="sRGB">
<feFlood flood-opacity="0" result="BackgroundImageFix"/>
<feColorMatrix in="SourceAlpha" type="matrix" values="0 0 0 0 0 0 0 0 0 0 0 0 0 0 0 0 0 0 127 0" result="hardAlpha"/>
<feOffset dy="4"/>
<feGaussianBlur stdDeviation="2"/>
<feComposite in2="hardAlpha" operator="out"/>
<feColorMatrix type="matrix" values="0 0 0 0 0 0 0 0 0 0 0 0 0 0 0 0 0 0 0.25 0"/>
<feBlend mode="normal" in2="BackgroundImageFix" result="effect1_dropShadow_1050_1091"/>
<feBlend mode="normal" in="SourceGraphic" in2="effect1_dropShadow_1050_1091" result="shape"/>
</filter>
</defs>
</svg>
