<svg width="266" height="162" viewBox="0 0 266 162" fill="none" xmlns="http://www.w3.org/2000/svg">
<path d="M35 54.0391L265.897 53.0006" stroke="#D9D9D9"/>
<path d="M35 76.0391L265.897 75.0006" stroke="#D9D9D9"/>
<path d="M35 98.0391L265.897 97.0006" stroke="#D9D9D9"/>
<path d="M35 120.039L265.897 119.001" stroke="#D9D9D9"/>
<path d="M35 142.039L265.897 141.001" stroke="#D9D9D9"/>
<path d="M4.58097 47.0909V58H3.58487V48.1349H3.52095L0.964134 49.8342V48.8008L3.54226 47.0909H4.58097ZM10.382 58.1491C9.61491 58.1491 8.95973 57.929 8.41641 57.4886C7.87663 57.0447 7.46115 56.4038 7.16996 55.5657C6.88232 54.7276 6.73849 53.7209 6.73849 52.5455C6.73849 51.3736 6.88232 50.3704 7.16996 49.5359C7.46115 48.6978 7.87841 48.0568 8.42173 47.6129C8.96861 47.1655 9.62202 46.9418 10.382 46.9418C11.1419 46.9418 11.7935 47.1655 12.3369 47.6129C12.8837 48.0568 13.301 48.6978 13.5886 49.5359C13.8798 50.3704 14.0254 51.3736 14.0254 52.5455C14.0254 53.7209 13.8798 54.7276 13.5886 55.5657C13.301 56.4038 12.8855 57.0447 12.3422 57.4886C11.8024 57.929 11.149 58.1491 10.382 58.1491ZM10.382 57.2543C11.2236 57.2543 11.8805 56.8441 12.3528 56.0238C12.8251 55.1999 13.0613 54.0405 13.0613 52.5455C13.0613 51.5511 12.953 50.7024 12.7364 49.9993C12.5233 49.2926 12.2161 48.7528 11.8148 48.38C11.4171 48.0071 10.9395 47.8207 10.382 47.8207C9.54744 47.8207 8.89226 48.2362 8.41641 49.0671C7.94055 49.8945 7.70263 51.054 7.70263 52.5455C7.70263 53.5398 7.80916 54.3885 8.02223 55.0916C8.23885 55.7947 8.54602 56.331 8.94375 56.7003C9.34503 57.0696 9.82443 57.2543 10.382 57.2543ZM18.6812 58.1491C17.9141 58.1491 17.2589 57.929 16.7156 57.4886C16.1759 57.0447 15.7604 56.4038 15.4692 55.5657C15.1815 54.7276 15.0377 53.7209 15.0377 52.5455C15.0377 51.3736 15.1815 50.3704 15.4692 49.5359C15.7604 48.6978 16.1776 48.0568 16.721 47.6129C17.2678 47.1655 17.9212 46.9418 18.6812 46.9418C19.4411 46.9418 20.0928 47.1655 20.6361 47.6129C21.183 48.0568 21.6002 48.6978 21.8879 49.5359C22.179 50.3704 22.3246 51.3736 22.3246 52.5455C22.3246 53.7209 22.179 54.7276 21.8879 55.5657C21.6002 56.4038 21.1847 57.0447 20.6414 57.4886C20.1016 57.929 19.4482 58.1491 18.6812 58.1491ZM18.6812 57.2543C19.5228 57.2543 20.1798 56.8441 20.6521 56.0238C21.1244 55.1999 21.3605 54.0405 21.3605 52.5455C21.3605 51.5511 21.2522 50.7024 21.0356 49.9993C20.8225 49.2926 20.5153 48.7528 20.1141 48.38C19.7163 48.0071 19.2387 47.8207 18.6812 47.8207C17.8467 47.8207 17.1915 48.2362 16.7156 49.0671C16.2398 49.8945 16.0018 51.054 16.0018 52.5455C16.0018 53.5398 16.1084 54.3885 16.3214 55.0916C16.5381 55.7947 16.8452 56.331 17.243 56.7003C17.6442 57.0696 18.1237 57.2543 18.6812 57.2543Z" fill="#8A8A8A"/>
<path d="M1.52876 80L6.49858 70.055V69.9858H0.772372V69.0909H7.54261V70.0284L2.57812 80H1.52876ZM11.8108 80.1491C11.2036 80.1491 10.6603 80.0266 10.1809 79.7816C9.70502 79.533 9.32505 79.1921 9.04096 78.7589C8.76042 78.3256 8.61127 77.8303 8.59352 77.2727H9.55765C9.58961 77.8516 9.81689 78.3274 10.2395 78.7003C10.6621 79.0696 11.1858 79.2543 11.8108 79.2543C12.2974 79.2543 12.7306 79.1388 13.1106 78.908C13.4905 78.6737 13.7871 78.354 14.0001 77.9492C14.2167 77.5408 14.3251 77.081 14.3251 76.5696C14.3215 76.0369 14.2061 75.5682 13.9788 75.1634C13.7515 74.755 13.4426 74.4354 13.052 74.2045C12.6649 73.9737 12.2299 73.8583 11.7469 73.8583C11.3812 73.8548 11.0225 73.9151 10.6709 74.0394C10.3194 74.1637 10.0264 74.3235 9.79203 74.5188L8.79593 74.391L9.45112 69.0909H14.8417V69.9858H10.2874L9.85062 73.6346H9.90389C10.1454 73.4322 10.4383 73.267 10.7828 73.1392C11.1308 73.0114 11.4983 72.9474 11.8854 72.9474C12.5282 72.9474 13.1052 73.1019 13.6166 73.4109C14.1315 73.7198 14.5381 74.146 14.8364 74.6893C15.1383 75.229 15.2892 75.8505 15.2892 76.5536C15.2892 77.2425 15.1383 77.8587 14.8364 78.402C14.5381 78.9418 14.1262 79.3679 13.6006 79.6804C13.0786 79.9929 12.482 80.1491 11.8108 80.1491Z" fill="#8A8A8A"/>
<path d="M4.40518 102.149C3.79794 102.149 3.25462 102.027 2.77521 101.782C2.29936 101.533 1.91939 101.192 1.6353 100.759C1.35476 100.326 1.20561 99.8303 1.18786 99.2727H2.15199C2.18395 99.8516 2.41122 100.327 2.83381 100.7C3.25639 101.07 3.78018 101.254 4.40518 101.254C4.89169 101.254 5.32493 101.139 5.7049 100.908C6.08487 100.674 6.38139 100.354 6.59446 99.9492C6.81108 99.5408 6.91939 99.081 6.91939 98.5696C6.91584 98.0369 6.80043 97.5682 6.57315 97.1634C6.34588 96.755 6.03693 96.4354 5.64631 96.2045C5.25923 95.9737 4.82422 95.8583 4.34126 95.8583C3.9755 95.8548 3.61683 95.9151 3.26527 96.0394C2.91371 96.1637 2.62074 96.3235 2.38636 96.5188L1.39027 96.391L2.04545 91.0909H7.43608V91.9858H2.88175L2.44496 95.6346H2.49822C2.7397 95.4322 3.03267 95.267 3.37713 95.1392C3.72514 95.0114 4.09268 94.9474 4.47976 94.9474C5.12251 94.9474 5.69957 95.1019 6.21094 95.4109C6.72585 95.7198 7.13246 96.146 7.43075 96.6893C7.7326 97.229 7.88352 97.8505 7.88352 98.5536C7.88352 99.2425 7.7326 99.8587 7.43075 100.402C7.13246 100.942 6.72053 101.368 6.19496 101.68C5.67294 101.993 5.07635 102.149 4.40518 102.149ZM12.6378 102.149C11.8708 102.149 11.2156 101.929 10.6723 101.489C10.1325 101.045 9.71701 100.404 9.42582 99.5657C9.13818 98.7276 8.99435 97.7209 8.99435 96.5455C8.99435 95.3736 9.13818 94.3704 9.42582 93.5359C9.71701 92.6978 10.1343 92.0568 10.6776 91.6129C11.2245 91.1655 11.8779 90.9418 12.6378 90.9418C13.3978 90.9418 14.0494 91.1655 14.5927 91.6129C15.1396 92.0568 15.5569 92.6978 15.8445 93.5359C16.1357 94.3704 16.2813 95.3736 16.2813 96.5455C16.2813 97.7209 16.1357 98.7276 15.8445 99.5657C15.5569 100.404 15.1414 101.045 14.598 101.489C14.0583 101.929 13.4049 102.149 12.6378 102.149ZM12.6378 101.254C13.4794 101.254 14.1364 100.844 14.6087 100.024C15.081 99.1999 15.3172 98.0405 15.3172 96.5455C15.3172 95.5511 15.2088 94.7024 14.9922 93.9993C14.7792 93.2926 14.472 92.7528 14.0707 92.38C13.673 92.0071 13.1953 91.8207 12.6378 91.8207C11.8033 91.8207 11.1481 92.2362 10.6723 93.0671C10.1964 93.8945 9.95849 95.054 9.95849 96.5455C9.95849 97.5398 10.065 98.3885 10.2781 99.0916C10.4947 99.7947 10.8019 100.331 11.1996 100.7C11.6009 101.07 12.0803 101.254 12.6378 101.254Z" fill="#8A8A8A"/>
<path d="M1.21449 124V123.27L4.77805 119.265C5.24325 118.739 5.6179 118.29 5.90199 117.917C6.18608 117.544 6.39205 117.2 6.51989 116.884C6.65128 116.567 6.71697 116.239 6.71697 115.898C6.71697 115.483 6.61932 115.12 6.42401 114.811C6.23224 114.499 5.96768 114.256 5.63033 114.082C5.29297 113.908 4.913 113.821 4.49041 113.821C4.04297 113.821 3.65057 113.917 3.31321 114.108C2.9794 114.3 2.72017 114.563 2.53551 114.897C2.35085 115.23 2.25852 115.614 2.25852 116.047H1.30504C1.30504 115.444 1.44354 114.909 1.72053 114.444C2.00107 113.975 2.38281 113.608 2.86577 113.341C3.35227 113.075 3.9027 112.942 4.51705 112.942C5.12429 112.942 5.66406 113.073 6.13636 113.336C6.60866 113.595 6.97976 113.949 7.24965 114.396C7.51953 114.843 7.65447 115.344 7.65447 115.898C7.65447 116.299 7.58345 116.688 7.44141 117.065C7.30291 117.441 7.06321 117.86 6.7223 118.322C6.38139 118.783 5.90909 119.348 5.3054 120.016L2.59943 123.036V123.105H7.99538V124H1.21449ZM12.6605 124.149C12.0532 124.149 11.5099 124.027 11.0305 123.782C10.5546 123.533 10.1747 123.192 9.89057 122.759C9.61003 122.326 9.46088 121.83 9.44313 121.273H10.4073C10.4392 121.852 10.6665 122.327 11.0891 122.7C11.5117 123.07 12.0355 123.254 12.6605 123.254C13.147 123.254 13.5802 123.139 13.9602 122.908C14.3401 122.674 14.6367 122.354 14.8497 121.949C15.0664 121.541 15.1747 121.081 15.1747 120.57C15.1711 120.037 15.0557 119.568 14.8284 119.163C14.6012 118.755 14.2922 118.435 13.9016 118.205C13.5145 117.974 13.0795 117.858 12.5965 117.858C12.2308 117.855 11.8721 117.915 11.5205 118.039C11.169 118.164 10.876 118.324 10.6416 118.519L9.64554 118.391L10.3007 113.091H15.6914V113.986H11.137L10.7002 117.635H10.7535C10.995 117.432 11.2879 117.267 11.6324 117.139C11.9804 117.011 12.348 116.947 12.735 116.947C13.3778 116.947 13.9548 117.102 14.4662 117.411C14.9811 117.72 15.3877 118.146 15.686 118.689C15.9879 119.229 16.1388 119.85 16.1388 120.554C16.1388 121.243 15.9879 121.859 15.686 122.402C15.3877 122.942 14.9758 123.368 14.4502 123.68C13.9282 123.993 13.3316 124.149 12.6605 124.149Z" fill="#8A8A8A"/>
<path d="M4.60227 146.149C3.83523 146.149 3.18004 145.929 2.63672 145.489C2.09695 145.045 1.68146 144.404 1.39027 143.566C1.10263 142.728 0.958807 141.721 0.958807 140.545C0.958807 139.374 1.10263 138.37 1.39027 137.536C1.68146 136.698 2.09872 136.057 2.64205 135.613C3.18892 135.165 3.84233 134.942 4.60227 134.942C5.36222 134.942 6.01385 135.165 6.55717 135.613C7.10405 136.057 7.52131 136.698 7.80895 137.536C8.10014 138.37 8.24574 139.374 8.24574 140.545C8.24574 141.721 8.10014 142.728 7.80895 143.566C7.52131 144.404 7.10582 145.045 6.5625 145.489C6.02273 145.929 5.36932 146.149 4.60227 146.149ZM4.60227 145.254C5.44389 145.254 6.10085 144.844 6.57315 144.024C7.04545 143.2 7.28161 142.04 7.28161 140.545C7.28161 139.551 7.1733 138.702 6.95668 137.999C6.74361 137.293 6.43643 136.753 6.03516 136.38C5.63743 136.007 5.1598 135.821 4.60227 135.821C3.76776 135.821 3.11257 136.236 2.63672 137.067C2.16087 137.895 1.92294 139.054 1.92294 140.545C1.92294 141.54 2.02947 142.388 2.24254 143.092C2.45916 143.795 2.76634 144.331 3.16406 144.7C3.56534 145.07 4.04474 145.254 4.60227 145.254ZM12.9015 146.149C12.1344 146.149 11.4793 145.929 10.9359 145.489C10.3962 145.045 9.98068 144.404 9.68949 143.566C9.40185 142.728 9.25803 141.721 9.25803 140.545C9.25803 139.374 9.40185 138.37 9.68949 137.536C9.98068 136.698 10.3979 136.057 10.9413 135.613C11.4881 135.165 12.1415 134.942 12.9015 134.942C13.6614 134.942 14.3131 135.165 14.8564 135.613C15.4033 136.057 15.8205 136.698 16.1082 137.536C16.3994 138.37 16.545 139.374 16.545 140.545C16.545 141.721 16.3994 142.728 16.1082 143.566C15.8205 144.404 15.405 145.045 14.8617 145.489C14.3219 145.929 13.6685 146.149 12.9015 146.149ZM12.9015 145.254C13.7431 145.254 14.4001 144.844 14.8724 144.024C15.3447 143.2 15.5808 142.04 15.5808 140.545C15.5808 139.551 15.4725 138.702 15.2559 137.999C15.0428 137.293 14.7357 136.753 14.3344 136.38C13.9366 136.007 13.459 135.821 12.9015 135.821C12.067 135.821 11.4118 136.236 10.9359 137.067C10.4601 137.895 10.2222 139.054 10.2222 140.545C10.2222 141.54 10.3287 142.388 10.5418 143.092C10.7584 143.795 11.0656 144.331 11.4633 144.7C11.8646 145.07 12.344 145.254 12.9015 145.254Z" fill="#8A8A8A"/>
<path d="M64.2301 161L62.2379 153.727H62.9126L64.5604 159.981H64.6172L66.2649 153.727H67.032L68.6797 159.981H68.7365L70.3842 153.727H71.0625L69.0703 161H68.3601L66.6733 154.832H66.6271L64.9403 161H64.2301ZM73.2288 161.114C72.7198 161.114 72.2795 160.995 71.9078 160.759C71.5361 160.519 71.2485 160.189 71.0449 159.768C70.8437 159.344 70.743 158.856 70.743 158.305C70.743 157.755 70.8437 157.268 71.0449 156.842C71.2485 156.413 71.529 156.078 71.8865 155.837C72.2464 155.593 72.6618 155.471 73.133 155.471C73.4289 155.471 73.7142 155.525 73.9888 155.634C74.2634 155.741 74.5096 155.905 74.7274 156.128C74.9476 156.348 75.1216 156.626 75.2494 156.962C75.3773 157.296 75.4412 157.692 75.4412 158.148V158.461H71.1798V157.903H74.7949C74.7949 157.553 74.7239 157.238 74.5818 156.959C74.4421 156.677 74.2468 156.455 73.9959 156.291C73.7473 156.128 73.4597 156.046 73.133 156.046C72.7873 156.046 72.4831 156.138 72.2203 156.323C71.9575 156.508 71.7516 156.752 71.6024 157.055C71.4556 157.358 71.3811 157.689 71.3787 158.049V158.383C71.3787 158.816 71.4533 159.195 71.6024 159.519C71.7539 159.841 71.9682 160.091 72.2452 160.268C72.5222 160.446 72.85 160.535 73.2288 160.535C73.4869 160.535 73.713 160.495 73.9071 160.414C74.1036 160.334 74.2681 160.226 74.4007 160.091C74.5357 159.954 74.6375 159.803 74.7061 159.64L75.3062 159.835C75.2234 160.065 75.0873 160.277 74.8979 160.471C74.7108 160.665 74.4765 160.821 74.1947 160.94C73.9154 161.056 73.5934 161.114 73.2288 161.114ZM78.4394 161.114C77.9304 161.114 77.49 160.995 77.1184 160.759C76.7467 160.519 76.459 160.189 76.2554 159.768C76.0542 159.344 75.9536 158.856 75.9536 158.305C75.9536 157.755 76.0542 157.268 76.2554 156.842C76.459 156.413 76.7396 156.078 77.0971 155.837C77.4569 155.593 77.8724 155.471 78.3435 155.471C78.6394 155.471 78.9247 155.525 79.1993 155.634C79.4739 155.741 79.7202 155.905 79.938 156.128C80.1581 156.348 80.3321 156.626 80.46 156.962C80.5878 157.296 80.6517 157.692 80.6517 158.148V158.461H76.3904V157.903H80.0054C80.0054 157.553 79.9344 157.238 79.7924 156.959C79.6527 156.677 79.4574 156.455 79.2064 156.291C78.9578 156.128 78.6702 156.046 78.3435 156.046C77.9979 156.046 77.6936 156.138 77.4309 156.323C77.1681 156.508 76.9621 156.752 76.813 157.055C76.6662 157.358 76.5916 157.689 76.5892 158.049V158.383C76.5892 158.816 76.6638 159.195 76.813 159.519C76.9645 159.841 77.1787 160.091 77.4557 160.268C77.7327 160.446 78.0606 160.535 78.4394 160.535C78.6974 160.535 78.9235 160.495 79.1176 160.414C79.3141 160.334 79.4787 160.226 79.6113 160.091C79.7462 159.954 79.848 159.803 79.9167 159.64L80.5168 159.835C80.4339 160.065 80.2978 160.277 80.1084 160.471C79.9214 160.665 79.687 160.821 79.4053 160.94C79.1259 161.056 78.804 161.114 78.4394 161.114ZM82.02 158.94L82.0129 158.113H82.1549L84.7117 155.545H85.5107L82.9859 158.074L82.929 158.085L82.02 158.94ZM81.4447 161V153.727H82.0768V161H81.4447ZM84.8431 161L82.6272 158.198L83.0817 157.761L85.6528 161H84.8431ZM90.5305 153.727V161H89.8665V154.423H89.8239L88.1193 155.556V154.867L89.8381 153.727H90.5305Z" fill="#8A8A8A"/>
<path d="M108.23 161L106.238 153.727H106.913L108.56 159.981H108.617L110.265 153.727H111.032L112.68 159.981H112.737L114.384 153.727H115.062L113.07 161H112.36L110.673 154.832H110.627L108.94 161H108.23ZM117.229 161.114C116.72 161.114 116.279 160.995 115.908 160.759C115.536 160.519 115.248 160.189 115.045 159.768C114.844 159.344 114.743 158.856 114.743 158.305C114.743 157.755 114.844 157.268 115.045 156.842C115.248 156.413 115.529 156.078 115.887 155.837C116.246 155.593 116.662 155.471 117.133 155.471C117.429 155.471 117.714 155.525 117.989 155.634C118.263 155.741 118.51 155.905 118.727 156.128C118.948 156.348 119.122 156.626 119.249 156.962C119.377 157.296 119.441 157.692 119.441 158.148V158.461H115.18V157.903H118.795C118.795 157.553 118.724 157.238 118.582 156.959C118.442 156.677 118.247 156.455 117.996 156.291C117.747 156.128 117.46 156.046 117.133 156.046C116.787 156.046 116.483 156.138 116.22 156.323C115.958 156.508 115.752 156.752 115.602 157.055C115.456 157.358 115.381 157.689 115.379 158.049V158.383C115.379 158.816 115.453 159.195 115.602 159.519C115.754 159.841 115.968 160.091 116.245 160.268C116.522 160.446 116.85 160.535 117.229 160.535C117.487 160.535 117.713 160.495 117.907 160.414C118.104 160.334 118.268 160.226 118.401 160.091C118.536 159.954 118.637 159.803 118.706 159.64L119.306 159.835C119.223 160.065 119.087 160.277 118.898 160.471C118.711 160.665 118.476 160.821 118.195 160.94C117.915 161.056 117.593 161.114 117.229 161.114ZM122.439 161.114C121.93 161.114 121.49 160.995 121.118 160.759C120.747 160.519 120.459 160.189 120.255 159.768C120.054 159.344 119.954 158.856 119.954 158.305C119.954 157.755 120.054 157.268 120.255 156.842C120.459 156.413 120.74 156.078 121.097 155.837C121.457 155.593 121.872 155.471 122.344 155.471C122.639 155.471 122.925 155.525 123.199 155.634C123.474 155.741 123.72 155.905 123.938 156.128C124.158 156.348 124.332 156.626 124.46 156.962C124.588 157.296 124.652 157.692 124.652 158.148V158.461H120.39V157.903H124.005C124.005 157.553 123.934 157.238 123.792 156.959C123.653 156.677 123.457 156.455 123.206 156.291C122.958 156.128 122.67 156.046 122.344 156.046C121.998 156.046 121.694 156.138 121.431 156.323C121.168 156.508 120.962 156.752 120.813 157.055C120.666 157.358 120.592 157.689 120.589 158.049V158.383C120.589 158.816 120.664 159.195 120.813 159.519C120.964 159.841 121.179 160.091 121.456 160.268C121.733 160.446 122.061 160.535 122.439 160.535C122.697 160.535 122.924 160.495 123.118 160.414C123.314 160.334 123.479 160.226 123.611 160.091C123.746 159.954 123.848 159.803 123.917 159.64L124.517 159.835C124.434 160.065 124.298 160.277 124.108 160.471C123.921 160.665 123.687 160.821 123.405 160.94C123.126 161.056 122.804 161.114 122.439 161.114ZM126.02 158.94L126.013 158.113H126.155L128.712 155.545H129.511L126.986 158.074L126.929 158.085L126.02 158.94ZM125.445 161V153.727H126.077V161H125.445ZM128.843 161L126.627 158.198L127.082 157.761L129.653 161H128.843ZM132.286 161V160.513L134.662 157.843C134.972 157.493 135.222 157.193 135.411 156.945C135.601 156.696 135.738 156.466 135.823 156.256C135.911 156.045 135.955 155.826 135.955 155.599C135.955 155.322 135.889 155.08 135.759 154.874C135.631 154.666 135.455 154.504 135.23 154.388C135.005 154.272 134.752 154.214 134.47 154.214C134.172 154.214 133.91 154.278 133.685 154.406C133.463 154.533 133.29 154.709 133.167 154.931C133.044 155.154 132.982 155.409 132.982 155.698H132.347C132.347 155.296 132.439 154.939 132.624 154.629C132.811 154.317 133.065 154.072 133.387 153.894C133.711 153.717 134.078 153.628 134.488 153.628C134.893 153.628 135.253 153.715 135.567 153.891C135.882 154.063 136.13 154.299 136.31 154.597C136.49 154.896 136.58 155.229 136.58 155.599C136.58 155.866 136.532 156.125 136.438 156.376C136.345 156.627 136.185 156.907 135.958 157.214C135.731 157.522 135.416 157.899 135.013 158.344L133.21 160.357V160.403H136.807V161H132.286Z" fill="#8A8A8A"/>
<path d="M154.23 161L152.238 153.727H152.913L154.56 159.981H154.617L156.265 153.727H157.032L158.68 159.981H158.737L160.384 153.727H161.062L159.07 161H158.36L156.673 154.832H156.627L154.94 161H154.23ZM163.229 161.114C162.72 161.114 162.279 160.995 161.908 160.759C161.536 160.519 161.248 160.189 161.045 159.768C160.844 159.344 160.743 158.856 160.743 158.305C160.743 157.755 160.844 157.268 161.045 156.842C161.248 156.413 161.529 156.078 161.887 155.837C162.246 155.593 162.662 155.471 163.133 155.471C163.429 155.471 163.714 155.525 163.989 155.634C164.263 155.741 164.51 155.905 164.727 156.128C164.948 156.348 165.122 156.626 165.249 156.962C165.377 157.296 165.441 157.692 165.441 158.148V158.461H161.18V157.903H164.795C164.795 157.553 164.724 157.238 164.582 156.959C164.442 156.677 164.247 156.455 163.996 156.291C163.747 156.128 163.46 156.046 163.133 156.046C162.787 156.046 162.483 156.138 162.22 156.323C161.958 156.508 161.752 156.752 161.602 157.055C161.456 157.358 161.381 157.689 161.379 158.049V158.383C161.379 158.816 161.453 159.195 161.602 159.519C161.754 159.841 161.968 160.091 162.245 160.268C162.522 160.446 162.85 160.535 163.229 160.535C163.487 160.535 163.713 160.495 163.907 160.414C164.104 160.334 164.268 160.226 164.401 160.091C164.536 159.954 164.637 159.803 164.706 159.64L165.306 159.835C165.223 160.065 165.087 160.277 164.898 160.471C164.711 160.665 164.476 160.821 164.195 160.94C163.915 161.056 163.593 161.114 163.229 161.114ZM168.439 161.114C167.93 161.114 167.49 160.995 167.118 160.759C166.747 160.519 166.459 160.189 166.255 159.768C166.054 159.344 165.954 158.856 165.954 158.305C165.954 157.755 166.054 157.268 166.255 156.842C166.459 156.413 166.74 156.078 167.097 155.837C167.457 155.593 167.872 155.471 168.344 155.471C168.639 155.471 168.925 155.525 169.199 155.634C169.474 155.741 169.72 155.905 169.938 156.128C170.158 156.348 170.332 156.626 170.46 156.962C170.588 157.296 170.652 157.692 170.652 158.148V158.461H166.39V157.903H170.005C170.005 157.553 169.934 157.238 169.792 156.959C169.653 156.677 169.457 156.455 169.206 156.291C168.958 156.128 168.67 156.046 168.344 156.046C167.998 156.046 167.694 156.138 167.431 156.323C167.168 156.508 166.962 156.752 166.813 157.055C166.666 157.358 166.592 157.689 166.589 158.049V158.383C166.589 158.816 166.664 159.195 166.813 159.519C166.964 159.841 167.179 160.091 167.456 160.268C167.733 160.446 168.061 160.535 168.439 160.535C168.697 160.535 168.924 160.495 169.118 160.414C169.314 160.334 169.479 160.226 169.611 160.091C169.746 159.954 169.848 159.803 169.917 159.64L170.517 159.835C170.434 160.065 170.298 160.277 170.108 160.471C169.921 160.665 169.687 160.821 169.405 160.94C169.126 161.056 168.804 161.114 168.439 161.114ZM172.02 158.94L172.013 158.113H172.155L174.712 155.545H175.511L172.986 158.074L172.929 158.085L172.02 158.94ZM171.445 161V153.727H172.077V161H171.445ZM174.843 161L172.627 158.198L173.082 157.761L175.653 161H174.843ZM180.648 161.099C180.2 161.099 179.8 161.019 179.447 160.858C179.095 160.695 178.815 160.469 178.609 160.18C178.403 159.891 178.295 159.558 178.283 159.182H178.954C178.966 159.447 179.047 159.679 179.199 159.878C179.35 160.074 179.552 160.228 179.803 160.339C180.054 160.448 180.333 160.503 180.641 160.503C180.977 160.503 181.273 160.44 181.528 160.315C181.786 160.189 181.988 160.018 182.132 159.8C182.279 159.58 182.352 159.331 182.352 159.054C182.352 158.76 182.278 158.501 182.129 158.276C181.979 158.051 181.765 157.876 181.486 157.751C181.209 157.625 180.877 157.562 180.491 157.562H180.065V156.966H180.491C180.806 156.966 181.085 156.909 181.326 156.795C181.57 156.679 181.762 156.517 181.901 156.309C182.041 156.101 182.111 155.856 182.111 155.574C182.111 155.306 182.05 155.071 181.93 154.867C181.809 154.664 181.638 154.504 181.418 154.388C181.201 154.272 180.946 154.214 180.655 154.214C180.373 154.214 180.115 154.268 179.881 154.377C179.646 154.486 179.457 154.64 179.312 154.839C179.17 155.038 179.095 155.273 179.085 155.545H178.442C178.452 155.167 178.556 154.834 178.755 154.548C178.956 154.259 179.223 154.034 179.554 153.873C179.888 153.71 180.257 153.628 180.662 153.628C181.09 153.628 181.461 153.715 181.773 153.891C182.086 154.066 182.327 154.299 182.498 154.59C182.671 154.879 182.757 155.197 182.757 155.545C182.757 155.96 182.645 156.315 182.42 156.611C182.195 156.904 181.892 157.108 181.511 157.222V157.268C181.975 157.36 182.339 157.566 182.604 157.886C182.872 158.203 183.006 158.592 183.006 159.054C183.006 159.442 182.904 159.791 182.7 160.102C182.497 160.409 182.217 160.653 181.862 160.833C181.509 161.011 181.105 161.099 180.648 161.099Z" fill="#8A8A8A"/>
<path d="M199.23 160L197.238 152.727H197.913L199.56 158.981H199.617L201.265 152.727H202.032L203.68 158.981H203.737L205.384 152.727H206.062L204.07 160H203.36L201.673 153.832H201.627L199.94 160H199.23ZM208.229 160.114C207.72 160.114 207.279 159.995 206.908 159.759C206.536 159.519 206.248 159.189 206.045 158.768C205.844 158.344 205.743 157.856 205.743 157.305C205.743 156.755 205.844 156.268 206.045 155.842C206.248 155.413 206.529 155.078 206.887 154.837C207.246 154.593 207.662 154.471 208.133 154.471C208.429 154.471 208.714 154.525 208.989 154.634C209.263 154.741 209.51 154.905 209.727 155.128C209.948 155.348 210.122 155.626 210.249 155.962C210.377 156.296 210.441 156.692 210.441 157.148V157.461H206.18V156.903H209.795C209.795 156.553 209.724 156.238 209.582 155.959C209.442 155.677 209.247 155.455 208.996 155.291C208.747 155.128 208.46 155.046 208.133 155.046C207.787 155.046 207.483 155.138 207.22 155.323C206.958 155.508 206.752 155.752 206.602 156.055C206.456 156.358 206.381 156.689 206.379 157.049V157.383C206.379 157.816 206.453 158.195 206.602 158.519C206.754 158.841 206.968 159.091 207.245 159.268C207.522 159.446 207.85 159.535 208.229 159.535C208.487 159.535 208.713 159.495 208.907 159.414C209.104 159.334 209.268 159.226 209.401 159.091C209.536 158.954 209.637 158.803 209.706 158.64L210.306 158.835C210.223 159.065 210.087 159.277 209.898 159.471C209.711 159.665 209.476 159.821 209.195 159.94C208.915 160.056 208.593 160.114 208.229 160.114ZM213.439 160.114C212.93 160.114 212.49 159.995 212.118 159.759C211.747 159.519 211.459 159.189 211.255 158.768C211.054 158.344 210.954 157.856 210.954 157.305C210.954 156.755 211.054 156.268 211.255 155.842C211.459 155.413 211.74 155.078 212.097 154.837C212.457 154.593 212.872 154.471 213.344 154.471C213.639 154.471 213.925 154.525 214.199 154.634C214.474 154.741 214.72 154.905 214.938 155.128C215.158 155.348 215.332 155.626 215.46 155.962C215.588 156.296 215.652 156.692 215.652 157.148V157.461H211.39V156.903H215.005C215.005 156.553 214.934 156.238 214.792 155.959C214.653 155.677 214.457 155.455 214.206 155.291C213.958 155.128 213.67 155.046 213.344 155.046C212.998 155.046 212.694 155.138 212.431 155.323C212.168 155.508 211.962 155.752 211.813 156.055C211.666 156.358 211.592 156.689 211.589 157.049V157.383C211.589 157.816 211.664 158.195 211.813 158.519C211.964 158.841 212.179 159.091 212.456 159.268C212.733 159.446 213.061 159.535 213.439 159.535C213.697 159.535 213.924 159.495 214.118 159.414C214.314 159.334 214.479 159.226 214.611 159.091C214.746 158.954 214.848 158.803 214.917 158.64L215.517 158.835C215.434 159.065 215.298 159.277 215.108 159.471C214.921 159.665 214.687 159.821 214.405 159.94C214.126 160.056 213.804 160.114 213.439 160.114ZM217.02 157.94L217.013 157.113H217.155L219.712 154.545H220.511L217.986 157.074L217.929 157.085L217.02 157.94ZM216.445 160V152.727H217.077V160H216.445ZM219.843 160L217.627 157.198L218.082 156.761L220.653 160H219.843ZM223.112 158.438V157.898L226.354 152.727H226.752V153.633H226.457L223.854 157.795V157.841H228.105V158.438H223.112ZM226.507 160V158.267V158.018V152.727H227.139V160H226.507Z" fill="#8A8A8A"/>
<mask id="mask0_0_1" style="mask-type:luminance" maskUnits="userSpaceOnUse" x="52" y="0" width="185" height="131">
<path d="M52 0.16748H236.976V130.281H52V0.16748Z" fill="white"/>
</mask>
<g mask="url(#mask0_0_1)">
<path d="M237.207 0.16748L203.481 6.68023L215.751 12.0979L161.383 64.7538L122.258 57.8159L120.999 57.5905L120.19 58.4472L52 130.113L122.502 62.5829L161.807 71.4534L163.354 71.8013L164.651 70.6546L222.364 19.725L225.972 32.7312L237.207 0.16748Z" fill="#8FFF00"/>
</g>
<mask id="mask1_0_1" style="mask-type:luminance" maskUnits="userSpaceOnUse" x="70" y="95" width="28" height="41">
<path d="M70.292 95.6491H97.7389V135.763H70.292V95.6491Z" fill="white"/>
</mask>
<g mask="url(#mask1_0_1)">
<path d="M70.4463 122.003V135.763H97.5465V96.0485L70.4463 122.003Z" fill="#460BFF"/>
</g>
<mask id="mask2_0_1" style="mask-type:luminance" maskUnits="userSpaceOnUse" x="110" y="71" width="29" height="65">
<path d="M110.996 71.7562H138.443V135.763H110.996V71.7562Z" fill="white"/>
</mask>
<g mask="url(#mask2_0_1)">
<path d="M122.501 72.1427L111.086 83.0745V135.763H138.186V75.6857L122.501 72.1427Z" fill="#460BFF"/>
</g>
<mask id="mask3_0_1" style="mask-type:luminance" maskUnits="userSpaceOnUse" x="151" y="67" width="29" height="69">
<path d="M151.708 67.6269H179.149V135.763H151.708V67.6269Z" fill="white"/>
</mask>
<g mask="url(#mask3_0_1)">
<path d="M164.652 80.2208L163.355 81.3675L161.807 81.0196L151.728 78.7456V135.763H178.828V67.7107L164.652 80.2208Z" fill="#460BFF"/>
</g>
<mask id="mask4_0_1" style="mask-type:luminance" maskUnits="userSpaceOnUse" x="191" y="31" width="29" height="105">
<path d="M191.95 31.8293H219.648V135.763H191.95V31.8293Z" fill="white"/>
</mask>
<g mask="url(#mask4_0_1)">
<path d="M192.367 55.7609V135.763H219.467V31.8487L192.367 55.7609Z" fill="#460BFF"/>
</g>
</svg>
