<svg width="43" height="32" viewBox="0 0 43 32" fill="none" xmlns="http://www.w3.org/2000/svg">
<mask id="mask0_526_849" style="mask-type:luminance" maskUnits="userSpaceOnUse" x="9" y="25" width="34" height="7">
<path d="M9.33594 25.5352H42.8719V31.2453H9.33594V25.5352Z" fill="white"/>
</mask>
<g mask="url(#mask0_526_849)">
<path d="M42.7793 28.3612C42.7793 27.065 41.6839 26.0117 40.3302 26.0117H12.4081C11.057 26.0117 9.95898 27.065 9.95898 28.3612C9.95898 29.6599 11.057 30.7107 12.4081 30.7107H40.3302C41.6839 30.7107 42.7793 29.6599 42.7793 28.3612Z" fill="#460BFF"/>
</g>
<mask id="mask1_526_849" style="mask-type:luminance" maskUnits="userSpaceOnUse" x="0" y="25" width="7" height="7">
<path d="M0 25.125H6.75835V31.4399H0V25.125Z" fill="white"/>
</mask>
<g mask="url(#mask1_526_849)">
<path d="M3.2655 31.4392H3.42826C5.23152 31.4392 6.69376 30.0364 6.69376 28.3065C6.69376 26.5766 5.23152 25.1738 3.42826 25.1738H3.2655C1.46224 25.1738 0 26.5766 0 28.3065C0 30.0364 1.46224 31.4392 3.2655 31.4392Z" fill="#460BFF"/>
</g>
<mask id="mask2_526_849" style="mask-type:luminance" maskUnits="userSpaceOnUse" x="9" y="12" width="34" height="7">
<path d="M9.33594 12.8457H42.8719V18.5559H9.33594V12.8457Z" fill="white"/>
</mask>
<g mask="url(#mask2_526_849)">
<path d="M40.3302 13.4004H12.4081C11.057 13.4004 9.95898 14.4537 9.95898 15.7499C9.95898 17.0486 11.057 18.0994 12.4081 18.0994H40.3302C41.6839 18.0994 42.7793 17.0486 42.7793 15.7499C42.7793 14.4537 41.6839 13.4004 40.3302 13.4004Z" fill="#460BFF"/>
</g>
<mask id="mask3_526_849" style="mask-type:luminance" maskUnits="userSpaceOnUse" x="0" y="12" width="8" height="8">
<path d="M0 12.2109H7.35254V19.1901H0V12.2109Z" fill="white"/>
</mask>
<g mask="url(#mask3_526_849)">
<path d="M3.42826 12.6172H3.2655C1.46224 12.6172 0 14.02 0 15.7499C0 17.4798 1.46224 18.8825 3.2655 18.8825H3.42826C5.23152 18.8825 6.69376 17.4798 6.69376 15.7499C6.69376 14.02 5.23152 12.6172 3.42826 12.6172Z" fill="#460BFF"/>
</g>
<mask id="mask4_526_849" style="mask-type:luminance" maskUnits="userSpaceOnUse" x="9" y="0" width="34" height="6">
<path d="M9.33594 0.791016H42.8719V5.86674H9.33594V0.791016Z" fill="white"/>
</mask>
<g mask="url(#mask4_526_849)">
<path d="M9.95898 3.14052C9.95898 4.43919 11.057 5.49003 12.4081 5.49003H40.3302C41.6839 5.49003 42.7793 4.43919 42.7793 3.14052C42.7793 1.84433 41.6839 0.791016 40.3302 0.791016H12.4081C11.057 0.791016 9.95898 1.84433 9.95898 3.14052Z" fill="#460BFF"/>
</g>
<mask id="mask5_526_849" style="mask-type:luminance" maskUnits="userSpaceOnUse" x="0" y="0" width="8" height="7">
<path d="M0 0H7.35254V6.5008H0V0Z" fill="white"/>
</mask>
<g mask="url(#mask5_526_849)">
<path d="M3.42826 0.0078125H3.2655C1.46224 0.0078125 0 1.41058 0 3.14049C0 4.8704 1.46224 6.27316 3.2655 6.27316H3.42826C5.23152 6.27316 6.69376 4.8704 6.69376 3.14049C6.69376 1.41058 5.23152 0.0078125 3.42826 0.0078125Z" fill="#460BFF"/>
</g>
</svg>
