<svg width="289" height="63" viewBox="0 0 289 63" fill="none" xmlns="http://www.w3.org/2000/svg">
<g clip-path="url(#clip0_1048_1038)">
<g filter="url(#filter0_i_1048_1038)">
<path d="M0.683594 0.414062H4.01953V1.23438H1.57422L1.48047 2.60938C1.62891 2.55208 1.84505 2.52344 2.12891 2.52344C3.53516 2.52344 4.23828 3.09635 4.23828 4.24219C4.23828 5.4401 3.50911 6.03906 2.05078 6.03906C1.52995 6.03906 1.00911 5.96094 0.488281 5.80469V4.94531C1.00911 5.1276 1.54297 5.21875 2.08984 5.21875C2.83203 5.21875 3.20312 4.89323 3.20312 4.24219C3.20312 3.64323 2.84505 3.34375 2.12891 3.34375C1.54297 3.34375 0.996094 3.40885 0.488281 3.53906L0.683594 0.414062ZM5.95703 3.19141C5.95703 4.49089 6.42969 5.14062 7.375 5.14062C8.29167 5.14062 8.75 4.49089 8.75 3.19141C8.75 1.91276 8.29167 1.27344 7.375 1.27344C6.42969 1.27344 5.95703 1.91276 5.95703 3.19141ZM4.88281 3.21484C4.88281 1.32161 5.71354 0.375 7.375 0.375C9.00781 0.375 9.82422 1.32161 9.82422 3.21484C9.82422 5.09766 9.00781 6.03906 7.375 6.03906C5.71354 6.03906 4.88281 5.09766 4.88281 3.21484ZM12.0742 0.414062H13.125L13.7227 4.42578L15.1758 0.414062H16.1719L17.5312 4.26953L18.1641 0.414062H19.1836L18.1328 6H17.1484L15.6133 1.61719L13.9648 6H12.9922L12.0742 0.414062ZM20.8438 0.414062V1.23438H19.8086V0.414062H20.8438ZM20.8438 1.89844V6H19.8086V1.89844H20.8438ZM22.8594 0.414062V1.23438H21.8242V0.414062H22.8594ZM22.8594 1.89844V6H21.8242V1.89844H22.8594ZM24.875 5.05078C25.112 5.1263 25.3867 5.16406 25.6992 5.16406C26.3242 5.16406 26.6367 4.72266 26.6367 3.83984C26.6367 3.11849 26.3672 2.75781 25.8281 2.75781C25.4792 2.75781 25.1615 2.82812 24.875 2.96875V5.05078ZM23.8398 0.414062H24.875V2.21094C25.1849 2.0026 25.5299 1.89844 25.9102 1.89844C27.0768 1.89844 27.6602 2.55469 27.6602 3.86719C27.6602 5.28906 26.9922 6 25.6562 6C25.0938 6 24.4883 5.94401 23.8398 5.83203V0.414062ZM32.1328 1.89844V6H31.3242L31.1992 5.47656C30.7279 5.82552 30.2279 6 29.6992 6C28.8607 6 28.4414 5.50391 28.4414 4.51172V1.89844H29.4766V4.48438C29.4766 4.9375 29.6745 5.16406 30.0703 5.16406C30.4062 5.16406 30.7487 5.02995 31.0977 4.76172V1.89844H32.1328ZM36.1406 5.88281C35.8021 5.96094 35.4505 6 35.0859 6C33.6276 6 32.8984 5.29036 32.8984 3.87109C32.8984 2.55599 33.6276 1.89844 35.0859 1.89844C35.4505 1.89844 35.8021 1.9375 36.1406 2.01562V2.83594C35.8021 2.75781 35.4766 2.71875 35.1641 2.71875C34.3438 2.71875 33.9336 3.10286 33.9336 3.87109C33.9336 4.74349 34.3438 5.17969 35.1641 5.17969C35.4766 5.17969 35.8021 5.14062 36.1406 5.0625V5.88281ZM36.8242 6V0.414062H37.8594V2.21875C38.2839 2.00521 38.7305 1.89844 39.1992 1.89844C40.2461 1.89844 40.7695 2.29297 40.7695 3.08203C40.7695 3.65495 40.4049 4.10286 39.6758 4.42578L40.9492 6H39.6836L38.6133 4.53516V4.05469C39.3607 3.89583 39.7344 3.63542 39.7344 3.27344C39.7344 2.90365 39.487 2.71875 38.9922 2.71875C38.6458 2.71875 38.2682 2.82812 37.8594 3.04688V6H36.8242ZM41.5352 5.80469V4.94531C41.9909 5.1276 42.5169 5.21875 43.1133 5.21875C43.5586 5.21875 43.7812 5.07552 43.7812 4.78906C43.7812 4.51562 43.6315 4.37891 43.332 4.37891H42.5898C41.7565 4.37891 41.3398 3.96875 41.3398 3.14844C41.3398 2.28906 41.9479 1.85938 43.1641 1.85938C43.6797 1.85938 44.1654 1.9375 44.6211 2.09375V2.95312C44.1654 2.77083 43.6706 2.67969 43.1367 2.67969C42.5768 2.67969 42.2969 2.82292 42.2969 3.10938C42.2969 3.38281 42.4596 3.51953 42.7852 3.51953H43.4492C44.3607 3.51953 44.8164 3.92969 44.8164 4.75C44.8164 5.60938 44.2357 6.03906 43.0742 6.03906C42.5039 6.03906 41.9909 5.96094 41.5352 5.80469Z" fill="#F8F2F2"/>
</g>
<g filter="url(#filter1_i_1048_1038)">
<path d="M71.5391 6V1.26953H70.9531V0.84375L72.5742 0.296875V6H71.5391ZM74.6836 3.19141C74.6836 4.49089 75.1562 5.14062 76.1016 5.14062C77.0182 5.14062 77.4766 4.49089 77.4766 3.19141C77.4766 1.91276 77.0182 1.27344 76.1016 1.27344C75.1562 1.27344 74.6836 1.91276 74.6836 3.19141ZM73.6094 3.21484C73.6094 1.32161 74.4401 0.375 76.1016 0.375C77.7344 0.375 78.5508 1.32161 78.5508 3.21484C78.5508 5.09766 77.7344 6.03906 76.1016 6.03906C74.4401 6.03906 73.6094 5.09766 73.6094 3.21484ZM80.332 3.19141C80.332 4.49089 80.8047 5.14062 81.75 5.14062C82.6667 5.14062 83.125 4.49089 83.125 3.19141C83.125 1.91276 82.6667 1.27344 81.75 1.27344C80.8047 1.27344 80.332 1.91276 80.332 3.19141ZM79.2578 3.21484C79.2578 1.32161 80.0885 0.375 81.75 0.375C83.3828 0.375 84.1992 1.32161 84.1992 3.21484C84.1992 5.09766 83.3828 6.03906 81.75 6.03906C80.0885 6.03906 79.2578 5.09766 79.2578 3.21484ZM87.7578 3.53906V2.48438H88.5781V3.53906H89.6328V4.35938H88.5781V5.41406H87.7578V4.35938H86.7031V3.53906H87.7578ZM91 6V1.26953H90.4141V0.84375L92.0352 0.296875V6H91ZM94.1445 3.19141C94.1445 4.49089 94.6172 5.14062 95.5625 5.14062C96.4792 5.14062 96.9375 4.49089 96.9375 3.19141C96.9375 1.91276 96.4792 1.27344 95.5625 1.27344C94.6172 1.27344 94.1445 1.91276 94.1445 3.19141ZM93.0703 3.21484C93.0703 1.32161 93.901 0.375 95.5625 0.375C97.1953 0.375 98.0117 1.32161 98.0117 3.21484C98.0117 5.09766 97.1953 6.03906 95.5625 6.03906C93.901 6.03906 93.0703 5.09766 93.0703 3.21484ZM102.02 0.414062H103.07L103.668 4.42578L105.121 0.414062H106.117L107.477 4.26953L108.109 0.414062H109.129L108.078 6H107.094L105.559 1.61719L103.91 6H102.938L102.02 0.414062ZM110.789 0.414062V1.23438H109.754V0.414062H110.789ZM110.789 1.89844V6H109.754V1.89844H110.789ZM112.805 0.414062V1.23438H111.77V0.414062H112.805ZM112.805 1.89844V6H111.77V1.89844H112.805ZM114.82 5.05078C115.057 5.1263 115.332 5.16406 115.645 5.16406C116.27 5.16406 116.582 4.72266 116.582 3.83984C116.582 3.11849 116.312 2.75781 115.773 2.75781C115.424 2.75781 115.107 2.82812 114.82 2.96875V5.05078ZM113.785 0.414062H114.82V2.21094C115.13 2.0026 115.475 1.89844 115.855 1.89844C117.022 1.89844 117.605 2.55469 117.605 3.86719C117.605 5.28906 116.938 6 115.602 6C115.039 6 114.434 5.94401 113.785 5.83203V0.414062ZM122.078 1.89844V6H121.27L121.145 5.47656C120.673 5.82552 120.173 6 119.645 6C118.806 6 118.387 5.50391 118.387 4.51172V1.89844H119.422V4.48438C119.422 4.9375 119.62 5.16406 120.016 5.16406C120.352 5.16406 120.694 5.02995 121.043 4.76172V1.89844H122.078ZM126.086 5.88281C125.747 5.96094 125.396 6 125.031 6C123.573 6 122.844 5.29036 122.844 3.87109C122.844 2.55599 123.573 1.89844 125.031 1.89844C125.396 1.89844 125.747 1.9375 126.086 2.01562V2.83594C125.747 2.75781 125.422 2.71875 125.109 2.71875C124.289 2.71875 123.879 3.10286 123.879 3.87109C123.879 4.74349 124.289 5.17969 125.109 5.17969C125.422 5.17969 125.747 5.14062 126.086 5.0625V5.88281ZM126.77 6V0.414062H127.805V2.21875C128.229 2.00521 128.676 1.89844 129.145 1.89844C130.191 1.89844 130.715 2.29297 130.715 3.08203C130.715 3.65495 130.35 4.10286 129.621 4.42578L130.895 6H129.629L128.559 4.53516V4.05469C129.306 3.89583 129.68 3.63542 129.68 3.27344C129.68 2.90365 129.432 2.71875 128.938 2.71875C128.591 2.71875 128.214 2.82812 127.805 3.04688V6H126.77ZM131.48 5.80469V4.94531C131.936 5.1276 132.462 5.21875 133.059 5.21875C133.504 5.21875 133.727 5.07552 133.727 4.78906C133.727 4.51562 133.577 4.37891 133.277 4.37891H132.535C131.702 4.37891 131.285 3.96875 131.285 3.14844C131.285 2.28906 131.893 1.85938 133.109 1.85938C133.625 1.85938 134.111 1.9375 134.566 2.09375V2.95312C134.111 2.77083 133.616 2.67969 133.082 2.67969C132.522 2.67969 132.242 2.82292 132.242 3.10938C132.242 3.38281 132.405 3.51953 132.73 3.51953H133.395C134.306 3.51953 134.762 3.92969 134.762 4.75C134.762 5.60938 134.181 6.03906 133.02 6.03906C132.449 6.03906 131.936 5.96094 131.48 5.80469Z" fill="white"/>
</g>
<g filter="url(#filter2_i_1048_1038)">
<path d="M158.609 6V5.21875C160.471 3.92448 161.402 2.85677 161.402 2.01562C161.402 1.52083 161.064 1.27344 160.387 1.27344C159.814 1.27344 159.273 1.41667 158.766 1.70312V0.765625C159.273 0.505208 159.814 0.375 160.387 0.375C161.754 0.375 162.438 0.921875 162.438 2.01562C162.438 2.97917 161.691 4.00781 160.199 5.10156H162.438V6H158.609ZM164.254 3.19141C164.254 4.49089 164.727 5.14062 165.672 5.14062C166.589 5.14062 167.047 4.49089 167.047 3.19141C167.047 1.91276 166.589 1.27344 165.672 1.27344C164.727 1.27344 164.254 1.91276 164.254 3.19141ZM163.18 3.21484C163.18 1.32161 164.01 0.375 165.672 0.375C167.305 0.375 168.121 1.32161 168.121 3.21484C168.121 5.09766 167.305 6.03906 165.672 6.03906C164.01 6.03906 163.18 5.09766 163.18 3.21484ZM169.902 3.19141C169.902 4.49089 170.375 5.14062 171.32 5.14062C172.237 5.14062 172.695 4.49089 172.695 3.19141C172.695 1.91276 172.237 1.27344 171.32 1.27344C170.375 1.27344 169.902 1.91276 169.902 3.19141ZM168.828 3.21484C168.828 1.32161 169.659 0.375 171.32 0.375C172.953 0.375 173.77 1.32161 173.77 3.21484C173.77 5.09766 172.953 6.03906 171.32 6.03906C169.659 6.03906 168.828 5.09766 168.828 3.21484ZM176.02 0.414062H177.07L177.668 4.42578L179.121 0.414062H180.117L181.477 4.26953L182.109 0.414062H183.129L182.078 6H181.094L179.559 1.61719L177.91 6H176.938L176.02 0.414062ZM184.789 0.414062V1.23438H183.754V0.414062H184.789ZM184.789 1.89844V6H183.754V1.89844H184.789ZM186.805 0.414062V1.23438H185.77V0.414062H186.805ZM186.805 1.89844V6H185.77V1.89844H186.805ZM188.82 5.05078C189.057 5.1263 189.332 5.16406 189.645 5.16406C190.27 5.16406 190.582 4.72266 190.582 3.83984C190.582 3.11849 190.312 2.75781 189.773 2.75781C189.424 2.75781 189.107 2.82812 188.82 2.96875V5.05078ZM187.785 0.414062H188.82V2.21094C189.13 2.0026 189.475 1.89844 189.855 1.89844C191.022 1.89844 191.605 2.55469 191.605 3.86719C191.605 5.28906 190.938 6 189.602 6C189.039 6 188.434 5.94401 187.785 5.83203V0.414062ZM196.078 1.89844V6H195.27L195.145 5.47656C194.673 5.82552 194.173 6 193.645 6C192.806 6 192.387 5.50391 192.387 4.51172V1.89844H193.422V4.48438C193.422 4.9375 193.62 5.16406 194.016 5.16406C194.352 5.16406 194.694 5.02995 195.043 4.76172V1.89844H196.078ZM200.086 5.88281C199.747 5.96094 199.396 6 199.031 6C197.573 6 196.844 5.29036 196.844 3.87109C196.844 2.55599 197.573 1.89844 199.031 1.89844C199.396 1.89844 199.747 1.9375 200.086 2.01562V2.83594C199.747 2.75781 199.422 2.71875 199.109 2.71875C198.289 2.71875 197.879 3.10286 197.879 3.87109C197.879 4.74349 198.289 5.17969 199.109 5.17969C199.422 5.17969 199.747 5.14062 200.086 5.0625V5.88281ZM200.77 6V0.414062H201.805V2.21875C202.229 2.00521 202.676 1.89844 203.145 1.89844C204.191 1.89844 204.715 2.29297 204.715 3.08203C204.715 3.65495 204.35 4.10286 203.621 4.42578L204.895 6H203.629L202.559 4.53516V4.05469C203.306 3.89583 203.68 3.63542 203.68 3.27344C203.68 2.90365 203.432 2.71875 202.938 2.71875C202.591 2.71875 202.214 2.82812 201.805 3.04688V6H200.77ZM205.48 5.80469V4.94531C205.936 5.1276 206.462 5.21875 207.059 5.21875C207.504 5.21875 207.727 5.07552 207.727 4.78906C207.727 4.51562 207.577 4.37891 207.277 4.37891H206.535C205.702 4.37891 205.285 3.96875 205.285 3.14844C205.285 2.28906 205.893 1.85938 207.109 1.85938C207.625 1.85938 208.111 1.9375 208.566 2.09375V2.95312C208.111 2.77083 207.616 2.67969 207.082 2.67969C206.522 2.67969 206.242 2.82292 206.242 3.10938C206.242 3.38281 206.405 3.51953 206.73 3.51953H207.395C208.306 3.51953 208.762 3.92969 208.762 4.75C208.762 5.60938 208.181 6.03906 207.02 6.03906C206.449 6.03906 205.936 5.96094 205.48 5.80469Z" fill="white"/>
</g>
<g filter="url(#filter3_i_1048_1038)">
<path d="M244.629 0.414062H247.965V1.23438H245.52L245.426 2.60938C245.574 2.55208 245.79 2.52344 246.074 2.52344C247.48 2.52344 248.184 3.09635 248.184 4.24219C248.184 5.4401 247.454 6.03906 245.996 6.03906C245.475 6.03906 244.954 5.96094 244.434 5.80469V4.94531C244.954 5.1276 245.488 5.21875 246.035 5.21875C246.777 5.21875 247.148 4.89323 247.148 4.24219C247.148 3.64323 246.79 3.34375 246.074 3.34375C245.488 3.34375 244.941 3.40885 244.434 3.53906L244.629 0.414062ZM249.902 3.19141C249.902 4.49089 250.375 5.14062 251.32 5.14062C252.237 5.14062 252.695 4.49089 252.695 3.19141C252.695 1.91276 252.237 1.27344 251.32 1.27344C250.375 1.27344 249.902 1.91276 249.902 3.19141ZM248.828 3.21484C248.828 1.32161 249.659 0.375 251.32 0.375C252.953 0.375 253.77 1.32161 253.77 3.21484C253.77 5.09766 252.953 6.03906 251.32 6.03906C249.659 6.03906 248.828 5.09766 248.828 3.21484ZM256.02 0.414062H257.07L257.668 4.42578L259.121 0.414062H260.117L261.477 4.26953L262.109 0.414062H263.129L262.078 6H261.094L259.559 1.61719L257.91 6H256.938L256.02 0.414062ZM264.789 0.414062V1.23438H263.754V0.414062H264.789ZM264.789 1.89844V6H263.754V1.89844H264.789ZM266.805 0.414062V1.23438H265.77V0.414062H266.805ZM266.805 1.89844V6H265.77V1.89844H266.805ZM268.82 5.05078C269.057 5.1263 269.332 5.16406 269.645 5.16406C270.27 5.16406 270.582 4.72266 270.582 3.83984C270.582 3.11849 270.312 2.75781 269.773 2.75781C269.424 2.75781 269.107 2.82812 268.82 2.96875V5.05078ZM267.785 0.414062H268.82V2.21094C269.13 2.0026 269.475 1.89844 269.855 1.89844C271.022 1.89844 271.605 2.55469 271.605 3.86719C271.605 5.28906 270.938 6 269.602 6C269.039 6 268.434 5.94401 267.785 5.83203V0.414062ZM276.078 1.89844V6H275.27L275.145 5.47656C274.673 5.82552 274.173 6 273.645 6C272.806 6 272.387 5.50391 272.387 4.51172V1.89844H273.422V4.48438C273.422 4.9375 273.62 5.16406 274.016 5.16406C274.352 5.16406 274.694 5.02995 275.043 4.76172V1.89844H276.078ZM280.086 5.88281C279.747 5.96094 279.396 6 279.031 6C277.573 6 276.844 5.29036 276.844 3.87109C276.844 2.55599 277.573 1.89844 279.031 1.89844C279.396 1.89844 279.747 1.9375 280.086 2.01562V2.83594C279.747 2.75781 279.422 2.71875 279.109 2.71875C278.289 2.71875 277.879 3.10286 277.879 3.87109C277.879 4.74349 278.289 5.17969 279.109 5.17969C279.422 5.17969 279.747 5.14062 280.086 5.0625V5.88281ZM280.77 6V0.414062H281.805V2.21875C282.229 2.00521 282.676 1.89844 283.145 1.89844C284.191 1.89844 284.715 2.29297 284.715 3.08203C284.715 3.65495 284.35 4.10286 283.621 4.42578L284.895 6H283.629L282.559 4.53516V4.05469C283.306 3.89583 283.68 3.63542 283.68 3.27344C283.68 2.90365 283.432 2.71875 282.938 2.71875C282.591 2.71875 282.214 2.82812 281.805 3.04688V6H280.77ZM285.48 5.80469V4.94531C285.936 5.1276 286.462 5.21875 287.059 5.21875C287.504 5.21875 287.727 5.07552 287.727 4.78906C287.727 4.51562 287.577 4.37891 287.277 4.37891H286.535C285.702 4.37891 285.285 3.96875 285.285 3.14844C285.285 2.28906 285.893 1.85938 287.109 1.85938C287.625 1.85938 288.111 1.9375 288.566 2.09375V2.95312C288.111 2.77083 287.616 2.67969 287.082 2.67969C286.522 2.67969 286.242 2.82292 286.242 3.10938C286.242 3.38281 286.405 3.51953 286.73 3.51953H287.395C288.306 3.51953 288.762 3.92969 288.762 4.75C288.762 5.60938 288.181 6.03906 287.02 6.03906C286.449 6.03906 285.936 5.96094 285.48 5.80469Z" fill="white"/>
</g>
<path d="M23.3633 47.7812V62H20.0723V51.4922L16.8301 52.4395V49.9395L23.0605 47.7812H23.3633Z" fill="white"/>
<path d="M107.5 59.4609V62H97.5781V59.8516L102.148 55.0469C102.552 54.5846 102.878 54.1712 103.125 53.8066C103.372 53.4355 103.551 53.1003 103.662 52.8008C103.779 52.5013 103.838 52.2311 103.838 51.9902C103.838 51.5801 103.776 51.2383 103.652 50.9648C103.535 50.6849 103.359 50.4733 103.125 50.3301C102.897 50.1868 102.614 50.1152 102.275 50.1152C101.937 50.1152 101.641 50.2129 101.387 50.4082C101.133 50.6035 100.934 50.8704 100.791 51.209C100.654 51.5475 100.586 51.9284 100.586 52.3516H97.2852C97.2852 51.4792 97.4967 50.6816 97.9199 49.959C98.3496 49.2363 98.9453 48.6602 99.707 48.2305C100.469 47.7943 101.351 47.5762 102.354 47.5762C103.402 47.5762 104.281 47.7389 104.99 48.0645C105.7 48.39 106.234 48.862 106.592 49.4805C106.956 50.0924 107.139 50.8314 107.139 51.6973C107.139 52.1921 107.061 52.6673 106.904 53.123C106.748 53.5788 106.523 54.0312 106.23 54.4805C105.938 54.9232 105.579 55.3789 105.156 55.8477C104.74 56.3164 104.264 56.8145 103.73 57.3418L101.895 59.4609H107.5Z" fill="white"/>
<path d="M183.877 53.5137H185.479C185.889 53.5137 186.224 53.4421 186.484 53.2988C186.751 53.1491 186.95 52.9408 187.08 52.6738C187.21 52.4004 187.275 52.0781 187.275 51.707C187.275 51.4206 187.214 51.1569 187.09 50.916C186.973 50.6751 186.79 50.4831 186.543 50.3398C186.296 50.1901 185.98 50.1152 185.596 50.1152C185.335 50.1152 185.081 50.1706 184.834 50.2812C184.587 50.3854 184.382 50.5352 184.219 50.7305C184.062 50.9258 183.984 51.1634 183.984 51.4434H180.684C180.684 50.6361 180.905 49.946 181.348 49.373C181.797 48.7936 182.386 48.3509 183.115 48.0449C183.851 47.7324 184.642 47.5762 185.488 47.5762C186.497 47.5762 187.383 47.7324 188.145 48.0449C188.906 48.3509 189.499 48.8066 189.922 49.4121C190.352 50.0111 190.566 50.7533 190.566 51.6387C190.566 52.127 190.452 52.5859 190.225 53.0156C189.997 53.4453 189.678 53.8229 189.268 54.1484C188.857 54.474 188.376 54.7311 187.822 54.9199C187.275 55.1022 186.676 55.1934 186.025 55.1934H183.877V53.5137ZM183.877 55.9648V54.3242H186.025C186.735 54.3242 187.383 54.4056 187.969 54.5684C188.555 54.7246 189.059 54.959 189.482 55.2715C189.906 55.584 190.231 55.9714 190.459 56.4336C190.687 56.8893 190.801 57.4134 190.801 58.0059C190.801 58.6699 190.667 59.2624 190.4 59.7832C190.133 60.304 189.759 60.7435 189.277 61.1016C188.796 61.4596 188.232 61.7331 187.588 61.9219C186.943 62.1042 186.243 62.1953 185.488 62.1953C184.896 62.1953 184.303 62.1172 183.711 61.9609C183.118 61.7982 182.578 61.5508 182.09 61.2188C181.602 60.8802 181.208 60.4505 180.908 59.9297C180.615 59.4023 180.469 58.7741 180.469 58.0449H183.77C183.77 58.3444 183.851 58.6178 184.014 58.8652C184.183 59.1061 184.408 59.2982 184.688 59.4414C184.967 59.5846 185.27 59.6562 185.596 59.6562C185.999 59.6562 186.341 59.5814 186.621 59.4316C186.908 59.2754 187.126 59.0671 187.275 58.8066C187.425 58.5462 187.5 58.2565 187.5 57.9375C187.5 57.4557 187.419 57.0716 187.256 56.7852C187.1 56.4987 186.868 56.2904 186.562 56.1602C186.263 56.0299 185.902 55.9648 185.479 55.9648H183.877Z" fill="white"/>
<path d="M270.205 56.4435V58.9824H259.971L259.775 56.9707L265.488 47.7812H268.086L265.264 52.4004L262.92 56.4435H270.205ZM268.77 47.7812V62H265.479V47.7812H268.77Z" fill="white"/>
<path d="M271.91 24.4131L15.7069 25.0841" stroke="#D5C5C5" stroke-width="5"/>
<path d="M21.5 38C27.8513 38 33 32.8513 33 26.5C33 20.1487 27.8513 15 21.5 15C15.1487 15 10 20.1487 10 26.5C10 32.8513 15.1487 38 21.5 38Z" fill="#75B300"/>
<path d="M21.5 33C25.0899 33 28 30.0899 28 26.5C28 22.9101 25.0899 20 21.5 20C17.9101 20 15 22.9101 15 26.5C15 30.0899 17.9101 33 21.5 33Z" fill="white"/>
<path d="M102.5 38C108.851 38 114 32.8513 114 26.5C114 20.1487 108.851 15 102.5 15C96.1487 15 91 20.1487 91 26.5C91 32.8513 96.1487 38 102.5 38Z" fill="#75B300"/>
<path d="M183.5 38C189.851 38 195 32.8513 195 26.5C195 20.1487 189.851 15 183.5 15C177.149 15 172 20.1487 172 26.5C172 32.8513 177.149 38 183.5 38Z" fill="#75B300"/>
<path d="M265 38C271.075 38 276 32.8513 276 26.5C276 20.1487 271.075 15 265 15C258.925 15 254 20.1487 254 26.5C254 32.8513 258.925 38 265 38Z" fill="#75B300"/>
<path d="M102.5 33C106.09 33 109 30.0899 109 26.5C109 22.9101 106.09 20 102.5 20C98.9101 20 96 22.9101 96 26.5C96 30.0899 98.9101 33 102.5 33Z" fill="white"/>
<path d="M183.5 33C187.09 33 190 30.0899 190 26.5C190 22.9101 187.09 20 183.5 20C179.91 20 177 22.9101 177 26.5C177 30.0899 179.91 33 183.5 33Z" fill="white"/>
<path d="M265.5 33C269.09 33 272 30.0899 272 26.5C272 22.9101 269.09 20 265.5 20C261.91 20 259 22.9101 259 26.5C259 30.0899 261.91 33 265.5 33Z" fill="white"/>
</g>
<defs>
<filter id="filter0_i_1048_1038" x="0.488281" y="0.375" width="44.3281" height="9.66406" filterUnits="userSpaceOnUse" color-interpolation-filters="sRGB">
<feFlood flood-opacity="0" result="BackgroundImageFix"/>
<feBlend mode="normal" in="SourceGraphic" in2="BackgroundImageFix" result="shape"/>
<feColorMatrix in="SourceAlpha" type="matrix" values="0 0 0 0 0 0 0 0 0 0 0 0 0 0 0 0 0 0 127 0" result="hardAlpha"/>
<feOffset dy="4"/>
<feGaussianBlur stdDeviation="2"/>
<feComposite in2="hardAlpha" operator="arithmetic" k2="-1" k3="1"/>
<feColorMatrix type="matrix" values="0 0 0 0 0 0 0 0 0 0 0 0 0 0 0 0 0 0 0.25 0"/>
<feBlend mode="normal" in2="shape" result="effect1_innerShadow_1048_1038"/>
</filter>
<filter id="filter1_i_1048_1038" x="70.9531" y="0.296875" width="63.8086" height="9.74219" filterUnits="userSpaceOnUse" color-interpolation-filters="sRGB">
<feFlood flood-opacity="0" result="BackgroundImageFix"/>
<feBlend mode="normal" in="SourceGraphic" in2="BackgroundImageFix" result="shape"/>
<feColorMatrix in="SourceAlpha" type="matrix" values="0 0 0 0 0 0 0 0 0 0 0 0 0 0 0 0 0 0 127 0" result="hardAlpha"/>
<feOffset dy="4"/>
<feGaussianBlur stdDeviation="2"/>
<feComposite in2="hardAlpha" operator="arithmetic" k2="-1" k3="1"/>
<feColorMatrix type="matrix" values="0 0 0 0 0 0 0 0 0 0 0 0 0 0 0 0 0 0 0.25 0"/>
<feBlend mode="normal" in2="shape" result="effect1_innerShadow_1048_1038"/>
</filter>
<filter id="filter2_i_1048_1038" x="158.609" y="0.375" width="50.1523" height="9.66406" filterUnits="userSpaceOnUse" color-interpolation-filters="sRGB">
<feFlood flood-opacity="0" result="BackgroundImageFix"/>
<feBlend mode="normal" in="SourceGraphic" in2="BackgroundImageFix" result="shape"/>
<feColorMatrix in="SourceAlpha" type="matrix" values="0 0 0 0 0 0 0 0 0 0 0 0 0 0 0 0 0 0 127 0" result="hardAlpha"/>
<feOffset dy="4"/>
<feGaussianBlur stdDeviation="2"/>
<feComposite in2="hardAlpha" operator="arithmetic" k2="-1" k3="1"/>
<feColorMatrix type="matrix" values="0 0 0 0 0 0 0 0 0 0 0 0 0 0 0 0 0 0 0.25 0"/>
<feBlend mode="normal" in2="shape" result="effect1_innerShadow_1048_1038"/>
</filter>
<filter id="filter3_i_1048_1038" x="244.434" y="0.375" width="44.3281" height="9.66406" filterUnits="userSpaceOnUse" color-interpolation-filters="sRGB">
<feFlood flood-opacity="0" result="BackgroundImageFix"/>
<feBlend mode="normal" in="SourceGraphic" in2="BackgroundImageFix" result="shape"/>
<feColorMatrix in="SourceAlpha" type="matrix" values="0 0 0 0 0 0 0 0 0 0 0 0 0 0 0 0 0 0 127 0" result="hardAlpha"/>
<feOffset dy="4"/>
<feGaussianBlur stdDeviation="2"/>
<feComposite in2="hardAlpha" operator="arithmetic" k2="-1" k3="1"/>
<feColorMatrix type="matrix" values="0 0 0 0 0 0 0 0 0 0 0 0 0 0 0 0 0 0 0.25 0"/>
<feBlend mode="normal" in2="shape" result="effect1_innerShadow_1048_1038"/>
</filter>
<clipPath id="clip0_1048_1038">
<rect width="289" height="63" fill="white"/>
</clipPath>
</defs>
</svg>
