<svg width="55" height="41" viewBox="0 0 55 41" fill="none" xmlns="http://www.w3.org/2000/svg">
<mask id="mask0_526_1095" style="mask-type:luminance" maskUnits="userSpaceOnUse" x="0" y="0" width="55" height="41">
<path d="M0 0H54.228V40.3918H0V0Z" fill="white"/>
</mask>
<g mask="url(#mask0_526_1095)">
<path d="M45.3527 35.7266C47.858 35.7266 49.8656 33.5931 49.8656 30.9625L49.8875 4.77133C49.8875 2.14075 47.858 0.00976562 45.3527 0.00976562H9.06956C6.56427 0.00976562 4.53478 2.14075 4.53478 4.77133V30.9625C4.53478 33.5931 6.56427 35.7266 9.06956 35.7266H0C0 38.3572 2.02948 40.4882 4.53478 40.4882H49.8875C52.3927 40.4882 54.4222 38.3572 54.4222 35.7266H45.3527ZM9.06956 4.77133H45.3527V30.9625H9.06956V4.77133ZM27.2111 38.1074C25.9633 38.1074 24.9437 37.0343 24.9437 35.7266C24.9437 34.4164 25.9633 33.3433 27.2111 33.3433C28.4589 33.3433 29.4785 34.4164 29.4785 35.7266C29.4785 37.0343 28.4589 38.1074 27.2111 38.1074Z" fill="#460BFF"/>
</g>
</svg>
