<svg width="350" height="35" viewBox="0 0 350 35" fill="none" xmlns="http://www.w3.org/2000/svg">
<g filter="url(#filter0_d_1038_273)">
<path d="M12.6152 15.6201L12.6152 17L5.83887 17L5.83887 15.6201L12.6152 15.6201ZM6.18164 4.20313L6.18164 17L4.48535 17L4.48535 4.20313L6.18164 4.20313ZM11.7188 9.70508L11.7188 11.085L5.83887 11.085L5.83887 9.70508L11.7188 9.70508ZM12.5273 4.20313L12.5273 5.5918L5.83887 5.5918L5.83887 4.20313L12.5273 4.20313ZM15.5163 3.5L15.5163 17L13.8816 17L13.8816 3.5L15.5163 3.5ZM101.832 9.31836L101.832 20.6563L100.197 20.6563L100.197 7.49024L101.692 7.49024L101.832 9.31836ZM108.239 12.166L108.239 12.3506C108.239 13.042 108.157 13.6836 107.993 14.2754C107.829 14.8613 107.589 15.3711 107.273 15.8047C106.962 16.2383 106.578 16.5752 106.121 16.8154C105.664 17.0557 105.14 17.1758 104.548 17.1758C103.945 17.1758 103.411 17.0762 102.948 16.877C102.486 16.6777 102.093 16.3877 101.771 16.0068C101.448 15.626 101.191 15.1689 100.997 14.6357C100.81 14.1025 100.681 13.502 100.611 12.834L100.611 11.8496C100.681 11.1465 100.813 10.5166 101.006 9.95996C101.199 9.40332 101.454 8.92871 101.771 8.53614C102.093 8.1377 102.483 7.83594 102.94 7.63086C103.397 7.41993 103.924 7.31446 104.522 7.31446C105.119 7.31446 105.65 7.43164 106.112 7.66602C106.575 7.89453 106.965 8.22266 107.281 8.65039C107.598 9.07813 107.835 9.59082 107.993 10.1885C108.157 10.7803 108.239 11.4395 108.239 12.166ZM106.605 12.3506L106.605 12.166C106.605 11.6914 106.555 11.2461 106.455 10.8301C106.356 10.4082 106.2 10.0391 105.989 9.72266C105.784 9.40039 105.521 9.14844 105.198 8.9668C104.876 8.7793 104.492 8.68555 104.047 8.68555C103.637 8.68555 103.279 8.75586 102.975 8.89649C102.676 9.03711 102.421 9.22754 102.21 9.46778C101.999 9.70215 101.826 9.97168 101.692 10.2764C101.563 10.5752 101.466 10.8857 101.402 11.208L101.402 13.4844C101.519 13.8945 101.683 14.2813 101.894 14.6445C102.105 15.002 102.386 15.292 102.737 15.5147C103.089 15.7314 103.531 15.8398 104.065 15.8398C104.504 15.8398 104.882 15.749 105.198 15.5674C105.521 15.3799 105.784 15.125 105.989 14.8027C106.2 14.4805 106.356 14.1113 106.455 13.6953C106.555 13.2734 106.605 12.8252 106.605 12.3506ZM113.54 17.1758C112.878 17.1758 112.277 17.0645 111.738 16.8418C111.205 16.6133 110.745 16.2939 110.358 15.8838C109.977 15.4736 109.684 14.9873 109.479 14.4248C109.274 13.8623 109.172 13.2471 109.172 12.5791L109.172 12.21C109.172 11.4365 109.286 10.7481 109.515 10.1445C109.743 9.53516 110.054 9.01953 110.446 8.59766C110.839 8.17578 111.284 7.85645 111.782 7.63965C112.28 7.42286 112.796 7.31446 113.329 7.31446C114.009 7.31446 114.595 7.43164 115.087 7.66602C115.585 7.90039 115.992 8.22852 116.308 8.65039C116.625 9.06641 116.859 9.5586 117.012 10.127C117.164 10.6895 117.24 11.3047 117.24 11.9727L117.24 12.7022L110.139 12.7022L110.139 11.375L115.614 11.375L115.614 11.252C115.591 10.8301 115.503 10.4199 115.35 10.0215C115.204 9.62305 114.97 9.29493 114.647 9.03711C114.325 8.7793 113.886 8.65039 113.329 8.65039C112.96 8.65039 112.62 8.7295 112.309 8.8877C111.999 9.04004 111.732 9.26856 111.51 9.57325C111.287 9.87793 111.114 10.25 110.991 10.6895C110.868 11.1289 110.807 11.6357 110.807 12.21L110.807 12.5791C110.807 13.0303 110.868 13.4551 110.991 13.8535C111.12 14.2461 111.305 14.5918 111.545 14.8906C111.791 15.1895 112.087 15.4238 112.433 15.5938C112.784 15.7637 113.183 15.8486 113.628 15.8486C114.202 15.8486 114.688 15.7314 115.087 15.4971C115.485 15.2627 115.834 14.9492 116.133 14.5566L117.117 15.3389C116.912 15.6494 116.651 15.9453 116.335 16.2266C116.018 16.5078 115.629 16.7363 115.166 16.9121C114.709 17.0879 114.167 17.1758 113.54 17.1758ZM120.045 8.98438L120.045 17L118.419 17L118.419 7.49024L120.001 7.49024L120.045 8.98438ZM123.015 7.4375L123.006 8.94922C122.872 8.91993 122.743 8.90235 122.62 8.89649C122.503 8.88477 122.368 8.87891 122.215 8.87891C121.84 8.87891 121.509 8.9375 121.222 9.05469C120.935 9.17188 120.692 9.33594 120.493 9.54688C120.294 9.75782 120.135 10.0098 120.018 10.3027C119.907 10.5898 119.834 10.9063 119.798 11.252L119.341 11.5156C119.341 10.9414 119.397 10.4023 119.508 9.89844C119.626 9.39454 119.804 8.94922 120.045 8.5625C120.285 8.16993 120.589 7.86524 120.959 7.64844C121.334 7.42578 121.779 7.31446 122.295 7.31446C122.412 7.31446 122.546 7.32911 122.699 7.3584C122.851 7.38184 122.957 7.40821 123.015 7.4375ZM126.365 17L124.739 17L124.739 6.48828C124.739 5.80274 124.862 5.22559 125.108 4.75684C125.36 4.28223 125.72 3.92481 126.189 3.68457C126.658 3.43848 127.214 3.31543 127.859 3.31543C128.046 3.31543 128.234 3.32715 128.421 3.35059C128.615 3.37403 128.802 3.40918 128.984 3.45606L128.896 4.78321C128.773 4.75391 128.632 4.7334 128.474 4.72168C128.322 4.70996 128.169 4.7041 128.017 4.7041C127.671 4.7041 127.372 4.77442 127.12 4.91504C126.874 5.04981 126.687 5.24903 126.558 5.5127C126.429 5.77637 126.365 6.10157 126.365 6.48828L126.365 17ZM128.386 7.49024L128.386 8.73829L123.236 8.73829L123.236 7.49024L128.386 7.49024ZM133.212 17.1758C132.55 17.1758 131.949 17.0645 131.41 16.8418C130.877 16.6133 130.417 16.294 130.03 15.8838C129.649 15.4736 129.356 14.9873 129.151 14.4248C128.946 13.8623 128.844 13.2471 128.844 12.5791L128.844 12.21C128.844 11.4365 128.958 10.7481 129.187 10.1445C129.415 9.53516 129.726 9.01954 130.118 8.59766C130.511 8.17579 130.956 7.85645 131.454 7.63965C131.952 7.42286 132.468 7.31446 133.001 7.31446C133.681 7.31446 134.267 7.43164 134.759 7.66602C135.257 7.90039 135.664 8.22852 135.981 8.65039C136.297 9.06641 136.531 9.5586 136.684 10.127C136.836 10.6895 136.912 11.3047 136.912 11.9727L136.912 12.7022L129.811 12.7022L129.811 11.375L135.286 11.375L135.286 11.252C135.263 10.8301 135.175 10.4199 135.023 10.0215C134.876 9.62305 134.642 9.29493 134.319 9.03711C133.997 8.7793 133.558 8.65039 133.001 8.65039C132.632 8.65039 132.292 8.7295 131.981 8.8877C131.671 9.04004 131.404 9.26856 131.182 9.57325C130.959 9.87793 130.786 10.25 130.663 10.6895C130.54 11.1289 130.479 11.6357 130.479 12.21L130.479 12.5791C130.479 13.0303 130.54 13.4551 130.663 13.8535C130.792 14.2461 130.977 14.5918 131.217 14.8906C131.463 15.1895 131.759 15.4238 132.105 15.5938C132.456 15.7637 132.855 15.8486 133.3 15.8486C133.874 15.8486 134.36 15.7315 134.759 15.4971C135.157 15.2627 135.506 14.9492 135.805 14.5566L136.789 15.3389C136.584 15.6494 136.323 15.9453 136.007 16.2266C135.69 16.5078 135.301 16.7363 134.838 16.9121C134.381 17.0879 133.839 17.1758 133.212 17.1758ZM141.896 15.8398C142.283 15.8398 142.64 15.7607 142.969 15.6025C143.297 15.4443 143.566 15.2275 143.777 14.9522C143.988 14.6709 144.108 14.3516 144.137 13.9941L145.684 13.9941C145.655 14.5566 145.465 15.0811 145.113 15.5674C144.767 16.0479 144.313 16.4375 143.751 16.7363C143.188 17.0293 142.57 17.1758 141.896 17.1758C141.181 17.1758 140.557 17.0498 140.024 16.7979C139.497 16.5459 139.057 16.2002 138.706 15.7607C138.36 15.3213 138.099 14.8174 137.924 14.249C137.754 13.6748 137.669 13.0684 137.669 12.4297L137.669 12.0606C137.669 11.4219 137.754 10.8184 137.924 10.25C138.099 9.67579 138.36 9.16895 138.706 8.7295C139.057 8.29004 139.497 7.94434 140.024 7.69239C140.557 7.44043 141.181 7.31446 141.896 7.31446C142.64 7.31446 143.291 7.4668 143.847 7.77149C144.404 8.07032 144.841 8.48047 145.157 9.00196C145.479 9.51758 145.655 10.1035 145.684 10.7598L144.137 10.7598C144.108 10.3672 143.997 10.0127 143.803 9.69629C143.616 9.37989 143.358 9.12793 143.03 8.94043C142.708 8.74707 142.33 8.65039 141.896 8.65039C141.398 8.65039 140.979 8.75 140.639 8.94922C140.305 9.14258 140.039 9.40625 139.84 9.74024C139.646 10.0684 139.506 10.4346 139.418 10.8389C139.336 11.2373 139.295 11.6445 139.295 12.0606L139.295 12.4297C139.295 12.8457 139.336 13.2559 139.418 13.6602C139.5 14.0645 139.637 14.4307 139.831 14.7588C140.03 15.0869 140.297 15.3506 140.631 15.5498C140.97 15.7432 141.392 15.8398 141.896 15.8398ZM150.774 7.49024L150.774 8.73829L145.632 8.73829L145.632 7.49024L150.774 7.49024ZM147.373 5.17871L148.999 5.17871L148.999 14.6445C148.999 14.9668 149.048 15.21 149.148 15.374C149.248 15.5381 149.376 15.6465 149.535 15.6992C149.693 15.752 149.863 15.7783 150.044 15.7783C150.179 15.7783 150.32 15.7666 150.466 15.7432C150.619 15.7139 150.733 15.6904 150.809 15.6729L150.818 17C150.689 17.041 150.519 17.0791 150.308 17.1143C150.103 17.1553 149.854 17.1758 149.561 17.1758C149.163 17.1758 148.796 17.0967 148.462 16.9385C148.128 16.7803 147.862 16.5166 147.663 16.1475C147.469 15.7725 147.373 15.2686 147.373 14.6357L147.373 5.17871ZM151.355 12.3506L151.355 12.1484C151.355 11.4629 151.454 10.8272 151.654 10.2412C151.853 9.64942 152.14 9.13672 152.515 8.70313C152.89 8.26368 153.344 7.92383 153.877 7.6836C154.41 7.4375 155.008 7.31446 155.67 7.31446C156.338 7.31446 156.939 7.4375 157.472 7.6836C158.011 7.92383 158.468 8.26368 158.843 8.70313C159.224 9.13672 159.514 9.64942 159.713 10.2412C159.912 10.8272 160.012 11.4629 160.012 12.1484L160.012 12.3506C160.012 13.0361 159.912 13.6719 159.713 14.2578C159.514 14.8438 159.224 15.3565 158.843 15.7959C158.468 16.2295 158.014 16.5693 157.481 16.8154C156.953 17.0557 156.356 17.1758 155.688 17.1758C155.02 17.1758 154.419 17.0557 153.886 16.8154C153.353 16.5693 152.896 16.2295 152.515 15.7959C152.14 15.3565 151.853 14.8438 151.654 14.2578C151.454 13.6719 151.355 13.0361 151.355 12.3506ZM152.981 12.1484L152.981 12.3506C152.981 12.8252 153.036 13.2734 153.148 13.6953C153.259 14.1113 153.426 14.4805 153.649 14.8027C153.877 15.125 154.161 15.3799 154.501 15.5674C154.841 15.749 155.237 15.8398 155.688 15.8398C156.133 15.8398 156.523 15.749 156.857 15.5674C157.197 15.3799 157.478 15.125 157.7 14.8027C157.923 14.4805 158.09 14.1113 158.201 13.6953C158.319 13.2734 158.377 12.8252 158.377 12.3506L158.377 12.1484C158.377 11.6797 158.319 11.2373 158.201 10.8213C158.09 10.3994 157.92 10.0273 157.692 9.70508C157.469 9.37696 157.188 9.11914 156.848 8.93164C156.514 8.74414 156.121 8.65039 155.67 8.65039C155.225 8.65039 154.832 8.74414 154.492 8.93164C154.158 9.11914 153.877 9.37696 153.649 9.70508C153.426 10.0273 153.259 10.3994 153.148 10.8213C153.036 11.2373 152.981 11.6797 152.981 12.1484ZM166.702 9.31836L166.702 20.6563L165.067 20.6563L165.067 7.49024L166.561 7.49024L166.702 9.31836ZM173.109 12.166L173.109 12.3506C173.109 13.042 173.027 13.6836 172.863 14.2754C172.699 14.8613 172.459 15.3711 172.142 15.8047C171.832 16.2383 171.448 16.5752 170.991 16.8154C170.534 17.0557 170.009 17.1758 169.418 17.1758C168.814 17.1758 168.281 17.0762 167.818 16.877C167.355 16.6777 166.963 16.3877 166.64 16.0068C166.318 15.626 166.06 15.169 165.867 14.6357C165.679 14.1025 165.55 13.502 165.48 12.834L165.48 11.8496C165.55 11.1465 165.682 10.5166 165.876 9.95997C166.069 9.40332 166.324 8.92872 166.64 8.53614C166.963 8.1377 167.352 7.83594 167.809 7.63086C168.266 7.41993 168.794 7.31446 169.391 7.31446C169.989 7.31446 170.519 7.43164 170.982 7.66602C171.445 7.89454 171.835 8.22266 172.151 8.65039C172.467 9.07813 172.705 9.59082 172.863 10.1885C173.027 10.7803 173.109 11.4395 173.109 12.166ZM171.474 12.3506L171.474 12.166C171.474 11.6914 171.424 11.2461 171.325 10.8301C171.225 10.4082 171.07 10.0391 170.859 9.72266C170.654 9.40039 170.39 9.14844 170.068 8.9668C169.746 8.7793 169.362 8.68555 168.917 8.68555C168.507 8.68555 168.149 8.75586 167.844 8.89649C167.546 9.03711 167.291 9.22754 167.08 9.46778C166.869 9.70215 166.696 9.97168 166.561 10.2764C166.432 10.5752 166.336 10.8857 166.271 11.208L166.271 13.4844C166.388 13.8945 166.552 14.2813 166.763 14.6445C166.974 15.002 167.256 15.292 167.607 15.5147C167.959 15.7315 168.401 15.8398 168.934 15.8398C169.374 15.8398 169.752 15.749 170.068 15.5674C170.39 15.3799 170.654 15.125 170.859 14.8027C171.07 14.4805 171.225 14.1113 171.325 13.6953C171.424 13.2734 171.474 12.8252 171.474 12.3506ZM180.071 15.374L180.071 10.4785C180.071 10.1035 179.995 9.77832 179.842 9.50293C179.696 9.22168 179.473 9.00489 179.174 8.85254C178.875 8.7002 178.506 8.62403 178.067 8.62403C177.657 8.62403 177.296 8.69434 176.986 8.83497C176.681 8.97559 176.441 9.16016 176.265 9.38868C176.095 9.61719 176.01 9.86329 176.01 10.127L174.384 10.127C174.384 9.78711 174.472 9.4502 174.648 9.11622C174.824 8.78223 175.076 8.48047 175.404 8.21094C175.738 7.93555 176.136 7.71875 176.599 7.56055C177.068 7.39649 177.589 7.31446 178.163 7.31446C178.855 7.31446 179.464 7.43164 179.992 7.66602C180.525 7.90039 180.941 8.25489 181.24 8.7295C181.544 9.19825 181.697 9.78711 181.697 10.4961L181.697 14.9258C181.697 15.2422 181.723 15.5791 181.776 15.9365C181.834 16.294 181.919 16.6016 182.031 16.8594L182.031 17L180.334 17C180.252 16.8125 180.188 16.5635 180.141 16.2529C180.094 15.9365 180.071 15.6436 180.071 15.374ZM180.352 11.2344L180.37 12.377L178.726 12.377C178.263 12.377 177.85 12.415 177.487 12.4912C177.123 12.5615 176.819 12.6699 176.573 12.8164C176.327 12.9629 176.139 13.1475 176.01 13.3701C175.881 13.5869 175.817 13.8418 175.817 14.1348C175.817 14.4336 175.884 14.7061 176.019 14.9522C176.154 15.1982 176.356 15.3945 176.625 15.541C176.901 15.6816 177.238 15.752 177.636 15.752C178.134 15.752 178.574 15.6465 178.954 15.4356C179.335 15.2246 179.637 14.9668 179.86 14.6621C180.088 14.3574 180.211 14.0615 180.229 13.7744L180.923 14.5566C180.882 14.8027 180.771 15.0752 180.589 15.374C180.408 15.6729 180.164 15.96 179.86 16.2354C179.561 16.5049 179.203 16.7305 178.787 16.9121C178.377 17.0879 177.914 17.1758 177.399 17.1758C176.754 17.1758 176.189 17.0498 175.703 16.7979C175.222 16.5459 174.847 16.209 174.578 15.7871C174.314 15.3594 174.182 14.8818 174.182 14.3545C174.182 13.8447 174.282 13.3965 174.481 13.0098C174.68 12.6172 174.967 12.292 175.342 12.0342C175.717 11.7705 176.168 11.5713 176.696 11.4365C177.223 11.3018 177.812 11.2344 178.462 11.2344L180.352 11.2344ZM185.16 8.98438L185.16 17L183.534 17L183.534 7.49024L185.116 7.49024L185.16 8.98438ZM188.131 7.4375L188.122 8.94922C187.987 8.91993 187.858 8.90235 187.735 8.89649C187.618 8.88477 187.483 8.87891 187.331 8.87891C186.956 8.87891 186.625 8.9375 186.338 9.05469C186.051 9.17188 185.808 9.33594 185.608 9.54688C185.409 9.75782 185.251 10.0098 185.134 10.3027C185.023 10.5898 184.949 10.9063 184.914 11.252L184.457 11.5156C184.457 10.9414 184.513 10.4023 184.624 9.89844C184.741 9.39454 184.92 8.94922 185.16 8.5625C185.4 8.16993 185.705 7.86524 186.074 7.64844C186.449 7.42579 186.895 7.31446 187.41 7.31446C187.527 7.31446 187.662 7.32911 187.815 7.3584C187.967 7.38184 188.072 7.40821 188.131 7.4375ZM194.17 15.374L194.17 10.4785C194.17 10.1035 194.094 9.77832 193.941 9.50293C193.795 9.22168 193.572 9.00489 193.273 8.85254C192.974 8.7002 192.605 8.62403 192.166 8.62403C191.756 8.62403 191.395 8.69434 191.085 8.83497C190.78 8.97559 190.54 9.16016 190.364 9.38868C190.194 9.61719 190.109 9.86329 190.109 10.127L188.483 10.127C188.483 9.78711 188.571 9.4502 188.747 9.11622C188.923 8.78223 189.175 8.48047 189.503 8.21094C189.837 7.93555 190.235 7.71875 190.698 7.56055C191.167 7.39649 191.688 7.31446 192.263 7.31446C192.954 7.31446 193.563 7.43164 194.091 7.66602C194.624 7.90039 195.04 8.25489 195.339 8.7295C195.643 9.19825 195.796 9.78711 195.796 10.4961L195.796 14.9258C195.796 15.2422 195.822 15.5791 195.875 15.9365C195.933 16.294 196.018 16.6016 196.13 16.8594L196.13 17L194.433 17C194.351 16.8125 194.287 16.5635 194.24 16.2529C194.193 15.9365 194.17 15.6436 194.17 15.374ZM194.451 11.2344L194.469 12.377L192.825 12.377C192.362 12.377 191.949 12.415 191.586 12.4912C191.222 12.5615 190.918 12.6699 190.672 12.8164C190.426 12.9629 190.238 13.1475 190.109 13.3701C189.98 13.5869 189.916 13.8418 189.916 14.1348C189.916 14.4336 189.983 14.7061 190.118 14.9522C190.253 15.1982 190.455 15.3945 190.724 15.541C191 15.6816 191.337 15.752 191.735 15.752C192.233 15.752 192.673 15.6465 193.054 15.4356C193.434 15.2246 193.736 14.9668 193.959 14.6621C194.187 14.3574 194.31 14.0615 194.328 13.7744L195.022 14.5566C194.981 14.8027 194.87 15.0752 194.688 15.374C194.507 15.6729 194.263 15.96 193.959 16.2354C193.66 16.5049 193.303 16.7305 192.887 16.9121C192.476 17.0879 192.013 17.1758 191.498 17.1758C190.853 17.1758 190.288 17.0498 189.802 16.7979C189.321 16.5459 188.946 16.209 188.677 15.7871C188.413 15.3594 188.281 14.8818 188.281 14.3545C188.281 13.8447 188.381 13.3965 188.58 13.0098C188.779 12.6172 189.066 12.292 189.441 12.0342C189.816 11.7705 190.267 11.5713 190.795 11.4365C191.322 11.3018 191.911 11.2344 192.561 11.2344L194.451 11.2344ZM203.145 3.5L203.145 17L201.51 17L201.51 3.5L203.145 3.5ZM210.643 15.374L210.643 10.4785C210.643 10.1035 210.566 9.77832 210.414 9.50293C210.268 9.22168 210.045 9.00489 209.746 8.85254C209.447 8.7002 209.078 8.62403 208.639 8.62403C208.228 8.62403 207.868 8.69434 207.558 8.83497C207.253 8.97559 207.013 9.16016 206.837 9.38868C206.667 9.61719 206.582 9.86329 206.582 10.127L204.956 10.127C204.956 9.78711 205.044 9.4502 205.22 9.11622C205.395 8.78223 205.647 8.48047 205.976 8.21094C206.31 7.93555 206.708 7.71875 207.171 7.56055C207.64 7.39649 208.161 7.31446 208.735 7.31446C209.427 7.31446 210.036 7.43165 210.563 7.66602C211.097 7.9004 211.513 8.25489 211.812 8.7295C212.116 9.19825 212.269 9.78711 212.269 10.4961L212.269 14.9258C212.269 15.2422 212.295 15.5791 212.348 15.9365C212.406 16.294 212.491 16.6016 212.603 16.8594L212.603 17L210.906 17C210.824 16.8125 210.76 16.5635 210.713 16.2529C210.666 15.9365 210.643 15.6436 210.643 15.374ZM210.924 11.2344L210.941 12.377L209.298 12.377C208.835 12.377 208.422 12.415 208.059 12.4912C207.695 12.5615 207.391 12.6699 207.145 12.8164C206.898 12.9629 206.711 13.1475 206.582 13.3701C206.453 13.5869 206.389 13.8418 206.389 14.1348C206.389 14.4336 206.456 14.7061 206.591 14.9522C206.726 15.1982 206.928 15.3945 207.197 15.541C207.473 15.6816 207.81 15.752 208.208 15.752C208.706 15.752 209.145 15.6465 209.526 15.4356C209.907 15.2246 210.209 14.9668 210.432 14.6621C210.66 14.3574 210.783 14.0615 210.801 13.7744L211.495 14.5566C211.454 14.8027 211.343 15.0752 211.161 15.374C210.979 15.6729 210.736 15.96 210.432 16.2354C210.133 16.5049 209.775 16.7305 209.359 16.9121C208.949 17.0879 208.486 17.1758 207.971 17.1758C207.326 17.1758 206.761 17.0498 206.274 16.7979C205.794 16.5459 205.419 16.209 205.149 15.7871C204.886 15.3594 204.754 14.8818 204.754 14.3545C204.754 13.8447 204.853 13.3965 205.053 13.0098C205.252 12.6172 205.539 12.292 205.914 12.0342C206.289 11.7705 206.74 11.5713 207.268 11.4365C207.795 11.3018 208.384 11.2344 209.034 11.2344L210.924 11.2344ZM288.265 9.31836L288.265 20.6563L286.63 20.6563L286.63 7.49024L288.125 7.49024L288.265 9.31836ZM294.672 12.166L294.672 12.3506C294.672 13.042 294.59 13.6836 294.426 14.2754C294.262 14.8613 294.022 15.3711 293.706 15.8047C293.395 16.2383 293.011 16.5752 292.554 16.8154C292.097 17.0557 291.573 17.1758 290.981 17.1758C290.378 17.1758 289.844 17.0762 289.381 16.877C288.919 16.6777 288.526 16.3877 288.204 16.0068C287.881 15.626 287.624 15.169 287.43 14.6357C287.243 14.1025 287.114 13.502 287.044 12.834L287.044 11.8496C287.114 11.1465 287.246 10.5166 287.439 9.95997C287.632 9.40333 287.887 8.92872 288.204 8.53614C288.526 8.1377 288.916 7.83594 289.373 7.63086C289.83 7.41993 290.357 7.31446 290.955 7.31446C291.552 7.31446 292.083 7.43165 292.546 7.66602C293.008 7.89454 293.398 8.22266 293.714 8.6504C294.031 9.07813 294.268 9.59083 294.426 10.1885C294.59 10.7803 294.672 11.4395 294.672 12.166ZM293.038 12.3506L293.038 12.166C293.038 11.6914 292.988 11.2461 292.888 10.8301C292.789 10.4082 292.633 10.0391 292.422 9.72266C292.217 9.4004 291.954 9.14844 291.631 8.9668C291.309 8.7793 290.925 8.68555 290.48 8.68555C290.07 8.68555 289.712 8.75586 289.408 8.89649C289.109 9.03711 288.854 9.22754 288.643 9.46778C288.432 9.70215 288.259 9.97169 288.125 10.2764C287.996 10.5752 287.899 10.8857 287.835 11.208L287.835 13.4844C287.952 13.8945 288.116 14.2813 288.327 14.6445C288.538 15.002 288.819 15.292 289.171 15.5147C289.522 15.7315 289.964 15.8398 290.498 15.8398C290.937 15.8398 291.315 15.749 291.631 15.5674C291.954 15.3799 292.217 15.125 292.422 14.8027C292.633 14.4805 292.789 14.1113 292.888 13.6953C292.988 13.2734 293.038 12.8252 293.038 12.3506ZM299.973 17.1758C299.311 17.1758 298.71 17.0645 298.171 16.8418C297.638 16.6133 297.178 16.294 296.791 15.8838C296.41 15.4736 296.117 14.9873 295.912 14.4248C295.707 13.8623 295.605 13.2471 295.605 12.5791L295.605 12.21C295.605 11.4365 295.719 10.7481 295.948 10.1445C296.176 9.53516 296.487 9.01954 296.879 8.59766C297.272 8.17579 297.717 7.85645 298.215 7.63965C298.713 7.42286 299.229 7.31446 299.762 7.31446C300.442 7.31446 301.028 7.43165 301.52 7.66602C302.018 7.9004 302.425 8.22852 302.742 8.6504C303.058 9.06641 303.292 9.5586 303.445 10.127C303.597 10.6895 303.673 11.3047 303.673 11.9727L303.673 12.7022L296.572 12.7022L296.572 11.375L302.047 11.375L302.047 11.252C302.024 10.8301 301.936 10.4199 301.784 10.0215C301.637 9.62305 301.403 9.29493 301.08 9.03711C300.758 8.7793 300.319 8.6504 299.762 8.6504C299.393 8.6504 299.053 8.7295 298.742 8.8877C298.432 9.04004 298.165 9.26856 297.943 9.57325C297.72 9.87794 297.547 10.25 297.424 10.6895C297.301 11.1289 297.24 11.6357 297.24 12.21L297.24 12.5791C297.24 13.0303 297.301 13.4551 297.424 13.8535C297.553 14.2461 297.738 14.5918 297.978 14.8906C298.224 15.1895 298.52 15.4238 298.866 15.5938C299.217 15.7637 299.616 15.8486 300.061 15.8486C300.635 15.8486 301.121 15.7315 301.52 15.4971C301.918 15.2627 302.267 14.9492 302.566 14.5566L303.55 15.3389C303.345 15.6494 303.084 15.9453 302.768 16.2266C302.451 16.5078 302.062 16.7363 301.599 16.9121C301.142 17.0879 300.6 17.1758 299.973 17.1758ZM306.478 8.98438L306.478 17L304.852 17L304.852 7.49024L306.434 7.49024L306.478 8.98438ZM309.448 7.43751L309.439 8.94922C309.305 8.91993 309.176 8.90235 309.053 8.89649C308.936 8.88477 308.801 8.87891 308.648 8.87891C308.273 8.87891 307.942 8.93751 307.655 9.05469C307.368 9.17188 307.125 9.33594 306.926 9.54688C306.727 9.75782 306.568 10.0098 306.451 10.3027C306.34 10.5898 306.267 10.9063 306.231 11.252L305.774 11.5156C305.774 10.9414 305.83 10.4023 305.941 9.89844C306.059 9.39454 306.237 8.94922 306.478 8.56251C306.718 8.16993 307.022 7.86524 307.392 7.64844C307.767 7.42579 308.212 7.31446 308.728 7.31446C308.845 7.31446 308.98 7.32911 309.132 7.3584C309.284 7.38184 309.39 7.40821 309.448 7.43751ZM312.798 17L311.172 17L311.172 6.48829C311.172 5.80274 311.295 5.22559 311.541 4.75684C311.793 4.28223 312.153 3.92481 312.622 3.68458C313.091 3.43848 313.647 3.31543 314.292 3.31543C314.479 3.31543 314.667 3.32715 314.854 3.35059C315.048 3.37403 315.235 3.40918 315.417 3.45606L315.329 4.78321C315.206 4.75391 315.065 4.7334 314.907 4.72168C314.755 4.70997 314.602 4.70411 314.45 4.70411C314.104 4.70411 313.805 4.77442 313.553 4.91504C313.307 5.04981 313.12 5.24903 312.991 5.5127C312.862 5.77637 312.798 6.10157 312.798 6.48829L312.798 17ZM314.819 7.49024L314.819 8.73829L309.669 8.73829L309.669 7.49024L314.819 7.49024ZM319.645 17.1758C318.983 17.1758 318.382 17.0645 317.843 16.8418C317.31 16.6133 316.85 16.294 316.463 15.8838C316.082 15.4736 315.79 14.9873 315.584 14.4248C315.379 13.8623 315.277 13.2471 315.277 12.5791L315.277 12.21C315.277 11.4365 315.391 10.7481 315.62 10.1445C315.848 9.53516 316.159 9.01954 316.551 8.59766C316.944 8.17579 317.389 7.85645 317.887 7.63965C318.385 7.42286 318.901 7.31446 319.434 7.31446C320.114 7.31446 320.7 7.43165 321.192 7.66602C321.69 7.9004 322.097 8.22852 322.414 8.6504C322.73 9.06641 322.964 9.5586 323.117 10.127C323.269 10.6895 323.345 11.3047 323.345 11.9727L323.345 12.7022L316.244 12.7022L316.244 11.375L321.719 11.375L321.719 11.252C321.696 10.8301 321.608 10.4199 321.456 10.0215C321.309 9.62305 321.075 9.29493 320.752 9.03711C320.43 8.7793 319.991 8.6504 319.434 8.6504C319.065 8.6504 318.725 8.7295 318.415 8.8877C318.104 9.04004 317.837 9.26856 317.615 9.57325C317.392 9.87794 317.219 10.25 317.096 10.6895C316.973 11.1289 316.912 11.6357 316.912 12.21L316.912 12.5791C316.912 13.0303 316.973 13.4551 317.096 13.8535C317.225 14.2461 317.41 14.5918 317.65 14.8906C317.896 15.1895 318.192 15.4238 318.538 15.5938C318.889 15.7637 319.288 15.8486 319.733 15.8486C320.307 15.8486 320.793 15.7315 321.192 15.4971C321.59 15.2627 321.939 14.9492 322.238 14.5566L323.222 15.3389C323.017 15.6494 322.756 15.9453 322.44 16.2266C322.124 16.5078 321.734 16.7363 321.271 16.9121C320.814 17.0879 320.272 17.1758 319.645 17.1758ZM328.329 15.8399C328.716 15.8399 329.073 15.7607 329.402 15.6025C329.73 15.4443 329.999 15.2275 330.21 14.9522C330.421 14.6709 330.541 14.3516 330.571 13.9941L332.117 13.9941C332.088 14.5566 331.898 15.0811 331.546 15.5674C331.2 16.0479 330.746 16.4375 330.184 16.7363C329.621 17.0293 329.003 17.1758 328.329 17.1758C327.614 17.1758 326.99 17.0498 326.457 16.7979C325.93 16.5459 325.49 16.2002 325.139 15.7607C324.793 15.3213 324.532 14.8174 324.357 14.249C324.187 13.6748 324.102 13.0684 324.102 12.4297L324.102 12.0606C324.102 11.4219 324.187 10.8184 324.357 10.25C324.532 9.67579 324.793 9.16895 325.139 8.7295C325.49 8.29004 325.93 7.94434 326.457 7.69239C326.99 7.44044 327.614 7.31446 328.329 7.31446C329.073 7.31446 329.724 7.4668 330.28 7.77149C330.837 8.07032 331.274 8.48047 331.59 9.00196C331.912 9.51758 332.088 10.1035 332.117 10.7598L330.571 10.7598C330.541 10.3672 330.43 10.0127 330.237 9.69629C330.049 9.37989 329.791 9.12794 329.463 8.94044C329.141 8.74708 328.763 8.6504 328.329 8.6504C327.831 8.6504 327.412 8.75001 327.072 8.94922C326.738 9.14258 326.472 9.40626 326.273 9.74024C326.079 10.0684 325.939 10.4346 325.851 10.8389C325.769 11.2373 325.728 11.6445 325.728 12.0606L325.728 12.4297C325.728 12.8457 325.769 13.2559 325.851 13.6602C325.933 14.0645 326.071 14.4307 326.264 14.7588C326.463 15.0869 326.73 15.3506 327.064 15.5498C327.404 15.7432 327.825 15.8399 328.329 15.8399ZM337.207 7.49024L337.207 8.73829L332.065 8.73829L332.065 7.49024L337.207 7.49024ZM333.806 5.17872L335.432 5.17872L335.432 14.6445C335.432 14.9668 335.481 15.21 335.581 15.374C335.681 15.5381 335.809 15.6465 335.968 15.6992C336.126 15.752 336.296 15.7783 336.477 15.7783C336.612 15.7783 336.753 15.7666 336.899 15.7432C337.052 15.7139 337.166 15.6904 337.242 15.6729L337.251 17C337.122 17.041 336.952 17.0791 336.741 17.1143C336.536 17.1553 336.287 17.1758 335.994 17.1758C335.596 17.1758 335.229 17.0967 334.895 16.9385C334.561 16.7803 334.295 16.5166 334.096 16.1475C333.902 15.7725 333.806 15.2686 333.806 14.6357L333.806 5.17872ZM344.002 15.374L344.002 10.4785C344.002 10.1035 343.925 9.77833 343.773 9.50294C343.627 9.22169 343.404 9.00489 343.105 8.85254C342.806 8.7002 342.437 8.62403 341.998 8.62403C341.588 8.62403 341.227 8.69434 340.917 8.83497C340.612 8.97559 340.372 9.16016 340.196 9.38868C340.026 9.61719 339.941 9.86329 339.941 10.127L338.315 10.127C338.315 9.78712 338.403 9.4502 338.579 9.11622C338.755 8.78223 339.006 8.48047 339.335 8.21094C339.669 7.93555 340.067 7.71876 340.53 7.56055C340.999 7.39649 341.52 7.31446 342.094 7.31446C342.786 7.31446 343.395 7.43165 343.922 7.66602C344.456 7.9004 344.872 8.25489 345.171 8.7295C345.475 9.19825 345.628 9.78712 345.628 10.4961L345.628 14.9258C345.628 15.2422 345.654 15.5791 345.707 15.9365C345.765 16.294 345.85 16.6016 345.962 16.8594L345.962 17L344.265 17C344.183 16.8125 344.119 16.5635 344.072 16.2529C344.025 15.9365 344.002 15.6436 344.002 15.374ZM344.283 11.2344L344.3 12.377L342.657 12.377C342.194 12.377 341.781 12.415 341.418 12.4912C341.054 12.5615 340.75 12.6699 340.504 12.8164C340.257 12.9629 340.07 13.1475 339.941 13.3701C339.812 13.5869 339.748 13.8418 339.748 14.1348C339.748 14.4336 339.815 14.7061 339.95 14.9522C340.085 15.1982 340.287 15.3945 340.556 15.541C340.832 15.6816 341.169 15.752 341.567 15.752C342.065 15.752 342.505 15.6465 342.885 15.4356C343.266 15.2246 343.568 14.9668 343.791 14.6621C344.019 14.3574 344.142 14.0615 344.16 13.7744L344.854 14.5566C344.813 14.8027 344.702 15.0752 344.52 15.374C344.339 15.6729 344.095 15.96 343.791 16.2354C343.492 16.5049 343.134 16.7305 342.718 16.9121C342.308 17.0879 341.845 17.1758 341.33 17.1758C340.685 17.1758 340.12 17.0498 339.633 16.7979C339.153 16.5459 338.778 16.209 338.508 15.7871C338.245 15.3594 338.113 14.8818 338.113 14.3545C338.113 13.8447 338.213 13.3965 338.412 13.0098C338.611 12.6172 338.898 12.292 339.273 12.0342C339.648 11.7705 340.099 11.5713 340.627 11.4365C341.154 11.3018 341.743 11.2344 342.393 11.2344L344.283 11.2344Z" fill="white"/>
<path d="M23.7482 16.2363C24.2124 16.2363 24.7215 16.0566 25.2755 15.6973C25.8446 15.3229 26.3911 14.8887 26.9152 14.3945C27.4543 13.9004 27.9409 13.3988 28.3752 12.8897C28.8244 12.3656 29.1613 11.9463 29.3859 11.6318C29.5207 11.4372 29.6479 11.3249 29.7677 11.2949C29.8875 11.25 29.9774 11.265 30.0373 11.3398C30.0972 11.4147 30.1196 11.5345 30.1047 11.6992C30.0897 11.849 30.0223 12.0212 29.9025 12.2158C29.7977 12.3955 29.618 12.6576 29.3634 13.002C29.1239 13.3314 28.8319 13.6982 28.4875 14.1025C28.158 14.4919 27.7762 14.8962 27.342 15.3154C26.9227 15.7197 26.481 16.0941 26.0168 16.4385C25.5526 16.7679 25.0734 17.0374 24.5793 17.2471C24.0851 17.4717 23.5985 17.584 23.1193 17.584C22.4604 17.584 21.9064 17.4567 21.4572 17.2022C21.0229 16.9626 20.6711 16.6481 20.4015 16.2588C20.147 15.8695 19.9673 15.4427 19.8625 14.9785C19.7576 14.4994 19.7052 14.0277 19.7052 13.5635C19.7052 13.0993 19.8101 12.5228 20.0197 11.834C20.2293 11.1452 20.5363 10.4863 20.9406 9.85742C21.3599 9.21354 21.8839 8.667 22.5129 8.21778C23.1418 7.75358 23.883 7.52149 24.7365 7.52149C25.2157 7.52149 25.62 7.6862 25.9494 8.01563C26.2938 8.34505 26.4585 8.79427 26.4435 9.36328C26.4435 9.63282 26.3986 9.90235 26.3088 10.1719C26.2189 10.4264 26.0991 10.6585 25.9494 10.8682C25.7996 11.0628 25.62 11.2201 25.4103 11.3398C25.2157 11.4596 24.9985 11.5195 24.7589 11.5195C24.5643 11.5195 24.4145 11.4522 24.3097 11.3174C24.2199 11.1676 24.16 11.0029 24.13 10.8232C24.1151 10.6286 24.1151 10.4414 24.13 10.2617C24.16 10.082 24.1899 9.96224 24.2199 9.90235C24.2948 9.79753 24.3771 9.72266 24.467 9.67774C24.5568 9.63282 24.6616 9.58041 24.7814 9.52051C24.8713 9.47559 24.9386 9.40821 24.9836 9.31836C25.0435 9.22852 25.0734 9.13119 25.0734 9.02637C25.0734 8.92155 25.0435 8.83171 24.9836 8.75684C24.9237 8.68197 24.8263 8.64453 24.6916 8.64453C24.5568 8.64453 24.3097 8.75684 23.9504 8.98145C23.606 9.19108 23.2466 9.51302 22.8722 9.94727C22.5129 10.3665 22.1909 10.8981 21.9064 11.542C21.6219 12.1859 21.4722 12.9346 21.4572 13.7881C21.4422 14.2822 21.5096 14.6865 21.6593 15.001C21.8091 15.3154 21.9963 15.5625 22.2209 15.7422C22.4455 15.9219 22.6925 16.0492 22.9621 16.124C23.2316 16.1989 23.4936 16.2363 23.7482 16.2363ZM38.8878 12.5303C38.6781 12.8298 38.4086 13.2041 38.0792 13.6533C37.7498 14.0876 37.4054 14.5293 37.046 14.9785C36.7016 15.4128 36.3572 15.8171 36.0128 16.1914C35.6834 16.5508 35.4063 16.8053 35.1817 16.9551C35.032 17.0449 34.8598 17.1198 34.6651 17.1797C34.4705 17.2396 34.2683 17.277 34.0587 17.292C33.864 17.307 33.6768 17.292 33.4972 17.2471C33.3175 17.2171 33.1602 17.1572 33.0255 17.0674C32.8907 16.9626 32.7784 16.8128 32.6886 16.6182C32.6137 16.4535 32.5388 16.2363 32.4639 15.9668C32.4041 15.6973 32.3816 15.3604 32.3966 14.9561C32.0372 15.555 31.6404 16.0192 31.2061 16.3486C30.7719 16.6631 30.3601 16.8952 29.9708 17.0449C29.5216 17.2096 29.0723 17.307 28.6231 17.3369C28.4135 17.3369 28.1889 17.262 27.9493 17.1123C27.7097 16.9775 27.5076 16.7604 27.3429 16.4609C27.1781 16.1465 27.0733 15.7497 27.0284 15.2705C26.9835 14.7764 27.0434 14.1924 27.2081 13.5186C27.4177 12.6051 27.7472 11.7741 28.1964 11.0254C28.6606 10.2767 29.1622 9.6403 29.7013 9.11621C30.2403 8.57715 30.7719 8.17285 31.296 7.90332C31.8201 7.63379 32.2543 7.514 32.5987 7.54395C33.003 7.61882 33.3324 7.73861 33.587 7.90332C33.7966 8.05306 33.9314 8.27767 33.9913 8.57715C34.0662 8.86166 33.9464 9.24349 33.6319 9.72266C33.8416 9.67774 34.0138 9.64779 34.1485 9.63282C34.2983 9.61784 34.4106 9.61035 34.4854 9.61035C34.5753 9.61035 34.6352 9.61784 34.6651 9.63282C34.6801 9.66276 34.6876 9.73015 34.6876 9.83496C34.6876 9.92481 34.6651 10.097 34.6202 10.3516C34.5753 10.6061 34.5079 10.9505 34.4181 11.3848C34.3282 11.819 34.2084 12.3805 34.0587 13.0693C34.0287 13.2041 33.9988 13.3314 33.9688 13.4512C33.9539 13.556 33.9314 13.6683 33.9014 13.7881C33.8865 13.8929 33.864 14.0202 33.8341 14.1699C33.8041 14.3197 33.7667 14.5068 33.7218 14.7314C33.7068 14.8662 33.6993 15.016 33.6993 15.1807C33.7143 15.3304 33.7442 15.4727 33.7891 15.6074C33.8341 15.7422 33.9014 15.8545 33.9913 15.9443C34.0961 16.0192 34.2384 16.0566 34.4181 16.0566C34.5678 16.0566 34.7625 15.9668 35.002 15.7871C35.2416 15.5925 35.4962 15.3529 35.7657 15.0684C36.0352 14.7689 36.3123 14.4469 36.5968 14.1025C36.8962 13.7432 37.1733 13.3988 37.4278 13.0693C37.6824 12.7399 37.907 12.4479 38.1016 12.1934C38.3113 11.9388 38.461 11.7516 38.5509 11.6318C38.6707 11.4971 38.7904 11.4222 38.9102 11.4072C39.03 11.3773 39.1199 11.4072 39.1798 11.4971C39.2397 11.5869 39.2472 11.7217 39.2022 11.9014C39.1723 12.0811 39.0675 12.2907 38.8878 12.5303ZM32.3067 13.5186C32.3816 13.2191 32.4714 12.8672 32.5763 12.4629C32.6811 12.0586 32.7709 11.6693 32.8458 11.2949C32.9207 10.9206 32.9731 10.6136 33.003 10.374C33.0479 10.1195 33.0404 9.99968 32.9806 10.0147C32.9057 10.0296 32.8233 10.0521 32.7335 10.082C32.6586 10.112 32.5613 10.1344 32.4415 10.1494C32.3217 10.1644 32.2019 10.1869 32.0821 10.2168C32.2019 9.97722 32.2693 9.78256 32.2843 9.63282C32.3142 9.4681 32.3217 9.34082 32.3067 9.25098C32.2917 9.14616 32.2618 9.06381 32.2169 9.00391C32.0522 8.86914 31.7602 8.98145 31.3409 9.34082C30.9366 9.68522 30.4649 10.3291 29.9259 11.2725C29.7013 11.6618 29.5216 12.0811 29.3868 12.5303C29.252 12.9645 29.1547 13.3763 29.0948 13.7656C29.0499 14.155 29.0424 14.4994 29.0723 14.7988C29.1023 15.0833 29.1622 15.2705 29.252 15.3604C29.4167 15.5251 29.6039 15.6074 29.8136 15.6074C30.0232 15.5925 30.2328 15.5326 30.4425 15.4277C30.6671 15.3079 30.8842 15.1582 31.0938 14.9785C31.3184 14.7988 31.5131 14.6117 31.6778 14.417C31.8575 14.2223 31.9998 14.0426 32.1046 13.8779C32.2244 13.7132 32.2917 13.5934 32.3067 13.5186ZM43.1338 17.5615C42.7894 17.5615 42.4899 17.4941 42.2354 17.3594C41.9958 17.2396 41.8011 17.0749 41.6514 16.8652C41.5016 16.6556 41.4043 16.416 41.3594 16.1465C41.3145 15.862 41.3294 15.5625 41.4043 15.2481C41.4492 15.0384 41.5241 14.7614 41.6289 14.417C41.7337 14.0576 41.8385 13.6758 41.9434 13.2715C42.0632 12.8522 42.168 12.4404 42.2578 12.0361C42.3626 11.6169 42.43 11.2425 42.46 10.9131C42.4899 10.5687 42.4749 10.2917 42.415 10.082C42.3551 9.85743 42.2279 9.74512 42.0332 9.74512C41.7936 9.74512 41.5466 9.82748 41.292 9.99219C41.0374 10.1419 40.7754 10.3516 40.5059 10.6211C40.2513 10.8906 39.9893 11.2051 39.7197 11.5645C39.4652 11.9089 39.2106 12.2682 38.9561 12.6426C38.8213 13.1517 38.709 13.6009 38.6191 13.9902C38.5293 14.3646 38.4469 14.709 38.3721 15.0234C38.3122 15.3229 38.2523 15.5925 38.1924 15.832C38.1325 16.0566 38.0801 16.2738 38.0352 16.4834C37.9902 16.6331 37.8555 16.7829 37.6309 16.9326C37.4063 17.0674 37.1667 17.1797 36.9121 17.2695C36.6576 17.3594 36.4404 17.4043 36.2607 17.4043C36.0661 17.4043 35.9837 17.3369 36.0137 17.2022C36.0286 17.1123 36.0811 16.9102 36.1709 16.5957C36.2458 16.2813 36.3431 15.9144 36.4629 15.4951C36.5677 15.0609 36.68 14.6042 36.7998 14.125C36.9196 13.6458 37.0319 13.1891 37.1367 12.7549C37.2116 12.4105 37.2939 12.0286 37.3838 11.6094C37.4587 11.25 37.5485 10.8307 37.6533 10.3516C37.7731 9.8724 37.9079 9.34831 38.0576 8.7793C38.1624 8.68946 38.2673 8.62207 38.3721 8.57715C38.4919 8.51726 38.6117 8.47233 38.7314 8.44239C38.8512 8.39746 38.9785 8.36752 39.1133 8.35254C39.2331 8.35254 39.3529 8.36003 39.4727 8.375C39.5775 8.38998 39.6823 8.41992 39.7871 8.46485C39.9069 8.49479 40.0117 8.5472 40.1016 8.62207C40.0566 8.72689 40.0042 8.87663 39.9443 9.07129C39.8844 9.25098 39.8245 9.44564 39.7647 9.65528C39.7048 9.89486 39.6299 10.1419 39.54 10.3965C39.7347 10.127 39.9518 9.85743 40.1914 9.58789C40.446 9.30339 40.7155 9.04883 41 8.82422C41.2995 8.59961 41.6139 8.41992 41.9434 8.28516C42.2728 8.13542 42.6097 8.06055 42.9541 8.06055C43.2386 8.06055 43.4932 8.14291 43.7178 8.30762C43.9424 8.47233 44.1146 8.70443 44.2344 9.00391C44.3691 9.28841 44.444 9.63282 44.459 10.0371C44.4889 10.4414 44.4365 10.8831 44.3018 11.3623L44.0547 12.3506C43.9798 12.665 43.8825 13.0394 43.7627 13.4736C43.6579 13.8929 43.5231 14.3571 43.3584 14.8662C43.2686 15.1956 43.2311 15.4801 43.2461 15.7197C43.276 15.9593 43.4258 16.0791 43.6953 16.0791C43.9648 16.0791 44.3018 15.9144 44.7061 15.585C45.1253 15.2555 45.5446 14.8587 45.9639 14.3945C46.3831 13.9303 46.78 13.4587 47.1543 12.9795C47.5287 12.4854 47.8132 12.0885 48.0078 11.7891C48.1426 11.5944 48.2699 11.4671 48.3897 11.4072C48.5094 11.3473 48.5993 11.3398 48.6592 11.3848C48.7341 11.4297 48.7715 11.5345 48.7715 11.6992C48.7715 11.849 48.7116 12.0436 48.5918 12.2832C48.487 12.4928 48.3223 12.7699 48.0977 13.1143C47.888 13.4587 47.6335 13.8255 47.334 14.2148C47.0345 14.6042 46.7126 15.001 46.3682 15.4053C46.0238 15.7946 45.6644 16.154 45.29 16.4834C44.9157 16.7979 44.5413 17.0524 44.167 17.2471C43.8076 17.4567 43.4632 17.5615 43.1338 17.5615ZM53.3095 12.71C53.2346 13.1742 53.1598 13.6159 53.0849 14.0352C53.025 14.4544 52.9876 14.7913 52.9726 15.0459C52.9576 15.4203 53.025 15.6898 53.1747 15.8545C53.3245 16.0192 53.4892 16.1016 53.6689 16.1016C53.8785 16.1016 54.1331 15.9967 54.4325 15.7871C54.747 15.5775 55.0764 15.3154 55.4208 15.001C55.7652 14.6865 56.1096 14.3421 56.454 13.9678C56.7984 13.5934 57.1129 13.2415 57.3974 12.9121C57.6969 12.5677 57.9439 12.2682 58.1386 12.0137C58.3482 11.7591 58.4905 11.5944 58.5654 11.5195C58.6552 11.4297 58.745 11.3773 58.8349 11.3623C58.9397 11.3473 59.0221 11.3623 59.082 11.4072C59.1419 11.4522 59.1718 11.5345 59.1718 11.6543C59.1718 11.7741 59.1119 11.9238 58.9921 12.1035C58.8124 12.388 58.5803 12.7249 58.2958 13.1143C58.0113 13.4886 57.6969 13.8779 57.3525 14.2822C57.0081 14.6865 56.6412 15.0833 56.2519 15.4727C55.8775 15.862 55.4957 16.2064 55.1064 16.5059C54.732 16.8053 54.3652 17.0449 54.0058 17.2246C53.6614 17.4193 53.3469 17.5166 53.0624 17.5166C52.8528 17.5166 52.6506 17.4567 52.456 17.3369C52.2763 17.2171 52.1116 17.0599 51.9618 16.8652C51.8121 16.6706 51.6923 16.4535 51.6025 16.2139C51.5276 15.9743 51.4976 15.7347 51.5126 15.4951C51.5276 15.3903 51.5501 15.2106 51.58 14.9561C50.9511 15.6598 50.3147 16.2214 49.6708 16.6406C49.0419 17.0449 48.4355 17.2471 47.8515 17.2471C47.6419 17.2471 47.4172 17.1947 47.1777 17.0898C46.9381 16.985 46.721 16.8128 46.5263 16.5732C46.3466 16.3337 46.1969 16.0192 46.0771 15.6299C45.9573 15.2406 45.9124 14.7689 45.9423 14.2148C45.9872 13.3464 46.1594 12.5228 46.4589 11.7441C46.7584 10.9655 47.1327 10.2917 47.582 9.72266C48.0461 9.13868 48.5628 8.68197 49.1318 8.35254C49.7157 8.00814 50.2997 7.83594 50.8837 7.83594C51.1383 7.83594 51.3704 7.90332 51.58 8.03809C51.7896 8.15788 51.9693 8.32259 52.1191 8.53223C52.2688 8.72689 52.3886 8.94401 52.4784 9.1836C52.5833 9.42318 52.6581 9.64779 52.7031 9.85743C52.8079 9.42318 52.9052 8.99642 52.995 8.57715C53.0849 8.15788 53.1747 7.76107 53.2646 7.38672C53.4143 6.83269 53.5715 6.23373 53.7363 5.58985C53.886 5.03581 54.0582 4.39942 54.2529 3.68067C54.4475 2.96192 54.6646 2.20573 54.9042 1.41211C55.054 1.29232 55.1962 1.20248 55.331 1.14258C55.4657 1.08268 55.593 1.03776 55.7128 1.00781C55.8476 0.962893 55.9749 0.940432 56.0947 0.940432C56.2444 0.940432 56.3792 0.962893 56.4989 1.00781C56.6187 1.03776 56.7161 1.13509 56.7909 1.29981C56.8808 1.44955 56.9407 1.68164 56.9706 1.9961C57.0006 2.31055 57.0006 2.73731 56.9706 3.27637C56.9407 3.93522 56.8209 4.65397 56.6113 5.43262C56.4166 6.21127 56.1545 7.01986 55.8251 7.8584C55.4957 8.68197 55.1139 9.51302 54.6796 10.3516C54.2603 11.1751 53.8036 11.9613 53.3095 12.71ZM51.9843 13.002C52.0442 12.7175 52.0966 12.4329 52.1415 12.1484C52.2014 11.8639 52.2688 11.5719 52.3437 11.2725C52.3137 11.2874 52.2838 11.3024 52.2538 11.3174C52.2389 11.3324 52.2164 11.3473 52.1864 11.3623C52.0217 11.4372 51.9094 11.4372 51.8495 11.3623C51.7896 11.2725 51.7597 11.1377 51.7597 10.958C51.7597 10.8682 51.7522 10.7109 51.7372 10.4863C51.7223 10.2467 51.6773 10.0072 51.6025 9.76758C51.5426 9.51302 51.4452 9.2959 51.3105 9.11621C51.1757 8.92155 50.9885 8.82422 50.7489 8.82422C50.4045 8.82422 50.0527 9.00391 49.6933 9.36328C49.3339 9.70769 48.997 10.1344 48.6825 10.6436C48.3681 11.1377 48.106 11.6693 47.8964 12.2383C47.6868 12.8073 47.567 13.3164 47.537 13.7656C47.5071 14.4844 47.5969 15.001 47.8066 15.3154C48.0162 15.6299 48.3007 15.7871 48.6601 15.7871C48.9296 15.7871 49.2216 15.6823 49.5361 15.4727C49.8655 15.263 50.1799 15.0085 50.4794 14.709C50.7939 14.4095 51.0784 14.1025 51.3329 13.7881C51.6025 13.4736 51.8196 13.2116 51.9843 13.002ZM61.3065 3.77051C61.2616 3.93522 61.1717 4.09994 61.037 4.26465C60.9172 4.41439 60.7749 4.54167 60.6102 4.64649C60.4605 4.73633 60.3032 4.79623 60.1385 4.82617C59.9738 4.85612 59.839 4.82617 59.7342 4.73633C59.4198 4.49675 59.2551 4.24219 59.2401 3.97266C59.2251 3.68815 59.2925 3.42611 59.4422 3.18653C59.592 2.93197 59.7791 2.72233 60.0038 2.55762C60.2284 2.37793 60.423 2.27311 60.5877 2.24317C60.7525 2.21322 60.8872 2.25065 60.992 2.35547C61.1118 2.44531 61.2017 2.57259 61.2616 2.73731C61.3215 2.88705 61.3514 3.05925 61.3514 3.25391C61.3664 3.44857 61.3514 3.62077 61.3065 3.77051ZM58.2069 8.55469C58.2818 8.46485 58.424 8.38998 58.6336 8.33008C58.8433 8.27019 59.0604 8.22526 59.285 8.19532C59.5096 8.15039 59.7118 8.12793 59.8915 8.12793C60.0861 8.11296 60.1984 8.11296 60.2284 8.12793C60.2433 8.14291 60.2059 8.30013 60.1161 8.59961C60.0262 8.89909 59.9139 9.25098 59.7791 9.65528C59.6444 10.0596 59.5021 10.4788 59.3524 10.9131C59.2026 11.3324 59.0903 11.6768 59.0155 11.9463C58.9406 12.2158 58.8508 12.5228 58.7459 12.8672C58.6411 13.1966 58.5438 13.526 58.454 13.8555C58.3791 14.1699 58.3267 14.4694 58.2967 14.7539C58.2668 15.0384 58.2892 15.2555 58.3641 15.4053C58.439 15.585 58.5213 15.7122 58.6112 15.7871C58.701 15.847 58.7984 15.877 58.9032 15.877C59.2026 15.877 59.577 15.7122 60.0262 15.3828C60.4904 15.0534 60.9546 14.6641 61.4188 14.2148C61.898 13.7507 62.3397 13.2865 62.744 12.8223C63.1483 12.3431 63.4478 11.9613 63.6424 11.6768C63.7622 11.527 63.882 11.4297 64.0018 11.3848C64.1366 11.3398 64.2414 11.3473 64.3163 11.4072C64.4061 11.4671 64.451 11.5645 64.451 11.6992C64.466 11.834 64.4211 11.9912 64.3163 12.1709C64.0767 12.5902 63.7248 13.0918 63.2606 13.6758C62.7964 14.2448 62.3023 14.7988 61.7782 15.3379C61.2541 15.862 60.7375 16.3112 60.2284 16.6856C59.7342 17.0599 59.3299 17.2546 59.0155 17.2695C58.7609 17.2845 58.5064 17.2396 58.2518 17.1348C58.0122 17.0449 57.7876 16.9176 57.578 16.7529C57.3833 16.5732 57.2186 16.3711 57.0838 16.1465C56.9491 15.9069 56.8742 15.6598 56.8592 15.4053C56.8143 15.0309 56.8143 14.5218 56.8592 13.8779C56.9041 13.2191 56.9865 12.5527 57.1063 11.8789C57.2261 11.1901 57.3758 10.5387 57.5555 9.92481C57.7502 9.31088 57.9673 8.85417 58.2069 8.55469ZM68.8992 12.71C68.8243 13.1742 68.7494 13.6159 68.6746 14.0352C68.6147 14.4544 68.5772 14.7913 68.5623 15.0459C68.5473 15.4203 68.6147 15.6898 68.7644 15.8545C68.9142 16.0192 69.0789 16.1016 69.2586 16.1016C69.4682 16.1016 69.7228 15.9967 70.0222 15.7871C70.3367 15.5775 70.6661 15.3154 71.0105 15.001C71.3549 14.6865 71.6993 14.3421 72.0437 13.9678C72.3881 13.5934 72.7026 13.2415 72.9871 12.9121C73.2866 12.5677 73.5336 12.2682 73.7283 12.0137C73.9379 11.7591 74.0802 11.5944 74.155 11.5195C74.2449 11.4297 74.3347 11.3773 74.4246 11.3623C74.5294 11.3473 74.6118 11.3623 74.6717 11.4072C74.7315 11.4522 74.7615 11.5345 74.7615 11.6543C74.7615 11.7741 74.7016 11.9238 74.5818 12.1035C74.4021 12.388 74.17 12.7249 73.8855 13.1143C73.601 13.4886 73.2866 13.8779 72.9422 14.2822C72.5978 14.6865 72.2309 15.0833 71.8416 15.4727C71.4672 15.862 71.0854 16.2064 70.6961 16.5059C70.3217 16.8053 69.9549 17.0449 69.5955 17.2246C69.2511 17.4193 68.9366 17.5166 68.6521 17.5166C68.4425 17.5166 68.2403 17.4567 68.0457 17.3369C67.866 17.2171 67.7013 17.0599 67.5515 16.8652C67.4018 16.6706 67.282 16.4535 67.1922 16.2139C67.1173 15.9743 67.0873 15.7347 67.1023 15.4951C67.1173 15.3903 67.1397 15.2106 67.1697 14.9561C66.5408 15.6598 65.9044 16.2214 65.2605 16.6406C64.6316 17.0449 64.0252 17.2471 63.4412 17.2471C63.2315 17.2471 63.0069 17.1947 62.7674 17.0898C62.5278 16.985 62.3106 16.8128 62.116 16.5732C61.9363 16.3337 61.7866 16.0192 61.6668 15.6299C61.547 15.2406 61.5021 14.7689 61.532 14.2148C61.5769 13.3464 61.7491 12.5228 62.0486 11.7441C62.3481 10.9655 62.7224 10.2917 63.1716 9.72266C63.6358 9.13868 64.1524 8.68197 64.7215 8.35254C65.3054 8.00814 65.8894 7.83594 66.4734 7.83594C66.728 7.83594 66.9601 7.90332 67.1697 8.03809C67.3793 8.15788 67.559 8.32259 67.7088 8.53223C67.8585 8.72689 67.9783 8.94401 68.0681 9.1836C68.173 9.42318 68.2478 9.64779 68.2927 9.85743C68.3976 9.42318 68.4949 8.99642 68.5847 8.57715C68.6746 8.15788 68.7644 7.76107 68.8543 7.38672C69.004 6.83269 69.1612 6.23373 69.3259 5.58985C69.4757 5.03581 69.6479 4.39942 69.8425 3.68067C70.0372 2.96192 70.2543 2.20573 70.4939 1.41211C70.6437 1.29232 70.7859 1.20248 70.9207 1.14258C71.0554 1.08268 71.1827 1.03776 71.3025 1.00781C71.4373 0.962893 71.5646 0.940432 71.6843 0.940432C71.8341 0.940432 71.9689 0.962893 72.0886 1.00781C72.2084 1.03776 72.3058 1.13509 72.3806 1.29981C72.4705 1.44955 72.5304 1.68164 72.5603 1.9961C72.5903 2.31055 72.5903 2.73731 72.5603 3.27637C72.5304 3.93522 72.4106 4.65397 72.2009 5.43262C72.0063 6.21127 71.7442 7.01986 71.4148 7.8584C71.0854 8.68197 70.7036 9.51302 70.2693 10.3516C69.85 11.1751 69.3933 11.9613 68.8992 12.71ZM67.574 13.002C67.6339 12.7175 67.6863 12.4329 67.7312 12.1484C67.7911 11.8639 67.8585 11.5719 67.9334 11.2725C67.9034 11.2874 67.8735 11.3024 67.8435 11.3174C67.8286 11.3324 67.8061 11.3473 67.7761 11.3623C67.6114 11.4372 67.4991 11.4372 67.4392 11.3623C67.3793 11.2725 67.3494 11.1377 67.3494 10.958C67.3494 10.8682 67.3419 10.7109 67.3269 10.4863C67.3119 10.2467 67.267 10.0072 67.1922 9.76758C67.1323 9.51302 67.0349 9.2959 66.9002 9.11621C66.7654 8.92155 66.5782 8.82422 66.3386 8.82422C65.9942 8.82422 65.6424 9.00391 65.283 9.36328C64.9236 9.70769 64.5867 10.1344 64.2722 10.6436C63.9578 11.1377 63.6957 11.6693 63.4861 12.2383C63.2765 12.8073 63.1567 13.3164 63.1267 13.7656C63.0968 14.4844 63.1866 15.001 63.3963 15.3154C63.6059 15.6299 63.8904 15.7871 64.2498 15.7871C64.5193 15.7871 64.8113 15.6823 65.1258 15.4727C65.4552 15.263 65.7696 15.0085 66.0691 14.709C66.3836 14.4095 66.6681 14.1025 66.9226 13.7881C67.1922 13.4736 67.4093 13.2116 67.574 13.002ZM83.4772 12.5303C83.2676 12.8298 82.9981 13.2041 82.6686 13.6533C82.3392 14.0876 81.9948 14.5293 81.6354 14.9785C81.291 15.4128 80.9466 15.8171 80.6022 16.1914C80.2728 16.5508 79.9958 16.8053 79.7712 16.9551C79.6214 17.0449 79.4492 17.1198 79.2546 17.1797C79.0599 17.2396 78.8578 17.277 78.6481 17.292C78.4535 17.307 78.2663 17.292 78.0866 17.2471C77.9069 17.2171 77.7497 17.1572 77.6149 17.0674C77.4802 16.9626 77.3679 16.8128 77.278 16.6182C77.2031 16.4535 77.1283 16.2363 77.0534 15.9668C76.9935 15.6973 76.971 15.3604 76.986 14.9561C76.6266 15.555 76.2298 16.0192 75.7956 16.3486C75.3613 16.6631 74.9496 16.8952 74.5602 17.0449C74.111 17.2096 73.6618 17.307 73.2126 17.3369C73.003 17.3369 72.7783 17.262 72.5388 17.1123C72.2992 16.9775 72.097 16.7604 71.9323 16.4609C71.7676 16.1465 71.6628 15.7497 71.6179 15.2705C71.5729 14.7764 71.6328 14.1924 71.7975 13.5186C72.0072 12.6051 72.3366 11.7741 72.7858 11.0254C73.25 10.2767 73.7516 9.6403 74.2907 9.11621C74.8298 8.57715 75.3613 8.17285 75.8854 7.90332C76.4095 7.63379 76.8438 7.514 77.1882 7.54395C77.5925 7.61882 77.9219 7.73861 78.1765 7.90332C78.3861 8.05306 78.5209 8.27767 78.5808 8.57715C78.6556 8.86166 78.5358 9.24349 78.2214 9.72266C78.431 9.67774 78.6032 9.64779 78.738 9.63282C78.8877 9.61784 79 9.61036 79.0749 9.61036C79.1647 9.61036 79.2246 9.61784 79.2546 9.63282C79.2696 9.66276 79.277 9.73015 79.277 9.83496C79.277 9.92481 79.2546 10.097 79.2097 10.3516C79.1647 10.6061 79.0974 10.9505 79.0075 11.3848C78.9177 11.819 78.7979 12.3805 78.6481 13.0693C78.6182 13.2041 78.5882 13.3314 78.5583 13.4512C78.5433 13.556 78.5209 13.6683 78.4909 13.7881C78.4759 13.8929 78.4535 14.0202 78.4235 14.1699C78.3936 14.3197 78.3561 14.5068 78.3112 14.7314C78.2962 14.8662 78.2888 15.016 78.2888 15.1807C78.3037 15.3304 78.3337 15.4727 78.3786 15.6074C78.4235 15.7422 78.4909 15.8545 78.5808 15.9443C78.6856 16.0192 78.8278 16.0566 79.0075 16.0566C79.1572 16.0566 79.3519 15.9668 79.5915 15.7871C79.8311 15.5925 80.0856 15.3529 80.3552 15.0684C80.6247 14.7689 80.9017 14.4469 81.1862 14.1025C81.4857 13.7432 81.7627 13.3988 82.0173 13.0693C82.2718 12.7399 82.4964 12.4479 82.6911 12.1934C82.9007 11.9388 83.0505 11.7516 83.1403 11.6318C83.2601 11.4971 83.3799 11.4222 83.4997 11.4072C83.6195 11.3773 83.7093 11.4072 83.7692 11.4971C83.8291 11.5869 83.8366 11.7217 83.7917 11.9014C83.7617 12.0811 83.6569 12.2907 83.4772 12.5303ZM76.8962 13.5186C76.971 13.2191 77.0609 12.8672 77.1657 12.4629C77.2705 12.0586 77.3604 11.6693 77.4352 11.2949C77.5101 10.9206 77.5625 10.6136 77.5925 10.374C77.6374 10.1195 77.6299 9.99968 77.57 10.0147C77.4951 10.0296 77.4128 10.0521 77.3229 10.082C77.2481 10.112 77.1507 10.1344 77.0309 10.1494C76.9112 10.1644 76.7914 10.1869 76.6716 10.2168C76.7914 9.97722 76.8587 9.78256 76.8737 9.63282C76.9037 9.4681 76.9112 9.34082 76.8962 9.25098C76.8812 9.14616 76.8513 9.06381 76.8063 9.00391C76.6416 8.86914 76.3496 8.98145 75.9304 9.34082C75.5261 9.68522 75.0544 10.3291 74.5153 11.2725C74.2907 11.6618 74.111 12.0811 73.9763 12.5303C73.8415 12.9645 73.7442 13.3763 73.6843 13.7656C73.6393 14.155 73.6319 14.4994 73.6618 14.7988C73.6918 15.0833 73.7516 15.2705 73.8415 15.3604C74.0062 15.5251 74.1934 15.6074 74.403 15.6074C74.6127 15.5925 74.8223 15.5326 75.0319 15.4277C75.2565 15.3079 75.4737 15.1582 75.6833 14.9785C75.9079 14.7988 76.1026 14.6117 76.2673 14.417C76.447 14.2223 76.5892 14.0426 76.694 13.8779C76.8138 13.7132 76.8812 13.5934 76.8962 13.5186ZM89.3404 11.3174C89.4003 11.2275 89.4752 11.1751 89.5651 11.1602C89.6699 11.1302 89.7522 11.1377 89.8121 11.1826C89.872 11.2275 89.902 11.3024 89.902 11.4072C89.9169 11.512 89.8795 11.6543 89.7897 11.834C89.4902 12.403 89.0934 13.0169 88.5992 13.6758C88.1201 14.3346 87.6109 14.9561 87.0719 15.54C86.5328 16.1091 86.0087 16.5807 85.4996 16.9551C84.9905 17.3294 84.5637 17.5166 84.2193 17.5166C83.7252 17.5166 83.3134 17.4193 82.984 17.2246C82.6546 17.03 82.3925 16.7904 82.1979 16.5059C82.0182 16.2214 81.8909 15.9144 81.816 15.585C81.7412 15.2406 81.7187 14.9261 81.7486 14.6416C81.7636 14.402 81.816 13.9753 81.9059 13.3613C81.9957 12.7324 82.1155 12.0137 82.2652 11.2051C82.415 10.3815 82.5797 9.50554 82.7594 8.57715C82.954 7.63379 83.1562 6.72787 83.3658 5.85938C83.1113 5.88933 82.8567 5.91927 82.6022 5.94922C82.3476 5.97917 82.1155 5.99414 81.9059 5.99414C81.4267 5.99414 80.9775 5.94173 80.5582 5.83692C80.124 5.71713 79.802 5.60482 79.5924 5.5C79.4726 5.44011 79.4202 5.35775 79.4352 5.25293C79.4501 5.13314 79.4951 5.02084 79.5699 4.91602C79.6448 4.79623 79.7421 4.6989 79.8619 4.62403C79.9667 4.53418 80.0641 4.48926 80.1539 4.48926C80.4384 4.51921 80.7454 4.54916 81.0748 4.5791C81.4042 4.59408 81.7636 4.59408 82.1529 4.5791C82.4374 4.56413 82.707 4.54167 82.9615 4.51172C83.2311 4.48177 83.4931 4.44434 83.7477 4.39942C83.9423 3.68067 84.1295 3.05925 84.3092 2.53516C84.5039 1.9961 84.6761 1.62175 84.8258 1.41211C84.8707 1.33724 84.968 1.27735 85.1178 1.23242C85.2825 1.17253 85.4547 1.13509 85.6344 1.12012C85.8141 1.09017 85.9863 1.09017 86.151 1.12012C86.3157 1.13509 86.4355 1.1875 86.5104 1.27735C86.5852 1.39714 86.6152 1.7041 86.6002 2.19824C86.5852 2.69239 86.5029 3.32129 86.3531 4.08496C86.982 4.08496 87.5361 4.1224 88.0152 4.19727C88.5094 4.25716 88.9287 4.33203 89.2731 4.42188C89.6175 4.49675 89.8945 4.5791 90.1041 4.66895C90.3137 4.74382 90.471 4.79623 90.5758 4.82617C90.6806 4.85612 90.733 4.93099 90.733 5.05078C90.748 5.17058 90.7255 5.29785 90.6656 5.43262C90.6207 5.55241 90.5384 5.65723 90.4186 5.74707C90.2988 5.83692 90.164 5.86687 90.0143 5.83692C89.8645 5.82194 89.6923 5.792 89.4977 5.74707C89.318 5.70215 89.0934 5.66472 88.8238 5.63477C88.5693 5.60482 88.2623 5.57487 87.9029 5.54492C87.5436 5.51498 87.1243 5.5 86.6451 5.5C86.5553 5.5 86.4505 5.50749 86.3307 5.52246C86.2259 5.52246 86.1136 5.52246 85.9938 5.52246C85.9339 5.76205 85.874 6.00163 85.8141 6.24121C85.7692 6.46582 85.7018 6.70541 85.6119 6.95996C85.4173 7.55892 85.1927 8.21029 84.9381 8.91407C84.7135 9.528 84.444 10.2318 84.1295 11.0254C83.815 11.819 83.4632 12.665 83.0738 13.5635C82.984 14.2074 82.9915 14.7015 83.0963 15.0459C83.2161 15.3753 83.3583 15.6149 83.5231 15.7647C83.7177 15.9294 83.9573 16.0192 84.2418 16.0342C84.4664 16.0641 84.7359 15.9893 85.0504 15.8096C85.3798 15.6149 85.7167 15.3604 86.0611 15.0459C86.4055 14.7314 86.7499 14.387 87.0943 14.0127C87.4537 13.6384 87.7831 13.2715 88.0826 12.9121C88.3821 12.5527 88.6442 12.2308 88.8688 11.9463C89.0934 11.6468 89.2506 11.4372 89.3404 11.3174ZM93.7212 13.4287C93.5715 13.9977 93.3693 14.5293 93.1148 15.0234C92.8602 15.5176 92.5533 15.9443 92.1939 16.3037C91.8495 16.6631 91.4527 16.9401 91.0035 17.1348C90.5692 17.3444 90.09 17.4492 89.566 17.4492C88.952 17.4492 88.4654 17.3145 88.106 17.0449C87.7616 16.7904 87.4995 16.4684 87.3199 16.0791C87.1551 15.6898 87.0578 15.263 87.0279 14.7988C86.9829 14.3346 86.9605 13.9004 86.9605 13.4961C86.9605 13.2116 86.9979 12.8971 87.0728 12.5527C87.1327 12.2083 87.2225 11.8564 87.3423 11.4971C87.4621 11.1377 87.6118 10.7783 87.7915 10.4189C87.9862 10.0596 88.2108 9.73015 88.4654 9.43067C88.5552 9.17611 88.69 8.9515 88.8697 8.75684C89.0643 8.56218 89.2814 8.40495 89.521 8.28516C89.7756 8.15039 90.0451 8.05306 90.3296 7.99317C90.6141 7.9183 90.8911 7.88086 91.1607 7.88086C91.2056 7.88086 91.243 7.88835 91.273 7.90332C91.3179 7.9183 91.3628 7.93327 91.4077 7.94825C91.6024 7.96322 91.842 8.03809 92.1265 8.17286C92.426 8.30762 92.7105 8.50977 92.98 8.7793C93.2645 9.04883 93.5041 9.39323 93.6988 9.8125C93.8934 10.2168 93.9908 10.7109 93.9908 11.2949C93.9908 11.4147 93.9833 11.5645 93.9683 11.7441C93.9533 11.9089 93.9383 12.0511 93.9234 12.1709C94.2678 12.0361 94.6271 11.8714 95.0015 11.6768C95.3758 11.4821 95.7352 11.28 96.0796 11.0703C96.439 10.8457 96.7684 10.6211 97.0679 10.3965C97.3674 10.1719 97.607 9.96973 97.7867 9.79004C97.9364 9.65528 98.0637 9.58041 98.1685 9.56543C98.2733 9.55046 98.3482 9.58041 98.3931 9.65528C98.438 9.73015 98.4455 9.83496 98.4156 9.96973C98.3856 10.1045 98.3033 10.2542 98.1685 10.4189C98.0936 10.5088 97.899 10.6885 97.5845 10.958C97.285 11.2275 96.9257 11.5195 96.5064 11.834C96.0871 12.1484 95.6304 12.4554 95.1363 12.7549C94.6421 13.0544 94.1704 13.279 93.7212 13.4287ZM89.9253 10.0147C89.8804 10.1494 89.8579 10.2917 89.8579 10.4414C89.8579 10.681 89.8729 10.9356 89.9029 11.2051C89.9328 11.4596 90.0077 11.6917 90.1275 11.9014C90.2473 12.111 90.4344 12.2907 90.689 12.4404C90.9585 12.5752 91.3254 12.6426 91.7896 12.6426C91.8645 12.6426 91.9393 12.6426 92.0142 12.6426C92.0891 12.6276 92.1639 12.6126 92.2388 12.5977C92.2837 12.403 92.3212 12.2308 92.3511 12.0811C92.396 11.9163 92.4185 11.7741 92.4185 11.6543C92.4484 11.3698 92.4484 11.0778 92.4185 10.7783C92.3885 10.4788 92.3286 10.2093 92.2388 9.96973C92.1639 9.71517 92.0591 9.51302 91.9243 9.36328C91.8046 9.19857 91.6548 9.11621 91.4751 9.11621C91.1906 9.11621 90.9136 9.19857 90.6441 9.36328C90.3895 9.51302 90.1499 9.73015 89.9253 10.0147ZM88.4878 13.9678C88.4878 14.2373 88.5028 14.5068 88.5327 14.7764C88.5627 15.0309 88.6226 15.263 88.7124 15.4727C88.8023 15.6673 88.9221 15.832 89.0718 15.9668C89.2215 16.0866 89.4162 16.1465 89.6558 16.1465C89.9253 16.1465 90.1724 16.0866 90.397 15.9668C90.6216 15.832 90.8238 15.6673 91.0035 15.4727C91.1831 15.263 91.3404 15.0309 91.4751 14.7764C91.6249 14.5068 91.7521 14.2298 91.857 13.9453C91.7521 13.9603 91.6473 13.9753 91.5425 13.9902C91.4527 13.9902 91.3479 13.9902 91.2281 13.9902C90.6591 13.9902 90.1649 13.8255 89.7456 13.4961C89.3413 13.1517 89.0269 12.7175 88.8023 12.1934C88.7124 12.5078 88.6376 12.8148 88.5777 13.1143C88.5178 13.4137 88.4878 13.6982 88.4878 13.9678ZM226.804 12.3281C226.355 12.987 225.846 13.6309 225.277 14.2598C224.708 14.8737 224.101 15.4277 223.457 15.9219C222.829 16.401 222.177 16.7904 221.503 17.0898C220.844 17.3893 220.201 17.5391 219.572 17.5391C219.242 17.5391 218.883 17.4567 218.494 17.292C218.119 17.1423 217.775 16.9027 217.46 16.5732C217.146 16.2438 216.891 15.8171 216.697 15.293C216.517 14.7689 216.465 14.1325 216.539 13.3838C216.599 12.7699 216.787 12.126 217.101 11.4522C217.43 10.7634 217.827 10.1344 218.291 9.56543C218.771 8.99642 219.302 8.52474 219.886 8.1504C220.485 7.77605 221.084 7.58887 221.683 7.58887C222.252 7.58887 222.664 7.73112 222.918 8.01563C223.173 8.30013 223.285 8.65202 223.255 9.07129C223.21 9.53549 223.076 9.96224 222.851 10.3516C222.641 10.7409 222.387 11.0928 222.087 11.4072C221.788 11.7217 221.466 12.0062 221.122 12.2607C220.792 12.5153 220.478 12.7474 220.178 12.957C219.849 13.1816 219.534 13.3988 219.235 13.6084C218.935 13.8031 218.673 13.9828 218.449 14.1475C218.464 14.5218 218.531 14.8363 218.651 15.0908C218.771 15.3454 218.92 15.555 219.1 15.7197C219.28 15.8695 219.482 15.9818 219.706 16.0566C219.946 16.1165 220.186 16.1465 220.425 16.1465C220.934 16.1465 221.466 15.9893 222.02 15.6748C222.574 15.3454 223.113 14.9561 223.637 14.5068C224.176 14.0426 224.67 13.5635 225.12 13.0693C225.584 12.5752 225.966 12.1484 226.265 11.7891C226.37 11.6693 226.475 11.6019 226.58 11.5869C226.699 11.557 226.789 11.5719 226.849 11.6318C226.924 11.6768 226.961 11.7666 226.961 11.9014C226.961 12.0212 226.909 12.1634 226.804 12.3281ZM221.054 8.86915C220.874 8.86915 220.657 8.95899 220.403 9.13868C220.163 9.31836 219.924 9.58041 219.684 9.92481C219.444 10.2542 219.22 10.666 219.01 11.1602C218.801 11.6393 218.643 12.1934 218.539 12.8223C218.718 12.6875 218.913 12.5527 219.122 12.418C219.332 12.2682 219.542 12.111 219.751 11.9463C220.395 11.4522 220.844 11.0179 221.099 10.6436C221.354 10.2692 221.496 9.94727 221.526 9.67774C221.556 9.39323 221.526 9.19109 221.436 9.07129C221.346 8.93653 221.219 8.86915 221.054 8.86915ZM234.734 15.9668C234.734 15.6523 234.764 15.293 234.824 14.8887C234.898 14.4844 234.988 14.0726 235.093 13.6533C235.198 13.2191 235.303 12.7998 235.408 12.3955C235.512 11.9912 235.602 11.6318 235.677 11.3174C235.767 10.9281 235.759 10.6286 235.655 10.419C235.55 10.2093 235.37 10.1045 235.116 10.1045C234.996 10.1045 234.756 10.2093 234.397 10.419C234.052 10.6286 233.671 10.9954 233.251 11.5195C232.847 12.0287 232.443 12.7249 232.038 13.6084C231.649 14.4769 231.342 15.585 231.118 16.9326C230.833 17.0824 230.563 17.1797 230.309 17.2246C230.174 17.2546 230.054 17.277 229.95 17.292C229.65 17.307 229.455 17.2546 229.366 17.1348C229.276 17.03 229.291 16.7604 229.41 16.3262C229.47 16.1165 229.575 15.7796 229.725 15.3154C229.89 14.8512 230.047 14.3496 230.197 13.8106C230.346 13.2565 230.474 12.71 230.578 12.1709C230.698 11.6169 230.758 11.1377 230.758 10.7334C230.758 10.4489 230.706 10.2542 230.601 10.1494C230.511 10.0446 230.376 9.99219 230.197 9.99219C230.062 9.99219 229.837 10.0671 229.523 10.2168C229.208 10.3665 228.856 10.6585 228.467 11.0928C228.078 11.527 227.688 12.1335 227.299 12.9121C226.925 13.6758 226.603 14.6716 226.333 15.8994L226.333 15.8545C226.303 15.9743 226.273 16.0941 226.243 16.2139C226.214 16.3187 226.191 16.431 226.176 16.5508C226.161 16.6706 226.139 16.7829 226.109 16.8877L224.986 17.3818C224.911 17.4118 224.813 17.4343 224.694 17.4492C224.589 17.4642 224.484 17.4417 224.379 17.3818C224.289 17.3369 224.222 17.2321 224.177 17.0674C224.132 16.9027 224.147 16.6556 224.222 16.3262L225.637 10.4639C225.682 10.2692 225.719 10.082 225.749 9.90235C225.779 9.73764 225.794 9.58041 225.794 9.43067C225.809 9.26596 225.802 9.13119 225.772 9.02637C226.026 8.90658 226.251 8.81674 226.446 8.75684C226.64 8.69694 226.798 8.65202 226.917 8.62208C227.067 8.57715 227.194 8.55469 227.299 8.55469C227.778 8.55469 227.936 8.96648 227.771 9.79004C227.711 10.0296 227.621 10.3815 227.501 10.8457C227.786 10.4863 228.085 10.1494 228.4 9.83497C228.729 9.50554 229.059 9.21355 229.388 8.95899C229.717 8.70443 230.047 8.50228 230.376 8.35254C230.721 8.2028 231.058 8.12793 231.387 8.12793C231.642 8.12793 231.851 8.2028 232.016 8.35254C232.196 8.50228 232.33 8.70443 232.42 8.95899C232.525 9.19857 232.585 9.49056 232.6 9.83497C232.615 10.1644 232.6 10.5088 232.555 10.8682C232.795 10.5537 233.057 10.2393 233.341 9.92481C233.641 9.59538 233.948 9.30339 234.262 9.04883C234.591 8.79428 234.928 8.58464 235.273 8.41993C235.617 8.25521 235.962 8.17286 236.306 8.17286C236.71 8.17286 237.017 8.29265 237.227 8.53223C237.452 8.77181 237.601 9.07878 237.676 9.45313C237.766 9.82748 237.788 10.2318 237.743 10.666C237.714 11.1003 237.654 11.5195 237.564 11.9238L236.8 14.9561C236.635 15.7048 236.793 16.0791 237.272 16.0791C237.646 16.0791 238.058 15.8994 238.507 15.54C238.956 15.1807 239.391 14.7539 239.81 14.2598C240.244 13.7656 240.648 13.2565 241.023 12.7324C241.397 12.2083 241.712 11.7891 241.966 11.4746C242.056 11.3698 242.146 11.3099 242.236 11.2949C242.341 11.28 242.423 11.3024 242.483 11.3623C242.558 11.4072 242.595 11.4896 242.595 11.6094C242.61 11.7292 242.573 11.8789 242.483 12.0586C242.183 12.5827 241.816 13.1667 241.382 13.8106C240.948 14.4395 240.469 15.0309 239.945 15.585C239.436 16.139 238.889 16.6032 238.305 16.9775C237.721 17.3519 237.115 17.5391 236.486 17.5391C236.276 17.5391 236.066 17.5166 235.857 17.4717C235.662 17.4268 235.475 17.3444 235.295 17.2246C235.131 17.1048 234.996 16.9476 234.891 16.7529C234.786 16.5433 234.734 16.2813 234.734 15.9668ZM238.239 26.5908C238.134 26.5459 238.029 26.4785 237.924 26.3887C237.834 26.3138 237.744 26.2165 237.655 26.0967C237.565 25.9919 237.49 25.8571 237.43 25.6924C237.849 24.0902 238.209 22.6976 238.508 21.5147C238.793 20.3317 239.04 19.3434 239.249 18.5498C239.474 17.6214 239.669 16.8428 239.833 16.2139C239.983 15.6149 240.133 15.016 240.282 14.417C240.402 13.8929 240.53 13.3314 240.664 12.7324C240.814 12.1335 240.949 11.5719 241.069 11.0479C241.218 10.4639 241.308 9.99968 241.338 9.65528C241.368 9.2959 241.256 8.98894 241.001 8.73438C241.181 8.58464 241.361 8.47234 241.54 8.39747C241.735 8.30762 241.907 8.24773 242.057 8.21778C242.222 8.17286 242.386 8.15788 242.551 8.17286C242.955 8.2028 243.202 8.33008 243.292 8.55469C243.397 8.7793 243.412 9.13868 243.337 9.63282C243.322 9.70769 243.307 9.77507 243.292 9.83497C243.292 9.87989 243.292 9.9323 243.292 9.99219C243.502 9.75261 243.734 9.52051 243.989 9.2959C244.243 9.07129 244.498 8.86915 244.752 8.68946C245.022 8.50977 245.291 8.36752 245.561 8.2627C245.845 8.14291 246.115 8.08301 246.369 8.08301C246.714 8.08301 246.991 8.17286 247.2 8.35254C247.425 8.51726 247.597 8.74187 247.717 9.02637C247.837 9.31088 247.912 9.63282 247.942 9.99219C247.972 10.3366 247.979 10.681 247.964 11.0254C247.949 11.3997 247.882 11.7966 247.762 12.2158C247.657 12.6351 247.507 13.0619 247.313 13.4961C247.118 13.9303 246.893 14.3571 246.639 14.7764C246.384 15.1956 246.115 15.585 245.83 15.9443C245.89 15.9593 245.928 15.9743 245.943 15.9893C245.958 15.9893 245.965 15.9968 245.965 16.0117C245.965 16.0117 245.973 16.0192 245.988 16.0342C246.018 16.0342 246.07 16.0342 246.145 16.0342C246.489 16.0342 246.841 15.9443 247.2 15.7647C247.56 15.585 247.912 15.3604 248.256 15.0908C248.601 14.8063 248.93 14.4994 249.244 14.1699C249.574 13.8405 249.866 13.526 250.12 13.2266C250.39 12.9121 250.615 12.6351 250.794 12.3955C250.974 12.141 251.109 11.9613 251.199 11.8565C251.318 11.7067 251.431 11.6094 251.535 11.5645C251.64 11.5046 251.723 11.4971 251.782 11.542C251.842 11.5869 251.872 11.6768 251.872 11.8115C251.872 11.9313 251.827 12.0885 251.738 12.2832C251.678 12.418 251.55 12.6351 251.356 12.9346C251.161 13.2341 250.921 13.571 250.637 13.9453C250.352 14.3197 250.023 14.709 249.649 15.1133C249.289 15.5176 248.907 15.8844 248.503 16.2139C248.099 16.5433 247.68 16.8128 247.245 17.0225C246.826 17.2471 246.414 17.3594 246.01 17.3594C245.815 17.3594 245.658 17.3519 245.538 17.3369C245.419 17.3219 245.314 17.292 245.224 17.2471C245.149 17.2171 245.074 17.1797 244.999 17.1348C244.924 17.1048 244.835 17.0674 244.73 17.0225C244.46 17.2321 244.183 17.3893 243.899 17.4941C243.614 17.6139 243.337 17.6738 243.068 17.6738C242.813 17.6738 242.588 17.6289 242.394 17.5391C242.214 17.4642 242.064 17.3519 241.945 17.2022C241.825 17.0674 241.727 16.9176 241.653 16.7529C241.578 16.5732 241.518 16.401 241.473 16.2363C241.458 16.2962 241.443 16.3486 241.428 16.3936C241.428 16.4385 241.421 16.4984 241.406 16.5732C241.226 17.292 241.039 18.1231 240.844 19.0664C240.679 19.875 240.477 20.8558 240.238 22.0088C240.013 23.1768 239.773 24.502 239.519 25.9844C239.429 26.3887 239.272 26.6208 239.047 26.6807C238.808 26.7406 238.538 26.7106 238.239 26.5908ZM242.349 12.665C242.274 12.9196 242.192 13.2191 242.102 13.5635C242.027 13.8929 241.937 14.2897 241.832 14.7539C241.952 14.6641 242.087 14.5967 242.237 14.5518C242.386 14.5068 242.536 14.4844 242.686 14.4844C242.851 14.4844 243.06 14.5742 243.315 14.7539C243.569 14.9186 243.876 15.0983 244.236 15.293C244.46 15.0234 244.692 14.724 244.932 14.3945C245.186 14.0501 245.411 13.6982 245.606 13.3389C245.815 12.9795 245.988 12.6126 246.122 12.2383C246.272 11.8639 246.354 11.5046 246.369 11.1602C246.399 10.7109 246.347 10.3591 246.212 10.1045C246.077 9.84994 245.853 9.72266 245.538 9.72266C245.074 9.72266 244.565 9.99968 244.011 10.5537C243.472 11.0928 242.918 11.7966 242.349 12.665ZM248.459 16.8877C248.354 17.0524 248.242 17.1572 248.122 17.2022C247.987 17.2621 247.875 17.2695 247.785 17.2246C247.681 17.1947 247.613 17.1198 247.583 17C247.553 16.8802 247.583 16.7305 247.673 16.5508C247.718 16.4609 247.823 16.2588 247.987 15.9443C248.137 15.6299 248.324 15.2555 248.549 14.8213C248.759 14.3721 248.991 13.8929 249.245 13.3838C249.5 12.8597 249.739 12.3656 249.964 11.9014C250.204 11.4372 250.421 11.0254 250.615 10.666C250.81 10.2917 250.952 10.0221 251.042 9.85743C250.877 9.70769 250.765 9.60287 250.705 9.54297C250.645 9.4681 250.6 9.31836 250.57 9.09375C250.541 8.89909 250.585 8.64454 250.705 8.33008C250.825 8.01563 250.982 7.71615 251.177 7.43165C251.372 7.13217 251.589 6.87761 251.828 6.66797C252.068 6.45834 252.3 6.35352 252.525 6.35352C252.944 6.35352 253.236 6.48829 253.401 6.75782C253.58 7.02735 253.685 7.30437 253.715 7.58887C253.745 7.78353 253.73 8.0306 253.67 8.33008C253.61 8.62956 253.498 8.89909 253.333 9.13868C253.378 9.16862 253.438 9.20606 253.513 9.25098C253.588 9.28093 253.708 9.2959 253.872 9.2959C254.112 9.2959 254.277 9.28093 254.366 9.25098C254.471 9.22103 254.628 9.20606 254.838 9.20606C255.093 9.20606 255.302 9.27344 255.467 9.40821C255.632 9.528 255.766 9.68523 255.871 9.87989C255.976 10.0596 256.051 10.2617 256.096 10.4863C256.156 10.696 256.193 10.8906 256.208 11.0703C256.253 11.4447 256.156 11.834 255.916 12.2383C255.677 12.6426 255.385 13.0843 255.04 13.5635C254.831 13.863 254.621 14.1999 254.411 14.5742C254.202 14.9486 254.112 15.2855 254.142 15.585C254.172 15.7796 254.224 15.9369 254.299 16.0566C254.374 16.1764 254.584 16.2363 254.928 16.2363C255.182 16.2363 255.459 16.1465 255.759 15.9668C256.073 15.7721 256.388 15.5326 256.702 15.2481C257.032 14.9486 257.354 14.6266 257.668 14.2822C257.983 13.9229 258.275 13.5785 258.544 13.249C258.814 12.9046 259.038 12.5977 259.218 12.3281C259.413 12.0586 259.555 11.8639 259.645 11.7441C259.72 11.6244 259.817 11.542 259.937 11.4971C260.056 11.4522 260.161 11.4522 260.251 11.4971C260.341 11.542 260.393 11.6318 260.408 11.7666C260.438 11.9014 260.386 12.0811 260.251 12.3057C260.161 12.4554 260.004 12.695 259.779 13.0244C259.57 13.3538 259.308 13.7207 258.993 14.125C258.694 14.5293 258.357 14.9486 257.983 15.3828C257.608 15.8021 257.211 16.1914 256.792 16.5508C256.388 16.8952 255.976 17.1797 255.557 17.4043C255.153 17.6289 254.763 17.7412 254.389 17.7412C254 17.7412 253.678 17.6663 253.423 17.5166C253.168 17.3669 252.959 17.1872 252.794 16.9775C252.644 16.7529 252.532 16.5134 252.457 16.2588C252.397 15.9893 252.375 15.7422 252.39 15.5176C252.405 15.3379 252.45 15.1507 252.525 14.9561C252.614 14.7464 252.712 14.5368 252.817 14.3272C252.936 14.1025 253.056 13.8854 253.176 13.6758C253.311 13.4512 253.431 13.2341 253.535 13.0244C253.79 12.5902 253.992 12.2233 254.142 11.9238C254.306 11.6094 254.389 11.3473 254.389 11.1377C254.389 11.0029 254.359 10.8831 254.299 10.7783C254.239 10.6735 254.142 10.6211 254.007 10.6211C253.917 10.6211 253.85 10.6286 253.805 10.6436C253.775 10.6436 253.737 10.6436 253.693 10.6436C253.663 10.6436 253.61 10.651 253.535 10.666C253.475 10.666 253.378 10.666 253.243 10.666C253.049 10.666 252.884 10.6361 252.749 10.5762C252.614 10.5163 252.487 10.4714 252.367 10.4414C252.307 10.5462 252.173 10.7708 251.963 11.1152C251.753 11.4596 251.506 11.8639 251.222 12.3281C250.952 12.7923 250.66 13.279 250.346 13.7881C250.046 14.2972 249.762 14.7764 249.492 15.2256C249.223 15.6598 248.998 16.0342 248.819 16.3486C248.624 16.6481 248.504 16.8278 248.459 16.8877ZM267.911 12.3281C267.462 12.987 266.953 13.6309 266.384 14.2598C265.815 14.8737 265.208 15.4277 264.565 15.9219C263.936 16.401 263.284 16.7904 262.61 17.0898C261.952 17.3893 261.308 17.5391 260.679 17.5391C260.349 17.5391 259.99 17.4567 259.601 17.292C259.226 17.1423 258.882 16.9027 258.567 16.5732C258.253 16.2438 257.998 15.8171 257.804 15.293C257.624 14.7689 257.572 14.1325 257.647 13.3838C257.706 12.7699 257.894 12.126 258.208 11.4522C258.538 10.7634 258.934 10.1344 259.399 9.56543C259.878 8.99642 260.409 8.52474 260.993 8.1504C261.592 7.77605 262.191 7.58887 262.79 7.58887C263.359 7.58887 263.771 7.73112 264.025 8.01563C264.28 8.30014 264.392 8.65202 264.362 9.07129C264.317 9.53549 264.183 9.96224 263.958 10.3516C263.748 10.7409 263.494 11.0928 263.194 11.4072C262.895 11.7217 262.573 12.0062 262.229 12.2607C261.899 12.5153 261.585 12.7474 261.285 12.957C260.956 13.1816 260.641 13.3988 260.342 13.6084C260.042 13.8031 259.78 13.9828 259.556 14.1475C259.571 14.5218 259.638 14.8363 259.758 15.0908C259.878 15.3454 260.027 15.555 260.207 15.7197C260.387 15.8695 260.589 15.9818 260.814 16.0566C261.053 16.1165 261.293 16.1465 261.532 16.1465C262.041 16.1465 262.573 15.9893 263.127 15.6748C263.681 15.3454 264.22 14.9561 264.744 14.5068C265.283 14.0426 265.777 13.5635 266.227 13.0693C266.691 12.5752 267.073 12.1484 267.372 11.7891C267.477 11.6693 267.582 11.6019 267.687 11.5869C267.806 11.557 267.896 11.5719 267.956 11.6318C268.031 11.6768 268.068 11.7666 268.068 11.9014C268.068 12.0212 268.016 12.1634 267.911 12.3281ZM262.161 8.86915C261.982 8.86915 261.764 8.95899 261.51 9.13868C261.27 9.31836 261.031 9.58041 260.791 9.92481C260.552 10.2542 260.327 10.666 260.117 11.1602C259.908 11.6393 259.75 12.1934 259.646 12.8223C259.825 12.6875 260.02 12.5527 260.23 12.418C260.439 12.2682 260.649 12.111 260.859 11.9463C261.502 11.4522 261.952 11.0179 262.206 10.6436C262.461 10.2692 262.603 9.94727 262.633 9.67774C262.663 9.39323 262.633 9.19109 262.543 9.07129C262.453 8.93653 262.326 8.86915 262.161 8.86915ZM268.541 16.2363C268.631 16.2962 268.743 16.3262 268.878 16.3262C269.028 16.3262 269.17 16.2962 269.305 16.2363C269.454 16.1764 269.589 16.0941 269.709 15.9893C269.844 15.8844 269.941 15.7497 270.001 15.585C270.061 15.4203 270.061 15.1882 270.001 14.8887C269.941 14.5742 269.844 14.2448 269.709 13.9004C269.589 13.541 269.454 13.1816 269.305 12.8223C269.155 12.4629 269.028 12.1335 268.923 11.834C268.833 11.6094 268.758 11.3997 268.698 11.2051C268.638 11.0404 268.578 10.8831 268.519 10.7334C268.474 10.5687 268.436 10.4564 268.406 10.3965C268.331 10.5163 268.197 10.7109 268.002 10.9805C267.822 11.25 267.62 11.5345 267.396 11.834C267.186 12.1185 266.984 12.388 266.789 12.6426C266.594 12.8822 266.46 13.0469 266.385 13.1367C266.265 13.2715 266.145 13.3538 266.025 13.3838C265.921 13.3988 265.831 13.3763 265.756 13.3164C265.681 13.2415 265.636 13.1442 265.621 13.0244C265.621 12.8897 265.681 12.7324 265.801 12.5527C265.891 12.4329 266.025 12.2458 266.205 11.9912C266.385 11.7217 266.564 11.4522 266.744 11.1826C266.924 10.8981 267.089 10.651 267.238 10.4414C267.388 10.2168 267.47 10.082 267.485 10.0371C267.515 9.91732 267.47 9.7601 267.351 9.56543C267.246 9.37077 267.231 9.14616 267.306 8.89161C267.366 8.68197 267.5 8.44239 267.71 8.17286C267.92 7.88835 268.167 7.63379 268.451 7.40918C268.736 7.18458 269.028 7.01986 269.327 6.91504C269.627 6.79525 269.896 6.79525 270.136 6.91504C270.33 7.03484 270.488 7.1696 270.607 7.31934C270.727 7.45411 270.772 7.59636 270.742 7.7461C270.712 7.82097 270.667 7.9183 270.607 8.03809C270.548 8.15788 270.458 8.30762 270.338 8.48731C270.218 8.65202 270.046 8.86915 269.821 9.13868C269.866 9.48308 269.926 9.79753 270.001 10.082C270.091 10.3665 270.173 10.6136 270.248 10.8232C270.338 11.0778 270.435 11.3099 270.54 11.5195C270.675 11.7891 270.817 12.0661 270.967 12.3506C271.117 12.6351 271.251 12.9196 271.371 13.2041C271.491 13.4736 271.588 13.7282 271.663 13.9678C271.738 14.2074 271.76 14.4095 271.731 14.5742C271.686 14.8288 271.551 15.1357 271.326 15.4951C271.117 15.8545 270.847 16.2064 270.518 16.5508C270.203 16.8802 269.836 17.1647 269.417 17.4043C269.013 17.6439 268.586 17.7637 268.137 17.7637C267.822 17.7637 267.515 17.6663 267.216 17.4717C266.931 17.277 266.684 17.0524 266.475 16.7979C266.28 16.5283 266.13 16.2663 266.025 16.0117C265.936 15.7572 265.928 15.5625 266.003 15.4277C266.093 15.2481 266.175 15.1058 266.25 15.001C266.325 14.8962 266.437 14.7764 266.587 14.6416C266.647 14.5967 266.722 14.5443 266.812 14.4844C266.886 14.4395 266.991 14.3945 267.126 14.3496C267.261 14.3047 267.418 14.2523 267.598 14.1924C267.747 14.6566 267.882 15.0234 268.002 15.293C268.122 15.5475 268.219 15.7497 268.294 15.8994C268.384 16.0641 268.466 16.1764 268.541 16.2363ZM284.062 12.5303C283.853 12.8298 283.583 13.2041 283.254 13.6533C282.924 14.0876 282.58 14.5293 282.221 14.9785C281.876 15.4128 281.532 15.8171 281.187 16.1914C280.858 16.5508 280.581 16.8053 280.356 16.9551C280.207 17.0449 280.034 17.1198 279.84 17.1797C279.645 17.2396 279.443 17.277 279.233 17.292C279.039 17.307 278.852 17.292 278.672 17.2471C278.492 17.2171 278.335 17.1572 278.2 17.0674C278.065 16.9626 277.953 16.8128 277.863 16.6182C277.788 16.4535 277.713 16.2363 277.639 15.9668C277.579 15.6973 277.556 15.3604 277.571 14.9561C277.212 15.555 276.815 16.0192 276.381 16.3486C275.947 16.6631 275.535 16.8952 275.145 17.0449C274.696 17.2096 274.247 17.307 273.798 17.3369C273.588 17.3369 273.364 17.2621 273.124 17.1123C272.884 16.9775 272.682 16.7604 272.518 16.4609C272.353 16.1465 272.248 15.7497 272.203 15.2705C272.158 14.7764 272.218 14.1924 272.383 13.5186C272.592 12.6051 272.922 11.7741 273.371 11.0254C273.835 10.2767 274.337 9.6403 274.876 9.11622C275.415 8.57715 275.947 8.17286 276.471 7.90333C276.995 7.63379 277.429 7.514 277.773 7.54395C278.178 7.61882 278.507 7.73861 278.762 7.90333C278.971 8.05306 279.106 8.27767 279.166 8.57715C279.241 8.86166 279.121 9.24349 278.807 9.72266C279.016 9.67774 279.188 9.64779 279.323 9.63282C279.473 9.61784 279.585 9.61036 279.66 9.61036C279.75 9.61036 279.81 9.61784 279.84 9.63282C279.855 9.66277 279.862 9.73015 279.862 9.83497C279.862 9.92481 279.84 10.097 279.795 10.3516C279.75 10.6061 279.683 10.9505 279.593 11.3848C279.503 11.819 279.383 12.3805 279.233 13.0693C279.203 13.2041 279.173 13.3314 279.143 13.4512C279.129 13.556 279.106 13.6683 279.076 13.7881C279.061 13.8929 279.039 14.0202 279.009 14.1699C278.979 14.3197 278.941 14.5068 278.896 14.7315C278.881 14.8662 278.874 15.016 278.874 15.1807C278.889 15.3304 278.919 15.4727 278.964 15.6074C279.009 15.7422 279.076 15.8545 279.166 15.9443C279.271 16.0192 279.413 16.0566 279.593 16.0566C279.742 16.0566 279.937 15.9668 280.177 15.7871C280.416 15.5925 280.671 15.3529 280.94 15.0684C281.21 14.7689 281.487 14.4469 281.771 14.1025C282.071 13.7432 282.348 13.3988 282.602 13.0693C282.857 12.7399 283.082 12.4479 283.276 12.1934C283.486 11.9388 283.636 11.7516 283.726 11.6318C283.845 11.4971 283.965 11.4222 284.085 11.4072C284.205 11.3773 284.295 11.4072 284.354 11.4971C284.414 11.5869 284.422 11.7217 284.377 11.9014C284.347 12.0811 284.242 12.2907 284.062 12.5303ZM277.481 13.5186C277.556 13.2191 277.646 12.8672 277.751 12.4629C277.856 12.0586 277.946 11.6693 278.02 11.2949C278.095 10.9206 278.148 10.6136 278.178 10.374C278.223 10.1195 278.215 9.99968 278.155 10.0147C278.08 10.0296 277.998 10.0521 277.908 10.082C277.833 10.112 277.736 10.1344 277.616 10.1494C277.496 10.1644 277.377 10.1869 277.257 10.2168C277.377 9.97722 277.444 9.78256 277.459 9.63282C277.489 9.4681 277.496 9.34083 277.481 9.25098C277.466 9.14616 277.436 9.06381 277.392 9.00391C277.227 8.86915 276.935 8.98145 276.516 9.34083C276.111 9.68523 275.64 10.3291 275.101 11.2725C274.876 11.6618 274.696 12.0811 274.561 12.5303C274.427 12.9645 274.329 13.3763 274.269 13.7656C274.225 14.155 274.217 14.4994 274.247 14.7988C274.277 15.0833 274.337 15.2705 274.427 15.3604C274.591 15.5251 274.779 15.6074 274.988 15.6074C275.198 15.5925 275.407 15.5326 275.617 15.4277C275.842 15.3079 276.059 15.1582 276.268 14.9785C276.493 14.7988 276.688 14.6117 276.852 14.417C277.032 14.2223 277.174 14.0426 277.279 13.8779C277.399 13.7132 277.466 13.5934 277.481 13.5186Z" fill="#CEFF08"/>
</g>
<defs>
<filter id="filter0_d_1038_273" x="0.485352" y="0.941406" width="349.476" height="33.8301" filterUnits="userSpaceOnUse" color-interpolation-filters="sRGB">
<feFlood flood-opacity="0" result="BackgroundImageFix"/>
<feColorMatrix in="SourceAlpha" type="matrix" values="0 0 0 0 0 0 0 0 0 0 0 0 0 0 0 0 0 0 127 0" result="hardAlpha"/>
<feOffset dy="4"/>
<feGaussianBlur stdDeviation="2"/>
<feComposite in2="hardAlpha" operator="out"/>
<feColorMatrix type="matrix" values="0 0 0 0 0 0 0 0 0 0 0 0 0 0 0 0 0 0 0.25 0"/>
<feBlend mode="normal" in2="BackgroundImageFix" result="effect1_dropShadow_1038_273"/>
<feBlend mode="normal" in="SourceGraphic" in2="effect1_dropShadow_1038_273" result="shape"/>
</filter>
</defs>
</svg>
