<svg width="266" height="167" viewBox="0 0 266 167" fill="none" xmlns="http://www.w3.org/2000/svg">
<path d="M35 147.038L265.897 146" stroke="#D9D9D9"/>
<path d="M35 59.0391L265.897 58.0006" stroke="#D9D9D9"/>
<path d="M35 81.0391L265.897 80.0006" stroke="#D9D9D9"/>
<path d="M35 103.039L265.897 102.001" stroke="#D9D9D9"/>
<path d="M35 125.039L265.897 124.001" stroke="#D9D9D9"/>
<path d="M4.58097 52.0909V63H3.58487V53.1349H3.52095L0.964134 54.8342V53.8008L3.54226 52.0909H4.58097ZM10.382 63.1491C9.61491 63.1491 8.95973 62.929 8.41641 62.4886C7.87663 62.0447 7.46115 61.4038 7.16996 60.5657C6.88232 59.7276 6.73849 58.7209 6.73849 57.5455C6.73849 56.3736 6.88232 55.3704 7.16996 54.5359C7.46115 53.6978 7.87841 53.0568 8.42173 52.6129C8.96861 52.1655 9.62202 51.9418 10.382 51.9418C11.1419 51.9418 11.7935 52.1655 12.3369 52.6129C12.8837 53.0568 13.301 53.6978 13.5886 54.5359C13.8798 55.3704 14.0254 56.3736 14.0254 57.5455C14.0254 58.7209 13.8798 59.7276 13.5886 60.5657C13.301 61.4038 12.8855 62.0447 12.3422 62.4886C11.8024 62.929 11.149 63.1491 10.382 63.1491ZM10.382 62.2543C11.2236 62.2543 11.8805 61.8441 12.3528 61.0238C12.8251 60.1999 13.0613 59.0405 13.0613 57.5455C13.0613 56.5511 12.953 55.7024 12.7364 54.9993C12.5233 54.2926 12.2161 53.7528 11.8148 53.38C11.4171 53.0071 10.9395 52.8207 10.382 52.8207C9.54744 52.8207 8.89226 53.2362 8.41641 54.0671C7.94055 54.8945 7.70263 56.054 7.70263 57.5455C7.70263 58.5398 7.80916 59.3885 8.02223 60.0916C8.23885 60.7947 8.54602 61.331 8.94375 61.7003C9.34503 62.0696 9.82443 62.2543 10.382 62.2543Z" fill="#8A8A8A"/>
<path d="M4.60227 85.1491C3.83523 85.1491 3.18004 84.929 2.63672 84.4886C2.09695 84.0447 1.68146 83.4038 1.39027 82.5657C1.10263 81.7276 0.958807 80.7209 0.958807 79.5455C0.958807 78.3736 1.10263 77.3704 1.39027 76.5359C1.68146 75.6978 2.09872 75.0568 2.64205 74.6129C3.18892 74.1655 3.84233 73.9418 4.60227 73.9418C5.36222 73.9418 6.01385 74.1655 6.55717 74.6129C7.10405 75.0568 7.52131 75.6978 7.80895 76.5359C8.10014 77.3704 8.24574 78.3736 8.24574 79.5455C8.24574 80.7209 8.10014 81.7276 7.80895 82.5657C7.52131 83.4038 7.10582 84.0447 6.5625 84.4886C6.02273 84.929 5.36932 85.1491 4.60227 85.1491ZM4.60227 84.2543C5.44389 84.2543 6.10085 83.8441 6.57315 83.0238C7.04545 82.1999 7.28161 81.0405 7.28161 79.5455C7.28161 78.5511 7.1733 77.7024 6.95668 76.9993C6.74361 76.2926 6.43643 75.7528 6.03516 75.38C5.63743 75.0071 5.1598 74.8207 4.60227 74.8207C3.76776 74.8207 3.11257 75.2362 2.63672 76.0671C2.16087 76.8945 1.92294 78.054 1.92294 79.5455C1.92294 80.5398 2.02947 81.3885 2.24254 82.0916C2.45916 82.7947 2.76634 83.331 3.16406 83.7003C3.56534 84.0696 4.04474 84.2543 4.60227 84.2543ZM12.8855 85.1491C12.1895 85.1491 11.5698 85.0178 11.0265 84.755C10.4832 84.4922 10.057 84.1335 9.74808 83.679C9.43913 83.2209 9.28466 82.7042 9.28466 82.1289C9.28466 81.6779 9.37876 81.2571 9.56697 80.8665C9.75519 80.4723 10.0144 80.142 10.3447 79.8757C10.6749 79.6058 11.046 79.43 11.458 79.3484V79.2898C10.9217 79.1335 10.4903 78.8263 10.1636 78.3683C9.83686 77.9066 9.67528 77.3828 9.67884 76.7969C9.67528 76.2536 9.81378 75.767 10.0943 75.3374C10.3749 74.9077 10.7566 74.5685 11.2396 74.32C11.7261 74.0678 12.2747 73.9418 12.8855 73.9418C13.4928 73.9418 14.0379 74.0678 14.5208 74.32C15.0038 74.5685 15.3855 74.9077 15.6661 75.3374C15.9501 75.767 16.094 76.2536 16.0975 76.7969C16.094 77.3793 15.9288 77.9031 15.6021 78.3683C15.2754 78.8299 14.8457 79.1371 14.3131 79.2898V79.3484C14.725 79.4265 15.0943 79.6005 15.421 79.8704C15.7477 80.1403 16.007 80.4723 16.1987 80.8665C16.3905 81.2571 16.4864 81.6779 16.4864 82.1289C16.4864 82.7042 16.3301 83.2209 16.0176 83.679C15.7087 84.1335 15.2825 84.4922 14.7392 84.755C14.1994 85.0178 13.5815 85.1491 12.8855 85.1491ZM12.8855 84.2543C13.404 84.2543 13.8585 84.1619 14.2491 83.9773C14.6433 83.7891 14.9505 83.5316 15.1707 83.2049C15.3944 82.8782 15.5063 82.5036 15.5063 82.081C15.5063 81.6442 15.3908 81.2553 15.16 80.9144C14.9292 80.57 14.6167 80.2983 14.2225 80.0994C13.8283 79.897 13.3827 79.7958 12.8855 79.7958C12.3884 79.7958 11.9409 79.897 11.5432 80.0994C11.149 80.2983 10.8365 80.57 10.6057 80.9144C10.3784 81.2553 10.2648 81.6442 10.2648 82.081C10.2648 82.5036 10.3731 82.8782 10.5897 83.2049C10.8099 83.5316 11.117 83.7891 11.5112 83.9773C11.9089 84.1619 12.367 84.2543 12.8855 84.2543ZM12.8855 78.9435C13.3116 78.9435 13.6934 78.853 14.0308 78.6719C14.3681 78.4908 14.6344 78.244 14.8298 77.9315C15.0286 77.6154 15.1298 77.2567 15.1334 76.8555C15.1298 76.4577 15.0304 76.1062 14.8351 75.8008C14.6398 75.4918 14.3734 75.2521 14.0361 75.0817C13.7023 74.9077 13.3188 74.8207 12.8855 74.8207C12.4523 74.8207 12.0652 74.9077 11.7243 75.0817C11.3869 75.2521 11.1206 75.4918 10.9253 75.8008C10.7335 76.1062 10.6394 76.4577 10.643 76.8555C10.6394 77.2567 10.7353 77.6154 10.9306 77.9315C11.1295 78.244 11.3976 78.4908 11.7349 78.6719C12.0759 78.853 12.4594 78.9435 12.8855 78.9435Z" fill="#8A8A8A"/>
<path d="M4.60227 107.149C3.83523 107.149 3.18004 106.929 2.63672 106.489C2.09695 106.045 1.68146 105.404 1.39027 104.566C1.10263 103.728 0.958807 102.721 0.958807 101.545C0.958807 100.374 1.10263 99.3704 1.39027 98.5359C1.68146 97.6978 2.09872 97.0568 2.64205 96.6129C3.18892 96.1655 3.84233 95.9418 4.60227 95.9418C5.36222 95.9418 6.01385 96.1655 6.55717 96.6129C7.10405 97.0568 7.52131 97.6978 7.80895 98.5359C8.10014 99.3704 8.24574 100.374 8.24574 101.545C8.24574 102.721 8.10014 103.728 7.80895 104.566C7.52131 105.404 7.10582 106.045 6.5625 106.489C6.02273 106.929 5.36932 107.149 4.60227 107.149ZM4.60227 106.254C5.44389 106.254 6.10085 105.844 6.57315 105.024C7.04545 104.2 7.28161 103.04 7.28161 101.545C7.28161 100.551 7.1733 99.7024 6.95668 98.9993C6.74361 98.2926 6.43643 97.7528 6.03516 97.38C5.63743 97.0071 5.1598 96.8207 4.60227 96.8207C3.76776 96.8207 3.11257 97.2362 2.63672 98.0671C2.16087 98.8945 1.92294 100.054 1.92294 101.545C1.92294 102.54 2.02947 103.388 2.24254 104.092C2.45916 104.795 2.76634 105.331 3.16406 105.7C3.56534 106.07 4.04474 106.254 4.60227 106.254ZM12.9494 107.149C12.4984 107.146 12.0581 107.055 11.6284 106.877C11.1987 106.696 10.8116 106.407 10.4672 106.009C10.1227 105.608 9.84929 105.079 9.64688 104.422C9.44446 103.765 9.34325 102.957 9.34325 101.998C9.34325 101.11 9.42138 100.297 9.57763 99.5586C9.73388 98.82 9.96825 98.1808 10.2808 97.641C10.5933 97.1012 10.9839 96.6839 11.4526 96.3892C11.9214 96.0909 12.47 95.9418 13.0986 95.9418C13.6881 95.9418 14.2083 96.0643 14.6593 96.3093C15.1103 96.5508 15.4761 96.8881 15.7566 97.3214C16.0371 97.7546 16.2129 98.2536 16.2839 98.8182H15.3038C15.2044 98.2429 14.9683 97.7688 14.5954 97.396C14.2225 97.0231 13.7236 96.8366 13.0986 96.8366C12.2037 96.8366 11.5112 97.2521 11.0212 98.0831C10.5311 98.9105 10.2843 100.086 10.2808 101.609H10.35C10.524 101.286 10.7477 101.007 11.0212 100.773C11.2982 100.535 11.6124 100.35 11.964 100.219C12.3156 100.084 12.6849 100.017 13.0719 100.017C13.6792 100.017 14.2349 100.171 14.7392 100.48C15.2435 100.786 15.6465 101.206 15.9484 101.743C16.2502 102.275 16.4011 102.884 16.4011 103.57C16.4011 104.219 16.2573 104.818 15.9697 105.365C15.6856 105.912 15.2843 106.347 14.7658 106.67C14.2509 106.993 13.6455 107.153 12.9494 107.149ZM12.9494 106.254C13.4253 106.254 13.8496 106.134 14.2225 105.892C14.5989 105.651 14.8955 105.327 15.1121 104.923C15.3287 104.514 15.437 104.063 15.437 103.57C15.437 103.076 15.3287 102.629 15.1121 102.227C14.8955 101.826 14.5989 101.506 14.2225 101.268C13.8496 101.031 13.4253 100.912 12.9494 100.912C12.5872 100.912 12.2499 100.986 11.9374 101.135C11.6249 101.281 11.3532 101.482 11.1224 101.737C10.8951 101.989 10.7211 102.279 10.6004 102.605C10.4832 102.932 10.4388 103.275 10.4672 103.634C10.5063 104.134 10.6359 104.583 10.856 104.981C11.0798 105.375 11.371 105.686 11.7296 105.913C12.0918 106.141 12.4984 106.254 12.9494 106.254Z" fill="#8A8A8A"/>
<path d="M4.60227 129.149C3.83523 129.149 3.18004 128.929 2.63672 128.489C2.09695 128.045 1.68146 127.404 1.39027 126.566C1.10263 125.728 0.958807 124.721 0.958807 123.545C0.958807 122.374 1.10263 121.37 1.39027 120.536C1.68146 119.698 2.09872 119.057 2.64205 118.613C3.18892 118.165 3.84233 117.942 4.60227 117.942C5.36222 117.942 6.01385 118.165 6.55717 118.613C7.10405 119.057 7.52131 119.698 7.80895 120.536C8.10014 121.37 8.24574 122.374 8.24574 123.545C8.24574 124.721 8.10014 125.728 7.80895 126.566C7.52131 127.404 7.10582 128.045 6.5625 128.489C6.02273 128.929 5.36932 129.149 4.60227 129.149ZM4.60227 128.254C5.44389 128.254 6.10085 127.844 6.57315 127.024C7.04545 126.2 7.28161 125.04 7.28161 123.545C7.28161 122.551 7.1733 121.702 6.95668 120.999C6.74361 120.293 6.43643 119.753 6.03516 119.38C5.63743 119.007 5.1598 118.821 4.60227 118.821C3.76776 118.821 3.11257 119.236 2.63672 120.067C2.16087 120.895 1.92294 122.054 1.92294 123.545C1.92294 124.54 2.02947 125.388 2.24254 126.092C2.45916 126.795 2.76634 127.331 3.16406 127.7C3.56534 128.07 4.04474 128.254 4.60227 128.254ZM9.2527 126.656V125.847L14.116 118.091H14.7126V119.449H14.2705L10.366 125.692V125.761H16.742V126.656H9.2527ZM14.345 129V126.401V126.028V118.091H15.2932V129H14.345Z" fill="#8A8A8A"/>
<path d="M4.60227 151.149C3.83523 151.149 3.18004 150.929 2.63672 150.489C2.09695 150.045 1.68146 149.404 1.39027 148.566C1.10263 147.728 0.958807 146.721 0.958807 145.545C0.958807 144.374 1.10263 143.37 1.39027 142.536C1.68146 141.698 2.09872 141.057 2.64205 140.613C3.18892 140.165 3.84233 139.942 4.60227 139.942C5.36222 139.942 6.01385 140.165 6.55717 140.613C7.10405 141.057 7.52131 141.698 7.80895 142.536C8.10014 143.37 8.24574 144.374 8.24574 145.545C8.24574 146.721 8.10014 147.728 7.80895 148.566C7.52131 149.404 7.10582 150.045 6.5625 150.489C6.02273 150.929 5.36932 151.149 4.60227 151.149ZM4.60227 150.254C5.44389 150.254 6.10085 149.844 6.57315 149.024C7.04545 148.2 7.28161 147.04 7.28161 145.545C7.28161 144.551 7.1733 143.702 6.95668 142.999C6.74361 142.293 6.43643 141.753 6.03516 141.38C5.63743 141.007 5.1598 140.821 4.60227 140.821C3.76776 140.821 3.11257 141.236 2.63672 142.067C2.16087 142.895 1.92294 144.054 1.92294 145.545C1.92294 146.54 2.02947 147.388 2.24254 148.092C2.45916 148.795 2.76634 149.331 3.16406 149.7C3.56534 150.07 4.04474 150.254 4.60227 150.254ZM9.51371 151V150.27L13.0773 146.265C13.5425 145.739 13.9171 145.29 14.2012 144.917C14.4853 144.544 14.6913 144.2 14.8191 143.884C14.9505 143.567 15.0162 143.239 15.0162 142.898C15.0162 142.483 14.9185 142.12 14.7232 141.811C14.5315 141.499 14.2669 141.256 13.9295 141.082C13.5922 140.908 13.2122 140.821 12.7896 140.821C12.3422 140.821 11.9498 140.917 11.6124 141.108C11.2786 141.3 11.0194 141.563 10.8347 141.897C10.6501 142.23 10.5577 142.614 10.5577 143.047H9.60426C9.60426 142.444 9.74276 141.909 10.0197 141.444C10.3003 140.975 10.682 140.608 11.165 140.341C11.6515 140.075 12.2019 139.942 12.8163 139.942C13.4235 139.942 13.9633 140.073 14.4356 140.336C14.9079 140.595 15.279 140.949 15.5489 141.396C15.8188 141.843 15.9537 142.344 15.9537 142.898C15.9537 143.299 15.8827 143.688 15.7406 144.065C15.6021 144.441 15.3624 144.86 15.0215 145.322C14.6806 145.783 14.2083 146.348 13.6046 147.016L10.8987 150.036V150.105H16.2946V151H9.51371Z" fill="#8A8A8A"/>
<path d="M64.2301 166L62.2379 158.727H62.9126L64.5604 164.981H64.6172L66.2649 158.727H67.032L68.6797 164.981H68.7365L70.3842 158.727H71.0625L69.0703 166H68.3601L66.6733 159.832H66.6271L64.9403 166H64.2301ZM73.2288 166.114C72.7198 166.114 72.2795 165.995 71.9078 165.759C71.5361 165.519 71.2485 165.189 71.0449 164.768C70.8437 164.344 70.743 163.856 70.743 163.305C70.743 162.755 70.8437 162.268 71.0449 161.842C71.2485 161.413 71.529 161.078 71.8865 160.837C72.2464 160.593 72.6618 160.471 73.133 160.471C73.4289 160.471 73.7142 160.525 73.9888 160.634C74.2634 160.741 74.5096 160.905 74.7274 161.128C74.9476 161.348 75.1216 161.626 75.2494 161.962C75.3773 162.296 75.4412 162.692 75.4412 163.148V163.461H71.1798V162.903H74.7949C74.7949 162.553 74.7239 162.238 74.5818 161.959C74.4421 161.677 74.2468 161.455 73.9959 161.291C73.7473 161.128 73.4597 161.046 73.133 161.046C72.7873 161.046 72.4831 161.138 72.2203 161.323C71.9575 161.508 71.7516 161.752 71.6024 162.055C71.4556 162.358 71.3811 162.689 71.3787 163.049V163.383C71.3787 163.816 71.4533 164.195 71.6024 164.519C71.7539 164.841 71.9682 165.091 72.2452 165.268C72.5222 165.446 72.85 165.535 73.2288 165.535C73.4869 165.535 73.713 165.495 73.9071 165.414C74.1036 165.334 74.2681 165.226 74.4007 165.091C74.5357 164.954 74.6375 164.803 74.7061 164.64L75.3062 164.835C75.2234 165.065 75.0873 165.277 74.8979 165.471C74.7108 165.665 74.4765 165.821 74.1947 165.94C73.9154 166.056 73.5934 166.114 73.2288 166.114ZM78.4394 166.114C77.9304 166.114 77.49 165.995 77.1184 165.759C76.7467 165.519 76.459 165.189 76.2554 164.768C76.0542 164.344 75.9536 163.856 75.9536 163.305C75.9536 162.755 76.0542 162.268 76.2554 161.842C76.459 161.413 76.7396 161.078 77.0971 160.837C77.4569 160.593 77.8724 160.471 78.3435 160.471C78.6394 160.471 78.9247 160.525 79.1993 160.634C79.4739 160.741 79.7202 160.905 79.938 161.128C80.1581 161.348 80.3321 161.626 80.46 161.962C80.5878 162.296 80.6517 162.692 80.6517 163.148V163.461H76.3904V162.903H80.0054C80.0054 162.553 79.9344 162.238 79.7924 161.959C79.6527 161.677 79.4574 161.455 79.2064 161.291C78.9578 161.128 78.6702 161.046 78.3435 161.046C77.9979 161.046 77.6936 161.138 77.4309 161.323C77.1681 161.508 76.9621 161.752 76.813 162.055C76.6662 162.358 76.5916 162.689 76.5892 163.049V163.383C76.5892 163.816 76.6638 164.195 76.813 164.519C76.9645 164.841 77.1787 165.091 77.4557 165.268C77.7327 165.446 78.0606 165.535 78.4394 165.535C78.6974 165.535 78.9235 165.495 79.1176 165.414C79.3141 165.334 79.4787 165.226 79.6113 165.091C79.7462 164.954 79.848 164.803 79.9167 164.64L80.5168 164.835C80.4339 165.065 80.2978 165.277 80.1084 165.471C79.9214 165.665 79.687 165.821 79.4053 165.94C79.1259 166.056 78.804 166.114 78.4394 166.114ZM82.02 163.94L82.0129 163.113H82.1549L84.7117 160.545H85.5107L82.9859 163.074L82.929 163.085L82.02 163.94ZM81.4447 166V158.727H82.0768V166H81.4447ZM84.8431 166L82.6272 163.198L83.0817 162.761L85.6528 166H84.8431ZM90.5305 158.727V166H89.8665V159.423H89.8239L88.1193 160.556V159.867L89.8381 158.727H90.5305Z" fill="#8A8A8A"/>
<path d="M108.23 166L106.238 158.727H106.913L108.56 164.981H108.617L110.265 158.727H111.032L112.68 164.981H112.737L114.384 158.727H115.062L113.07 166H112.36L110.673 159.832H110.627L108.94 166H108.23ZM117.229 166.114C116.72 166.114 116.279 165.995 115.908 165.759C115.536 165.519 115.248 165.189 115.045 164.768C114.844 164.344 114.743 163.856 114.743 163.305C114.743 162.755 114.844 162.268 115.045 161.842C115.248 161.413 115.529 161.078 115.887 160.837C116.246 160.593 116.662 160.471 117.133 160.471C117.429 160.471 117.714 160.525 117.989 160.634C118.263 160.741 118.51 160.905 118.727 161.128C118.948 161.348 119.122 161.626 119.249 161.962C119.377 162.296 119.441 162.692 119.441 163.148V163.461H115.18V162.903H118.795C118.795 162.553 118.724 162.238 118.582 161.959C118.442 161.677 118.247 161.455 117.996 161.291C117.747 161.128 117.46 161.046 117.133 161.046C116.787 161.046 116.483 161.138 116.22 161.323C115.958 161.508 115.752 161.752 115.602 162.055C115.456 162.358 115.381 162.689 115.379 163.049V163.383C115.379 163.816 115.453 164.195 115.602 164.519C115.754 164.841 115.968 165.091 116.245 165.268C116.522 165.446 116.85 165.535 117.229 165.535C117.487 165.535 117.713 165.495 117.907 165.414C118.104 165.334 118.268 165.226 118.401 165.091C118.536 164.954 118.637 164.803 118.706 164.64L119.306 164.835C119.223 165.065 119.087 165.277 118.898 165.471C118.711 165.665 118.476 165.821 118.195 165.94C117.915 166.056 117.593 166.114 117.229 166.114ZM122.439 166.114C121.93 166.114 121.49 165.995 121.118 165.759C120.747 165.519 120.459 165.189 120.255 164.768C120.054 164.344 119.954 163.856 119.954 163.305C119.954 162.755 120.054 162.268 120.255 161.842C120.459 161.413 120.74 161.078 121.097 160.837C121.457 160.593 121.872 160.471 122.344 160.471C122.639 160.471 122.925 160.525 123.199 160.634C123.474 160.741 123.72 160.905 123.938 161.128C124.158 161.348 124.332 161.626 124.46 161.962C124.588 162.296 124.652 162.692 124.652 163.148V163.461H120.39V162.903H124.005C124.005 162.553 123.934 162.238 123.792 161.959C123.653 161.677 123.457 161.455 123.206 161.291C122.958 161.128 122.67 161.046 122.344 161.046C121.998 161.046 121.694 161.138 121.431 161.323C121.168 161.508 120.962 161.752 120.813 162.055C120.666 162.358 120.592 162.689 120.589 163.049V163.383C120.589 163.816 120.664 164.195 120.813 164.519C120.964 164.841 121.179 165.091 121.456 165.268C121.733 165.446 122.061 165.535 122.439 165.535C122.697 165.535 122.924 165.495 123.118 165.414C123.314 165.334 123.479 165.226 123.611 165.091C123.746 164.954 123.848 164.803 123.917 164.64L124.517 164.835C124.434 165.065 124.298 165.277 124.108 165.471C123.921 165.665 123.687 165.821 123.405 165.94C123.126 166.056 122.804 166.114 122.439 166.114ZM126.02 163.94L126.013 163.113H126.155L128.712 160.545H129.511L126.986 163.074L126.929 163.085L126.02 163.94ZM125.445 166V158.727H126.077V166H125.445ZM128.843 166L126.627 163.198L127.082 162.761L129.653 166H128.843ZM132.286 166V165.513L134.662 162.843C134.972 162.493 135.222 162.193 135.411 161.945C135.601 161.696 135.738 161.466 135.823 161.256C135.911 161.045 135.955 160.826 135.955 160.599C135.955 160.322 135.889 160.08 135.759 159.874C135.631 159.666 135.455 159.504 135.23 159.388C135.005 159.272 134.752 159.214 134.47 159.214C134.172 159.214 133.91 159.278 133.685 159.406C133.463 159.533 133.29 159.709 133.167 159.931C133.044 160.154 132.982 160.409 132.982 160.698H132.347C132.347 160.296 132.439 159.939 132.624 159.629C132.811 159.317 133.065 159.072 133.387 158.894C133.711 158.717 134.078 158.628 134.488 158.628C134.893 158.628 135.253 158.715 135.567 158.891C135.882 159.063 136.13 159.299 136.31 159.597C136.49 159.896 136.58 160.229 136.58 160.599C136.58 160.866 136.532 161.125 136.438 161.376C136.345 161.627 136.185 161.907 135.958 162.214C135.731 162.522 135.416 162.899 135.013 163.344L133.21 165.357V165.403H136.807V166H132.286Z" fill="#8A8A8A"/>
<path d="M154.23 166L152.238 158.727H152.913L154.56 164.981H154.617L156.265 158.727H157.032L158.68 164.981H158.737L160.384 158.727H161.062L159.07 166H158.36L156.673 159.832H156.627L154.94 166H154.23ZM163.229 166.114C162.72 166.114 162.279 165.995 161.908 165.759C161.536 165.519 161.248 165.189 161.045 164.768C160.844 164.344 160.743 163.856 160.743 163.305C160.743 162.755 160.844 162.268 161.045 161.842C161.248 161.413 161.529 161.078 161.887 160.837C162.246 160.593 162.662 160.471 163.133 160.471C163.429 160.471 163.714 160.525 163.989 160.634C164.263 160.741 164.51 160.905 164.727 161.128C164.948 161.348 165.122 161.626 165.249 161.962C165.377 162.296 165.441 162.692 165.441 163.148V163.461H161.18V162.903H164.795C164.795 162.553 164.724 162.238 164.582 161.959C164.442 161.677 164.247 161.455 163.996 161.291C163.747 161.128 163.46 161.046 163.133 161.046C162.787 161.046 162.483 161.138 162.22 161.323C161.958 161.508 161.752 161.752 161.602 162.055C161.456 162.358 161.381 162.689 161.379 163.049V163.383C161.379 163.816 161.453 164.195 161.602 164.519C161.754 164.841 161.968 165.091 162.245 165.268C162.522 165.446 162.85 165.535 163.229 165.535C163.487 165.535 163.713 165.495 163.907 165.414C164.104 165.334 164.268 165.226 164.401 165.091C164.536 164.954 164.637 164.803 164.706 164.64L165.306 164.835C165.223 165.065 165.087 165.277 164.898 165.471C164.711 165.665 164.476 165.821 164.195 165.94C163.915 166.056 163.593 166.114 163.229 166.114ZM168.439 166.114C167.93 166.114 167.49 165.995 167.118 165.759C166.747 165.519 166.459 165.189 166.255 164.768C166.054 164.344 165.954 163.856 165.954 163.305C165.954 162.755 166.054 162.268 166.255 161.842C166.459 161.413 166.74 161.078 167.097 160.837C167.457 160.593 167.872 160.471 168.344 160.471C168.639 160.471 168.925 160.525 169.199 160.634C169.474 160.741 169.72 160.905 169.938 161.128C170.158 161.348 170.332 161.626 170.46 161.962C170.588 162.296 170.652 162.692 170.652 163.148V163.461H166.39V162.903H170.005C170.005 162.553 169.934 162.238 169.792 161.959C169.653 161.677 169.457 161.455 169.206 161.291C168.958 161.128 168.67 161.046 168.344 161.046C167.998 161.046 167.694 161.138 167.431 161.323C167.168 161.508 166.962 161.752 166.813 162.055C166.666 162.358 166.592 162.689 166.589 163.049V163.383C166.589 163.816 166.664 164.195 166.813 164.519C166.964 164.841 167.179 165.091 167.456 165.268C167.733 165.446 168.061 165.535 168.439 165.535C168.697 165.535 168.924 165.495 169.118 165.414C169.314 165.334 169.479 165.226 169.611 165.091C169.746 164.954 169.848 164.803 169.917 164.64L170.517 164.835C170.434 165.065 170.298 165.277 170.108 165.471C169.921 165.665 169.687 165.821 169.405 165.94C169.126 166.056 168.804 166.114 168.439 166.114ZM172.02 163.94L172.013 163.113H172.155L174.712 160.545H175.511L172.986 163.074L172.929 163.085L172.02 163.94ZM171.445 166V158.727H172.077V166H171.445ZM174.843 166L172.627 163.198L173.082 162.761L175.653 166H174.843ZM180.648 166.099C180.2 166.099 179.8 166.019 179.447 165.858C179.095 165.695 178.815 165.469 178.609 165.18C178.403 164.891 178.295 164.558 178.283 164.182H178.954C178.966 164.447 179.047 164.679 179.199 164.878C179.35 165.074 179.552 165.228 179.803 165.339C180.054 165.448 180.333 165.503 180.641 165.503C180.977 165.503 181.273 165.44 181.528 165.315C181.786 165.189 181.988 165.018 182.132 164.8C182.279 164.58 182.352 164.331 182.352 164.054C182.352 163.76 182.278 163.501 182.129 163.276C181.979 163.051 181.765 162.876 181.486 162.751C181.209 162.625 180.877 162.562 180.491 162.562H180.065V161.966H180.491C180.806 161.966 181.085 161.909 181.326 161.795C181.57 161.679 181.762 161.517 181.901 161.309C182.041 161.101 182.111 160.856 182.111 160.574C182.111 160.306 182.05 160.071 181.93 159.867C181.809 159.664 181.638 159.504 181.418 159.388C181.201 159.272 180.946 159.214 180.655 159.214C180.373 159.214 180.115 159.268 179.881 159.377C179.646 159.486 179.457 159.64 179.312 159.839C179.17 160.038 179.095 160.273 179.085 160.545H178.442C178.452 160.167 178.556 159.834 178.755 159.548C178.956 159.259 179.223 159.034 179.554 158.873C179.888 158.71 180.257 158.628 180.662 158.628C181.09 158.628 181.461 158.715 181.773 158.891C182.086 159.066 182.327 159.299 182.498 159.59C182.671 159.879 182.757 160.197 182.757 160.545C182.757 160.96 182.645 161.315 182.42 161.611C182.195 161.904 181.892 162.108 181.511 162.222V162.268C181.975 162.36 182.339 162.566 182.604 162.886C182.872 163.203 183.006 163.592 183.006 164.054C183.006 164.442 182.904 164.791 182.7 165.102C182.497 165.409 182.217 165.653 181.862 165.833C181.509 166.011 181.105 166.099 180.648 166.099Z" fill="#8A8A8A"/>
<path d="M199.23 165L197.238 157.727H197.913L199.56 163.981H199.617L201.265 157.727H202.032L203.68 163.981H203.737L205.384 157.727H206.062L204.07 165H203.36L201.673 158.832H201.627L199.94 165H199.23ZM208.229 165.114C207.72 165.114 207.279 164.995 206.908 164.759C206.536 164.519 206.248 164.189 206.045 163.768C205.844 163.344 205.743 162.856 205.743 162.305C205.743 161.755 205.844 161.268 206.045 160.842C206.248 160.413 206.529 160.078 206.887 159.837C207.246 159.593 207.662 159.471 208.133 159.471C208.429 159.471 208.714 159.525 208.989 159.634C209.263 159.741 209.51 159.905 209.727 160.128C209.948 160.348 210.122 160.626 210.249 160.962C210.377 161.296 210.441 161.692 210.441 162.148V162.461H206.18V161.903H209.795C209.795 161.553 209.724 161.238 209.582 160.959C209.442 160.677 209.247 160.455 208.996 160.291C208.747 160.128 208.46 160.046 208.133 160.046C207.787 160.046 207.483 160.138 207.22 160.323C206.958 160.508 206.752 160.752 206.602 161.055C206.456 161.358 206.381 161.689 206.379 162.049V162.383C206.379 162.816 206.453 163.195 206.602 163.519C206.754 163.841 206.968 164.091 207.245 164.268C207.522 164.446 207.85 164.535 208.229 164.535C208.487 164.535 208.713 164.495 208.907 164.414C209.104 164.334 209.268 164.226 209.401 164.091C209.536 163.954 209.637 163.803 209.706 163.64L210.306 163.835C210.223 164.065 210.087 164.277 209.898 164.471C209.711 164.665 209.476 164.821 209.195 164.94C208.915 165.056 208.593 165.114 208.229 165.114ZM213.439 165.114C212.93 165.114 212.49 164.995 212.118 164.759C211.747 164.519 211.459 164.189 211.255 163.768C211.054 163.344 210.954 162.856 210.954 162.305C210.954 161.755 211.054 161.268 211.255 160.842C211.459 160.413 211.74 160.078 212.097 159.837C212.457 159.593 212.872 159.471 213.344 159.471C213.639 159.471 213.925 159.525 214.199 159.634C214.474 159.741 214.72 159.905 214.938 160.128C215.158 160.348 215.332 160.626 215.46 160.962C215.588 161.296 215.652 161.692 215.652 162.148V162.461H211.39V161.903H215.005C215.005 161.553 214.934 161.238 214.792 160.959C214.653 160.677 214.457 160.455 214.206 160.291C213.958 160.128 213.67 160.046 213.344 160.046C212.998 160.046 212.694 160.138 212.431 160.323C212.168 160.508 211.962 160.752 211.813 161.055C211.666 161.358 211.592 161.689 211.589 162.049V162.383C211.589 162.816 211.664 163.195 211.813 163.519C211.964 163.841 212.179 164.091 212.456 164.268C212.733 164.446 213.061 164.535 213.439 164.535C213.697 164.535 213.924 164.495 214.118 164.414C214.314 164.334 214.479 164.226 214.611 164.091C214.746 163.954 214.848 163.803 214.917 163.64L215.517 163.835C215.434 164.065 215.298 164.277 215.108 164.471C214.921 164.665 214.687 164.821 214.405 164.94C214.126 165.056 213.804 165.114 213.439 165.114ZM217.02 162.94L217.013 162.113H217.155L219.712 159.545H220.511L217.986 162.074L217.929 162.085L217.02 162.94ZM216.445 165V157.727H217.077V165H216.445ZM219.843 165L217.627 162.198L218.082 161.761L220.653 165H219.843ZM223.112 163.438V162.898L226.354 157.727H226.752V158.633H226.457L223.854 162.795V162.841H228.105V163.438H223.112ZM226.507 165V163.267V163.018V157.727H227.139V165H226.507Z" fill="#8A8A8A"/>
<mask id="mask0_828_367" style="mask-type:luminance" maskUnits="userSpaceOnUse" x="56" y="0" width="203" height="144">
<path d="M58.6094 143.754L259 140L256.391 0.710624L56.0001 4.46454L58.6094 143.754Z" fill="white"/>
</mask>
<g mask="url(#mask0_828_367)">
<path d="M259.251 139.995L222.584 133.708L235.767 127.659L175.813 72.3928L133.566 80.614L132.207 80.881L131.314 79.9802L56.0034 4.64386L133.735 75.5059L176.137 65.2122L177.807 64.8084L179.235 66.0096L242.778 119.36L246.426 105.363L259.251 139.995Z" fill="#F30D11"/>
</g>
<mask id="mask1_828_367" style="mask-type:luminance" maskUnits="userSpaceOnUse" x="192" y="99" width="28" height="41">
<path d="M219.708 99.4817H192.261V139.595H219.708V99.4817Z" fill="white"/>
</mask>
<g mask="url(#mask1_828_367)">
<path d="M219.554 125.835V139.595H192.453V99.881L219.554 125.835Z" fill="#460BFF"/>
</g>
<mask id="mask2_828_367" style="mask-type:luminance" maskUnits="userSpaceOnUse" x="151" y="84" width="29" height="56">
<path d="M179.004 84H151.556V139.595H179.004V84Z" fill="white"/>
</mask>
<g mask="url(#mask2_828_367)">
<path d="M167.498 84.3357L178.914 93.831V139.595H151.813V87.4132L167.498 84.3357Z" fill="#460BFF"/>
</g>
<mask id="mask3_828_367" style="mask-type:luminance" maskUnits="userSpaceOnUse" x="110" y="75" width="29" height="65">
<path d="M138.292 75H110.851V139.595H138.292V75Z" fill="white"/>
</mask>
<g mask="url(#mask3_828_367)">
<path d="M125.348 86.9395L126.645 88.0265L128.192 87.6968L138.272 85.5409V139.595H111.172V75.0794L125.348 86.9395Z" fill="#460BFF"/>
</g>
<mask id="mask4_828_367" style="mask-type:luminance" maskUnits="userSpaceOnUse" x="70" y="31" width="29" height="109">
<path d="M98.0488 31H70.3509V139.595H98.0488V31Z" fill="white"/>
</mask>
<g mask="url(#mask4_828_367)">
<path d="M97.6299 56.005V139.595H70.5291V31.0202L97.6299 56.005Z" fill="#460BFF"/>
</g>
</svg>
