<svg width="67" height="66" viewBox="0 0 67 66" fill="none" xmlns="http://www.w3.org/2000/svg">
<mask id="mask0_1511_1304" style="mask-type:luminance" maskUnits="userSpaceOnUse" x="21" y="13" width="25" height="35">
<path d="M21.7617 13.0996H45.4093V47.9204H21.7617V13.0996Z" fill="white"/>
</mask>
<g mask="url(#mask0_1511_1304)">
<mask id="mask1_1511_1304" style="mask-type:luminance" maskUnits="userSpaceOnUse" x="-1" y="-2" width="69" height="69">
<path d="M-0.152344 32.5883L33.6921 -1.14258L67.5365 32.5883L33.6921 66.3198L-0.152344 32.5883Z" fill="white"/>
</mask>
<g mask="url(#mask1_1511_1304)">
<mask id="mask2_1511_1304" style="mask-type:luminance" maskUnits="userSpaceOnUse" x="-1" y="-2" width="69" height="69">
<path d="M-0.152344 32.5883L33.6921 -1.14258L67.5365 32.5883L33.6921 66.3198L-0.152344 32.5883Z" fill="white"/>
</mask>
<g mask="url(#mask2_1511_1304)">
<path d="M24.4955 13.1094C30.6314 14.864 36.731 14.817 42.8569 13.1248C43.0255 13.5453 43.168 13.8661 43.2943 14.1916C46.2306 21.8888 46.078 29.5546 43.0041 37.1889C41.6233 40.6256 39.8205 43.8199 37.7007 46.8569C37.2054 47.5607 36.6411 47.8916 35.7555 47.85C34.2692 47.7764 32.7721 47.7971 31.2798 47.8132C30.6946 47.8185 30.2625 47.6498 29.9145 47.1669C25.8977 41.5136 22.9031 35.4289 22.0651 28.467C21.443 23.2864 22.3548 18.3108 24.2583 13.4931C24.3 13.3879 24.3739 13.3036 24.4955 13.1094ZM30.1994 19.4773C28.3066 21.3638 28.3012 24.4583 30.1886 26.3495C32.0969 28.2621 35.2972 28.2568 37.1792 26.3394C39.0297 24.453 38.9927 21.3055 37.0946 19.4565C35.1655 17.5754 32.0969 17.5861 30.1994 19.4773Z" fill="#273A03"/>
</g>
</g>
</g>
<mask id="mask3_1511_1304" style="mask-type:luminance" maskUnits="userSpaceOnUse" x="25" y="0" width="18" height="15">
<path d="M25.1953 0.591797H42.4388V14.3104H25.1953V0.591797Z" fill="white"/>
</mask>
<g mask="url(#mask3_1511_1304)">
<mask id="mask4_1511_1304" style="mask-type:luminance" maskUnits="userSpaceOnUse" x="0" y="0" width="68" height="68">
<path d="M0.292969 33.6336L33.8477 0.191406L67.4024 33.6336L33.8477 67.0763L0.292969 33.6336Z" fill="white"/>
</mask>
<g mask="url(#mask4_1511_1304)">
<mask id="mask5_1511_1304" style="mask-type:luminance" maskUnits="userSpaceOnUse" x="0" y="0" width="68" height="68">
<path d="M0.292969 33.6336L33.8477 0.191406L67.4024 33.6336L33.8477 67.0763L0.292969 33.6336Z" fill="white"/>
</mask>
<g mask="url(#mask5_1511_1304)">
<path d="M42.3326 12.9666C36.5942 14.5607 30.9964 14.566 25.3047 12.9772C25.4093 12.6645 25.4666 12.4301 25.5658 12.2163C27.3792 8.3874 29.6947 4.87117 32.47 1.66764C32.5645 1.56341 32.6585 1.45918 32.7524 1.35553C33.6984 0.339709 33.9861 0.34442 34.9055 1.43857C35.6742 2.35016 36.4476 3.26705 37.1638 4.22046C39.0504 6.72616 40.6918 9.38262 42.0247 12.2216C42.1134 12.4042 42.1866 12.602 42.3326 12.9666Z" fill="#273A03"/>
</g>
</g>
</g>
<mask id="mask6_1511_1304" style="mask-type:luminance" maskUnits="userSpaceOnUse" x="30" y="49" width="8" height="12">
<path d="M30.125 49.3984H37.8415V60.7867H30.125V49.3984Z" fill="white"/>
</mask>
<g mask="url(#mask6_1511_1304)">
<mask id="mask7_1511_1304" style="mask-type:luminance" maskUnits="userSpaceOnUse" x="1" y="0" width="66" height="66">
<path d="M1.09375 33.008L34.0129 0.199219L66.9321 33.008L34.0129 65.8173L1.09375 33.008Z" fill="white"/>
</mask>
<g mask="url(#mask7_1511_1304)">
<mask id="mask8_1511_1304" style="mask-type:luminance" maskUnits="userSpaceOnUse" x="1" y="0" width="66" height="66">
<path d="M1.09375 33.008L34.0129 0.199219L66.9321 33.008L34.0129 65.8173L1.09375 33.008Z" fill="white"/>
</mask>
<g mask="url(#mask8_1511_1304)">
<path d="M36.8509 50.7549C37.6253 51.629 38.0867 52.8347 37.605 54.1941C37.1535 55.4512 36.5796 56.6679 36.0052 57.8737C35.6203 58.6761 35.1589 59.4532 34.6772 60.199C34.2923 60.797 33.708 60.8178 33.359 60.2348C32.195 58.2879 31.016 56.3357 30.3952 54.1329C29.9135 52.4262 30.7337 50.6884 32.3081 49.8859C33.7694 49.1349 35.5229 49.4209 36.8509 50.7549Z" fill="#273A03"/>
</g>
</g>
</g>
<mask id="mask9_1511_1304" style="mask-type:luminance" maskUnits="userSpaceOnUse" x="21" y="37" width="7" height="17">
<path d="M21.5156 37.8613H27.5998V53.6865H21.5156V37.8613Z" fill="white"/>
</mask>
<g mask="url(#mask9_1511_1304)">
<mask id="mask10_1511_1304" style="mask-type:luminance" maskUnits="userSpaceOnUse" x="1" y="0" width="66" height="66">
<path d="M1.08984 33.006L34.009 0.197266L66.9282 33.006L34.009 65.8154L1.08984 33.006Z" fill="white"/>
</mask>
<g mask="url(#mask10_1511_1304)">
<mask id="mask11_1511_1304" style="mask-type:luminance" maskUnits="userSpaceOnUse" x="1" y="0" width="66" height="66">
<path d="M1.08984 33.006L34.009 0.197266L66.9282 33.006L34.009 65.8154L1.08984 33.006Z" fill="white"/>
</mask>
<g mask="url(#mask11_1511_1304)">
<path d="M23.3886 37.9414C24.85 40.7266 26.2243 43.3432 27.5831 45.9337C26.9217 46.5219 26.1728 47.084 25.5525 47.7634C24.3683 49.0668 23.7167 50.6665 23.2043 52.3223C23.1115 52.6187 23.0756 52.9607 22.8965 53.1912C22.7324 53.3951 22.409 53.5638 22.1476 53.5898C21.7992 53.6205 21.6091 53.3391 21.558 52.9919C21.5476 52.8896 21.543 52.7822 21.543 52.6799C21.5633 50.0327 21.543 47.3752 21.6195 44.7228C21.6711 42.8931 22.0299 41.0941 22.7017 39.3823C22.8861 38.912 23.1324 38.4723 23.3886 37.9414Z" fill="#273A03"/>
</g>
</g>
</g>
<mask id="mask12_1511_1304" style="mask-type:luminance" maskUnits="userSpaceOnUse" x="40" y="37" width="7" height="17">
<path d="M40.3633 37.8613H46.5958V53.6865H40.3633V37.8613Z" fill="white"/>
</mask>
<g mask="url(#mask12_1511_1304)">
<mask id="mask13_1511_1304" style="mask-type:luminance" maskUnits="userSpaceOnUse" x="1" y="0" width="66" height="66">
<path d="M1.08984 33.006L34.009 0.197266L66.9282 33.006L34.009 65.8154L1.08984 33.006Z" fill="white"/>
</mask>
<g mask="url(#mask13_1511_1304)">
<mask id="mask14_1511_1304" style="mask-type:luminance" maskUnits="userSpaceOnUse" x="1" y="0" width="66" height="66">
<path d="M1.08984 33.006L34.009 0.197266L66.9282 33.006L34.009 65.8154L1.08984 33.006Z" fill="white"/>
</mask>
<g mask="url(#mask14_1511_1304)">
<path d="M44.6002 37.9668C45.4053 39.3718 45.8876 40.7723 46.0771 42.2391C46.2922 43.9457 46.4052 45.6633 46.4667 47.3803C46.5281 49.0974 46.4667 50.8248 46.4568 52.5418C46.4516 52.6799 46.4719 52.8232 46.4568 52.9508C46.4157 53.3391 46.2 53.5944 45.8053 53.6302C45.4615 53.6661 45.2001 53.5182 45.0772 53.1808C44.9949 52.956 44.9335 52.7209 44.8517 52.4962C44.5028 51.5966 44.2054 50.6763 43.7904 49.8126C43.031 48.2285 41.8983 46.9563 40.3906 46.0666C41.7853 43.3686 43.1597 40.7312 44.6002 37.9668Z" fill="#273A03"/>
</g>
</g>
</g>
<mask id="mask15_1511_1304" style="mask-type:luminance" maskUnits="userSpaceOnUse" x="30" y="20" width="8" height="7">
<path d="M30.5703 20.2617H37.3964V26.9172H30.5703V20.2617Z" fill="white"/>
</mask>
<g mask="url(#mask15_1511_1304)">
<mask id="mask16_1511_1304" style="mask-type:luminance" maskUnits="userSpaceOnUse" x="1" y="0" width="66" height="66">
<path d="M1.09375 33.008L34.0129 0.199219L66.9321 33.008L34.0129 65.8173L1.09375 33.008Z" fill="white"/>
</mask>
<g mask="url(#mask16_1511_1304)">
<mask id="mask17_1511_1304" style="mask-type:luminance" maskUnits="userSpaceOnUse" x="1" y="0" width="66" height="66">
<path d="M1.09375 33.008L34.0129 0.199219L66.9321 33.008L34.0129 65.8173L1.09375 33.008Z" fill="white"/>
</mask>
<g mask="url(#mask17_1511_1304)">
<path d="M31.6299 21.2971C32.9272 19.9833 34.9525 19.9579 36.2805 21.2405C37.6242 22.5386 37.6398 24.6699 36.3165 25.9681C35.0244 27.235 32.9272 27.22 31.6403 25.9374C30.343 24.6445 30.3378 22.6051 31.6299 21.2971Z" fill="#273A03"/>
</g>
</g>
</g>
<mask id="mask18_1511_1304" style="mask-type:luminance" maskUnits="userSpaceOnUse" x="21" y="13" width="24" height="35">
<path d="M21.3672 13.7539H44.5167V47.7707H21.3672V13.7539Z" fill="white"/>
</mask>
<g mask="url(#mask18_1511_1304)">
<mask id="mask19_1511_1304" style="mask-type:luminance" maskUnits="userSpaceOnUse" x="0" y="-1" width="66" height="67">
<path d="M0.015625 32.8723L33.0131 -0.015625L65.9322 32.7937L32.9348 65.6816L0.015625 32.8723Z" fill="white"/>
</mask>
<g mask="url(#mask19_1511_1304)">
<mask id="mask20_1511_1304" style="mask-type:luminance" maskUnits="userSpaceOnUse" x="0" y="-1" width="66" height="67">
<path d="M0.015625 32.8723L33.0131 -0.015625L65.9322 32.7937L32.9348 65.6816L0.015625 32.8723Z" fill="white"/>
</mask>
<g mask="url(#mask20_1511_1304)">
<path d="M24.0336 13.8926C30.0123 15.6021 35.9556 15.5564 41.9244 13.9076C42.089 14.3172 42.2275 14.6298 42.351 14.9469C45.2117 22.447 45.0627 29.9165 42.0681 37.3548C40.7222 40.7033 38.9658 43.8156 36.901 46.7747C36.4181 47.4611 35.868 47.7834 35.0055 47.7424C33.5569 47.6708 32.0979 47.691 30.6441 47.7066C30.0743 47.7118 29.6529 47.5477 29.3138 47.0769C25.3999 41.5682 22.4824 35.6401 21.6657 28.8564C21.0593 23.8088 21.948 18.9604 23.8023 14.2664C23.8435 14.1635 23.9154 14.0815 24.0336 13.8926ZM29.5914 20.0974C27.7475 21.9352 27.7423 24.9504 29.581 26.7933C31.4406 28.6571 34.5586 28.6519 36.3921 26.7835C38.1954 24.9452 38.1595 21.8786 36.3103 20.0766C34.4299 18.244 31.4406 18.2544 29.5914 20.0974Z" fill="white"/>
</g>
</g>
</g>
<mask id="mask21_1511_1304" style="mask-type:luminance" maskUnits="userSpaceOnUse" x="24" y="0" width="18" height="14">
<path d="M24.4844 0.294922H41.4013V13.7537H24.4844V0.294922Z" fill="white"/>
</mask>
<g mask="url(#mask21_1511_1304)">
<mask id="mask22_1511_1304" style="mask-type:luminance" maskUnits="userSpaceOnUse" x="0" y="-1" width="66" height="67">
<path d="M0.0195312 32.8723L33.017 -0.015625L65.9361 32.7937L32.9387 65.6816L0.0195312 32.8723Z" fill="white"/>
</mask>
<g mask="url(#mask22_1511_1304)">
<mask id="mask23_1511_1304" style="mask-type:luminance" maskUnits="userSpaceOnUse" x="0" y="-1" width="66" height="67">
<path d="M0.0195312 32.8723L33.017 -0.015625L65.9361 32.7937L32.9387 65.6816L0.0195312 32.8723Z" fill="white"/>
</mask>
<g mask="url(#mask23_1511_1304)">
<path d="M41.3365 12.5604C35.6964 14.1266 30.1953 14.1318 24.6016 12.5702C24.7042 12.2634 24.7604 12.0329 24.8584 11.8232C26.6408 8.06045 28.916 4.60447 31.6439 1.45583C31.7361 1.35357 31.8288 1.25131 31.921 1.14906C32.8508 0.150737 33.1331 0.155937 34.0374 1.23052C34.7927 2.12658 35.5526 3.02784 36.2563 3.96434C38.1107 6.42721 39.7233 9.03797 41.0333 11.8278C41.1209 12.0075 41.1927 12.2016 41.3365 12.5604Z" fill="white"/>
</g>
</g>
</g>
<mask id="mask24_1511_1304" style="mask-type:luminance" maskUnits="userSpaceOnUse" x="29" y="49" width="8" height="12">
<path d="M29.2344 49.25H36.8025V60.6382H29.2344V49.25Z" fill="white"/>
</mask>
<g mask="url(#mask24_1511_1304)">
<mask id="mask25_1511_1304" style="mask-type:luminance" maskUnits="userSpaceOnUse" x="0" y="-1" width="66" height="67">
<path d="M0.0195312 32.8723L33.017 -0.015625L65.9361 32.7937L32.9387 65.6816L0.0195312 32.8723Z" fill="white"/>
</mask>
<g mask="url(#mask25_1511_1304)">
<mask id="mask26_1511_1304" style="mask-type:luminance" maskUnits="userSpaceOnUse" x="0" y="-1" width="66" height="67">
<path d="M0.0195312 32.8723L33.017 -0.015625L65.9361 32.7937L32.9387 65.6816L0.0195312 32.8723Z" fill="white"/>
</mask>
<g mask="url(#mask26_1511_1304)">
<path d="M35.8388 50.6496C36.6144 51.5254 37.077 52.7335 36.5941 54.0952C36.142 55.3546 35.567 56.5731 34.9914 57.7811C34.6065 58.5847 34.1439 59.3629 33.661 60.1105C33.2756 60.7096 32.6901 60.7298 32.3411 60.1463C31.1749 58.1959 29.9935 56.2403 29.3721 54.0339C28.8892 52.3239 29.7112 50.5832 31.2879 49.7795C32.7521 49.0267 34.5085 49.3133 35.8388 50.6496Z" fill="white"/>
</g>
</g>
</g>
<mask id="mask27_1511_1304" style="mask-type:luminance" maskUnits="userSpaceOnUse" x="20" y="37" width="7" height="17">
<path d="M20.4766 37.7148H26.5607V53.5401H20.4766V37.7148Z" fill="white"/>
</mask>
<g mask="url(#mask27_1511_1304)">
<mask id="mask28_1511_1304" style="mask-type:luminance" maskUnits="userSpaceOnUse" x="0" y="-1" width="66" height="67">
<path d="M0.015625 32.8723L33.0131 -0.015625L65.9322 32.7937L32.9348 65.6816L0.015625 32.8723Z" fill="white"/>
</mask>
<g mask="url(#mask28_1511_1304)">
<mask id="mask29_1511_1304" style="mask-type:luminance" maskUnits="userSpaceOnUse" x="0" y="-1" width="66" height="67">
<path d="M0.015625 32.8723L33.0131 -0.015625L65.9322 32.7937L32.9348 65.6816L0.015625 32.8723Z" fill="white"/>
</mask>
<g mask="url(#mask29_1511_1304)">
<path d="M22.353 37.8145C23.8173 40.6043 25.194 43.2255 26.555 45.8212C25.8925 46.4099 25.1424 46.9732 24.521 47.6538C23.3344 48.9595 22.6817 50.5621 22.1681 52.2208C22.076 52.5177 22.04 52.8603 21.8597 53.0908C21.6957 53.2959 21.3722 53.4646 21.1102 53.49C20.7607 53.5212 20.5706 53.2393 20.5196 52.8915C20.5091 52.7887 20.5039 52.6812 20.5039 52.5789C20.5248 49.9272 20.5039 47.265 20.581 44.608C20.6326 42.7749 20.992 40.9729 21.665 39.2582C21.8499 38.7868 22.0962 38.3465 22.353 37.8145Z" fill="white"/>
</g>
</g>
</g>
<mask id="mask30_1511_1304" style="mask-type:luminance" maskUnits="userSpaceOnUse" x="39" y="37" width="7" height="17">
<path d="M39.3242 37.7148H45.5568V53.5401H39.3242V37.7148Z" fill="white"/>
</mask>
<g mask="url(#mask30_1511_1304)">
<mask id="mask31_1511_1304" style="mask-type:luminance" maskUnits="userSpaceOnUse" x="0" y="-1" width="66" height="67">
<path d="M0.0195312 32.8723L33.017 -0.015625L65.9361 32.7937L32.9387 65.6816L0.0195312 32.8723Z" fill="white"/>
</mask>
<g mask="url(#mask31_1511_1304)">
<mask id="mask32_1511_1304" style="mask-type:luminance" maskUnits="userSpaceOnUse" x="0" y="-1" width="66" height="67">
<path d="M0.0195312 32.8723L33.017 -0.015625L65.9361 32.7937L32.9387 65.6816L0.0195312 32.8723Z" fill="white"/>
</mask>
<g mask="url(#mask32_1511_1304)">
<path d="M43.6044 37.8398C44.4107 39.2478 44.8935 40.6505 45.0837 42.1197C45.2993 43.8298 45.4123 45.5497 45.4738 47.2701C45.5358 48.9901 45.4738 50.7204 45.4639 52.4408C45.4587 52.5789 45.479 52.7222 45.4639 52.8505C45.4228 53.2393 45.2066 53.4952 44.8112 53.531C44.4669 53.5668 44.2049 53.4184 44.082 53.0804C43.9997 52.8557 43.9382 52.6199 43.8559 52.3946C43.5064 51.4934 43.2085 50.5719 42.7928 49.707C42.0323 48.12 40.8973 46.8449 39.3867 45.9541C40.7843 43.2515 42.161 40.6095 43.6044 37.8398Z" fill="white"/>
</g>
</g>
</g>
<mask id="mask33_1511_1304" style="mask-type:luminance" maskUnits="userSpaceOnUse" x="29" y="20" width="8" height="7">
<path d="M29.5312 20.1152H36.3574V26.7707H29.5312V20.1152Z" fill="white"/>
</mask>
<g mask="url(#mask33_1511_1304)">
<mask id="mask34_1511_1304" style="mask-type:luminance" maskUnits="userSpaceOnUse" x="0" y="-1" width="66" height="67">
<path d="M0.0195312 32.8723L33.017 -0.015625L65.9361 32.7937L32.9387 65.6816L0.0195312 32.8723Z" fill="white"/>
</mask>
<g mask="url(#mask34_1511_1304)">
<mask id="mask35_1511_1304" style="mask-type:luminance" maskUnits="userSpaceOnUse" x="0" y="-1" width="66" height="67">
<path d="M0.0195312 32.8723L33.017 -0.015625L65.9361 32.7937L32.9387 65.6816L0.0195312 32.8723Z" fill="white"/>
</mask>
<g mask="url(#mask35_1511_1304)">
<path d="M30.6121 21.1401C31.9117 19.8246 33.9411 19.7992 35.2714 21.0841C36.6168 22.3845 36.6325 24.5193 35.3074 25.8197C34.013 27.089 31.9117 27.074 30.6225 25.7885C29.3229 24.4938 29.3177 22.451 30.6121 21.1401Z" fill="white"/>
</g>
</g>
</g>
</svg>
