<svg width="71" height="71" viewBox="0 0 71 71" fill="none" xmlns="http://www.w3.org/2000/svg">
<circle cx="35.5" cy="35.5" r="35.5" fill="#460BFF"/>
<mask id="mask0_909_379" style="mask-type:luminance" maskUnits="userSpaceOnUse" x="23" y="18" width="25" height="35">
<path d="M23.7598 18.0991H47.4073V52.9199H23.7598V18.0991Z" fill="white"/>
</mask>
<g mask="url(#mask0_909_379)">
<mask id="mask1_909_379" style="mask-type:luminance" maskUnits="userSpaceOnUse" x="1" y="3" width="69" height="69">
<path d="M1.8457 37.5888L35.6901 3.85791L69.5345 37.5888L35.6901 71.3203L1.8457 37.5888Z" fill="white"/>
</mask>
<g mask="url(#mask1_909_379)">
<mask id="mask2_909_379" style="mask-type:luminance" maskUnits="userSpaceOnUse" x="1" y="3" width="69" height="69">
<path d="M1.8457 37.5888L35.6901 3.85791L69.5345 37.5888L35.6901 71.3203L1.8457 37.5888Z" fill="white"/>
</mask>
<g mask="url(#mask2_909_379)">
<path d="M26.4935 18.1089C32.6295 19.8635 38.7291 19.8165 44.8549 18.1243C45.0236 18.5449 45.166 18.8656 45.2924 19.1911C48.2287 26.8883 48.0761 34.5541 45.0021 42.1884C43.6213 45.6251 41.8185 48.8194 39.6987 51.8564C39.2035 52.5603 38.6391 52.8911 37.7535 52.8495C36.2672 52.7759 34.7702 52.7967 33.2779 52.8127C32.6926 52.818 32.2606 52.6494 31.9125 52.1665C27.8958 46.5131 24.9011 40.4284 24.0632 33.4665C23.441 28.2859 24.3528 23.3103 26.2563 18.4926C26.298 18.3875 26.3719 18.3031 26.4935 18.1089ZM32.1974 24.4768C30.3046 26.3633 30.2993 29.4578 32.1867 31.349C34.0949 33.2616 37.2952 33.2563 39.1773 31.3389C41.0277 29.4525 40.9908 26.3051 39.0926 24.456C37.1635 22.5749 34.0949 22.5856 32.1974 24.4768Z" fill="#273A03"/>
</g>
</g>
</g>
<mask id="mask3_909_379" style="mask-type:luminance" maskUnits="userSpaceOnUse" x="27" y="5" width="18" height="15">
<path d="M27.1973 5.59131H44.4408V19.31H27.1973V5.59131Z" fill="white"/>
</mask>
<g mask="url(#mask3_909_379)">
<mask id="mask4_909_379" style="mask-type:luminance" maskUnits="userSpaceOnUse" x="2" y="5" width="68" height="68">
<path d="M2.29492 38.6331L35.8496 5.19092L69.4043 38.6331L35.8496 72.0758L2.29492 38.6331Z" fill="white"/>
</mask>
<g mask="url(#mask4_909_379)">
<mask id="mask5_909_379" style="mask-type:luminance" maskUnits="userSpaceOnUse" x="2" y="5" width="68" height="68">
<path d="M2.29492 38.6336L35.8496 5.19141L69.4043 38.6336L35.8496 72.0763L2.29492 38.6336Z" fill="white"/>
</mask>
<g mask="url(#mask5_909_379)">
<path d="M44.3345 17.9671C38.5961 19.5612 32.9984 19.5665 27.3066 17.9777C27.4112 17.665 27.4685 17.4306 27.5678 17.2168C29.3811 13.3879 31.6967 9.87166 34.4719 6.66813C34.5665 6.5639 34.6604 6.45967 34.7544 6.35602C35.7003 5.3402 35.9881 5.34491 36.9075 6.43906C37.6762 7.35065 38.4496 8.26754 39.1657 9.22095C41.0523 11.7266 42.6937 14.3831 44.0267 17.2221C44.1153 17.4047 44.1886 17.6025 44.3345 17.9671Z" fill="#273A03"/>
</g>
</g>
</g>
<mask id="mask6_909_379" style="mask-type:luminance" maskUnits="userSpaceOnUse" x="32" y="54" width="8" height="12">
<path d="M32.125 54.3984H39.8415V65.7867H32.125V54.3984Z" fill="white"/>
</mask>
<g mask="url(#mask6_909_379)">
<mask id="mask7_909_379" style="mask-type:luminance" maskUnits="userSpaceOnUse" x="3" y="5" width="66" height="66">
<path d="M3.0918 38.0075L36.011 5.19873L68.9301 38.0075L36.011 70.8168L3.0918 38.0075Z" fill="white"/>
</mask>
<g mask="url(#mask7_909_379)">
<mask id="mask8_909_379" style="mask-type:luminance" maskUnits="userSpaceOnUse" x="3" y="5" width="66" height="66">
<path d="M3.0918 38.0075L36.011 5.19873L68.9301 38.0075L36.011 70.8168L3.0918 38.0075Z" fill="white"/>
</mask>
<g mask="url(#mask8_909_379)">
<path d="M38.8489 55.7544C39.6234 56.6285 40.0848 57.8342 39.6031 59.1936C39.1515 60.4507 38.5777 61.6674 38.0032 62.8732C37.6183 63.6756 37.1569 64.4527 36.6752 65.1985C36.2903 65.7965 35.706 65.8173 35.357 65.2344C34.1931 63.2874 33.014 61.3353 32.3932 59.1324C31.9115 57.4257 32.7317 55.6879 34.3061 54.8855C35.7674 54.1344 37.5209 54.4204 38.8489 55.7544Z" fill="#273A03"/>
</g>
</g>
</g>
<mask id="mask9_909_379" style="mask-type:luminance" maskUnits="userSpaceOnUse" x="23" y="42" width="7" height="17">
<path d="M23.5176 42.8623H29.6017V58.6875H23.5176V42.8623Z" fill="white"/>
</mask>
<g mask="url(#mask9_909_379)">
<mask id="mask10_909_379" style="mask-type:luminance" maskUnits="userSpaceOnUse" x="3" y="5" width="66" height="66">
<path d="M3.0918 38.0075L36.011 5.19873L68.9301 38.0075L36.011 70.8168L3.0918 38.0075Z" fill="white"/>
</mask>
<g mask="url(#mask10_909_379)">
<mask id="mask11_909_379" style="mask-type:luminance" maskUnits="userSpaceOnUse" x="3" y="5" width="66" height="66">
<path d="M3.0918 38.0075L36.011 5.19873L68.9301 38.0075L36.011 70.8168L3.0918 38.0075Z" fill="white"/>
</mask>
<g mask="url(#mask11_909_379)">
<path d="M25.3886 42.9424C26.85 45.7276 28.2243 48.3442 29.5831 50.9347C28.9217 51.5228 28.1728 52.085 27.5525 52.7644C26.3683 54.0678 25.7167 55.6675 25.2043 57.3233C25.1115 57.6196 25.0756 57.9617 24.8965 58.1922C24.7324 58.3961 24.409 58.5648 24.1476 58.5908C23.7992 58.6214 23.6091 58.3401 23.558 57.9929C23.5476 57.8906 23.543 57.7831 23.543 57.6809C23.5633 55.0337 23.543 52.3762 23.6195 49.7238C23.6711 47.8941 24.0299 46.0951 24.7017 44.3832C24.8861 43.913 25.1324 43.4733 25.3886 42.9424Z" fill="#273A03"/>
</g>
</g>
</g>
<mask id="mask12_909_379" style="mask-type:luminance" maskUnits="userSpaceOnUse" x="42" y="42" width="7" height="17">
<path d="M42.3633 42.8623H48.5958V58.6875H42.3633V42.8623Z" fill="white"/>
</mask>
<g mask="url(#mask12_909_379)">
<mask id="mask13_909_379" style="mask-type:luminance" maskUnits="userSpaceOnUse" x="3" y="5" width="66" height="66">
<path d="M3.0918 38.0075L36.011 5.19873L68.9301 38.0075L36.011 70.8168L3.0918 38.0075Z" fill="white"/>
</mask>
<g mask="url(#mask13_909_379)">
<mask id="mask14_909_379" style="mask-type:luminance" maskUnits="userSpaceOnUse" x="3" y="5" width="66" height="66">
<path d="M3.0918 38.0075L36.011 5.19873L68.9301 38.0075L36.011 70.8168L3.0918 38.0075Z" fill="white"/>
</mask>
<g mask="url(#mask14_909_379)">
<path d="M46.6021 42.9678C47.4073 44.3728 47.8895 45.7732 48.0791 47.2401C48.2941 48.9467 48.4072 50.6643 48.4686 52.3813C48.5301 54.0983 48.4686 55.8258 48.4588 57.5428C48.4536 57.6809 48.4738 57.8241 48.4588 57.9518C48.4176 58.34 48.202 58.5954 47.8072 58.6312C47.4635 58.667 47.2021 58.5191 47.0792 58.1817C46.9969 57.957 46.9354 57.7219 46.8537 57.4971C46.5047 56.5976 46.2074 55.6773 45.7923 54.8136C45.033 53.2294 43.9003 51.9573 42.3926 51.0676C43.7873 48.3696 45.1616 45.7322 46.6021 42.9678Z" fill="#273A03"/>
</g>
</g>
</g>
<mask id="mask15_909_379" style="mask-type:luminance" maskUnits="userSpaceOnUse" x="32" y="25" width="8" height="7">
<path d="M32.5684 25.2622H39.3945V31.9177H32.5684V25.2622Z" fill="white"/>
</mask>
<g mask="url(#mask15_909_379)">
<mask id="mask16_909_379" style="mask-type:luminance" maskUnits="userSpaceOnUse" x="3" y="5" width="66" height="66">
<path d="M3.08984 38.0075L36.009 5.19873L68.9282 38.0075L36.009 70.8168L3.08984 38.0075Z" fill="white"/>
</mask>
<g mask="url(#mask16_909_379)">
<mask id="mask17_909_379" style="mask-type:luminance" maskUnits="userSpaceOnUse" x="3" y="5" width="66" height="66">
<path d="M3.08984 38.0075L36.009 5.19873L68.9282 38.0075L36.009 70.8168L3.08984 38.0075Z" fill="white"/>
</mask>
<g mask="url(#mask17_909_379)">
<path d="M33.6279 26.2976C34.9252 24.9838 36.9506 24.9584 38.2786 26.241C39.6222 27.5391 39.6379 29.6704 38.3145 30.9685C37.0224 32.2355 34.9252 32.2205 33.6383 30.9379C32.3411 29.645 32.3358 27.6056 33.6279 26.2976Z" fill="#273A03"/>
</g>
</g>
</g>
<mask id="mask18_909_379" style="mask-type:luminance" maskUnits="userSpaceOnUse" x="23" y="18" width="24" height="35">
<path d="M23.3691 18.7544H46.5186V52.7712H23.3691V18.7544Z" fill="white"/>
</mask>
<g mask="url(#mask18_909_379)">
<mask id="mask19_909_379" style="mask-type:luminance" maskUnits="userSpaceOnUse" x="2" y="4" width="66" height="67">
<path d="M2.01953 37.8723L35.017 4.98438L67.9361 37.7937L34.9387 70.6816L2.01953 37.8723Z" fill="white"/>
</mask>
<g mask="url(#mask19_909_379)">
<mask id="mask20_909_379" style="mask-type:luminance" maskUnits="userSpaceOnUse" x="2" y="4" width="66" height="67">
<path d="M2.01953 37.8723L35.017 4.98438L67.9361 37.7937L34.9387 70.6816L2.01953 37.8723Z" fill="white"/>
</mask>
<g mask="url(#mask20_909_379)">
<path d="M26.0356 18.8921C32.0142 20.6016 37.9575 20.556 43.9263 18.9071C44.091 19.3167 44.2295 19.6293 44.353 19.9464C47.2136 27.4466 47.0646 34.916 44.0701 42.3543C42.7241 45.7029 40.9677 48.8151 38.903 51.7742C38.4201 52.4606 37.87 52.783 37.0075 52.7419C35.5589 52.6703 34.0999 52.6905 32.6461 52.7061C32.0762 52.7113 31.6548 52.5472 31.3157 52.0764C27.4018 46.5677 24.4844 40.6396 23.6676 33.8559C23.0613 28.8083 23.9499 23.9599 25.8043 19.2659C25.8454 19.163 25.9173 19.081 26.0356 18.8921ZM31.5934 25.0969C29.7495 26.9347 29.7443 29.9499 31.5829 31.7928C33.4425 33.6566 36.5605 33.6514 38.394 31.783C40.1973 29.9447 40.1614 26.8781 38.3123 25.0761C36.4318 23.2436 33.4425 23.254 31.5934 25.0969Z" fill="white"/>
</g>
</g>
</g>
<mask id="mask21_909_379" style="mask-type:luminance" maskUnits="userSpaceOnUse" x="26" y="5" width="18" height="14">
<path d="M26.4844 5.2959H43.4013V18.7547H26.4844V5.2959Z" fill="white"/>
</mask>
<g mask="url(#mask21_909_379)">
<mask id="mask22_909_379" style="mask-type:luminance" maskUnits="userSpaceOnUse" x="2" y="4" width="66" height="67">
<path d="M2.01758 37.8723L35.015 4.98438L67.9342 37.7937L34.9368 70.6816L2.01758 37.8723Z" fill="white"/>
</mask>
<g mask="url(#mask22_909_379)">
<mask id="mask23_909_379" style="mask-type:luminance" maskUnits="userSpaceOnUse" x="2" y="4" width="66" height="67">
<path d="M2.01758 37.8723L35.015 4.98438L67.9342 37.7937L34.9368 70.6816L2.01758 37.8723Z" fill="white"/>
</mask>
<g mask="url(#mask23_909_379)">
<path d="M43.3345 17.5609C37.6944 19.1271 32.1934 19.1323 26.5996 17.5707C26.7022 17.2639 26.7584 17.0334 26.8564 16.8237C28.6389 13.0609 30.9141 9.60495 33.642 6.45632C33.7341 6.35406 33.8269 6.2518 33.919 6.14954C34.8488 5.15123 35.1311 5.15642 36.0354 6.231C36.7907 7.12707 37.5506 8.02833 38.2544 8.96483C40.1087 11.4277 41.7213 14.0385 43.0314 16.8283C43.1189 17.008 43.1908 17.2021 43.3345 17.5609Z" fill="white"/>
</g>
</g>
</g>
<mask id="mask24_909_379" style="mask-type:luminance" maskUnits="userSpaceOnUse" x="31" y="54" width="8" height="12">
<path d="M31.2344 54.2505H38.8025V65.6387H31.2344V54.2505Z" fill="white"/>
</mask>
<g mask="url(#mask24_909_379)">
<mask id="mask25_909_379" style="mask-type:luminance" maskUnits="userSpaceOnUse" x="2" y="4" width="66" height="67">
<path d="M2.01953 37.8723L35.017 4.98438L67.9361 37.7937L34.9387 70.6816L2.01953 37.8723Z" fill="white"/>
</mask>
<g mask="url(#mask25_909_379)">
<mask id="mask26_909_379" style="mask-type:luminance" maskUnits="userSpaceOnUse" x="2" y="4" width="66" height="67">
<path d="M2.01953 37.8723L35.017 4.98438L67.9361 37.7937L34.9387 70.6816L2.01953 37.8723Z" fill="white"/>
</mask>
<g mask="url(#mask26_909_379)">
<path d="M37.8388 55.6496C38.6144 56.5254 39.077 57.7335 38.5941 59.0952C38.142 60.3546 37.567 61.5731 36.9914 62.7811C36.6065 63.5847 36.1439 64.3629 35.661 65.1105C35.2756 65.7096 34.6901 65.7298 34.3411 65.1463C33.1749 63.1959 31.9935 61.2403 31.3721 59.0339C30.8892 57.3239 31.7112 55.5832 33.2879 54.7795C34.7521 54.0267 36.5085 54.3133 37.8388 55.6496Z" fill="white"/>
</g>
</g>
</g>
<mask id="mask27_909_379" style="mask-type:luminance" maskUnits="userSpaceOnUse" x="22" y="42" width="7" height="17">
<path d="M22.4785 42.7144H28.5627V58.5396H22.4785V42.7144Z" fill="white"/>
</mask>
<g mask="url(#mask27_909_379)">
<mask id="mask28_909_379" style="mask-type:luminance" maskUnits="userSpaceOnUse" x="2" y="4" width="66" height="67">
<path d="M2.01953 37.8723L35.017 4.98438L67.9361 37.7937L34.9387 70.6816L2.01953 37.8723Z" fill="white"/>
</mask>
<g mask="url(#mask28_909_379)">
<mask id="mask29_909_379" style="mask-type:luminance" maskUnits="userSpaceOnUse" x="2" y="4" width="66" height="67">
<path d="M2.01953 37.8723L35.017 4.98438L67.9361 37.7937L34.9387 70.6816L2.01953 37.8723Z" fill="white"/>
</mask>
<g mask="url(#mask29_909_379)">
<path d="M24.355 42.8154C25.8192 45.6053 27.1959 48.2265 28.557 50.8222C27.8944 51.4109 27.1443 51.9742 26.5229 52.6548C25.3364 53.9604 24.6837 55.5631 24.1701 57.2217C24.0779 57.5187 24.042 57.8613 23.8617 58.0918C23.6977 58.2969 23.3742 58.4656 23.1122 58.491C22.7627 58.5222 22.5725 58.2403 22.5215 57.8925C22.5111 57.7896 22.5059 57.6822 22.5059 57.5799C22.5267 54.9281 22.5059 52.266 22.583 49.609C22.6345 47.7758 22.9939 45.9739 23.6669 44.2592C23.8518 43.7878 24.0982 43.3475 24.355 42.8154Z" fill="white"/>
</g>
</g>
</g>
<mask id="mask30_909_379" style="mask-type:luminance" maskUnits="userSpaceOnUse" x="41" y="42" width="7" height="17">
<path d="M41.3242 42.7144H47.5568V58.5396H41.3242V42.7144Z" fill="white"/>
</mask>
<g mask="url(#mask30_909_379)">
<mask id="mask31_909_379" style="mask-type:luminance" maskUnits="userSpaceOnUse" x="2" y="4" width="66" height="67">
<path d="M2.01953 37.8723L35.017 4.98438L67.9361 37.7937L34.9387 70.6816L2.01953 37.8723Z" fill="white"/>
</mask>
<g mask="url(#mask31_909_379)">
<mask id="mask32_909_379" style="mask-type:luminance" maskUnits="userSpaceOnUse" x="2" y="4" width="66" height="67">
<path d="M2.01953 37.8723L35.017 4.98438L67.9361 37.7937L34.9387 70.6816L2.01953 37.8723Z" fill="white"/>
</mask>
<g mask="url(#mask32_909_379)">
<path d="M45.6063 42.8408C46.4126 44.2488 46.8955 45.6515 47.0856 47.1207C47.3013 48.8307 47.4143 50.5506 47.4757 52.2711C47.5378 53.991 47.4757 55.7213 47.4659 57.4418C47.4607 57.5799 47.481 57.7232 47.4659 57.8514C47.4247 58.2402 47.2085 58.4962 46.8132 58.532C46.4689 58.5678 46.2068 58.4193 46.084 58.0814C46.0016 57.8566 45.9402 57.6209 45.8579 57.3956C45.5084 56.4943 45.2104 55.5729 44.7948 54.708C44.0343 53.121 42.8993 51.8459 41.3887 50.9551C42.7862 48.2524 44.1629 45.6105 45.6063 42.8408Z" fill="white"/>
</g>
</g>
</g>
<mask id="mask33_909_379" style="mask-type:luminance" maskUnits="userSpaceOnUse" x="31" y="25" width="8" height="7">
<path d="M31.5312 25.1143H38.3574V31.7697H31.5312V25.1143Z" fill="white"/>
</mask>
<g mask="url(#mask33_909_379)">
<mask id="mask34_909_379" style="mask-type:luminance" maskUnits="userSpaceOnUse" x="2" y="4" width="66" height="67">
<path d="M2.01953 37.8723L35.017 4.98438L67.9361 37.7937L34.9387 70.6816L2.01953 37.8723Z" fill="white"/>
</mask>
<g mask="url(#mask34_909_379)">
<mask id="mask35_909_379" style="mask-type:luminance" maskUnits="userSpaceOnUse" x="2" y="4" width="66" height="67">
<path d="M2.01953 37.8723L35.017 4.98438L67.9361 37.7937L34.9387 70.6816L2.01953 37.8723Z" fill="white"/>
</mask>
<g mask="url(#mask35_909_379)">
<path d="M32.6101 26.1411C33.9097 24.8256 35.9391 24.8002 37.2695 26.0851C38.6149 27.3855 38.6305 29.5202 37.3054 30.8207C36.011 32.09 33.9097 32.075 32.6206 30.7895C31.3209 29.4948 31.3157 27.452 32.6101 26.1411Z" fill="white"/>
</g>
</g>
</g>
</svg>
