<svg width="42" height="44" viewBox="0 0 42 44" fill="none" xmlns="http://www.w3.org/2000/svg">
<mask id="mask0_528_1358" style="mask-type:luminance" maskUnits="userSpaceOnUse" x="6" y="30" width="29" height="14">
<path d="M6.97656 30.3711H34.9427V43.3125H6.97656V30.3711Z" fill="white"/>
</mask>
<g mask="url(#mask0_528_1358)">
<path d="M20.5204 30.7539C20.6855 30.7539 20.8505 30.7565 21.0156 30.7616C21.222 30.7565 21.387 30.7539 21.5521 30.7539C23.9919 30.7539 26.3272 31.3147 28.5 32.4235C28.7087 32.5331 28.9199 32.6427 29.1287 32.76C29.3278 32.8747 29.5268 32.997 29.7283 33.1245C29.9954 33.2902 30.2454 33.461 30.4979 33.6368C30.8208 33.8663 31.0854 34.0702 31.3257 34.269C32.2069 34.9878 33.008 35.7908 33.7096 36.6651C33.9257 36.9327 34.1296 37.2055 34.3238 37.4782C34.302 37.4986 34.1611 37.6337 34.1611 37.6337C33.7703 38.0008 33.3673 38.35 32.9716 38.6635C32.8405 38.7706 32.7143 38.87 32.5881 38.9643C32.3647 39.1376 32.1511 39.2957 31.9326 39.4461C31.9326 39.4461 31.7214 39.5965 31.6704 39.6321L31.3985 39.808C31.0902 40.017 30.8256 40.1827 30.5731 40.3255C30.4275 40.4096 30.2867 40.4912 30.141 40.5702C29.4394 40.9704 28.7014 41.3247 27.9392 41.6331C27.8275 41.679 27.7304 41.7172 27.6357 41.7555C27.4998 41.809 27.4027 41.8447 27.3031 41.8804C27.1356 41.9441 26.9851 41.9976 26.8346 42.0461C26.4899 42.1659 26.1476 42.2704 25.798 42.3647C25.6208 42.4157 25.4606 42.459 25.2979 42.5023C25.162 42.5355 25.0163 42.5712 24.8707 42.6043C24.8221 42.6119 24.7784 42.6221 24.7323 42.6349C24.5818 42.668 24.4288 42.6986 24.2783 42.7267C24.14 42.7547 24.0186 42.7751 23.8972 42.7955L23.8462 42.8031C23.7758 42.8159 23.7078 42.8286 23.635 42.8388C23.5428 42.8541 23.4724 42.8668 23.4068 42.8745H23.2684L23.2126 42.9L23.1592 42.9076C22.999 42.928 22.8412 42.951 22.681 42.9688C22.511 42.9892 22.3484 43.0045 22.1857 43.0172L22.1105 43.0198C22.0231 43.0274 21.9551 43.0351 21.8823 43.0376C21.7658 43.0478 21.6808 43.0529 21.5958 43.0555L21.5424 43.058C21.3798 43.0657 21.2171 43.0733 21.0496 43.0759L20.9671 43.0784C20.819 43.0835 20.6733 43.0861 20.5228 43.0861C20.3505 43.0861 20.1902 43.0835 20.0324 43.0784H19.9863C19.814 43.0733 19.6464 43.0682 19.4765 43.058C19.1852 43.0427 18.9157 43.0223 18.6463 42.9968C18.4836 42.9816 18.3258 42.9637 18.1656 42.9459L17.7553 42.8898L17.7092 42.8821C14.1285 42.3723 10.725 40.8557 7.86767 38.5029C7.69045 38.3576 7.51809 38.2123 7.35059 38.0645C8.477 36.3261 9.93114 34.8043 11.5819 33.6317C12.014 33.3233 12.4753 33.0302 12.9511 32.7574C13.1574 32.6402 13.3662 32.5306 13.5798 32.421C15.7453 31.3147 18.0806 30.7539 20.5204 30.7539Z" fill="#460BFF"/>
</g>
<path d="M29.2871 21.5406C29.2871 21.3673 29.292 21.1939 29.2968 21.0206C29.292 20.8039 29.2871 20.6281 29.2871 20.4547C29.2871 17.8955 29.8236 15.4408 30.8796 13.162C30.9816 12.9428 31.0884 12.721 31.2001 12.5018C31.3093 12.2928 31.4258 12.0812 31.5472 11.8696C31.7026 11.5918 31.8677 11.3267 32.0352 11.0641C32.2537 10.7251 32.4454 10.4473 32.6348 10.1949C33.3194 9.26962 34.0865 8.42844 34.9192 7.69178C35.1741 7.46491 35.4338 7.24825 35.6936 7.04688C35.713 7.06982 35.8417 7.21766 35.8417 7.21766C36.1912 7.62805 36.5214 8.05119 36.82 8.46668C36.922 8.60433 37.0166 8.73433 37.1065 8.86688C37.274 9.10393 37.4245 9.32825 37.5677 9.55766C37.5677 9.55766 37.7109 9.77942 37.7425 9.8304L37.9124 10.1184C38.1115 10.4422 38.2693 10.72 38.4052 10.9851C38.4853 11.1381 38.563 11.2859 38.6407 11.4388C39.0194 12.1755 39.3568 12.9479 39.6506 13.7508C39.6943 13.8681 39.7307 13.9675 39.7671 14.0694C39.8181 14.2096 39.8521 14.3141 39.8861 14.4161C39.9468 14.592 39.9977 14.7526 40.0439 14.9106C40.158 15.27 40.2575 15.6294 40.3497 15.999C40.3959 16.1826 40.4371 16.3533 40.4784 16.5241C40.51 16.6669 40.544 16.8198 40.5755 16.9702C40.5828 17.0212 40.5949 17.0696 40.6046 17.1155C40.6362 17.2761 40.6653 17.4367 40.692 17.5947C40.7187 17.74 40.7382 17.8649 40.7576 17.9949L40.7649 18.0459C40.777 18.1198 40.7891 18.1937 40.7989 18.2702C40.8134 18.3671 40.8256 18.441 40.8328 18.5098V18.6526L40.8571 18.7112L40.8644 18.7673C40.8838 18.9355 40.9057 19.1012 40.9227 19.272C40.9421 19.4479 40.9566 19.6186 40.9688 19.792L40.9712 19.8684C40.9809 19.9628 40.9858 20.0341 40.9906 20.1081C41.0003 20.233 41.0028 20.3222 41.0052 20.4114L41.0076 20.4649C41.0149 20.6382 41.0222 20.809 41.0246 20.9849L41.027 21.0716C41.0319 21.2245 41.0343 21.38 41.0343 21.5381C41.0343 21.719 41.0319 21.8847 41.027 22.053V22.1014C41.0222 22.2824 41.0198 22.4582 41.0076 22.6341C40.9931 22.9426 40.9736 23.2255 40.9494 23.5059C40.9348 23.6792 40.9178 23.8449 40.9008 24.0131L40.8498 24.4414L40.8401 24.4924C40.3546 28.2522 38.9102 31.8259 36.6695 34.8261C36.5311 35.0122 36.3927 35.1931 36.2519 35.369C34.5963 34.1837 33.147 32.6594 32.0303 30.9261C31.7366 30.4698 31.4574 29.9855 31.1976 29.4859C31.086 29.2718 30.9816 29.0526 30.8772 28.8282C29.8236 26.5545 29.2871 24.0998 29.2871 21.5406Z" fill="#460BFF"/>
<mask id="mask1_528_1358" style="mask-type:luminance" maskUnits="userSpaceOnUse" x="6" y="0" width="28" height="13">
<path d="M6.35547 0H33.7001V12.7527H6.35547V0Z" fill="white"/>
</mask>
<g mask="url(#mask1_528_1358)">
<path d="M20.5134 12.3341C20.3483 12.3341 20.1832 12.329 20.0181 12.3265C19.8118 12.329 19.6467 12.3341 19.4816 12.3341C17.0419 12.3341 14.7065 11.7708 12.5362 10.662C12.325 10.5549 12.1163 10.4427 11.9075 10.3255C11.7084 10.2108 11.5069 10.0884 11.3054 9.96352C11.0384 9.79784 10.7884 9.62705 10.5359 9.45117C10.213 9.21921 9.9484 9.01784 9.71049 8.81901C8.82684 8.10019 8.02815 7.2947 7.32415 6.42039C7.11052 6.15274 6.90417 5.88254 6.70996 5.6098C6.73181 5.58686 6.87504 5.45431 6.87504 5.45431C7.26588 5.0847 7.66644 4.73803 8.06214 4.4245C8.19323 4.31744 8.31947 4.21803 8.4457 4.12372C8.66904 3.94784 8.8851 3.7898 9.10116 3.64195C9.10116 3.64195 9.31479 3.48901 9.36334 3.45588L9.63523 3.27744C9.94354 3.07097 10.2082 2.90529 10.4631 2.75999C10.6087 2.67588 10.7471 2.59431 10.8952 2.51529C11.5943 2.11764 12.3323 1.76333 13.0946 1.45489C13.2087 1.40646 13.3034 1.37078 13.398 1.33254C13.534 1.27901 13.6335 1.24333 13.7306 1.20509C13.8981 1.14391 14.0486 1.09038 14.2016 1.04195C14.5439 0.922149 14.8862 0.81509 15.2382 0.720777C15.413 0.669796 15.5756 0.629012 15.7358 0.585679C15.8718 0.552542 16.0174 0.516855 16.1631 0.483718C16.2116 0.473522 16.2578 0.463326 16.3015 0.450581C16.452 0.419992 16.6073 0.389404 16.7579 0.361365C16.8938 0.333326 17.0152 0.312934 17.1366 0.292541L17.1875 0.282345C17.2579 0.2696 17.3283 0.256855 17.3987 0.249208C17.491 0.231365 17.5614 0.221169 17.6294 0.210973H17.7653L17.8211 0.185483L17.8746 0.180385C18.0348 0.157443 18.1926 0.137051 18.3528 0.119208C18.5227 0.0988159 18.6854 0.0835223 18.8505 0.0707767L18.9233 0.0656786C19.0107 0.0580314 19.0786 0.0503843 19.1515 0.0478355C19.2704 0.0376394 19.3554 0.0350907 19.4404 0.0299923L19.4913 0.0274433C19.654 0.0223456 19.8166 0.012149 19.9841 0.00960018L20.0667 0.00705116C20.2148 0.00450231 20.3604 0.00195312 20.5134 0.00195312C20.6833 0.00195312 20.8435 0.00450231 21.0037 0.00705116L21.0499 0.00960018C21.2222 0.0146986 21.3897 0.0172474 21.5572 0.0299923C21.851 0.0427379 22.118 0.0656789 22.3875 0.0911688C22.5526 0.103914 22.7104 0.121757 22.8682 0.142149L23.2784 0.195679L23.3245 0.203326C26.9053 0.715679 30.3088 2.2298 33.1661 4.58254C33.3457 4.73038 33.5157 4.87313 33.6856 5.02352C32.5568 6.76195 31.105 8.28372 29.4518 9.45627C29.0197 9.7647 28.5585 10.0578 28.0827 10.3306C27.8787 10.4478 27.6675 10.5549 27.4563 10.6671C25.2885 11.7708 22.9507 12.3341 20.5134 12.3341Z" fill="#460BFF"/>
</g>
<mask id="mask2_528_1358" style="mask-type:luminance" maskUnits="userSpaceOnUse" x="0" y="7" width="12" height="30">
<path d="M0 7.53125H11.9487V36.2434H0V7.53125Z" fill="white"/>
</mask>
<g mask="url(#mask2_528_1358)">
<path d="M11.7472 21.5458C11.7472 21.7192 11.7424 21.8925 11.7375 22.0658C11.7424 22.2825 11.7472 22.4584 11.7472 22.6317C11.7472 25.1909 11.2107 27.6456 10.1547 29.9244C10.0527 30.1437 9.94593 30.3654 9.83426 30.5846C9.72502 30.7937 9.60849 31.0052 9.48711 31.2143C9.33174 31.4946 9.16667 31.7597 8.99916 32.0223C8.78068 32.3613 8.58889 32.6392 8.39711 32.8915C7.71495 33.8168 6.94783 34.658 6.11516 35.3946C5.86026 35.6215 5.6005 35.8382 5.34075 36.0395C5.32133 36.0166 5.19266 35.8688 5.19266 35.8688C4.84309 35.4584 4.51293 35.0352 4.21434 34.6197C4.11238 34.4821 4.0177 34.3521 3.92788 34.217C3.76037 33.9825 3.60986 33.7582 3.46663 33.5288C3.46663 33.5288 3.3234 33.307 3.29184 33.256L3.12191 32.968C2.92285 32.6443 2.76748 32.3664 2.6291 32.1013C2.54899 31.9484 2.47131 31.8005 2.39605 31.6476C2.01735 30.9109 1.67991 30.1386 1.38374 29.3356C1.34004 29.2184 1.30363 29.119 1.26721 29.017C1.21623 28.8768 1.18225 28.7723 1.14826 28.6703C1.08757 28.4944 1.03902 28.3339 0.990466 28.1758C0.878796 27.8164 0.776836 27.457 0.687014 27.0874C0.638462 26.9039 0.597192 26.7331 0.55835 26.5623C0.524364 26.4195 0.490377 26.2666 0.458818 26.1162C0.451535 26.0652 0.441825 26.0168 0.429687 25.9709C0.400556 25.8103 0.368997 25.6497 0.34472 25.4917C0.318017 25.3464 0.298596 25.219 0.279175 25.0915L0.269464 25.0405C0.257327 24.9666 0.245188 24.8927 0.235478 24.8162C0.220912 24.7194 0.211202 24.6454 0.201491 24.5741V24.4313L0.177215 24.3727L0.169932 24.3166C0.150511 24.1484 0.128663 23.9827 0.114097 23.8145C0.0946763 23.636 0.0776831 23.4652 0.067972 23.2945L0.0631173 23.2154C0.0558344 23.1237 0.0485515 23.0523 0.0461241 22.9758C0.0364136 22.8535 0.0315583 22.7643 0.0291302 22.675L0.0242755 22.619C0.0194206 22.4482 0.0097097 22.2748 0.00728225 22.1015L0.00485463 22.0148C0.00242718 21.8568 0 21.7064 0 21.5458C0 21.3648 0.00242718 21.1992 0.00485463 21.0309L0.00728225 20.9825C0.0121378 20.8015 0.0145652 20.6256 0.0267032 20.4497C0.0388417 20.1413 0.06069 19.8584 0.0849659 19.578C0.0971044 19.4046 0.114097 19.239 0.133518 19.0707L0.184497 18.6425L0.191781 18.5915C0.679732 14.8317 2.12173 11.258 4.36242 8.25778C4.50322 8.07171 4.63917 7.89073 4.7824 7.71484C6.43803 8.90014 7.88731 10.4245 9.00402 12.1578C9.29776 12.6115 9.57693 13.0958 9.83669 13.598C9.94836 13.8121 10.0503 14.0313 10.1571 14.2556C11.2107 16.5319 11.7472 18.9841 11.7472 21.5458Z" fill="#460BFF"/>
</g>
<path d="M20.5162 26.2246C23.4415 26.2246 25.8206 28.7226 25.8206 31.7942C25.8206 34.8658 23.4415 37.3638 20.5162 37.3638C17.5934 37.3638 15.2119 34.8658 15.2119 31.7942C15.2119 28.7226 17.5934 26.2246 20.5162 26.2246Z" fill="white"/>
<path d="M16.4639 31.7934C16.4639 29.4457 18.2797 27.5391 20.5156 27.5391C22.7538 27.5391 24.5697 29.4457 24.5697 31.7934C24.5697 34.1436 22.7538 36.0477 20.5156 36.0477C18.2797 36.0477 16.4639 34.1436 16.4639 31.7934Z" fill="#460BFF"/>
<path d="M24.9756 21.5442C24.9756 18.4726 27.3546 15.9746 30.2799 15.9746C33.2052 15.9746 35.5843 18.4726 35.5843 21.5442C35.5843 24.6158 33.2052 27.1138 30.2799 27.1138C27.3546 27.1138 24.9756 24.6158 24.9756 21.5442Z" fill="white"/>
<path d="M30.2792 25.7977C28.041 25.7977 26.2275 23.891 26.2275 21.5434C26.2275 19.1932 28.041 17.2891 30.2792 17.2891C32.5175 17.2891 34.3309 19.1932 34.3309 21.5434C34.3309 23.891 32.5175 25.7977 30.2792 25.7977Z" fill="#460BFF"/>
<path d="M20.5162 16.8619C17.5934 16.8619 15.2119 14.3638 15.2119 11.2923C15.2119 8.2207 17.5934 5.72266 20.5162 5.72266C23.4415 5.72266 25.8206 8.22324 25.8206 11.2923C25.8206 14.3638 23.4415 16.8619 20.5162 16.8619Z" fill="white"/>
<path d="M24.395 10.0609C24.4727 10.3285 24.5237 10.5987 24.5504 10.8791C24.5747 11.157 24.5747 11.4348 24.5504 11.7126C24.5237 11.9905 24.4703 12.2632 24.395 12.5309C24.3173 12.796 24.2154 13.0534 24.0891 13.3007C23.9653 13.5454 23.8172 13.7774 23.6473 13.994C23.4798 14.2081 23.2929 14.407 23.0865 14.5828C22.8802 14.7613 22.6593 14.9142 22.4262 15.0468C22.1907 15.1768 21.9456 15.2838 21.6907 15.3654C21.4358 15.4444 21.176 15.5005 20.9114 15.526C20.6468 15.554 20.3822 15.554 20.1176 15.526C19.8529 15.4979 19.5932 15.4444 19.3383 15.3628C19.0834 15.2813 18.8406 15.1768 18.6052 15.0442C18.3697 14.9117 18.1512 14.7562 17.9448 14.5803C17.7385 14.4019 17.5516 14.2056 17.3841 13.9889C17.2141 13.7748 17.0685 13.5428 16.9422 13.2956C16.8184 13.0509 16.7165 12.7934 16.6388 12.5258C16.5611 12.2581 16.5101 11.9854 16.4858 11.7076C16.4591 11.4297 16.4591 11.1519 16.4858 10.874C16.5101 10.5962 16.5635 10.3234 16.6412 10.0558C16.7189 9.78814 16.8184 9.53069 16.9447 9.28598C17.0709 9.03873 17.2166 8.80677 17.3865 8.59265C17.5564 8.37598 17.7434 8.17971 17.9497 8.00128C18.1536 7.82539 18.3745 7.6699 18.61 7.5399C18.8431 7.40735 19.0882 7.3003 19.3431 7.22128C19.598 7.13971 19.8578 7.08618 20.1224 7.05814C20.387 7.0301 20.6516 7.0301 20.9162 7.05814C21.1809 7.08618 21.4406 7.13971 21.6955 7.22128C21.9504 7.30284 22.1956 7.4099 22.4286 7.54245C22.6641 7.67245 22.885 7.82794 23.089 8.00637C23.2953 8.18226 23.4822 8.37853 23.6497 8.5952C23.8197 8.81187 23.9678 9.04383 24.0916 9.28853C24.2178 9.53579 24.3173 9.79324 24.395 10.0609Z" fill="#460BFF"/>
<path d="M16.0589 21.5442C16.0589 24.6158 13.6798 27.1138 10.7545 27.1138C7.82926 27.1138 5.4502 24.6158 5.4502 21.5442C5.4502 18.4726 7.82926 15.9746 10.7545 15.9746C13.6798 15.9746 16.0589 18.4726 16.0589 21.5442Z" fill="white"/>
<path d="M14.7937 21.21C14.8131 21.4904 14.8082 21.7683 14.7767 22.0461C14.7451 22.3214 14.6893 22.5942 14.6067 22.8593C14.5242 23.1244 14.4198 23.3793 14.2887 23.624C14.1576 23.8661 14.0071 24.0955 13.8348 24.3071C13.6624 24.5212 13.4706 24.7124 13.2619 24.8857C13.0531 25.0591 12.8297 25.2095 12.5918 25.3344C12.3564 25.4618 12.1087 25.5638 11.8538 25.6377C11.5965 25.7142 11.3368 25.7626 11.0697 25.7855C10.8051 25.8059 10.5405 25.8008 10.2759 25.7677C10.0113 25.7346 9.75395 25.6759 9.50148 25.5893C9.24658 25.5026 9.00625 25.393 8.77319 25.2553C8.54014 25.1177 8.32409 24.9597 8.12259 24.7787C7.91867 24.5977 7.7366 24.3963 7.57153 24.1771C7.40645 23.9579 7.26322 23.7234 7.14184 23.4736C7.02289 23.2263 6.92578 22.9663 6.85295 22.6987C6.78255 22.4285 6.734 22.1557 6.71458 21.8753C6.69273 21.5975 6.69759 21.3197 6.72914 21.0418C6.7607 20.764 6.81897 20.4938 6.90151 20.2287C6.98162 19.961 7.08843 19.7087 7.21952 19.464C7.34819 19.2193 7.50113 18.9924 7.67349 18.7808C7.84585 18.5667 8.03763 18.3755 8.2464 18.2022C8.45518 18.0289 8.67852 17.8785 8.914 17.7536C9.1519 17.6261 9.39952 17.5242 9.65442 17.4477C9.91175 17.3738 10.1715 17.3228 10.4361 17.3024C10.7031 17.2795 10.9678 17.2871 11.2299 17.3177C11.4945 17.3508 11.7543 17.412 12.0068 17.4987C12.2592 17.5853 12.502 17.695 12.7351 17.8326C12.9657 17.9677 13.1842 18.1283 13.3857 18.3093C13.5896 18.4902 13.7717 18.6916 13.9367 18.9108C14.1018 19.13 14.245 19.3646 14.364 19.6144C14.4854 19.8616 14.5825 20.1216 14.6529 20.3893C14.7257 20.6595 14.7718 20.9322 14.7937 21.21Z" fill="#460BFF"/>
</svg>
