<svg width="328" height="295" viewBox="0 0 328 295" fill="none" xmlns="http://www.w3.org/2000/svg">
<rect width="15" height="85" fill="url(#paint0_linear_867_503)"/>
<path d="M8.9233 36.9349V48.5713H6.81534V38.9861H6.74716L4.02557 40.7247V38.7929L6.91761 36.9349H8.9233Z" fill="#460BFF"/>
<path d="M8.9233 36.9349V48.5713H6.81534V38.9861H6.74716L4.02557 40.7247V38.7929L6.91761 36.9349H8.9233Z" fill="#460BFF"/>
<path d="M8.9233 36.9349V48.5713H6.81534V38.9861H6.74716L4.02557 40.7247V38.7929L6.91761 36.9349H8.9233Z" fill="white"/>
<rect y="85" width="15" height="70" fill="url(#paint1_linear_867_503)"/>
<path d="M3.06534 126V124.477L7.10511 120.517C7.49148 120.127 7.81345 119.78 8.07102 119.477C8.3286 119.174 8.52178 118.881 8.65057 118.597C8.77936 118.312 8.84375 118.009 8.84375 117.688C8.84375 117.32 8.76042 117.006 8.59375 116.744C8.42708 116.479 8.19792 116.275 7.90625 116.131C7.61458 115.987 7.28314 115.915 6.91193 115.915C6.52936 115.915 6.19413 115.994 5.90625 116.153C5.61837 116.309 5.39489 116.53 5.2358 116.818C5.08049 117.106 5.00284 117.449 5.00284 117.847H2.99716C2.99716 117.108 3.16572 116.466 3.50284 115.92C3.83996 115.375 4.30398 114.953 4.89489 114.653C5.48958 114.354 6.1714 114.205 6.94034 114.205C7.72064 114.205 8.40625 114.35 8.99716 114.642C9.58807 114.934 10.0464 115.333 10.3722 115.841C10.7017 116.348 10.8665 116.928 10.8665 117.58C10.8665 118.015 10.7831 118.443 10.6165 118.864C10.4498 119.284 10.1563 119.75 9.7358 120.261C9.31913 120.773 8.7339 121.392 7.98011 122.119L5.97443 124.159V124.239H11.0426V126H3.06534Z" fill="#460BFF"/>
<path d="M3.06534 126V124.477L7.10511 120.517C7.49148 120.127 7.81345 119.78 8.07102 119.477C8.3286 119.174 8.52178 118.881 8.65057 118.597C8.77936 118.312 8.84375 118.009 8.84375 117.688C8.84375 117.32 8.76042 117.006 8.59375 116.744C8.42708 116.479 8.19792 116.275 7.90625 116.131C7.61458 115.987 7.28314 115.915 6.91193 115.915C6.52936 115.915 6.19413 115.994 5.90625 116.153C5.61837 116.309 5.39489 116.53 5.2358 116.818C5.08049 117.106 5.00284 117.449 5.00284 117.847H2.99716C2.99716 117.108 3.16572 116.466 3.50284 115.92C3.83996 115.375 4.30398 114.953 4.89489 114.653C5.48958 114.354 6.1714 114.205 6.94034 114.205C7.72064 114.205 8.40625 114.35 8.99716 114.642C9.58807 114.934 10.0464 115.333 10.3722 115.841C10.7017 116.348 10.8665 116.928 10.8665 117.58C10.8665 118.015 10.7831 118.443 10.6165 118.864C10.4498 119.284 10.1563 119.75 9.7358 120.261C9.31913 120.773 8.7339 121.392 7.98011 122.119L5.97443 124.159V124.239H11.0426V126H3.06534Z" fill="#460BFF"/>
<path d="M3.06534 126V124.477L7.10511 120.517C7.49148 120.127 7.81345 119.78 8.07102 119.477C8.3286 119.174 8.52178 118.881 8.65057 118.597C8.77936 118.312 8.84375 118.009 8.84375 117.688C8.84375 117.32 8.76042 117.006 8.59375 116.744C8.42708 116.479 8.19792 116.275 7.90625 116.131C7.61458 115.987 7.28314 115.915 6.91193 115.915C6.52936 115.915 6.19413 115.994 5.90625 116.153C5.61837 116.309 5.39489 116.53 5.2358 116.818C5.08049 117.106 5.00284 117.449 5.00284 117.847H2.99716C2.99716 117.108 3.16572 116.466 3.50284 115.92C3.83996 115.375 4.30398 114.953 4.89489 114.653C5.48958 114.354 6.1714 114.205 6.94034 114.205C7.72064 114.205 8.40625 114.35 8.99716 114.642C9.58807 114.934 10.0464 115.333 10.3722 115.841C10.7017 116.348 10.8665 116.928 10.8665 117.58C10.8665 118.015 10.7831 118.443 10.6165 118.864C10.4498 119.284 10.1563 119.75 9.7358 120.261C9.31913 120.773 8.7339 121.392 7.98011 122.119L5.97443 124.159V124.239H11.0426V126H3.06534Z" fill="white"/>
<rect y="155" width="15" height="70" fill="url(#paint2_linear_867_503)"/>
<path d="M7.49929 196.159C6.68111 196.159 5.95384 196.019 5.31747 195.739C4.6849 195.458 4.1849 195.068 3.81747 194.568C3.45005 194.068 3.25497 193.491 3.23224 192.835H5.36861C5.38755 193.15 5.49171 193.424 5.68111 193.659C5.8705 193.89 6.1224 194.07 6.43679 194.199C6.75118 194.328 7.10346 194.392 7.49361 194.392C7.91027 194.392 8.27959 194.32 8.60156 194.176C8.92353 194.028 9.17543 193.824 9.35724 193.562C9.53906 193.301 9.62808 193 9.62429 192.659C9.62808 192.307 9.53717 191.996 9.35156 191.727C9.16596 191.458 8.89702 191.248 8.54474 191.097C8.19626 190.945 7.7758 190.869 7.28338 190.869H6.25497V189.244H7.28338C7.68868 189.244 8.04285 189.174 8.34588 189.034C8.6527 188.894 8.89323 188.697 9.06747 188.443C9.24171 188.186 9.32694 187.888 9.32315 187.551C9.32694 187.222 9.25308 186.936 9.10156 186.693C8.95384 186.447 8.74361 186.256 8.47088 186.119C8.20194 185.983 7.88565 185.915 7.52202 185.915C7.16596 185.915 6.83641 185.979 6.53338 186.108C6.23035 186.237 5.98603 186.42 5.80043 186.659C5.61482 186.894 5.51634 187.174 5.50497 187.5H3.47656C3.49171 186.848 3.67921 186.277 4.03906 185.784C4.4027 185.288 4.88755 184.902 5.49361 184.625C6.09967 184.345 6.77959 184.205 7.53338 184.205C8.3099 184.205 8.98414 184.35 9.55611 184.642C10.1319 184.93 10.5769 185.318 10.8913 185.807C11.2057 186.295 11.3629 186.835 11.3629 187.426C11.3667 188.081 11.1735 188.631 10.7834 189.074C10.397 189.517 9.88944 189.807 9.26065 189.943V190.034C10.0788 190.148 10.7057 190.451 11.1413 190.943C11.5807 191.432 11.7985 192.04 11.7947 192.767C11.7947 193.419 11.6091 194.002 11.2379 194.517C10.8705 195.028 10.3629 195.43 9.7152 195.722C9.07126 196.013 8.33262 196.159 7.49929 196.159Z" fill="#460BFF"/>
<path d="M7.49929 196.159C6.68111 196.159 5.95384 196.019 5.31747 195.739C4.6849 195.458 4.1849 195.068 3.81747 194.568C3.45005 194.068 3.25497 193.491 3.23224 192.835H5.36861C5.38755 193.15 5.49171 193.424 5.68111 193.659C5.8705 193.89 6.1224 194.07 6.43679 194.199C6.75118 194.328 7.10346 194.392 7.49361 194.392C7.91027 194.392 8.27959 194.32 8.60156 194.176C8.92353 194.028 9.17543 193.824 9.35724 193.562C9.53906 193.301 9.62808 193 9.62429 192.659C9.62808 192.307 9.53717 191.996 9.35156 191.727C9.16596 191.458 8.89702 191.248 8.54474 191.097C8.19626 190.945 7.7758 190.869 7.28338 190.869H6.25497V189.244H7.28338C7.68868 189.244 8.04285 189.174 8.34588 189.034C8.6527 188.894 8.89323 188.697 9.06747 188.443C9.24171 188.186 9.32694 187.888 9.32315 187.551C9.32694 187.222 9.25308 186.936 9.10156 186.693C8.95384 186.447 8.74361 186.256 8.47088 186.119C8.20194 185.983 7.88565 185.915 7.52202 185.915C7.16596 185.915 6.83641 185.979 6.53338 186.108C6.23035 186.237 5.98603 186.42 5.80043 186.659C5.61482 186.894 5.51634 187.174 5.50497 187.5H3.47656C3.49171 186.848 3.67921 186.277 4.03906 185.784C4.4027 185.288 4.88755 184.902 5.49361 184.625C6.09967 184.345 6.77959 184.205 7.53338 184.205C8.3099 184.205 8.98414 184.35 9.55611 184.642C10.1319 184.93 10.5769 185.318 10.8913 185.807C11.2057 186.295 11.3629 186.835 11.3629 187.426C11.3667 188.081 11.1735 188.631 10.7834 189.074C10.397 189.517 9.88944 189.807 9.26065 189.943V190.034C10.0788 190.148 10.7057 190.451 11.1413 190.943C11.5807 191.432 11.7985 192.04 11.7947 192.767C11.7947 193.419 11.6091 194.002 11.2379 194.517C10.8705 195.028 10.3629 195.43 9.7152 195.722C9.07126 196.013 8.33262 196.159 7.49929 196.159Z" fill="#460BFF"/>
<path d="M7.49929 196.159C6.68111 196.159 5.95384 196.019 5.31747 195.739C4.6849 195.458 4.1849 195.068 3.81747 194.568C3.45005 194.068 3.25497 193.491 3.23224 192.835H5.36861C5.38755 193.15 5.49171 193.424 5.68111 193.659C5.8705 193.89 6.1224 194.07 6.43679 194.199C6.75118 194.328 7.10346 194.392 7.49361 194.392C7.91027 194.392 8.27959 194.32 8.60156 194.176C8.92353 194.028 9.17543 193.824 9.35724 193.562C9.53906 193.301 9.62808 193 9.62429 192.659C9.62808 192.307 9.53717 191.996 9.35156 191.727C9.16596 191.458 8.89702 191.248 8.54474 191.097C8.19626 190.945 7.7758 190.869 7.28338 190.869H6.25497V189.244H7.28338C7.68868 189.244 8.04285 189.174 8.34588 189.034C8.6527 188.894 8.89323 188.697 9.06747 188.443C9.24171 188.186 9.32694 187.888 9.32315 187.551C9.32694 187.222 9.25308 186.936 9.10156 186.693C8.95384 186.447 8.74361 186.256 8.47088 186.119C8.20194 185.983 7.88565 185.915 7.52202 185.915C7.16596 185.915 6.83641 185.979 6.53338 186.108C6.23035 186.237 5.98603 186.42 5.80043 186.659C5.61482 186.894 5.51634 187.174 5.50497 187.5H3.47656C3.49171 186.848 3.67921 186.277 4.03906 185.784C4.4027 185.288 4.88755 184.902 5.49361 184.625C6.09967 184.345 6.77959 184.205 7.53338 184.205C8.3099 184.205 8.98414 184.35 9.55611 184.642C10.1319 184.93 10.5769 185.318 10.8913 185.807C11.2057 186.295 11.3629 186.835 11.3629 187.426C11.3667 188.081 11.1735 188.631 10.7834 189.074C10.397 189.517 9.88944 189.807 9.26065 189.943V190.034C10.0788 190.148 10.7057 190.451 11.1413 190.943C11.5807 191.432 11.7985 192.04 11.7947 192.767C11.7947 193.419 11.6091 194.002 11.2379 194.517C10.8705 195.028 10.3629 195.43 9.7152 195.722C9.07126 196.013 8.33262 196.159 7.49929 196.159Z" fill="white"/>
<rect y="225" width="15" height="70" fill="url(#paint3_linear_867_503)"/>
<path d="M2.99574 263.841V262.165L7.93324 254.364H9.33097V256.75H8.47869L5.15483 262.017V262.108H12.0469V263.841H2.99574ZM8.54688 266V263.33L8.5696 262.58V254.364H10.5582V266H8.54688Z" fill="#460BFF"/>
<path d="M2.99574 263.841V262.165L7.93324 254.364H9.33097V256.75H8.47869L5.15483 262.017V262.108H12.0469V263.841H2.99574ZM8.54688 266V263.33L8.5696 262.58V254.364H10.5582V266H8.54688Z" fill="#460BFF"/>
<path d="M2.99574 263.841V262.165L7.93324 254.364H9.33097V256.75H8.47869L5.15483 262.017V262.108H12.0469V263.841H2.99574ZM8.54688 266V263.33L8.5696 262.58V254.364H10.5582V266H8.54688Z" fill="white"/>
<path d="M54.7195 259.254H52.8601C52.8071 258.949 52.7093 258.679 52.5668 258.443C52.4242 258.205 52.2469 258.002 52.0348 257.837C51.8227 257.671 51.5807 257.547 51.3089 257.464C51.0405 257.378 50.7505 257.335 50.4389 257.335C49.8854 257.335 49.3949 257.474 48.9673 257.752C48.5398 258.027 48.205 258.432 47.9631 258.965C47.7211 259.496 47.6001 260.143 47.6001 260.909C47.6001 261.688 47.7211 262.344 47.9631 262.878C48.2083 263.408 48.5431 263.809 48.9673 264.081C49.3949 264.349 49.8838 264.484 50.4339 264.484C50.7389 264.484 51.0239 264.444 51.2891 264.364C51.5575 264.281 51.7978 264.161 52.0099 264.001C52.2254 263.842 52.406 263.647 52.5518 263.415C52.701 263.183 52.8037 262.918 52.8601 262.619L54.7195 262.629C54.6499 263.113 54.4991 263.567 54.267 263.991C54.0384 264.416 53.7384 264.79 53.3672 265.115C52.996 265.437 52.5618 265.688 52.0646 265.871C51.5675 266.05 51.0156 266.139 50.4091 266.139C49.5142 266.139 48.7154 265.932 48.0128 265.518C47.3101 265.103 46.7566 264.505 46.3523 263.723C45.9479 262.941 45.7457 262.003 45.7457 260.909C45.7457 259.812 45.9496 258.874 46.3572 258.095C46.7649 257.313 47.3201 256.715 48.0227 256.3C48.7254 255.886 49.5208 255.679 50.4091 255.679C50.9759 255.679 51.5028 255.759 51.9901 255.918C52.4773 256.077 52.9115 256.31 53.2926 256.619C53.6738 256.924 53.987 257.298 54.2322 257.742C54.4808 258.183 54.6432 258.687 54.7195 259.254ZM64.6666 260.909C64.6666 262.006 64.4611 262.946 64.0501 263.728C63.6424 264.507 63.0856 265.103 62.3796 265.518C61.677 265.932 60.8799 266.139 59.9883 266.139C59.0967 266.139 58.298 265.932 57.592 265.518C56.8893 265.1 56.3325 264.502 55.9215 263.723C55.5139 262.941 55.31 262.003 55.31 260.909C55.31 259.812 55.5139 258.874 55.9215 258.095C56.3325 257.313 56.8893 256.715 57.592 256.3C58.298 255.886 59.0967 255.679 59.9883 255.679C60.8799 255.679 61.677 255.886 62.3796 256.3C63.0856 256.715 63.6424 257.313 64.0501 258.095C64.4611 258.874 64.6666 259.812 64.6666 260.909ZM62.8122 260.909C62.8122 260.137 62.6912 259.486 62.4492 258.955C62.2106 258.422 61.8792 258.019 61.4549 257.747C61.0307 257.472 60.5418 257.335 59.9883 257.335C59.4348 257.335 58.9459 257.472 58.5217 257.747C58.0974 258.019 57.7643 258.422 57.5224 258.955C57.2838 259.486 57.1644 260.137 57.1644 260.909C57.1644 261.681 57.2838 262.334 57.5224 262.868C57.7643 263.398 58.0974 263.801 58.5217 264.076C58.9459 264.348 59.4348 264.484 59.9883 264.484C60.5418 264.484 61.0307 264.348 61.4549 264.076C61.8792 263.801 62.2106 263.398 62.4492 262.868C62.6912 262.334 62.8122 261.681 62.8122 260.909ZM65.5704 255.818H67.8275L70.8502 263.196H70.9695L73.9922 255.818H76.2493V266H74.4794V259.005H74.385L71.5711 265.97H70.2486L67.4347 258.99H67.3402V266H65.5704V255.818ZM77.4179 266V255.818H81.236C82.0182 255.818 82.6745 255.964 83.2048 256.256C83.7384 256.547 84.1411 256.948 84.4129 257.459C84.688 257.966 84.8255 258.543 84.8255 259.189C84.8255 259.842 84.688 260.422 84.4129 260.929C84.1378 261.436 83.7318 261.835 83.1948 262.127C82.6579 262.415 81.9967 262.56 81.2112 262.56H78.6806V261.043H80.9626C81.42 261.043 81.7945 260.964 82.0862 260.805C82.3778 260.646 82.5933 260.427 82.7325 260.148C82.875 259.87 82.9463 259.55 82.9463 259.189C82.9463 258.828 82.875 258.509 82.7325 258.234C82.5933 257.959 82.3762 257.746 82.0812 257.593C81.7895 257.437 81.4134 257.359 80.9527 257.359H79.2623V266H77.4179ZM85.7604 266H83.7916L87.3762 255.818H89.6531L93.2426 266H91.2739L88.5544 257.906H88.4749L85.7604 266ZM85.825 262.008H91.1943V263.489H85.825V262.008ZM93.7437 266V255.818H97.5619C98.3441 255.818 99.0003 255.954 99.5306 256.226C100.064 256.498 100.467 256.879 100.739 257.369C101.014 257.857 101.151 258.425 101.151 259.075C101.151 259.728 101.012 260.294 100.734 260.775C100.459 261.252 100.053 261.622 99.5157 261.884C98.9788 262.142 98.3192 262.271 97.537 262.271H94.8176V260.74H97.2885C97.7458 260.74 98.1204 260.677 98.412 260.551C98.7037 260.422 98.9191 260.235 99.0583 259.989C99.2009 259.741 99.2721 259.436 99.2721 259.075C99.2721 258.713 99.2009 258.405 99.0583 258.15C98.9158 257.891 98.6987 257.696 98.4071 257.563C98.1154 257.427 97.7392 257.359 97.2785 257.359H95.5882V266H93.7437ZM99.0037 261.386L101.524 266H99.466L96.9902 261.386H99.0037ZM101.562 257.364V255.818H109.685V257.364H106.538V266H104.709V257.364H101.562ZM110.411 266V255.818H117.034V257.364H112.256V260.129H116.69V261.675H112.256V264.454H117.073V266H110.411ZM120.26 257.364V255.818H128.384V257.364H125.237V266H123.408V257.364H120.26ZM135.528 255.818H137.373V262.47C137.373 263.199 137.201 263.841 136.856 264.394C136.514 264.948 136.034 265.38 135.414 265.692C134.794 266 134.07 266.154 133.242 266.154C132.41 266.154 131.684 266 131.064 265.692C130.444 265.38 129.964 264.948 129.622 264.394C129.281 263.841 129.11 263.199 129.11 262.47V255.818H130.955V262.316C130.955 262.74 131.047 263.118 131.233 263.45C131.422 263.781 131.687 264.041 132.028 264.23C132.37 264.416 132.774 264.509 133.242 264.509C133.709 264.509 134.113 264.416 134.455 264.23C134.799 264.041 135.064 263.781 135.25 263.45C135.436 263.118 135.528 262.74 135.528 262.316V255.818ZM141.17 266V255.818H144.989C145.771 255.818 146.427 255.964 146.957 256.256C147.491 256.547 147.894 256.948 148.165 257.459C148.44 257.966 148.578 258.543 148.578 259.189C148.578 259.842 148.44 260.422 148.165 260.929C147.89 261.436 147.484 261.835 146.947 262.127C146.41 262.415 145.749 262.56 144.964 262.56H142.433V261.043H144.715C145.172 261.043 145.547 260.964 145.839 260.805C146.13 260.646 146.346 260.427 146.485 260.148C146.628 259.87 146.699 259.55 146.699 259.189C146.699 258.828 146.628 258.509 146.485 258.234C146.346 257.959 146.129 257.746 145.834 257.593C145.542 257.437 145.166 257.359 144.705 257.359H143.015V266H141.17ZM149.34 266V255.818H155.962V257.364H151.185V260.129H155.619V261.675H151.185V264.454H156.002V266H149.34ZM157.004 266V255.818H160.822C161.604 255.818 162.261 255.954 162.791 256.226C163.325 256.498 163.727 256.879 163.999 257.369C164.274 257.857 164.412 258.425 164.412 259.075C164.412 259.728 164.272 260.294 163.994 260.775C163.719 261.252 163.313 261.622 162.776 261.884C162.239 262.142 161.58 262.271 160.797 262.271H158.078V260.74H160.549C161.006 260.74 161.381 260.677 161.672 260.551C161.964 260.422 162.179 260.235 162.319 259.989C162.461 259.741 162.532 259.436 162.532 259.075C162.532 258.713 162.461 258.405 162.319 258.15C162.176 257.891 161.959 257.696 161.667 257.563C161.376 257.427 161 257.359 160.539 257.359H158.848V266H157.004ZM162.264 261.386L164.785 266H162.726L160.25 261.386H162.264ZM165.269 266V255.818H171.792V257.364H167.114V260.129H171.345V261.675H167.114V266H165.269ZM174.477 255.818V266H172.633V255.818H174.477ZM175.634 266V255.818H177.479V264.454H181.963V266H175.634ZM184.661 255.818H186.744L189.235 260.322H189.334L191.825 255.818H193.908L190.204 262.202V266H188.365V262.202L184.661 255.818ZM197.007 266V255.818H200.825C201.607 255.818 202.263 255.964 202.794 256.256C203.327 256.547 203.73 256.948 204.002 257.459C204.277 257.966 204.415 258.543 204.415 259.189C204.415 259.842 204.277 260.422 204.002 260.929C203.727 261.436 203.321 261.835 202.784 262.127C202.247 262.415 201.586 262.56 200.8 262.56H198.27V261.043H200.552C201.009 261.043 201.383 260.964 201.675 260.805C201.967 260.646 202.182 260.427 202.321 260.148C202.464 259.87 202.535 259.55 202.535 259.189C202.535 258.828 202.464 258.509 202.321 258.234C202.182 257.959 201.965 257.746 201.67 257.593C201.379 257.437 201.002 257.359 200.542 257.359H198.851V266H197.007ZM205.177 266V255.818H208.995C209.777 255.818 210.433 255.954 210.964 256.226C211.497 256.498 211.9 256.879 212.172 257.369C212.447 257.857 212.584 258.425 212.584 259.075C212.584 259.728 212.445 260.294 212.167 260.775C211.892 261.252 211.486 261.622 210.949 261.884C210.412 262.142 209.752 262.271 208.97 262.271H206.25V260.74H208.721C209.179 260.74 209.553 260.677 209.845 260.551C210.137 260.422 210.352 260.235 210.491 259.989C210.634 259.741 210.705 259.436 210.705 259.075C210.705 258.713 210.634 258.405 210.491 258.15C210.349 257.891 210.132 257.696 209.84 257.563C209.548 257.427 209.172 257.359 208.711 257.359H207.021V266H205.177ZM210.437 261.386L212.957 266H210.899L208.423 261.386H210.437ZM213.442 266V255.818H220.064V257.364H215.287V260.129H219.721V261.675H215.287V264.454H220.104V266H213.442ZM221.106 266V255.818H224.924C225.706 255.818 226.363 255.964 226.893 256.256C227.427 256.547 227.829 256.948 228.101 257.459C228.376 257.966 228.514 258.543 228.514 259.189C228.514 259.842 228.376 260.422 228.101 260.929C227.826 261.436 227.42 261.835 226.883 262.127C226.346 262.415 225.685 262.56 224.899 262.56H222.369V261.043H224.651C225.108 261.043 225.483 260.964 225.774 260.805C226.066 260.646 226.281 260.427 226.421 260.148C226.563 259.87 226.634 259.55 226.634 259.189C226.634 258.828 226.563 258.509 226.421 258.234C226.281 257.959 226.064 257.746 225.769 257.593C225.478 257.437 225.101 257.359 224.641 257.359H222.95V266H221.106ZM229.449 266H227.48L231.064 255.818H233.341L236.931 266H234.962L232.243 257.906H232.163L229.449 266ZM229.513 262.008H234.882V263.489H229.513V262.008ZM231.512 254.814L232.625 252.542H234.385L232.859 254.814H231.512ZM237.432 266V255.818H241.25C242.032 255.818 242.688 255.954 243.219 256.226C243.752 256.498 244.155 256.879 244.427 257.369C244.702 257.857 244.84 258.425 244.84 259.075C244.84 259.728 244.7 260.294 244.422 260.775C244.147 261.252 243.741 261.622 243.204 261.884C242.667 262.142 242.007 262.271 241.225 262.271H238.506V260.74H240.977C241.434 260.74 241.809 260.677 242.1 260.551C242.392 260.422 242.607 260.235 242.746 259.989C242.889 259.741 242.96 259.436 242.96 259.075C242.96 258.713 242.889 258.405 242.746 258.15C242.604 257.891 242.387 257.696 242.095 257.563C241.804 257.427 241.427 257.359 240.967 257.359H239.276V266H237.432ZM242.692 261.386L245.212 266H243.154L240.678 261.386H242.692ZM247.005 266H245.036L248.621 255.818H250.898L254.487 266H252.518L249.799 257.906H249.719L247.005 266ZM247.069 262.008H252.439V263.489H247.069V262.008ZM253.31 257.364V255.818H261.434V257.364H258.287V266H256.457V257.364H253.31ZM262.16 266V255.818H268.782V257.364H264.004V260.129H268.439V261.675H264.004V264.454H268.822V266H262.16ZM272.456 266V255.818H276.275C277.057 255.818 277.713 255.964 278.243 256.256C278.777 256.547 279.18 256.948 279.451 257.459C279.727 257.966 279.864 258.543 279.864 259.189C279.864 259.842 279.727 260.422 279.451 260.929C279.176 261.436 278.77 261.835 278.233 262.127C277.697 262.415 277.035 262.56 276.25 262.56H273.719V261.043H276.001C276.459 261.043 276.833 260.964 277.125 260.805C277.416 260.646 277.632 260.427 277.771 260.148C277.914 259.87 277.985 259.55 277.985 259.189C277.985 258.828 277.914 258.509 277.771 258.234C277.632 257.959 277.415 257.746 277.12 257.593C276.828 257.437 276.452 257.359 275.991 257.359H274.301V266H272.456ZM280.799 266H278.83L282.415 255.818H284.692L288.281 266H286.312L283.593 257.906H283.513L280.799 266ZM280.864 262.008H286.233V263.489H280.864V262.008ZM288.782 266V255.818H292.6C293.383 255.818 294.039 255.954 294.569 256.226C295.103 256.498 295.506 256.879 295.777 257.369C296.052 257.857 296.19 258.425 296.19 259.075C296.19 259.728 296.051 260.294 295.772 260.775C295.497 261.252 295.091 261.622 294.554 261.884C294.017 262.142 293.358 262.271 292.576 262.271H289.856V260.74H292.327C292.784 260.74 293.159 260.677 293.451 260.551C293.742 260.422 293.958 260.235 294.097 259.989C294.239 259.741 294.311 259.436 294.311 259.075C294.311 258.713 294.239 258.405 294.097 258.15C293.954 257.891 293.737 257.696 293.446 257.563C293.154 257.427 292.778 257.359 292.317 257.359H290.627V266H288.782ZM294.042 261.386L296.563 266H294.505L292.029 261.386H294.042ZM298.355 266H296.387L299.971 255.818H302.248L305.838 266H303.869L301.149 257.906H301.07L298.355 266ZM298.42 262.008H303.789V263.489H298.42V262.008ZM46.0043 281V270.818H49.902C50.6378 270.818 51.2493 270.934 51.7365 271.166C52.227 271.395 52.5933 271.708 52.8352 272.106C53.0805 272.504 53.2031 272.954 53.2031 273.458C53.2031 273.872 53.1236 274.227 52.9645 274.522C52.8054 274.814 52.5916 275.051 52.3232 275.233C52.0547 275.415 51.7547 275.546 51.4233 275.626V275.725C51.7846 275.745 52.1309 275.856 52.4624 276.058C52.7971 276.257 53.0705 276.539 53.2827 276.903C53.4948 277.268 53.6009 277.709 53.6009 278.226C53.6009 278.753 53.4732 279.227 53.218 279.648C52.9628 280.065 52.5784 280.395 52.0646 280.637C51.5509 280.879 50.9046 281 50.1257 281H46.0043ZM47.8487 279.459H49.8324C50.5019 279.459 50.9841 279.331 51.2791 279.076C51.5774 278.817 51.7266 278.486 51.7266 278.082C51.7266 277.78 51.652 277.508 51.5028 277.266C51.3537 277.021 51.1416 276.829 50.8665 276.69C50.5914 276.547 50.2633 276.476 49.8821 276.476H47.8487V279.459ZM47.8487 275.148H49.6733C49.9915 275.148 50.2782 275.09 50.5334 274.974C50.7886 274.855 50.9891 274.688 51.1349 274.472C51.2841 274.254 51.3587 273.995 51.3587 273.697C51.3587 273.302 51.2195 272.978 50.9411 272.722C50.666 272.467 50.2566 272.339 49.7131 272.339H47.8487V275.148ZM54.3654 281V270.818H58.1836C58.9658 270.818 59.6221 270.954 60.1524 271.226C60.686 271.498 61.0887 271.879 61.3605 272.369C61.6356 272.857 61.7731 273.425 61.7731 274.075C61.7731 274.728 61.6339 275.294 61.3555 275.775C61.0804 276.252 60.6744 276.622 60.1375 276.884C59.6005 277.142 58.941 277.271 58.1588 277.271H55.4393V275.74H57.9102C58.3676 275.74 58.7421 275.677 59.0338 275.551C59.3254 275.422 59.5409 275.235 59.6801 274.989C59.8226 274.741 59.8938 274.436 59.8938 274.075C59.8938 273.713 59.8226 273.405 59.6801 273.15C59.5375 272.891 59.3205 272.696 59.0288 272.563C58.7371 272.427 58.3609 272.359 57.9002 272.359H56.2099V281H54.3654ZM59.6254 276.386L62.146 281H60.0877L57.6119 276.386H59.6254ZM64.4754 270.818V281H62.6309V270.818H64.4754ZM65.6327 281V270.818H67.4772V279.454H71.9615V281H65.6327ZM72.7224 281V270.818H74.5668V279.454H79.0512V281H72.7224ZM81.5024 281H79.5337L83.1182 270.818H85.3952L88.9847 281H87.0159L84.2964 272.906H84.2169L81.5024 281ZM81.567 277.008H86.9364V278.489H81.567V277.008ZM89.4857 281V270.818H93.3039C94.0861 270.818 94.7424 270.954 95.2727 271.226C95.8063 271.498 96.209 271.879 96.4808 272.369C96.7559 272.857 96.8934 273.425 96.8934 274.075C96.8934 274.728 96.7542 275.294 96.4758 275.775C96.2007 276.252 95.7947 276.622 95.2578 276.884C94.7208 277.142 94.0613 277.271 93.2791 277.271H90.5596V275.74H93.0305C93.4879 275.74 93.8624 275.677 94.1541 275.551C94.4457 275.422 94.6612 275.235 94.8004 274.989C94.9429 274.741 95.0142 274.436 95.0142 274.075C95.0142 273.713 94.9429 273.405 94.8004 273.15C94.6579 272.891 94.4408 272.696 94.1491 272.563C93.8574 272.427 93.4812 272.359 93.0205 272.359H91.3302V281H89.4857ZM94.7457 276.386L97.2663 281H95.208L92.7322 276.386H94.7457Z" fill="white"/>
<path d="M46.0043 194V183.818H52.6264V185.364H47.8487V188.129H52.2834V189.675H47.8487V192.454H52.6662V194H46.0043ZM53.6682 194V183.818H55.5126V192.454H59.997V194H53.6682ZM62.4482 194H60.4794L64.064 183.818H66.341L69.9304 194H67.9617L65.2422 185.906H65.1627L62.4482 194ZM62.5128 190.008H67.8821V191.489H62.5128V190.008ZM70.4315 194V183.818H74.3293C75.065 183.818 75.6766 183.934 76.1638 184.166C76.6543 184.395 77.0205 184.708 77.2625 185.106C77.5078 185.504 77.6304 185.954 77.6304 186.458C77.6304 186.872 77.5508 187.227 77.3918 187.522C77.2327 187.814 77.0189 188.051 76.7504 188.233C76.482 188.415 76.182 188.546 75.8506 188.626V188.725C76.2118 188.745 76.5582 188.856 76.8896 189.058C77.2244 189.257 77.4978 189.539 77.7099 189.903C77.9221 190.268 78.0281 190.709 78.0281 191.226C78.0281 191.753 77.9005 192.227 77.6453 192.648C77.3901 193.065 77.0056 193.395 76.4919 193.637C75.9782 193.879 75.3319 194 74.553 194H70.4315ZM72.276 192.459H74.2597C74.9292 192.459 75.4114 192.331 75.7064 192.076C76.0047 191.817 76.1538 191.486 76.1538 191.082C76.1538 190.78 76.0793 190.508 75.9301 190.266C75.781 190.021 75.5688 189.829 75.2937 189.69C75.0186 189.547 74.6905 189.476 74.3094 189.476H72.276V192.459ZM72.276 188.148H74.1006C74.4187 188.148 74.7054 188.09 74.9606 187.974C75.2159 187.855 75.4164 187.688 75.5622 187.472C75.7114 187.254 75.7859 186.995 75.7859 186.697C75.7859 186.302 75.6467 185.978 75.3683 185.722C75.0932 185.467 74.6839 185.339 74.1403 185.339H72.276V188.148ZM87.8907 188.909C87.8907 190.006 87.6852 190.946 87.2742 191.728C86.8666 192.507 86.3097 193.103 85.6038 193.518C84.9011 193.932 84.104 194.139 83.2124 194.139C82.3209 194.139 81.5221 193.932 80.8161 193.518C80.1135 193.1 79.5567 192.502 79.1457 191.723C78.738 190.941 78.5342 190.003 78.5342 188.909C78.5342 187.812 78.738 186.874 79.1457 186.095C79.5567 185.313 80.1135 184.715 80.8161 184.3C81.5221 183.886 82.3209 183.679 83.2124 183.679C84.104 183.679 84.9011 183.886 85.6038 184.3C86.3097 184.715 86.8666 185.313 87.2742 186.095C87.6852 186.874 87.8907 187.812 87.8907 188.909ZM86.0363 188.909C86.0363 188.137 85.9153 187.486 85.6734 186.955C85.4347 186.422 85.1033 186.019 84.6791 185.747C84.2548 185.472 83.7659 185.335 83.2124 185.335C82.6589 185.335 82.1701 185.472 81.7458 185.747C81.3216 186.019 80.9885 186.422 80.7465 186.955C80.5079 187.486 80.3886 188.137 80.3886 188.909C80.3886 189.681 80.5079 190.334 80.7465 190.868C80.9885 191.398 81.3216 191.801 81.7458 192.076C82.1701 192.348 82.6589 192.484 83.2124 192.484C83.7659 192.484 84.2548 192.348 84.6791 192.076C85.1033 191.801 85.4347 191.398 85.6734 190.868C85.9153 190.334 86.0363 189.681 86.0363 188.909ZM88.7945 194V183.818H92.6127C93.3949 183.818 94.0511 183.954 94.5814 184.226C95.115 184.498 95.5177 184.879 95.7895 185.369C96.0646 185.857 96.2022 186.425 96.2022 187.075C96.2022 187.728 96.063 188.294 95.7846 188.775C95.5095 189.252 95.1034 189.622 94.5665 189.884C94.0296 190.142 93.37 190.271 92.5878 190.271H89.8684V188.74H92.3392C92.7966 188.74 93.1712 188.677 93.4628 188.551C93.7545 188.422 93.9699 188.235 94.1091 187.989C94.2516 187.741 94.3229 187.436 94.3229 187.075C94.3229 186.713 94.2516 186.405 94.1091 186.15C93.9666 185.891 93.7495 185.696 93.4578 185.563C93.1662 185.427 92.79 185.359 92.3293 185.359H90.639V194H88.7945ZM94.0544 189.386L96.575 194H94.5168L92.0409 189.386H94.0544ZM98.3675 194H96.3987L99.9833 183.818H102.26L105.85 194H103.881L101.162 185.906H101.082L98.3675 194ZM98.4321 190.008H103.801V191.489H98.4321V190.008ZM115.402 183.818H117.246V190.47C117.246 191.199 117.074 191.841 116.729 192.394C116.388 192.948 115.907 193.38 115.287 193.692C114.668 194 113.943 194.154 113.115 194.154C112.283 194.154 111.557 194 110.937 193.692C110.318 193.38 109.837 192.948 109.496 192.394C109.154 191.841 108.983 191.199 108.983 190.47V183.818H110.828V190.316C110.828 190.74 110.921 191.118 111.106 191.45C111.295 191.781 111.56 192.041 111.902 192.23C112.243 192.416 112.648 192.509 113.115 192.509C113.582 192.509 113.987 192.416 114.328 192.23C114.673 192.041 114.938 191.781 115.123 191.45C115.309 191.118 115.402 190.74 115.402 190.316V183.818ZM126.778 183.818V194H125.138L120.34 187.065H120.256V194H118.411V183.818H120.062L124.854 190.759H124.944V183.818H126.778ZM131.888 194H129.919L133.504 183.818H135.781L139.37 194H137.402L134.682 185.906H134.603L131.888 194ZM131.953 190.008H137.322V191.489H131.953V190.008ZM145.241 186.617C145.194 186.183 144.999 185.845 144.654 185.603C144.313 185.361 143.869 185.24 143.322 185.24C142.937 185.24 142.608 185.298 142.332 185.414C142.057 185.53 141.847 185.687 141.701 185.886C141.555 186.085 141.481 186.312 141.477 186.567C141.477 186.78 141.525 186.964 141.622 187.119C141.721 187.275 141.855 187.408 142.024 187.517C142.193 187.623 142.381 187.713 142.586 187.786C142.792 187.858 142.999 187.92 143.207 187.969L144.162 188.208C144.546 188.298 144.916 188.419 145.271 188.571C145.629 188.723 145.948 188.916 146.23 189.148C146.515 189.38 146.741 189.66 146.906 189.988C147.072 190.316 147.155 190.701 147.155 191.141C147.155 191.738 147.002 192.263 146.698 192.717C146.393 193.168 145.952 193.521 145.375 193.776C144.802 194.028 144.107 194.154 143.292 194.154C142.5 194.154 141.812 194.031 141.229 193.786C140.649 193.541 140.195 193.183 139.867 192.712C139.542 192.242 139.366 191.668 139.34 190.992H141.154C141.181 191.347 141.29 191.642 141.482 191.877C141.675 192.112 141.925 192.288 142.233 192.404C142.545 192.52 142.893 192.578 143.277 192.578C143.678 192.578 144.029 192.518 144.331 192.399C144.636 192.277 144.875 192.107 145.047 191.892C145.219 191.673 145.307 191.418 145.31 191.126C145.307 190.861 145.229 190.643 145.077 190.47C144.924 190.295 144.711 190.149 144.435 190.033C144.164 189.913 143.845 189.807 143.481 189.714L142.323 189.416C141.484 189.201 140.821 188.874 140.334 188.437C139.85 187.996 139.608 187.411 139.608 186.682C139.608 186.082 139.77 185.557 140.095 185.106C140.423 184.655 140.869 184.305 141.433 184.057C141.996 183.805 142.634 183.679 143.347 183.679C144.069 183.679 144.702 183.805 145.246 184.057C145.793 184.305 146.222 184.652 146.533 185.096C146.845 185.537 147.006 186.044 147.016 186.617H145.241ZM153.493 186.617C153.446 186.183 153.251 185.845 152.906 185.603C152.565 185.361 152.12 185.24 151.574 185.24C151.189 185.24 150.859 185.298 150.584 185.414C150.309 185.53 150.099 185.687 149.953 185.886C149.807 186.085 149.732 186.312 149.729 186.567C149.729 186.78 149.777 186.964 149.873 187.119C149.973 187.275 150.107 187.408 150.276 187.517C150.445 187.623 150.632 187.713 150.838 187.786C151.043 187.858 151.25 187.92 151.459 187.969L152.414 188.208C152.798 188.298 153.168 188.419 153.522 188.571C153.88 188.723 154.2 188.916 154.482 189.148C154.767 189.38 154.992 189.66 155.158 189.988C155.324 190.316 155.407 190.701 155.407 191.141C155.407 191.738 155.254 192.263 154.949 192.717C154.644 193.168 154.204 193.521 153.627 193.776C153.053 194.028 152.359 194.154 151.544 194.154C150.752 194.154 150.064 194.031 149.481 193.786C148.901 193.541 148.446 193.183 148.118 192.712C147.794 192.242 147.618 191.668 147.591 190.992H149.406C149.433 191.347 149.542 191.642 149.734 191.877C149.926 192.112 150.177 192.288 150.485 192.404C150.796 192.52 151.144 192.578 151.529 192.578C151.93 192.578 152.281 192.518 152.583 192.399C152.888 192.277 153.126 192.107 153.299 191.892C153.471 191.673 153.559 191.418 153.562 191.126C153.559 190.861 153.481 190.643 153.329 190.47C153.176 190.295 152.962 190.149 152.687 190.033C152.415 189.913 152.097 189.807 151.733 189.714L150.574 189.416C149.736 189.201 149.073 188.874 148.586 188.437C148.102 187.996 147.86 187.411 147.86 186.682C147.86 186.082 148.022 185.557 148.347 185.106C148.675 184.655 149.121 184.305 149.684 184.057C150.248 183.805 150.886 183.679 151.598 183.679C152.321 183.679 152.954 183.805 153.498 184.057C154.044 184.305 154.474 184.652 154.785 185.096C155.097 185.537 155.258 186.044 155.268 186.617H153.493ZM156.211 194V183.818H162.833V185.364H158.056V188.129H162.49V189.675H158.056V192.454H162.873V194H156.211ZM169.408 186.617C169.362 186.183 169.166 185.845 168.822 185.603C168.48 185.361 168.036 185.24 167.489 185.24C167.105 185.24 166.775 185.298 166.5 185.414C166.225 185.53 166.014 185.687 165.869 185.886C165.723 186.085 165.648 186.312 165.645 186.567C165.645 186.78 165.693 186.964 165.789 187.119C165.888 187.275 166.023 187.408 166.192 187.517C166.361 187.623 166.548 187.713 166.754 187.786C166.959 187.858 167.166 187.92 167.375 187.969L168.33 188.208C168.714 188.298 169.084 188.419 169.438 188.571C169.796 188.723 170.116 188.916 170.398 189.148C170.683 189.38 170.908 189.66 171.074 189.988C171.24 190.316 171.322 190.701 171.322 191.141C171.322 191.738 171.17 192.263 170.865 192.717C170.56 193.168 170.119 193.521 169.543 193.776C168.969 194.028 168.275 194.154 167.459 194.154C166.667 194.154 165.98 194.031 165.396 193.786C164.816 193.541 164.362 193.183 164.034 192.712C163.709 192.242 163.534 191.668 163.507 190.992H165.322C165.348 191.347 165.458 191.642 165.65 191.877C165.842 192.112 166.092 192.288 166.401 192.404C166.712 192.52 167.06 192.578 167.445 192.578C167.846 192.578 168.197 192.518 168.499 192.399C168.803 192.277 169.042 192.107 169.214 191.892C169.387 191.673 169.475 191.418 169.478 191.126C169.475 190.861 169.397 190.643 169.244 190.47C169.092 190.295 168.878 190.149 168.603 190.033C168.331 189.913 168.013 189.807 167.648 189.714L166.49 189.416C165.651 189.201 164.989 188.874 164.501 188.437C164.017 187.996 163.776 187.411 163.776 186.682C163.776 186.082 163.938 185.557 164.263 185.106C164.591 184.655 165.037 184.305 165.6 184.057C166.164 183.805 166.802 183.679 167.514 183.679C168.237 183.679 168.87 183.805 169.413 184.057C169.96 184.305 170.389 184.652 170.701 185.096C171.013 185.537 171.173 186.044 171.183 186.617H169.408ZM177.66 186.617C177.614 186.183 177.418 185.845 177.073 185.603C176.732 185.361 176.288 185.24 175.741 185.24C175.357 185.24 175.027 185.298 174.752 185.414C174.477 185.53 174.266 185.687 174.12 185.886C173.975 186.085 173.9 186.312 173.897 186.567C173.897 186.78 173.945 186.964 174.041 187.119C174.14 187.275 174.274 187.408 174.444 187.517C174.613 187.623 174.8 187.713 175.005 187.786C175.211 187.858 175.418 187.92 175.627 187.969L176.581 188.208C176.966 188.298 177.335 188.419 177.69 188.571C178.048 188.723 178.368 188.916 178.649 189.148C178.935 189.38 179.16 189.66 179.326 189.988C179.491 190.316 179.574 190.701 179.574 191.141C179.574 191.738 179.422 192.263 179.117 192.717C178.812 193.168 178.371 193.521 177.794 193.776C177.221 194.028 176.527 194.154 175.711 194.154C174.919 194.154 174.231 194.031 173.648 193.786C173.068 193.541 172.614 193.183 172.286 192.712C171.961 192.242 171.785 191.668 171.759 190.992H173.573C173.6 191.347 173.709 191.642 173.902 191.877C174.094 192.112 174.344 192.288 174.652 192.404C174.964 192.52 175.312 192.578 175.696 192.578C176.097 192.578 176.449 192.518 176.75 192.399C177.055 192.277 177.294 192.107 177.466 191.892C177.639 191.673 177.726 191.418 177.73 191.126C177.726 190.861 177.649 190.643 177.496 190.47C177.344 190.295 177.13 190.149 176.855 190.033C176.583 189.913 176.265 189.807 175.9 189.714L174.742 189.416C173.903 189.201 173.24 188.874 172.753 188.437C172.269 187.996 172.027 187.411 172.027 186.682C172.027 186.082 172.19 185.557 172.515 185.106C172.843 184.655 173.288 184.305 173.852 184.057C174.415 183.805 175.053 183.679 175.766 183.679C176.489 183.679 177.122 183.805 177.665 184.057C178.212 184.305 178.641 184.652 178.953 185.096C179.264 185.537 179.425 186.044 179.435 186.617H177.66ZM180.379 183.818H182.636L185.658 191.196H185.778L188.8 183.818H191.058V194H189.288V187.005H189.193L186.379 193.97H185.057L182.243 186.99H182.148V194H180.379V183.818ZM192.226 194V183.818H198.848V185.364H194.071V188.129H198.505V189.675H194.071V192.454H198.888V194H192.226ZM208.257 183.818V194H206.617L201.819 187.065H201.734V194H199.89V183.818H201.541L206.333 190.759H206.423V183.818H208.257ZM208.979 185.364V183.818H217.103V185.364H213.956V194H212.126V185.364H208.979ZM223.912 194H220.462V183.818H223.982C224.993 183.818 225.861 184.022 226.587 184.43C227.316 184.834 227.876 185.416 228.267 186.175C228.658 186.934 228.854 187.842 228.854 188.899C228.854 189.96 228.657 190.871 228.262 191.634C227.871 192.396 227.306 192.981 226.567 193.388C225.831 193.796 224.946 194 223.912 194ZM222.306 192.404H223.823C224.532 192.404 225.123 192.275 225.597 192.016C226.071 191.754 226.428 191.365 226.666 190.848C226.905 190.328 227.024 189.678 227.024 188.899C227.024 188.12 226.905 187.474 226.666 186.96C226.428 186.443 226.075 186.057 225.607 185.802C225.143 185.543 224.567 185.414 223.877 185.414H222.306V192.404ZM229.766 194V183.818H236.388V185.364H231.611V188.129H236.045V189.675H231.611V192.454H236.428V194H229.766ZM241.907 183.818V194H240.063V183.818H241.907ZM246.515 194H243.065V183.818H246.585C247.595 183.818 248.464 184.022 249.19 184.43C249.919 184.834 250.479 185.416 250.87 186.175C251.261 186.934 251.457 187.842 251.457 188.899C251.457 189.96 251.259 190.871 250.865 191.634C250.474 192.396 249.909 192.981 249.17 193.388C248.434 193.796 247.549 194 246.515 194ZM244.909 192.404H246.425C247.135 192.404 247.726 192.275 248.2 192.016C248.674 191.754 249.031 191.365 249.269 190.848C249.508 190.328 249.627 189.678 249.627 188.899C249.627 188.12 249.508 187.474 249.269 186.96C249.031 186.443 248.678 186.057 248.21 185.802C247.746 185.543 247.17 185.414 246.48 185.414H244.909V192.404ZM252.369 194V183.818H258.991V185.364H254.214V188.129H258.648V189.675H254.214V192.454H259.031V194H252.369ZM268.4 183.818V194H266.76L261.962 187.065H261.878V194H260.033V183.818H261.684L266.476 190.759H266.566V183.818H268.4ZM269.123 185.364V183.818H277.246V185.364H274.099V194H272.27V185.364H269.123ZM279.817 183.818V194H277.972V183.818H279.817ZM284.424 194H280.974V183.818H284.494C285.505 183.818 286.373 184.022 287.099 184.43C287.828 184.834 288.388 185.416 288.779 186.175C289.171 186.934 289.366 187.842 289.366 188.899C289.366 189.96 289.169 190.871 288.774 191.634C288.383 192.396 287.818 192.981 287.079 193.388C286.343 193.796 285.458 194 284.424 194ZM282.818 192.404H284.335C285.044 192.404 285.636 192.275 286.11 192.016C286.584 191.754 286.94 191.365 287.179 190.848C287.417 190.328 287.537 189.678 287.537 188.899C287.537 188.12 287.417 187.474 287.179 186.96C286.94 186.443 286.587 186.057 286.12 185.802C285.656 185.543 285.079 185.414 284.39 185.414H282.818V192.404ZM291.039 194H289.07L292.655 183.818H294.932L298.521 194H296.553L293.833 185.906H293.754L291.039 194ZM291.104 190.008H296.473V191.489H291.104V190.008ZM302.473 194H299.023V183.818H302.542C303.553 183.818 304.422 184.022 305.148 184.43C305.877 184.834 306.437 185.416 306.828 186.175C307.219 186.934 307.415 187.842 307.415 188.899C307.415 189.96 307.217 190.871 306.823 191.634C306.432 192.396 305.867 192.981 305.128 193.388C304.392 193.796 303.507 194 302.473 194ZM300.867 192.404H302.383C303.093 192.404 303.684 192.275 304.158 192.016C304.632 191.754 304.988 191.365 305.227 190.848C305.466 190.328 305.585 189.678 305.585 188.899C305.585 188.12 305.466 187.474 305.227 186.96C304.988 186.443 304.635 186.057 304.168 185.802C303.704 185.543 303.127 185.414 302.438 185.414H300.867V192.404Z" fill="white"/>
<path d="M54.7195 119.254H52.8601C52.8071 118.949 52.7093 118.679 52.5668 118.443C52.4242 118.205 52.2469 118.002 52.0348 117.837C51.8227 117.671 51.5807 117.547 51.3089 117.464C51.0405 117.378 50.7505 117.335 50.4389 117.335C49.8854 117.335 49.3949 117.474 48.9673 117.752C48.5398 118.027 48.205 118.432 47.9631 118.965C47.7211 119.496 47.6001 120.143 47.6001 120.909C47.6001 121.688 47.7211 122.344 47.9631 122.878C48.2083 123.408 48.5431 123.809 48.9673 124.081C49.3949 124.349 49.8838 124.484 50.4339 124.484C50.7389 124.484 51.0239 124.444 51.2891 124.364C51.5575 124.281 51.7978 124.161 52.0099 124.001C52.2254 123.842 52.406 123.647 52.5518 123.415C52.701 123.183 52.8037 122.918 52.8601 122.619L54.7195 122.629C54.6499 123.113 54.4991 123.567 54.267 123.991C54.0384 124.416 53.7384 124.79 53.3672 125.115C52.996 125.437 52.5618 125.688 52.0646 125.871C51.5675 126.05 51.0156 126.139 50.4091 126.139C49.5142 126.139 48.7154 125.932 48.0128 125.518C47.3101 125.103 46.7566 124.505 46.3523 123.723C45.9479 122.941 45.7457 122.003 45.7457 120.909C45.7457 119.812 45.9496 118.874 46.3572 118.095C46.7649 117.313 47.3201 116.715 48.0227 116.3C48.7254 115.886 49.5208 115.679 50.4091 115.679C50.9759 115.679 51.5028 115.759 51.9901 115.918C52.4773 116.077 52.9115 116.31 53.2926 116.619C53.6738 116.924 53.987 117.298 54.2322 117.742C54.4808 118.183 54.6432 118.687 54.7195 119.254ZM62.8269 115.818H64.6713V122.47C64.6713 123.199 64.499 123.841 64.1543 124.394C63.8129 124.948 63.3323 125.38 62.7125 125.692C62.0927 126 61.3685 126.154 60.54 126.154C59.708 126.154 58.9822 126 58.3624 125.692C57.7426 125.38 57.262 124.948 56.9206 124.394C56.5792 123.841 56.4086 123.199 56.4086 122.47V115.818H58.253V122.316C58.253 122.74 58.3458 123.118 58.5314 123.45C58.7203 123.781 58.9855 124.041 59.3269 124.23C59.6683 124.416 60.0726 124.509 60.54 124.509C61.0073 124.509 61.4116 124.416 61.753 124.23C62.0977 124.041 62.3629 123.781 62.5485 123.45C62.7341 123.118 62.8269 122.74 62.8269 122.316V115.818ZM66.6761 126V115.818H73.2983V117.364H68.5206V120.129H72.9553V121.675H68.5206V124.454H73.3381V126H66.6761ZM83.5472 115.818V126H81.9066L77.109 119.065H77.0245V126H75.18V115.818H76.8306L81.6232 122.759H81.7127V115.818H83.5472ZM85.1096 117.364V115.818H93.2331V117.364H90.0861V126H88.2566V117.364H85.1096ZM94.8762 126H92.9075L96.492 115.818H98.769L102.358 126H100.39L97.6703 117.906H97.5907L94.8762 126ZM94.9409 122.008H100.31V123.489H94.9409V122.008ZM106.725 117.364V115.818H114.848V117.364H111.701V126H109.872V117.364H106.725ZM122.833 115.818H124.677V122.47C124.677 123.199 124.505 123.841 124.16 124.394C123.819 124.948 123.338 125.38 122.718 125.692C122.099 126 121.374 126.154 120.546 126.154C119.714 126.154 118.988 126 118.368 125.692C117.748 125.38 117.268 124.948 116.926 124.394C116.585 123.841 116.414 123.199 116.414 122.47V115.818H118.259V122.316C118.259 122.74 118.352 123.118 118.537 123.45C118.726 123.781 118.991 124.041 119.333 124.23C119.674 124.416 120.078 124.509 120.546 124.509C121.013 124.509 121.417 124.416 121.759 124.23C122.104 124.041 122.369 123.781 122.554 123.45C122.74 123.118 122.833 122.74 122.833 122.316V115.818ZM132.215 118.617C132.169 118.183 131.973 117.845 131.629 117.603C131.287 117.361 130.843 117.24 130.296 117.24C129.912 117.24 129.582 117.298 129.307 117.414C129.032 117.53 128.821 117.687 128.676 117.886C128.53 118.085 128.455 118.312 128.452 118.567C128.452 118.78 128.5 118.964 128.596 119.119C128.695 119.275 128.83 119.408 128.999 119.517C129.168 119.623 129.355 119.713 129.561 119.786C129.766 119.858 129.973 119.92 130.182 119.969L131.137 120.208C131.521 120.298 131.891 120.419 132.245 120.571C132.603 120.723 132.923 120.916 133.205 121.148C133.49 121.38 133.715 121.66 133.881 121.988C134.047 122.316 134.129 122.701 134.129 123.141C134.129 123.738 133.977 124.263 133.672 124.717C133.367 125.168 132.926 125.521 132.35 125.776C131.776 126.028 131.082 126.154 130.267 126.154C129.474 126.154 128.787 126.031 128.203 125.786C127.623 125.541 127.169 125.183 126.841 124.712C126.516 124.242 126.341 123.668 126.314 122.992H128.129C128.155 123.347 128.265 123.642 128.457 123.877C128.649 124.112 128.899 124.288 129.208 124.404C129.519 124.52 129.867 124.578 130.252 124.578C130.653 124.578 131.004 124.518 131.306 124.399C131.61 124.277 131.849 124.107 132.021 123.892C132.194 123.673 132.282 123.418 132.285 123.126C132.282 122.861 132.204 122.643 132.051 122.47C131.899 122.295 131.685 122.149 131.41 122.033C131.138 121.913 130.82 121.807 130.455 121.714L129.297 121.416C128.459 121.201 127.796 120.874 127.308 120.437C126.825 119.996 126.583 119.411 126.583 118.682C126.583 118.082 126.745 117.557 127.07 117.106C127.398 116.655 127.844 116.305 128.407 116.057C128.971 115.805 129.609 115.679 130.321 115.679C131.044 115.679 131.677 115.805 132.22 116.057C132.767 116.305 133.196 116.652 133.508 117.096C133.82 117.537 133.98 118.044 133.99 118.617H132.215ZM139.246 126V115.818H141.091V120.129H145.809V115.818H147.658V126H145.809V121.675H141.091V126H139.246ZM151.509 115.818V126H149.664V115.818H151.509ZM159.04 118.617C158.993 118.183 158.798 117.845 158.453 117.603C158.112 117.361 157.667 117.24 157.121 117.24C156.736 117.24 156.406 117.298 156.131 117.414C155.856 117.53 155.646 117.687 155.5 117.886C155.354 118.085 155.279 118.312 155.276 118.567C155.276 118.78 155.324 118.964 155.42 119.119C155.52 119.275 155.654 119.408 155.823 119.517C155.992 119.623 156.179 119.713 156.385 119.786C156.59 119.858 156.797 119.92 157.006 119.969L157.961 120.208C158.345 120.298 158.715 120.419 159.069 120.571C159.427 120.723 159.747 120.916 160.029 121.148C160.314 121.38 160.539 121.66 160.705 121.988C160.871 122.316 160.954 122.701 160.954 123.141C160.954 123.738 160.801 124.263 160.496 124.717C160.191 125.168 159.751 125.521 159.174 125.776C158.6 126.028 157.906 126.154 157.091 126.154C156.299 126.154 155.611 126.031 155.028 125.786C154.448 125.541 153.993 125.183 153.665 124.712C153.34 124.242 153.165 123.668 153.138 122.992H154.953C154.979 123.347 155.089 123.642 155.281 123.877C155.473 124.112 155.724 124.288 156.032 124.404C156.343 124.52 156.691 124.578 157.076 124.578C157.477 124.578 157.828 124.518 158.13 124.399C158.435 124.277 158.673 124.107 158.846 123.892C159.018 123.673 159.106 123.418 159.109 123.126C159.106 122.861 159.028 122.643 158.876 122.47C158.723 122.295 158.509 122.149 158.234 122.033C157.962 121.913 157.644 121.807 157.28 121.714L156.121 121.416C155.283 121.201 154.62 120.874 154.133 120.437C153.649 119.996 153.407 119.411 153.407 118.682C153.407 118.082 153.569 117.557 153.894 117.106C154.222 116.655 154.668 116.305 155.231 116.057C155.795 115.805 156.433 115.679 157.145 115.679C157.868 115.679 158.501 115.805 159.045 116.057C159.591 116.305 160.021 116.652 160.332 117.096C160.644 117.537 160.805 118.044 160.814 118.617H159.04ZM162.151 117.364V115.818H170.274V117.364H167.127V126H165.298V117.364H162.151ZM180.487 120.909C180.487 122.006 180.282 122.946 179.871 123.728C179.463 124.507 178.906 125.103 178.2 125.518C177.497 125.932 176.7 126.139 175.809 126.139C174.917 126.139 174.118 125.932 173.412 125.518C172.71 125.1 172.153 124.502 171.742 123.723C171.334 122.941 171.131 122.003 171.131 120.909C171.131 119.812 171.334 118.874 171.742 118.095C172.153 117.313 172.71 116.715 173.412 116.3C174.118 115.886 174.917 115.679 175.809 115.679C176.7 115.679 177.497 115.886 178.2 116.3C178.906 116.715 179.463 117.313 179.871 118.095C180.282 118.874 180.487 119.812 180.487 120.909ZM178.633 120.909C178.633 120.137 178.512 119.486 178.27 118.955C178.031 118.422 177.7 118.019 177.275 117.747C176.851 117.472 176.362 117.335 175.809 117.335C175.255 117.335 174.766 117.472 174.342 117.747C173.918 118.019 173.585 118.422 173.343 118.955C173.104 119.486 172.985 120.137 172.985 120.909C172.985 121.681 173.104 122.334 173.343 122.868C173.585 123.398 173.918 123.801 174.342 124.076C174.766 124.348 175.255 124.484 175.809 124.484C176.362 124.484 176.851 124.348 177.275 124.076C177.7 123.801 178.031 123.398 178.27 122.868C178.512 122.334 178.633 121.681 178.633 120.909ZM182.231 126V115.818H186.049C186.831 115.818 187.487 115.954 188.018 116.226C188.551 116.498 188.954 116.879 189.226 117.369C189.501 117.857 189.638 118.425 189.638 119.075C189.638 119.728 189.499 120.294 189.221 120.775C188.946 121.252 188.54 121.622 188.003 121.884C187.466 122.142 186.806 122.271 186.024 122.271H183.305V120.74H185.776C186.233 120.74 186.607 120.677 186.899 120.551C187.191 120.422 187.406 120.235 187.545 119.989C187.688 119.741 187.759 119.436 187.759 119.075C187.759 118.713 187.688 118.405 187.545 118.15C187.403 117.891 187.186 117.696 186.894 117.563C186.603 117.427 186.226 117.359 185.766 117.359H184.075V126H182.231ZM187.491 121.386L190.011 126H187.953L185.477 121.386H187.491ZM193.181 115.818V126H191.336V115.818H193.181ZM196.486 126H194.517L198.101 115.818H200.378L203.968 126H201.999L199.28 117.906H199.2L196.486 126ZM196.55 122.008H201.92V123.489H196.55V122.008ZM210.678 118.617C210.632 118.183 210.436 117.845 210.092 117.603C209.75 117.361 209.306 117.24 208.759 117.24C208.375 117.24 208.045 117.298 207.77 117.414C207.495 117.53 207.284 117.687 207.138 117.886C206.993 118.085 206.918 118.312 206.915 118.567C206.915 118.78 206.963 118.964 207.059 119.119C207.158 119.275 207.293 119.408 207.462 119.517C207.631 119.623 207.818 119.713 208.023 119.786C208.229 119.858 208.436 119.92 208.645 119.969L209.599 120.208C209.984 120.298 210.353 120.419 210.708 120.571C211.066 120.723 211.386 120.916 211.668 121.148C211.953 121.38 212.178 121.66 212.344 121.988C212.509 122.316 212.592 122.701 212.592 123.141C212.592 123.738 212.44 124.263 212.135 124.717C211.83 125.168 211.389 125.521 210.812 125.776C210.239 126.028 209.545 126.154 208.729 126.154C207.937 126.154 207.25 126.031 206.666 125.786C206.086 125.541 205.632 125.183 205.304 124.712C204.979 124.242 204.804 123.668 204.777 122.992H206.592C206.618 123.347 206.728 123.642 206.92 123.877C207.112 124.112 207.362 124.288 207.67 124.404C207.982 124.52 208.33 124.578 208.714 124.578C209.116 124.578 209.467 124.518 209.768 124.399C210.073 124.277 210.312 124.107 210.484 123.892C210.657 123.673 210.745 123.418 210.748 123.126C210.745 122.861 210.667 122.643 210.514 122.47C210.362 122.295 210.148 122.149 209.873 122.033C209.601 121.913 209.283 121.807 208.918 121.714L207.76 121.416C206.921 121.201 206.259 120.874 205.771 120.437C205.287 119.996 205.045 119.411 205.045 118.682C205.045 118.082 205.208 117.557 205.533 117.106C205.861 116.655 206.307 116.305 206.87 116.057C207.433 115.805 208.071 115.679 208.784 115.679C209.507 115.679 210.14 115.805 210.683 116.057C211.23 116.305 211.659 116.652 211.971 117.096C212.282 117.537 212.443 118.044 212.453 118.617H210.678ZM224.128 115.818H225.972V122.47C225.972 123.199 225.8 123.841 225.455 124.394C225.114 124.948 224.633 125.38 224.013 125.692C223.394 126 222.669 126.154 221.841 126.154C221.009 126.154 220.283 126 219.663 125.692C219.043 125.38 218.563 124.948 218.221 124.394C217.88 123.841 217.709 123.199 217.709 122.47V115.818H219.554V122.316C219.554 122.74 219.647 123.118 219.832 123.45C220.021 123.781 220.286 124.041 220.628 124.23C220.969 124.416 221.373 124.509 221.841 124.509C222.308 124.509 222.712 124.416 223.054 124.23C223.398 124.041 223.664 123.781 223.849 123.45C224.035 123.118 224.128 122.74 224.128 122.316V115.818ZM221.15 114.814L222.263 112.542H224.023L222.497 114.814H221.15ZM236.344 115.818V126H234.703L229.906 119.065H229.821V126H227.977V115.818H229.627L234.42 122.759H234.51V115.818H236.344ZM240.198 115.818V126H238.354V115.818H240.198ZM250.911 119.254H249.051C248.998 118.949 248.901 118.679 248.758 118.443C248.616 118.205 248.438 118.002 248.226 117.837C248.014 117.671 247.772 117.547 247.5 117.464C247.232 117.378 246.942 117.335 246.63 117.335C246.077 117.335 245.586 117.474 245.159 117.752C244.731 118.027 244.396 118.432 244.154 118.965C243.913 119.496 243.792 120.143 243.792 120.909C243.792 121.688 243.913 122.344 244.154 122.878C244.4 123.408 244.734 123.809 245.159 124.081C245.586 124.349 246.075 124.484 246.625 124.484C246.93 124.484 247.215 124.444 247.48 124.364C247.749 124.281 247.989 124.161 248.201 124.001C248.417 123.842 248.597 123.647 248.743 123.415C248.892 123.183 248.995 122.918 249.051 122.619L250.911 122.629C250.841 123.113 250.69 123.567 250.458 123.991C250.23 124.416 249.93 124.79 249.559 125.115C249.187 125.437 248.753 125.688 248.256 125.871C247.759 126.05 247.207 126.139 246.6 126.139C245.706 126.139 244.907 125.932 244.204 125.518C243.502 125.103 242.948 124.505 242.544 123.723C242.139 122.941 241.937 122.003 241.937 120.909C241.937 119.812 242.141 118.874 242.549 118.095C242.956 117.313 243.511 116.715 244.214 116.3C244.917 115.886 245.712 115.679 246.6 115.679C247.167 115.679 247.694 115.759 248.181 115.918C248.669 116.077 249.103 116.31 249.484 116.619C249.865 116.924 250.178 117.298 250.424 117.742C250.672 118.183 250.835 118.687 250.911 119.254ZM253.784 126H251.816L255.4 115.818H257.677L261.267 126H259.298L256.578 117.906H256.499L253.784 126ZM253.849 122.008H259.218V123.489H253.849V122.008ZM267.977 118.617C267.931 118.183 267.735 117.845 267.39 117.603C267.049 117.361 266.605 117.24 266.058 117.24C265.674 117.24 265.344 117.298 265.069 117.414C264.794 117.53 264.583 117.687 264.437 117.886C264.291 118.085 264.217 118.312 264.214 118.567C264.214 118.78 264.262 118.964 264.358 119.119C264.457 119.275 264.591 119.408 264.76 119.517C264.93 119.623 265.117 119.713 265.322 119.786C265.528 119.858 265.735 119.92 265.944 119.969L266.898 120.208C267.283 120.298 267.652 120.419 268.007 120.571C268.365 120.723 268.685 120.916 268.966 121.148C269.251 121.38 269.477 121.66 269.643 121.988C269.808 122.316 269.891 122.701 269.891 123.141C269.891 123.738 269.739 124.263 269.434 124.717C269.129 125.168 268.688 125.521 268.111 125.776C267.538 126.028 266.844 126.154 266.028 126.154C265.236 126.154 264.548 126.031 263.965 125.786C263.385 125.541 262.931 125.183 262.603 124.712C262.278 124.242 262.102 123.668 262.076 122.992H263.89C263.917 123.347 264.026 123.642 264.219 123.877C264.411 124.112 264.661 124.288 264.969 124.404C265.281 124.52 265.629 124.578 266.013 124.578C266.414 124.578 266.766 124.518 267.067 124.399C267.372 124.277 267.611 124.107 267.783 123.892C267.956 123.673 268.043 123.418 268.047 123.126C268.043 122.861 267.965 122.643 267.813 122.47C267.661 122.295 267.447 122.149 267.172 122.033C266.9 121.913 266.582 121.807 266.217 121.714L265.059 121.416C264.22 121.201 263.557 120.874 263.07 120.437C262.586 119.996 262.344 119.411 262.344 118.682C262.344 118.082 262.507 117.557 262.831 117.106C263.16 116.655 263.605 116.305 264.169 116.057C264.732 115.805 265.37 115.679 266.083 115.679C266.805 115.679 267.439 115.805 267.982 116.057C268.529 116.305 268.958 116.652 269.27 117.096C269.581 117.537 269.742 118.044 269.752 118.617H267.977Z" fill="white"/>
<path d="M54.7195 42.2536H52.8601C52.8071 41.9486 52.7093 41.6785 52.5668 41.4432C52.4242 41.2045 52.2469 41.0024 52.0348 40.8366C51.8227 40.6709 51.5807 40.5466 51.3089 40.4638C51.0405 40.3776 50.7505 40.3345 50.4389 40.3345C49.8854 40.3345 49.3949 40.4737 48.9673 40.7521C48.5398 41.0272 48.205 41.4316 47.9631 41.9652C47.7211 42.4955 47.6001 43.1435 47.6001 43.9091C47.6001 44.688 47.7211 45.3442 47.9631 45.8778C48.2083 46.4081 48.5431 46.8092 48.9673 47.081C49.3949 47.3494 49.8838 47.4837 50.4339 47.4837C50.7389 47.4837 51.0239 47.4439 51.2891 47.3643C51.5575 47.2815 51.7978 47.1605 52.0099 47.0014C52.2254 46.8423 52.406 46.6468 52.5518 46.4148C52.701 46.1828 52.8037 45.9176 52.8601 45.6193L54.7195 45.6293C54.6499 46.1132 54.4991 46.5672 54.267 46.9915C54.0384 47.4157 53.7384 47.7902 53.3672 48.1151C52.996 48.4366 52.5618 48.6884 52.0646 48.8707C51.5675 49.0497 51.0156 49.1392 50.4091 49.1392C49.5142 49.1392 48.7154 48.9321 48.0128 48.5178C47.3101 48.1035 46.7566 47.5052 46.3523 46.723C45.9479 45.9408 45.7457 45.0028 45.7457 43.9091C45.7457 42.812 45.9496 41.8741 46.3572 41.0952C46.7649 40.313 47.3201 39.7147 48.0227 39.3004C48.7254 38.8861 49.5208 38.679 50.4091 38.679C50.9759 38.679 51.5028 38.7585 51.9901 38.9176C52.4773 39.0767 52.9115 39.3104 53.2926 39.6186C53.6738 39.9235 53.987 40.2981 54.2322 40.7422C54.4808 41.183 54.6432 41.6868 54.7195 42.2536ZM55.2886 49V38.8182H59.1067C59.8889 38.8182 60.5452 38.9541 61.0755 39.2259C61.6091 39.4976 62.0118 39.8788 62.2836 40.3693C62.5587 40.8565 62.6962 41.425 62.6962 42.0746C62.6962 42.7275 62.557 43.2943 62.2786 43.7749C62.0035 44.2521 61.5975 44.6217 61.0606 44.8835C60.5236 45.142 59.8641 45.2713 59.0819 45.2713H56.3624V43.7401H58.8333C59.2907 43.7401 59.6652 43.6771 59.9569 43.5511C60.2485 43.4219 60.464 43.2346 60.6032 42.9893C60.7457 42.7408 60.817 42.4358 60.817 42.0746C60.817 41.7133 60.7457 41.4051 60.6032 41.1499C60.4607 40.8913 60.2436 40.6958 59.9519 40.5632C59.6602 40.4273 59.2841 40.3594 58.8234 40.3594H57.133V49H55.2886ZM60.5485 44.3864L63.0691 49H61.0109L58.535 44.3864H60.5485ZM63.274 49V38.8182H69.8962V40.3643H65.1185V43.1286H69.5531V44.6747H65.1185V47.4538H69.936V49H63.274ZM71.9655 49H69.9967L73.5812 38.8182H75.8582L79.4477 49H77.479L74.7595 40.9062H74.6799L71.9655 49ZM72.0301 45.0078H77.3994V46.4893H72.0301V45.0078ZM88.4398 38.8182H90.2842V45.4702C90.2842 46.1993 90.1119 46.8407 89.7672 47.3942C89.4258 47.9477 88.9452 48.3802 88.3254 48.6918C87.7056 49 86.9814 49.1541 86.1528 49.1541C85.3209 49.1541 84.5951 49 83.9753 48.6918C83.3555 48.3802 82.8749 47.9477 82.5335 47.3942C82.1921 46.8407 82.0215 46.1993 82.0215 45.4702V38.8182H83.8659V45.3161C83.8659 45.7403 83.9587 46.1181 84.1443 46.4496C84.3332 46.781 84.5984 47.0412 84.9398 47.2301C85.2812 47.4157 85.6855 47.5085 86.1528 47.5085C86.6202 47.5085 87.0245 47.4157 87.3659 47.2301C87.7106 47.0412 87.9758 46.781 88.1614 46.4496C88.347 46.1181 88.4398 45.7403 88.4398 45.3161V38.8182ZM99.5362 38.8182V49H97.8956L93.098 42.0646H93.0135V49H91.169V38.8182H92.8196L97.6122 45.7585H97.7017V38.8182H99.5362ZM102.779 49V38.8182H106.597C107.379 38.8182 108.035 38.964 108.566 39.2557C109.099 39.5473 109.502 39.9484 109.774 40.4588C110.049 40.9659 110.186 41.5426 110.186 42.1889C110.186 42.8419 110.049 43.4219 109.774 43.929C109.499 44.4361 109.093 44.8355 108.556 45.1271C108.019 45.4155 107.357 45.5597 106.572 45.5597H104.041V44.0433H106.323C106.781 44.0433 107.155 43.9638 107.447 43.8047C107.739 43.6456 107.954 43.4268 108.093 43.1484C108.236 42.87 108.307 42.5502 108.307 42.1889C108.307 41.8277 108.236 41.5095 108.093 41.2344C107.954 40.9593 107.737 40.7455 107.442 40.593C107.15 40.4373 106.774 40.3594 106.313 40.3594H104.623V49H102.779ZM110.668 49V38.8182H117.291V40.3643H112.513V43.1286H116.948V44.6747H112.513V47.4538H117.33V49H110.668ZM118.052 49V38.8182H121.87C122.653 38.8182 123.309 38.9541 123.839 39.2259C124.373 39.4976 124.776 39.8788 125.047 40.3693C125.322 40.8565 125.46 41.425 125.46 42.0746C125.46 42.7275 125.321 43.2943 125.042 43.7749C124.767 44.2521 124.361 44.6217 123.824 44.8835C123.287 45.142 122.628 45.2713 121.846 45.2713H119.126V43.7401H121.597C122.054 43.7401 122.429 43.6771 122.721 43.5511C123.012 43.4219 123.228 43.2346 123.367 42.9893C123.509 42.7408 123.581 42.4358 123.581 42.0746C123.581 41.7133 123.509 41.4051 123.367 41.1499C123.224 40.8913 123.007 40.6958 122.716 40.5632C122.424 40.4273 122.048 40.3594 121.587 40.3594H119.897V49H118.052ZM123.312 44.3864L125.833 49H123.775L121.299 44.3864H123.312ZM126.038 49V38.8182H132.561V40.3643H127.882V43.1286H132.113V44.6747H127.882V49H126.038ZM134.965 38.8182V49H133.121V38.8182H134.965ZM135.843 49V38.8182H137.687V47.4538H142.172V49H135.843ZM148.455 49H145.005V38.8182H148.525C149.536 38.8182 150.404 39.022 151.13 39.4297C151.859 39.834 152.419 40.4157 152.81 41.1747C153.202 41.9337 153.397 42.8419 153.397 43.8991C153.397 44.9598 153.2 45.8712 152.805 46.6335C152.414 47.3958 151.849 47.9808 151.11 48.3885C150.374 48.7962 149.489 49 148.455 49ZM146.849 47.4041H148.366C149.075 47.4041 149.667 47.2749 150.141 47.0163C150.615 46.7545 150.971 46.3651 151.21 45.848C151.448 45.3277 151.568 44.678 151.568 43.8991C151.568 43.1203 151.448 42.474 151.21 41.9602C150.971 41.4432 150.618 41.0571 150.151 40.8018C149.687 40.5433 149.11 40.4141 148.421 40.4141H146.849V47.4041ZM154.03 49V38.8182H160.652V40.3643H155.874V43.1286H160.309V44.6747H155.874V47.4538H160.692V49H154.03ZM166.947 41.6172C166.9 41.183 166.705 40.8449 166.36 40.603C166.019 40.361 165.575 40.2401 165.028 40.2401C164.643 40.2401 164.314 40.2981 164.038 40.4141C163.763 40.5301 163.553 40.6875 163.407 40.8864C163.261 41.0852 163.187 41.3123 163.183 41.5675C163.183 41.7796 163.231 41.9635 163.328 42.1193C163.427 42.2751 163.561 42.4077 163.73 42.517C163.899 42.6231 164.087 42.7126 164.292 42.7855C164.498 42.8584 164.705 42.9197 164.913 42.9695L165.868 43.2081C166.252 43.2976 166.622 43.4186 166.977 43.571C167.335 43.7235 167.654 43.9157 167.936 44.1477C168.221 44.3797 168.447 44.6598 168.612 44.9879C168.778 45.3161 168.861 45.7005 168.861 46.1413C168.861 46.7379 168.708 47.2633 168.404 47.7173C168.099 48.1681 167.658 48.5211 167.081 48.7763C166.508 49.0282 165.813 49.1541 164.998 49.1541C164.206 49.1541 163.518 49.0315 162.935 48.7862C162.355 48.541 161.901 48.183 161.573 47.7124C161.248 47.2417 161.072 46.6683 161.046 45.9922H162.86C162.887 46.3468 162.996 46.6418 163.188 46.8771C163.381 47.1125 163.631 47.2881 163.939 47.4041C164.251 47.5201 164.599 47.5781 164.983 47.5781C165.384 47.5781 165.735 47.5185 166.037 47.3991C166.342 47.2765 166.581 47.1075 166.753 46.892C166.925 46.6733 167.013 46.4181 167.016 46.1264C167.013 45.8613 166.935 45.6425 166.783 45.4702C166.63 45.2945 166.417 45.1487 166.141 45.0327C165.87 44.9134 165.552 44.8073 165.187 44.7145L164.029 44.4162C163.19 44.2008 162.527 43.8743 162.04 43.4368C161.556 42.996 161.314 42.411 161.314 41.6818C161.314 41.0819 161.476 40.5566 161.801 40.1058C162.129 39.6551 162.575 39.3054 163.139 39.0568C163.702 38.8049 164.34 38.679 165.053 38.679C165.775 38.679 166.408 38.8049 166.952 39.0568C167.499 39.3054 167.928 39.6518 168.239 40.0959C168.551 40.5367 168.712 41.0438 168.722 41.6172H166.947ZM168.938 40.3643V38.8182H177.061V40.3643H173.914V49H172.085V40.3643H168.938ZM177.585 49H175.616L179.2 38.8182H181.477L185.067 49H183.098L180.379 40.9062H180.299L177.585 49ZM177.649 45.0078H183.018V46.4893H177.649V45.0078ZM193.525 42.2536H191.665C191.612 41.9486 191.514 41.6785 191.372 41.4432C191.229 41.2045 191.052 41.0024 190.84 40.8366C190.628 40.6709 190.386 40.5466 190.114 40.4638C189.846 40.3776 189.556 40.3345 189.244 40.3345C188.691 40.3345 188.2 40.4737 187.772 40.7521C187.345 41.0272 187.01 41.4316 186.768 41.9652C186.526 42.4955 186.405 43.1435 186.405 43.9091C186.405 44.688 186.526 45.3442 186.768 45.8778C187.013 46.4081 187.348 46.8092 187.772 47.081C188.2 47.3494 188.689 47.4837 189.239 47.4837C189.544 47.4837 189.829 47.4439 190.094 47.3643C190.363 47.2815 190.603 47.1605 190.815 47.0014C191.03 46.8423 191.211 46.6468 191.357 46.4148C191.506 46.1828 191.609 45.9176 191.665 45.6193L193.525 45.6293C193.455 46.1132 193.304 46.5672 193.072 46.9915C192.843 47.4157 192.543 47.7902 192.172 48.1151C191.801 48.4366 191.367 48.6884 190.87 48.8707C190.373 49.0497 189.821 49.1392 189.214 49.1392C188.319 49.1392 187.521 48.9321 186.818 48.5178C186.115 48.1035 185.562 47.5052 185.157 46.723C184.753 45.9408 184.551 45.0028 184.551 43.9091C184.551 42.812 184.755 41.8741 185.162 41.0952C185.57 40.313 186.125 39.7147 186.828 39.3004C187.53 38.8861 188.326 38.679 189.214 38.679C189.781 38.679 190.308 38.7585 190.795 38.9176C191.282 39.0767 191.717 39.3104 192.098 39.6186C192.479 39.9235 192.792 40.2981 193.037 40.7422C193.286 41.183 193.448 41.6868 193.525 42.2536ZM195.278 49H193.309L196.894 38.8182H199.171L202.76 49H200.792L198.072 40.9062H197.993L195.278 49ZM195.343 45.0078H200.712V46.4893H195.343V45.0078ZM206.432 49H202.981V38.8182H206.501C207.512 38.8182 208.381 39.022 209.106 39.4297C209.836 39.834 210.396 40.4157 210.787 41.1747C211.178 41.9337 211.373 42.8419 211.373 43.8991C211.373 44.9598 211.176 45.8712 210.782 46.6335C210.391 47.3958 209.826 47.9808 209.087 48.3885C208.351 48.7962 207.466 49 206.432 49ZM204.826 47.4041H206.342C207.052 47.4041 207.643 47.2749 208.117 47.0163C208.591 46.7545 208.947 46.3651 209.186 45.848C209.425 45.3277 209.544 44.678 209.544 43.8991C209.544 43.1203 209.425 42.474 209.186 41.9602C208.947 41.4432 208.594 41.0571 208.127 40.8018C207.663 40.5433 207.086 40.4141 206.397 40.4141H204.826V47.4041ZM221.104 43.9091C221.104 45.0062 220.899 45.9458 220.488 46.728C220.08 47.5069 219.523 48.1035 218.817 48.5178C218.114 48.9321 217.317 49.1392 216.426 49.1392C215.534 49.1392 214.735 48.9321 214.029 48.5178C213.327 48.1001 212.77 47.5019 212.359 46.723C211.951 45.9408 211.747 45.0028 211.747 43.9091C211.747 42.812 211.951 41.8741 212.359 41.0952C212.77 40.313 213.327 39.7147 214.029 39.3004C214.735 38.8861 215.534 38.679 216.426 38.679C217.317 38.679 218.114 38.8861 218.817 39.3004C219.523 39.7147 220.08 40.313 220.488 41.0952C220.899 41.8741 221.104 42.812 221.104 43.9091ZM219.25 43.9091C219.25 43.1368 219.129 42.4856 218.887 41.9553C218.648 41.4216 218.317 41.0189 217.892 40.7472C217.468 40.4721 216.979 40.3345 216.426 40.3345C215.872 40.3345 215.383 40.4721 214.959 40.7472C214.535 41.0189 214.202 41.4216 213.96 41.9553C213.721 42.4856 213.602 43.1368 213.602 43.9091C213.602 44.6813 213.721 45.3343 213.96 45.8679C214.202 46.3982 214.535 46.8009 214.959 47.076C215.383 47.3478 215.872 47.4837 216.426 47.4837C216.979 47.4837 217.468 47.3478 217.892 47.076C218.317 46.8009 218.648 46.3982 218.887 45.8679C219.129 45.3343 219.25 44.6813 219.25 43.9091Z" fill="white"/>
<defs>
<linearGradient id="paint0_linear_867_503" x1="7.5" y1="0" x2="7.5" y2="85" gradientUnits="userSpaceOnUse">
<stop stop-color="#460BFF"/>
<stop offset="1" stop-color="#100336"/>
</linearGradient>
<linearGradient id="paint1_linear_867_503" x1="7.5" y1="85" x2="7.5" y2="155" gradientUnits="userSpaceOnUse">
<stop stop-color="#410AEE"/>
<stop offset="1" stop-color="#100336"/>
</linearGradient>
<linearGradient id="paint2_linear_867_503" x1="7.5" y1="155" x2="7.5" y2="225" gradientUnits="userSpaceOnUse">
<stop stop-color="#400AEB"/>
<stop offset="1" stop-color="#100336"/>
</linearGradient>
<linearGradient id="paint3_linear_867_503" x1="7.5" y1="225" x2="7.5" y2="295" gradientUnits="userSpaceOnUse">
<stop stop-color="#460BFF"/>
<stop offset="1" stop-color="#100336"/>
</linearGradient>
</defs>
</svg>
