<svg width="299" height="77" viewBox="0 0 299 77" fill="none" xmlns="http://www.w3.org/2000/svg">
<g filter="url(#filter0_d_1063_313)">
<path d="M13 24.5725C13 11.0015 24.0015 0 37.5725 0H286C286 27.142 263.997 49.145 236.855 49.145H37.5725C24.0015 49.145 13 38.1435 13 24.5725Z" fill="white"/>
<path d="M13.5 24.5725C13.5 11.2776 24.2776 0.5 37.5725 0.5H285.497C285.229 27.1356 263.554 48.645 236.855 48.645H37.5725C24.2776 48.645 13.5 37.8674 13.5 24.5725Z" stroke="#2020B3"/>
</g>
<path d="M99.6537 27.5654C99.6537 27.3662 99.6244 27.1875 99.5658 27.0293C99.5072 26.8652 99.3988 26.7129 99.2406 26.5723C99.0824 26.4316 98.8539 26.291 98.5551 26.1504C98.2621 26.0039 97.8754 25.8516 97.3949 25.6934C96.8324 25.5059 96.2904 25.2949 95.7689 25.0605C95.2475 24.8203 94.7816 24.542 94.3715 24.2256C93.9613 23.9033 93.6361 23.5283 93.3959 23.1006C93.1557 22.667 93.0355 22.1631 93.0355 21.5889C93.0355 21.0381 93.1586 20.543 93.4047 20.1035C93.6508 19.6582 93.9936 19.2803 94.433 18.9697C94.8783 18.6533 95.3998 18.4131 95.9975 18.249C96.5951 18.0791 97.2484 17.9941 97.9574 17.9941C98.8949 17.9941 99.7211 18.1582 100.436 18.4863C101.157 18.8086 101.719 19.2686 102.123 19.8662C102.534 20.458 102.739 21.1582 102.739 21.9668H99.6713C99.6713 21.6445 99.6039 21.3604 99.4691 21.1143C99.3402 20.8682 99.1439 20.6748 98.8803 20.5342C98.6166 20.3936 98.2855 20.3232 97.8871 20.3232C97.5004 20.3232 97.1752 20.3818 96.9115 20.499C96.6479 20.6162 96.4486 20.7744 96.3139 20.9736C96.1791 21.167 96.1117 21.3809 96.1117 21.6152C96.1117 21.8086 96.1645 21.9844 96.2699 22.1426C96.3812 22.2949 96.5365 22.4385 96.7357 22.5732C96.9408 22.708 97.1869 22.8369 97.474 22.96C97.767 23.083 98.0951 23.2031 98.4584 23.3203C99.1381 23.5371 99.7416 23.7803 100.269 24.0498C100.802 24.3135 101.25 24.6152 101.614 24.9551C101.983 25.2891 102.261 25.6699 102.449 26.0977C102.642 26.5254 102.739 27.0088 102.739 27.5479C102.739 28.1221 102.627 28.6318 102.405 29.0771C102.182 29.5225 101.863 29.9004 101.447 30.2109C101.031 30.5156 100.533 30.7471 99.9525 30.9053C99.3725 31.0635 98.725 31.1426 98.0102 31.1426C97.3539 31.1426 96.7064 31.0605 96.0678 30.8965C95.435 30.7266 94.8607 30.4688 94.3451 30.123C93.8295 29.7715 93.4164 29.3232 93.1059 28.7783C92.8012 28.2275 92.6488 27.5742 92.6488 26.8184H95.7426C95.7426 27.1934 95.7924 27.5098 95.892 27.7676C95.9916 28.0254 96.1381 28.2334 96.3314 28.3916C96.5248 28.5439 96.7621 28.6553 97.0434 28.7256C97.3246 28.79 97.6469 28.8223 98.0102 28.8223C98.4027 28.8223 98.7191 28.7666 98.9594 28.6553C99.1996 28.5381 99.3754 28.3857 99.4867 28.1982C99.598 28.0049 99.6537 27.7939 99.6537 27.5654ZM114.438 24.3135V24.832C114.438 25.8105 114.3 26.6895 114.025 27.4688C113.755 28.2422 113.371 28.9043 112.873 29.4551C112.375 30 111.786 30.4189 111.107 30.7119C110.427 30.999 109.677 31.1426 108.857 31.1426C108.03 31.1426 107.275 30.999 106.589 30.7119C105.909 30.4189 105.317 30 104.814 29.4551C104.316 28.9043 103.929 28.2422 103.653 27.4688C103.384 26.6895 103.249 25.8105 103.249 24.832V24.3135C103.249 23.335 103.384 22.4561 103.653 21.6768C103.929 20.8975 104.313 20.2354 104.805 19.6904C105.303 19.1396 105.892 18.7207 106.571 18.4336C107.257 18.1406 108.013 17.9941 108.839 17.9941C109.659 17.9941 110.409 18.1406 111.089 18.4336C111.775 18.7207 112.366 19.1396 112.864 19.6904C113.362 20.2354 113.749 20.8975 114.025 21.6768C114.3 22.4561 114.438 23.335 114.438 24.3135ZM111.309 24.832V24.2959C111.309 23.6631 111.253 23.1064 111.142 22.626C111.036 22.1396 110.878 21.7324 110.667 21.4043C110.456 21.0762 110.195 20.8301 109.885 20.666C109.58 20.4961 109.232 20.4111 108.839 20.4111C108.429 20.4111 108.071 20.4961 107.767 20.666C107.462 20.8301 107.207 21.0762 107.002 21.4043C106.797 21.7324 106.642 22.1396 106.536 22.626C106.437 23.1064 106.387 23.6631 106.387 24.2959V24.832C106.387 25.459 106.437 26.0156 106.536 26.502C106.642 26.9824 106.797 27.3896 107.002 27.7236C107.213 28.0576 107.471 28.3096 107.776 28.4795C108.086 28.6494 108.446 28.7344 108.857 28.7344C109.249 28.7344 109.598 28.6494 109.902 28.4795C110.207 28.3096 110.462 28.0576 110.667 27.7236C110.878 27.3896 111.036 26.9824 111.142 26.502C111.253 26.0156 111.309 25.459 111.309 24.832ZM117.251 18.1699L119.606 23.7246L121.971 18.1699H125.293L121.18 26.3701V30.9668H118.042V26.3701L113.92 18.1699H117.251ZM138.082 28.5938V30.9668H131.262V28.5938H138.082ZM132.361 18.1699V30.9668H129.276V18.1699H132.361ZM137.203 23.25V25.5439H131.262V23.25H137.203ZM138.109 18.1699V20.5518H131.262V18.1699H138.109ZM140.157 18.1699H142.671L145.527 27.0732L148.384 18.1699H150.897L146.547 30.9668H144.508L140.157 18.1699ZM138.628 18.1699H141.229L141.713 27.9785V30.9668H138.628V18.1699ZM149.825 18.1699H152.436V30.9668H149.342V27.9785L149.825 18.1699ZM158.8 26.625H155.618V24.2432H158.8C159.233 24.2432 159.585 24.1699 159.854 24.0234C160.124 23.877 160.32 23.6748 160.443 23.417C160.572 23.1533 160.636 22.8574 160.636 22.5293C160.636 22.1777 160.572 21.8525 160.443 21.5537C160.32 21.2549 160.124 21.0146 159.854 20.833C159.585 20.6455 159.233 20.5518 158.8 20.5518H156.778V30.9668H153.693V18.1699H158.8C159.825 18.1699 160.707 18.3574 161.445 18.7324C162.189 19.1074 162.76 19.623 163.159 20.2793C163.557 20.9297 163.757 21.6738 163.757 22.5117C163.757 23.3379 163.557 24.0586 163.159 24.6738C162.76 25.2891 162.189 25.7695 161.445 26.1152C160.707 26.4551 159.825 26.625 158.8 26.625ZM164.698 18.1699H169.734C170.718 18.1699 171.574 18.3164 172.3 18.6094C173.027 18.9023 173.586 19.3359 173.979 19.9102C174.377 20.4844 174.577 21.1934 174.577 22.0371C174.577 22.7695 174.462 23.3818 174.234 23.874C174.005 24.3662 173.686 24.7734 173.276 25.0957C172.872 25.4121 172.4 25.6729 171.861 25.8779L170.85 26.4492H166.622L166.605 24.0674H169.734C170.126 24.0674 170.452 23.9971 170.709 23.8564C170.967 23.7158 171.161 23.5166 171.289 23.2588C171.424 22.9951 171.492 22.6816 171.492 22.3184C171.492 21.9492 171.424 21.6328 171.289 21.3691C171.155 21.1055 170.956 20.9033 170.692 20.7627C170.434 20.6221 170.115 20.5518 169.734 20.5518H167.783V30.9668H164.698V18.1699ZM171.703 30.9668L168.872 25.3066L172.142 25.2891L175.007 30.835V30.9668H171.703ZM184.527 28.5938V30.9668H177.706V28.5938H184.527ZM178.805 18.1699V30.9668H175.72V18.1699H178.805ZM183.648 23.25V25.5439H177.706V23.25H183.648ZM184.553 18.1699V20.5518H177.706V18.1699H184.553ZM191.664 27.5654C191.664 27.3662 191.635 27.1875 191.576 27.0293C191.517 26.8652 191.409 26.7129 191.251 26.5723C191.093 26.4316 190.864 26.291 190.565 26.1504C190.272 26.0039 189.886 25.8516 189.405 25.6934C188.843 25.5059 188.301 25.2949 187.779 25.0605C187.258 24.8203 186.792 24.542 186.382 24.2256C185.972 23.9033 185.646 23.5283 185.406 23.1006C185.166 22.667 185.046 22.1631 185.046 21.5889C185.046 21.0381 185.169 20.543 185.415 20.1035C185.661 19.6582 186.004 19.2803 186.443 18.9697C186.889 18.6533 187.41 18.4131 188.008 18.249C188.605 18.0791 189.259 17.9941 189.968 17.9941C190.905 17.9941 191.731 18.1582 192.446 18.4863C193.167 18.8086 193.729 19.2686 194.134 19.8662C194.544 20.458 194.749 21.1582 194.749 21.9668H191.682C191.682 21.6445 191.614 21.3604 191.479 21.1143C191.35 20.8682 191.154 20.6748 190.891 20.5342C190.627 20.3936 190.296 20.3232 189.897 20.3232C189.511 20.3232 189.185 20.3818 188.922 20.499C188.658 20.6162 188.459 20.7744 188.324 20.9736C188.189 21.167 188.122 21.3809 188.122 21.6152C188.122 21.8086 188.175 21.9844 188.28 22.1426C188.391 22.2949 188.547 22.4385 188.746 22.5732C188.951 22.708 189.197 22.8369 189.484 22.96C189.777 23.083 190.105 23.2031 190.469 23.3203C191.148 23.5371 191.752 23.7803 192.279 24.0498C192.812 24.3135 193.261 24.6152 193.624 24.9551C193.993 25.2891 194.271 25.6699 194.459 26.0977C194.652 26.5254 194.749 27.0088 194.749 27.5479C194.749 28.1221 194.638 28.6318 194.415 29.0771C194.192 29.5225 193.873 29.9004 193.457 30.2109C193.041 30.5156 192.543 30.7471 191.963 30.9053C191.383 31.0635 190.735 31.1426 190.02 31.1426C189.364 31.1426 188.717 31.0605 188.078 30.8965C187.445 30.7266 186.871 30.4688 186.355 30.123C185.84 29.7715 185.427 29.3232 185.116 28.7783C184.811 28.2275 184.659 27.5742 184.659 26.8184H187.753C187.753 27.1934 187.803 27.5098 187.902 27.7676C188.002 28.0254 188.148 28.2334 188.342 28.3916C188.535 28.5439 188.772 28.6553 189.054 28.7256C189.335 28.79 189.657 28.8223 190.02 28.8223C190.413 28.8223 190.729 28.7666 190.97 28.6553C191.21 28.5381 191.386 28.3857 191.497 28.1982C191.608 28.0049 191.664 27.7939 191.664 27.5654ZM201.043 20.8594L197.922 30.9668H194.609L199.311 18.1699H201.412L201.043 20.8594ZM203.627 30.9668L200.498 20.8594L200.093 18.1699H202.22L206.949 30.9668H203.627ZM203.504 26.1943V28.5762H196.938V26.1943H203.504Z" fill="#2020B3"/>
<defs>
<filter id="filter0_d_1063_313" x="0" y="0" width="299" height="76.1445" filterUnits="userSpaceOnUse" color-interpolation-filters="sRGB">
<feFlood flood-opacity="0" result="BackgroundImageFix"/>
<feColorMatrix in="SourceAlpha" type="matrix" values="0 0 0 0 0 0 0 0 0 0 0 0 0 0 0 0 0 0 127 0" result="hardAlpha"/>
<feMorphology radius="2" operator="erode" in="SourceAlpha" result="effect1_dropShadow_1063_313"/>
<feOffset dy="14"/>
<feGaussianBlur stdDeviation="7.5"/>
<feComposite in2="hardAlpha" operator="out"/>
<feColorMatrix type="matrix" values="0 0 0 0 0.12549 0 0 0 0 0.12549 0 0 0 0 0.701961 0 0 0 1 0"/>
<feBlend mode="normal" in2="BackgroundImageFix" result="effect1_dropShadow_1063_313"/>
<feBlend mode="normal" in="SourceGraphic" in2="effect1_dropShadow_1063_313" result="shape"/>
</filter>
</defs>
</svg>
