<svg width="297" height="75" viewBox="0 0 297 75" fill="none" xmlns="http://www.w3.org/2000/svg">
<g filter="url(#filter0_d_1063_310)">
<path d="M12 0H260.427C273.999 0 285 11.0015 285 24.5725C285 38.1435 273.999 49.145 260.427 49.145H61.145C34.003 49.145 12 27.142 12 0Z" fill="white"/>
<path d="M61.145 48.645C34.446 48.645 12.7707 27.1356 12.5025 0.5H260.427C273.722 0.5 284.5 11.2776 284.5 24.5725C284.5 37.8674 273.722 48.645 260.427 48.645H61.145Z" stroke="#75B300"/>
</g>
<path d="M101.238 27.5654C101.238 27.3662 101.208 27.1875 101.15 27.0293C101.091 26.8652 100.983 26.7129 100.825 26.5723C100.666 26.4316 100.438 26.291 100.139 26.1504C99.8461 26.0039 99.4594 25.8516 98.9789 25.6934C98.4164 25.5059 97.8744 25.2949 97.3529 25.0605C96.8314 24.8203 96.3656 24.542 95.9555 24.2256C95.5453 23.9033 95.2201 23.5283 94.9799 23.1006C94.7396 22.667 94.6195 22.1631 94.6195 21.5889C94.6195 21.0381 94.7426 20.543 94.9887 20.1035C95.2348 19.6582 95.5775 19.2803 96.017 18.9697C96.4623 18.6533 96.9838 18.4131 97.5814 18.249C98.1791 18.0791 98.8324 17.9941 99.5414 17.9941C100.479 17.9941 101.305 18.1582 102.02 18.4863C102.741 18.8086 103.303 19.2686 103.707 19.8662C104.118 20.458 104.323 21.1582 104.323 21.9668H101.255C101.255 21.6445 101.188 21.3604 101.053 21.1143C100.924 20.8682 100.728 20.6748 100.464 20.5342C100.201 20.3936 99.8695 20.3232 99.4711 20.3232C99.0844 20.3232 98.7592 20.3818 98.4955 20.499C98.2318 20.6162 98.0326 20.7744 97.8979 20.9736C97.7631 21.167 97.6957 21.3809 97.6957 21.6152C97.6957 21.8086 97.7484 21.9844 97.8539 22.1426C97.9652 22.2949 98.1205 22.4385 98.3197 22.5732C98.5248 22.708 98.7709 22.8369 99.058 22.96C99.351 23.083 99.6791 23.2031 100.042 23.3203C100.722 23.5371 101.326 23.7803 101.853 24.0498C102.386 24.3135 102.834 24.6152 103.198 24.9551C103.567 25.2891 103.845 25.6699 104.033 26.0977C104.226 26.5254 104.323 27.0088 104.323 27.5479C104.323 28.1221 104.211 28.6318 103.989 29.0771C103.766 29.5225 103.447 29.9004 103.031 30.2109C102.615 30.5156 102.117 30.7471 101.537 30.9053C100.956 31.0635 100.309 31.1426 99.5941 31.1426C98.9379 31.1426 98.2904 31.0605 97.6518 30.8965C97.0189 30.7266 96.4447 30.4688 95.9291 30.123C95.4135 29.7715 95.0004 29.3232 94.6898 28.7783C94.3852 28.2275 94.2328 27.5742 94.2328 26.8184H97.3266C97.3266 27.1934 97.3764 27.5098 97.476 27.7676C97.5756 28.0254 97.7221 28.2334 97.9154 28.3916C98.1088 28.5439 98.3461 28.6553 98.6273 28.7256C98.9086 28.79 99.2309 28.8223 99.5941 28.8223C99.9867 28.8223 100.303 28.7666 100.543 28.6553C100.784 28.5381 100.959 28.3857 101.071 28.1982C101.182 28.0049 101.238 27.7939 101.238 27.5654ZM116.022 24.3135V24.832C116.022 25.8105 115.884 26.6895 115.609 27.4688C115.339 28.2422 114.955 28.9043 114.457 29.4551C113.959 30 113.37 30.4189 112.691 30.7119C112.011 30.999 111.261 31.1426 110.441 31.1426C109.614 31.1426 108.859 30.999 108.173 30.7119C107.493 30.4189 106.901 30 106.398 29.4551C105.9 28.9043 105.513 28.2422 105.237 27.4688C104.968 26.6895 104.833 25.8105 104.833 24.832V24.3135C104.833 23.335 104.968 22.4561 105.237 21.6768C105.513 20.8975 105.897 20.2354 106.389 19.6904C106.887 19.1396 107.476 18.7207 108.155 18.4336C108.841 18.1406 109.597 17.9941 110.423 17.9941C111.243 17.9941 111.993 18.1406 112.673 18.4336C113.359 18.7207 113.95 19.1396 114.448 19.6904C114.946 20.2354 115.333 20.8975 115.609 21.6768C115.884 22.4561 116.022 23.335 116.022 24.3135ZM112.893 24.832V24.2959C112.893 23.6631 112.837 23.1064 112.726 22.626C112.62 22.1396 112.462 21.7324 112.251 21.4043C112.04 21.0762 111.779 20.8301 111.469 20.666C111.164 20.4961 110.816 20.4111 110.423 20.4111C110.013 20.4111 109.655 20.4961 109.351 20.666C109.046 20.8301 108.791 21.0762 108.586 21.4043C108.381 21.7324 108.226 22.1396 108.12 22.626C108.021 23.1064 107.971 23.6631 107.971 24.2959V24.832C107.971 25.459 108.021 26.0156 108.12 26.502C108.226 26.9824 108.381 27.3896 108.586 27.7236C108.797 28.0576 109.055 28.3096 109.359 28.4795C109.67 28.6494 110.03 28.7344 110.441 28.7344C110.833 28.7344 111.182 28.6494 111.486 28.4795C111.791 28.3096 112.046 28.0576 112.251 27.7236C112.462 27.3896 112.62 26.9824 112.726 26.502C112.837 26.0156 112.893 25.459 112.893 24.832ZM118.835 18.1699L121.19 23.7246L123.555 18.1699H126.877L122.764 26.3701V30.9668H119.626V26.3701L115.504 18.1699H118.835ZM136.529 18.1699V30.9668H133.444V18.1699H136.529ZM140.378 18.1699V20.5518H129.682V18.1699H140.378ZM145.318 20.8594L142.198 30.9668H138.885L143.587 18.1699H145.688L145.318 20.8594ZM147.902 30.9668L144.773 20.8594L144.369 18.1699H146.496L151.225 30.9668H147.902ZM147.779 26.1943V28.5762H141.214V26.1943H147.779ZM159.9 28.5938V30.9668H153.431V28.5938H159.9ZM154.53 18.1699V30.9668H151.445V18.1699H154.53ZM169.288 28.5938V30.9668H162.467V28.5938H169.288ZM163.566 18.1699V30.9668H160.481V18.1699H163.566ZM168.409 23.25V25.5439H162.467V23.25H168.409ZM169.314 18.1699V20.5518H162.467V18.1699H169.314ZM180.521 18.1699V30.9668H177.444L172.918 23.0039V30.9668H169.833V18.1699H172.918L177.444 26.1328V18.1699H180.521ZM187.684 18.1699V30.9668H184.599V18.1699H187.684ZM191.534 18.1699V20.5518H180.838V18.1699H191.534ZM202.706 24.3135V24.832C202.706 25.8105 202.568 26.6895 202.293 27.4688C202.023 28.2422 201.639 28.9043 201.141 29.4551C200.643 30 200.054 30.4189 199.375 30.7119C198.695 30.999 197.945 31.1426 197.125 31.1426C196.298 31.1426 195.543 30.999 194.857 30.7119C194.177 30.4189 193.586 30 193.082 29.4551C192.584 28.9043 192.197 28.2422 191.921 27.4688C191.652 26.6895 191.517 25.8105 191.517 24.832V24.3135C191.517 23.335 191.652 22.4561 191.921 21.6768C192.197 20.8975 192.581 20.2354 193.073 19.6904C193.571 19.1396 194.16 18.7207 194.839 18.4336C195.525 18.1406 196.281 17.9941 197.107 17.9941C197.927 17.9941 198.677 18.1406 199.357 18.4336C200.043 18.7207 200.634 19.1396 201.132 19.6904C201.63 20.2354 202.017 20.8975 202.293 21.6768C202.568 22.4561 202.706 23.335 202.706 24.3135ZM199.577 24.832V24.2959C199.577 23.6631 199.521 23.1064 199.41 22.626C199.304 22.1396 199.146 21.7324 198.935 21.4043C198.724 21.0762 198.463 20.8301 198.153 20.666C197.848 20.4961 197.5 20.4111 197.107 20.4111C196.697 20.4111 196.339 20.4961 196.035 20.666C195.73 20.8301 195.475 21.0762 195.27 21.4043C195.065 21.7324 194.91 22.1396 194.804 22.626C194.705 23.1064 194.655 23.6631 194.655 24.2959V24.832C194.655 25.459 194.705 26.0156 194.804 26.502C194.91 26.9824 195.065 27.3896 195.27 27.7236C195.481 28.0576 195.739 28.3096 196.044 28.4795C196.354 28.6494 196.714 28.7344 197.125 28.7344C197.517 28.7344 197.866 28.6494 198.171 28.4795C198.475 28.3096 198.73 28.0576 198.935 27.7236C199.146 27.3896 199.304 26.9824 199.41 26.502C199.521 26.0156 199.577 25.459 199.577 24.832Z" fill="#75B300"/>
<defs>
<filter id="filter0_d_1063_310" x="0.6" y="0" width="295.8" height="74.5445" filterUnits="userSpaceOnUse" color-interpolation-filters="sRGB">
<feFlood flood-opacity="0" result="BackgroundImageFix"/>
<feColorMatrix in="SourceAlpha" type="matrix" values="0 0 0 0 0 0 0 0 0 0 0 0 0 0 0 0 0 0 127 0" result="hardAlpha"/>
<feMorphology radius="2" operator="erode" in="SourceAlpha" result="effect1_dropShadow_1063_310"/>
<feOffset dy="14"/>
<feGaussianBlur stdDeviation="6.7"/>
<feComposite in2="hardAlpha" operator="out"/>
<feColorMatrix type="matrix" values="0 0 0 0 0.458824 0 0 0 0 0.701961 0 0 0 0 0 0 0 0 1 0"/>
<feBlend mode="normal" in2="BackgroundImageFix" result="effect1_dropShadow_1063_310"/>
<feBlend mode="normal" in="SourceGraphic" in2="effect1_dropShadow_1063_310" result="shape"/>
</filter>
</defs>
</svg>
