<svg width="782" height="73" viewBox="0 0 782 73" fill="none" xmlns="http://www.w3.org/2000/svg">
<g filter="url(#filter0_d_281_7711)">
<path d="M0 30.5C0 13.6553 13.6553 0 30.5 0H782V11C782 38.6142 759.614 61 732 61H30.5C13.6553 61 0 47.3447 0 30.5Z" fill="white"/>
<path d="M0.5 30.5C0.5 13.9315 13.9315 0.5 30.5 0.5H781.5V11C781.5 38.3381 759.338 60.5 732 60.5H30.5C13.9314 60.5 0.5 47.0685 0.5 30.5Z" stroke="#2020B3"/>
</g>
<path d="M272.387 51.3418L273.051 31.5957H277.738L278.383 51.3418H272.387ZM278.539 25.541C278.539 26.3613 278.253 27.0514 277.68 27.6113C277.107 28.1582 276.339 28.4316 275.375 28.4316C274.424 28.4316 273.656 28.1582 273.07 27.6113C272.497 27.0514 272.211 26.3613 272.211 25.541C272.211 24.7207 272.497 24.0306 273.07 23.4707C273.656 22.9108 274.424 22.6309 275.375 22.6309C276.339 22.6309 277.107 22.9108 277.68 23.4707C278.253 24.0306 278.539 24.7207 278.539 25.541ZM294.711 31.6738H287.406L287.367 27.6504H293.5C294.581 27.6504 295.466 27.5137 296.156 27.2402C296.846 26.9538 297.361 26.5436 297.699 26.0098C298.051 25.4629 298.227 24.7988 298.227 24.0176C298.227 23.1322 298.057 22.416 297.719 21.8691C297.393 21.3223 296.879 20.9251 296.176 20.6777C295.486 20.4303 294.594 20.3066 293.5 20.3066H289.438V44.1543H283.578V15.7168H293.5C295.154 15.7168 296.632 15.873 297.934 16.1855C299.249 16.498 300.362 16.9733 301.273 17.6113C302.185 18.2493 302.882 19.0566 303.363 20.0332C303.845 20.9967 304.086 22.1426 304.086 23.4707C304.086 24.6426 303.819 25.7233 303.285 26.7129C302.764 27.7025 301.938 28.5098 300.805 29.1348C299.685 29.7598 298.22 30.1048 296.41 30.1699L294.711 31.6738ZM294.457 44.1543H285.805L288.09 39.584H294.457C295.486 39.584 296.326 39.4212 296.977 39.0957C297.628 38.7572 298.109 38.3014 298.422 37.7285C298.734 37.1556 298.891 36.498 298.891 35.7559C298.891 34.9225 298.747 34.1999 298.461 33.5879C298.188 32.9759 297.745 32.5072 297.133 32.1816C296.521 31.8431 295.714 31.6738 294.711 31.6738H289.066L289.105 27.6504H296.137L297.484 29.2324C299.216 29.2064 300.609 29.5124 301.664 30.1504C302.732 30.7754 303.507 31.5892 303.988 32.5918C304.483 33.5944 304.73 34.6686 304.73 35.8145C304.73 37.6374 304.333 39.1738 303.539 40.4238C302.745 41.6608 301.579 42.5918 300.043 43.2168C298.52 43.8418 296.658 44.1543 294.457 44.1543ZM314.711 23.0215V44.1543H309.066V23.0215H314.711ZM308.715 17.5137C308.715 16.6934 309.001 16.0163 309.574 15.4824C310.147 14.9486 310.915 14.6816 311.879 14.6816C312.829 14.6816 313.591 14.9486 314.164 15.4824C314.75 16.0163 315.043 16.6934 315.043 17.5137C315.043 18.334 314.75 19.0111 314.164 19.5449C313.591 20.0788 312.829 20.3457 311.879 20.3457C310.915 20.3457 310.147 20.0788 309.574 19.5449C309.001 19.0111 308.715 18.334 308.715 17.5137ZM329.086 44.5449C327.445 44.5449 325.974 44.2845 324.672 43.7637C323.37 43.2298 322.263 42.4941 321.352 41.5566C320.453 40.6191 319.763 39.5319 319.281 38.2949C318.799 37.0449 318.559 35.7168 318.559 34.3105V33.5293C318.559 31.9277 318.786 30.4629 319.242 29.1348C319.698 27.8066 320.349 26.6543 321.195 25.6777C322.055 24.7012 323.096 23.9525 324.32 23.4316C325.544 22.8978 326.924 22.6309 328.461 22.6309C329.958 22.6309 331.286 22.8783 332.445 23.373C333.604 23.8678 334.574 24.571 335.355 25.4824C336.15 26.3939 336.749 27.4876 337.152 28.7637C337.556 30.0267 337.758 31.4329 337.758 32.9824V35.3262H320.961V31.5762H332.23V31.1465C332.23 30.3652 332.087 29.6686 331.801 29.0566C331.527 28.4316 331.111 27.9368 330.551 27.5723C329.991 27.2077 329.275 27.0254 328.402 27.0254C327.66 27.0254 327.022 27.1882 326.488 27.5137C325.954 27.8392 325.518 28.2949 325.18 28.8809C324.854 29.4668 324.607 30.1569 324.438 30.9512C324.281 31.7324 324.203 32.5918 324.203 33.5293V34.3105C324.203 35.1569 324.32 35.9382 324.555 36.6543C324.802 37.3704 325.147 37.9889 325.59 38.5098C326.046 39.0306 326.592 39.4342 327.23 39.7207C327.882 40.0072 328.617 40.1504 329.438 40.1504C330.453 40.1504 331.397 39.9551 332.27 39.5645C333.155 39.1608 333.917 38.5553 334.555 37.748L337.289 40.7168C336.846 41.3548 336.241 41.9668 335.473 42.5527C334.717 43.1387 333.806 43.6204 332.738 43.998C331.671 44.3626 330.453 44.5449 329.086 44.5449ZM346.469 27.5332V44.1543H340.844V23.0215H346.117L346.469 27.5332ZM345.648 32.8457H344.125C344.125 31.2832 344.327 29.877 344.73 28.627C345.134 27.3639 345.701 26.2897 346.43 25.4043C347.159 24.5059 348.025 23.8223 349.027 23.3535C350.043 22.8717 351.176 22.6309 352.426 22.6309C353.415 22.6309 354.32 22.7741 355.141 23.0605C355.961 23.347 356.664 23.8027 357.25 24.4277C357.849 25.0527 358.305 25.8796 358.617 26.9082C358.943 27.9368 359.105 29.1934 359.105 30.6777V44.1543H353.441V30.6582C353.441 29.7207 353.311 28.9915 353.051 28.4707C352.79 27.9499 352.406 27.5853 351.898 27.377C351.404 27.1556 350.792 27.0449 350.062 27.0449C349.307 27.0449 348.65 27.1947 348.09 27.4941C347.543 27.7936 347.087 28.2103 346.723 28.7441C346.371 29.265 346.104 29.877 345.922 30.5801C345.74 31.2832 345.648 32.0384 345.648 32.8457ZM370.57 40.0527L375.258 23.0215H381.137L374.008 44.1543H370.453L370.57 40.0527ZM367.348 23.0215L372.055 40.0723L372.152 44.1543H368.578L361.449 23.0215H367.348ZM393.109 44.5449C391.469 44.5449 389.997 44.2845 388.695 43.7637C387.393 43.2298 386.286 42.4941 385.375 41.5566C384.477 40.6191 383.786 39.5319 383.305 38.2949C382.823 37.0449 382.582 35.7168 382.582 34.3105V33.5293C382.582 31.9277 382.81 30.4629 383.266 29.1348C383.721 27.8066 384.372 26.6543 385.219 25.6777C386.078 24.7012 387.12 23.9525 388.344 23.4316C389.568 22.8978 390.948 22.6309 392.484 22.6309C393.982 22.6309 395.31 22.8783 396.469 23.373C397.628 23.8678 398.598 24.571 399.379 25.4824C400.173 26.3939 400.772 27.4876 401.176 28.7637C401.579 30.0267 401.781 31.4329 401.781 32.9824V35.3262H384.984V31.5762H396.254V31.1465C396.254 30.3652 396.111 29.6686 395.824 29.0566C395.551 28.4316 395.134 27.9368 394.574 27.5723C394.014 27.2077 393.298 27.0254 392.426 27.0254C391.684 27.0254 391.046 27.1882 390.512 27.5137C389.978 27.8392 389.542 28.2949 389.203 28.8809C388.878 29.4668 388.63 30.1569 388.461 30.9512C388.305 31.7324 388.227 32.5918 388.227 33.5293V34.3105C388.227 35.1569 388.344 35.9382 388.578 36.6543C388.826 37.3704 389.171 37.9889 389.613 38.5098C390.069 39.0306 390.616 39.4342 391.254 39.7207C391.905 40.0072 392.641 40.1504 393.461 40.1504C394.477 40.1504 395.421 39.9551 396.293 39.5645C397.178 39.1608 397.94 38.5553 398.578 37.748L401.312 40.7168C400.87 41.3548 400.264 41.9668 399.496 42.5527C398.741 43.1387 397.829 43.6204 396.762 43.998C395.694 44.3626 394.477 44.5449 393.109 44.5449ZM410.492 27.5332V44.1543H404.867V23.0215H410.141L410.492 27.5332ZM409.672 32.8457H408.148C408.148 31.2832 408.35 29.877 408.754 28.627C409.158 27.3639 409.724 26.2897 410.453 25.4043C411.182 24.5059 412.048 23.8223 413.051 23.3535C414.066 22.8717 415.199 22.6309 416.449 22.6309C417.439 22.6309 418.344 22.7741 419.164 23.0605C419.984 23.347 420.688 23.8027 421.273 24.4277C421.872 25.0527 422.328 25.8796 422.641 26.9082C422.966 27.9368 423.129 29.1934 423.129 30.6777V44.1543H417.465V30.6582C417.465 29.7207 417.335 28.9915 417.074 28.4707C416.814 27.9499 416.43 27.5853 415.922 27.377C415.427 27.1556 414.815 27.0449 414.086 27.0449C413.331 27.0449 412.673 27.1947 412.113 27.4941C411.566 27.7936 411.111 28.2103 410.746 28.7441C410.395 29.265 410.128 29.877 409.945 30.5801C409.763 31.2832 409.672 32.0384 409.672 32.8457ZM433.344 23.0215V44.1543H427.699V23.0215H433.344ZM427.348 17.5137C427.348 16.6934 427.634 16.0163 428.207 15.4824C428.78 14.9486 429.548 14.6816 430.512 14.6816C431.462 14.6816 432.224 14.9486 432.797 15.4824C433.383 16.0163 433.676 16.6934 433.676 17.5137C433.676 18.334 433.383 19.0111 432.797 19.5449C432.224 20.0788 431.462 20.3457 430.512 20.3457C429.548 20.3457 428.78 20.0788 428.207 19.5449C427.634 19.0111 427.348 18.334 427.348 17.5137ZM450.473 39.5449V14.1543H456.137V44.1543H451.039L450.473 39.5449ZM437.113 33.8418V33.4316C437.113 31.8171 437.296 30.3522 437.66 29.0371C438.025 27.709 438.559 26.5697 439.262 25.6191C439.965 24.6686 440.831 23.9329 441.859 23.4121C442.888 22.8913 444.06 22.6309 445.375 22.6309C446.612 22.6309 447.693 22.8913 448.617 23.4121C449.555 23.9329 450.349 24.6751 451 25.6387C451.664 26.5892 452.198 27.7155 452.602 29.0176C453.005 30.3066 453.298 31.7194 453.48 33.2559V34.1543C453.298 35.6257 453.005 36.9928 452.602 38.2559C452.198 39.5189 451.664 40.6257 451 41.5762C450.349 42.5137 449.555 43.2428 448.617 43.7637C447.68 44.2845 446.586 44.5449 445.336 44.5449C444.021 44.5449 442.849 44.278 441.82 43.7441C440.805 43.2103 439.945 42.4616 439.242 41.498C438.552 40.5345 438.025 39.4017 437.66 38.0996C437.296 36.7975 437.113 35.3783 437.113 33.8418ZM442.738 33.4316V33.8418C442.738 34.7142 442.803 35.528 442.934 36.2832C443.077 37.0384 443.305 37.709 443.617 38.2949C443.943 38.8678 444.359 39.3171 444.867 39.6426C445.388 39.9551 446.02 40.1113 446.762 40.1113C447.725 40.1113 448.52 39.8965 449.145 39.4668C449.77 39.0241 450.245 38.4186 450.57 37.6504C450.909 36.8822 451.104 35.9967 451.156 34.9941V32.4355C451.117 31.6152 451 30.8796 450.805 30.2285C450.622 29.5645 450.349 28.998 449.984 28.5293C449.633 28.0605 449.19 27.696 448.656 27.4355C448.135 27.1751 447.517 27.0449 446.801 27.0449C446.072 27.0449 445.447 27.2142 444.926 27.5527C444.405 27.8783 443.982 28.3275 443.656 28.9004C443.344 29.4733 443.109 30.1504 442.953 30.9316C442.81 31.6999 442.738 32.5332 442.738 33.4316ZM459.633 33.8027V33.3926C459.633 31.8431 459.854 30.4173 460.297 29.1152C460.74 27.8001 461.384 26.6608 462.23 25.6973C463.077 24.7337 464.118 23.985 465.355 23.4512C466.592 22.9043 468.012 22.6309 469.613 22.6309C471.215 22.6309 472.641 22.9043 473.891 23.4512C475.141 23.985 476.189 24.7337 477.035 25.6973C477.895 26.6608 478.546 27.8001 478.988 29.1152C479.431 30.4173 479.652 31.8431 479.652 33.3926V33.8027C479.652 35.3392 479.431 36.765 478.988 38.0801C478.546 39.3822 477.895 40.5215 477.035 41.498C476.189 42.4616 475.147 43.2103 473.91 43.7441C472.673 44.278 471.254 44.5449 469.652 44.5449C468.051 44.5449 466.625 44.278 465.375 43.7441C464.138 43.2103 463.09 42.4616 462.23 41.498C461.384 40.5215 460.74 39.3822 460.297 38.0801C459.854 36.765 459.633 35.3392 459.633 33.8027ZM465.258 33.3926V33.8027C465.258 34.6882 465.336 35.515 465.492 36.2832C465.648 37.0514 465.896 37.7285 466.234 38.3145C466.586 38.8874 467.042 39.3366 467.602 39.6621C468.161 39.9876 468.845 40.1504 469.652 40.1504C470.434 40.1504 471.104 39.9876 471.664 39.6621C472.224 39.3366 472.673 38.8874 473.012 38.3145C473.35 37.7285 473.598 37.0514 473.754 36.2832C473.923 35.515 474.008 34.6882 474.008 33.8027V33.3926C474.008 32.5332 473.923 31.7259 473.754 30.9707C473.598 30.2025 473.344 29.5254 472.992 28.9395C472.654 28.3405 472.204 27.8717 471.645 27.5332C471.085 27.1947 470.408 27.0254 469.613 27.0254C468.819 27.0254 468.142 27.1947 467.582 27.5332C467.035 27.8717 466.586 28.3405 466.234 28.9395C465.896 29.5254 465.648 30.2025 465.492 30.9707C465.336 31.7259 465.258 32.5332 465.258 33.3926ZM494.535 38.3145C494.535 37.9108 494.418 37.5462 494.184 37.2207C493.949 36.8952 493.513 36.5957 492.875 36.3223C492.25 36.0358 491.345 35.7754 490.16 35.541C489.092 35.3066 488.096 35.0137 487.172 34.6621C486.26 34.2975 485.466 33.8613 484.789 33.3535C484.125 32.8457 483.604 32.2467 483.227 31.5566C482.849 30.8535 482.66 30.0527 482.66 29.1543C482.66 28.2689 482.849 27.4355 483.227 26.6543C483.617 25.873 484.171 25.1829 484.887 24.584C485.616 23.972 486.501 23.4967 487.543 23.1582C488.598 22.8066 489.783 22.6309 491.098 22.6309C492.934 22.6309 494.509 22.9238 495.824 23.5098C497.152 24.0957 498.168 24.903 498.871 25.9316C499.587 26.9473 499.945 28.1061 499.945 29.4082H494.32C494.32 28.8613 494.203 28.373 493.969 27.9434C493.747 27.5007 493.396 27.1556 492.914 26.9082C492.445 26.6478 491.833 26.5176 491.078 26.5176C490.453 26.5176 489.913 26.6283 489.457 26.8496C489.001 27.0579 488.65 27.3444 488.402 27.709C488.168 28.0605 488.051 28.4512 488.051 28.8809C488.051 29.2064 488.116 29.4993 488.246 29.7598C488.389 30.0072 488.617 30.235 488.93 30.4434C489.242 30.6517 489.646 30.847 490.141 31.0293C490.648 31.1986 491.273 31.3548 492.016 31.498C493.539 31.8105 494.9 32.2207 496.098 32.7285C497.296 33.2233 498.246 33.9004 498.949 34.7598C499.652 35.6061 500.004 36.7194 500.004 38.0996C500.004 39.0371 499.796 39.8965 499.379 40.6777C498.962 41.459 498.363 42.1426 497.582 42.7285C496.801 43.3014 495.863 43.7507 494.77 44.0762C493.689 44.3887 492.471 44.5449 491.117 44.5449C489.151 44.5449 487.484 44.1934 486.117 43.4902C484.763 42.7871 483.734 41.8952 483.031 40.8145C482.341 39.7207 481.996 38.6009 481.996 37.4551H487.328C487.354 38.2233 487.549 38.8418 487.914 39.3105C488.292 39.7793 488.767 40.1178 489.34 40.3262C489.926 40.5345 490.557 40.6387 491.234 40.6387C491.964 40.6387 492.569 40.541 493.051 40.3457C493.533 40.1374 493.897 39.8639 494.145 39.5254C494.405 39.1738 494.535 38.7702 494.535 38.3145ZM510.004 15.7168L509.359 35.4629H504.672L504.008 15.7168H510.004ZM503.852 41.5762C503.852 40.7428 504.138 40.0527 504.711 39.5059C505.297 38.946 506.065 38.666 507.016 38.666C507.979 38.666 508.747 38.946 509.32 39.5059C509.893 40.0527 510.18 40.7428 510.18 41.5762C510.18 42.3835 509.893 43.0671 509.32 43.627C508.747 44.1868 507.979 44.4668 507.016 44.4668C506.065 44.4668 505.297 44.1868 504.711 43.627C504.138 43.0671 503.852 42.3835 503.852 41.5762Z" fill="#460BFF"/>
<defs>
<filter id="filter0_d_281_7711" x="0" y="0" width="782" height="73" filterUnits="userSpaceOnUse" color-interpolation-filters="sRGB">
<feFlood flood-opacity="0" result="BackgroundImageFix"/>
<feColorMatrix in="SourceAlpha" type="matrix" values="0 0 0 0 0 0 0 0 0 0 0 0 0 0 0 0 0 0 127 0" result="hardAlpha"/>
<feMorphology radius="2" operator="erode" in="SourceAlpha" result="effect1_dropShadow_281_7711"/>
<feOffset dy="14"/>
<feComposite in2="hardAlpha" operator="out"/>
<feColorMatrix type="matrix" values="0 0 0 0 0.12549 0 0 0 0 0.12549 0 0 0 0 0.701961 0 0 0 1 0"/>
<feBlend mode="normal" in2="BackgroundImageFix" result="effect1_dropShadow_281_7711"/>
<feBlend mode="normal" in="SourceGraphic" in2="effect1_dropShadow_281_7711" result="shape"/>
</filter>
</defs>
</svg>
