<svg width="232" height="36" viewBox="0 0 232 36" fill="none" xmlns="http://www.w3.org/2000/svg">
<path d="M1.03738 35.8281L1.66824 17.0693H6.12137L6.73367 35.8281H1.03738ZM6.88211 11.3174C6.88211 12.0967 6.60998 12.7523 6.0657 13.2842C5.52143 13.8037 4.79162 14.0635 3.87625 14.0635C2.97326 14.0635 2.24344 13.8037 1.6868 13.2842C1.14253 12.7523 0.870392 12.0967 0.870392 11.3174C0.870392 10.5381 1.14253 9.88249 1.6868 9.35059C2.24344 8.81868 2.97326 8.55273 3.87625 8.55273C4.79162 8.55273 5.52143 8.81868 6.0657 9.35059C6.60998 9.88249 6.88211 10.5381 6.88211 11.3174ZM22.6254 17.1436H15.6859L15.6488 13.3213H21.475C22.5017 13.3213 23.3428 13.1914 23.9984 12.9316C24.654 12.6595 25.1426 12.2699 25.4643 11.7627C25.7982 11.2432 25.9652 10.6123 25.9652 9.87012C25.9652 9.02897 25.8044 8.34863 25.4828 7.8291C25.1736 7.30957 24.685 6.93229 24.017 6.69727C23.3614 6.46224 22.5141 6.34473 21.475 6.34473H17.6156V29H12.0492V1.98438H21.475C23.046 1.98438 24.4499 2.13281 25.6869 2.42969C26.9363 2.72656 27.9939 3.17806 28.8598 3.78418C29.7256 4.3903 30.3874 5.15723 30.8451 6.08496C31.3028 7.00033 31.5316 8.08887 31.5316 9.35059C31.5316 10.4639 31.2781 11.4906 30.7709 12.4307C30.2761 13.3708 29.4906 14.1377 28.4145 14.7314C27.3506 15.3252 25.959 15.653 24.2396 15.7148L22.6254 17.1436ZM22.3842 29H14.1645L16.3354 24.6582H22.3842C23.3614 24.6582 24.1592 24.5036 24.7777 24.1943C25.3962 23.8727 25.8539 23.4398 26.1508 22.8955C26.4477 22.3512 26.5961 21.7266 26.5961 21.0215C26.5961 20.2298 26.46 19.5433 26.1879 18.9619C25.9281 18.3805 25.5076 17.9352 24.9262 17.626C24.3448 17.3044 23.5779 17.1436 22.6254 17.1436H17.2631L17.3002 13.3213H23.9799L25.2602 14.8242C26.9053 14.7995 28.2289 15.0902 29.2309 15.6963C30.2452 16.29 30.9812 17.0632 31.4389 18.0156C31.9089 18.9681 32.1439 19.9886 32.1439 21.0771C32.1439 22.8089 31.7667 24.2686 31.0121 25.4561C30.2576 26.6312 29.1505 27.5156 27.6908 28.1094C26.2436 28.7031 24.4747 29 22.3842 29ZM42.0054 8.92383V29H36.6431V8.92383H42.0054ZM36.3091 3.69141C36.3091 2.91211 36.5812 2.26888 37.1255 1.76172C37.6698 1.25456 38.3996 1.00098 39.315 1.00098C40.218 1.00098 40.9416 1.25456 41.4859 1.76172C42.0425 2.26888 42.3208 2.91211 42.3208 3.69141C42.3208 4.4707 42.0425 5.11393 41.4859 5.62109C40.9416 6.12826 40.218 6.38184 39.315 6.38184C38.3996 6.38184 37.6698 6.12826 37.1255 5.62109C36.5812 5.11393 36.3091 4.4707 36.3091 3.69141ZM56.0416 29.3711C54.483 29.3711 53.0853 29.1237 51.8483 28.6289C50.6113 28.1217 49.5599 27.4229 48.694 26.5322C47.8405 25.6416 47.1849 24.6087 46.7272 23.4336C46.2695 22.2461 46.0407 20.9844 46.0407 19.6484V18.9062C46.0407 17.3848 46.2571 15.9932 46.6901 14.7314C47.123 13.4697 47.7415 12.375 48.5455 11.4473C49.362 10.5195 50.3515 9.80827 51.5143 9.31348C52.6771 8.80632 53.9883 8.55273 55.4479 8.55273C56.8704 8.55273 58.1321 8.78776 59.233 9.25781C60.334 9.72786 61.2555 10.3958 61.9977 11.2617C62.7523 12.1276 63.3213 13.1667 63.7047 14.3789C64.0882 15.5788 64.2799 16.9147 64.2799 18.3867V20.6133H48.3229V17.0508H59.0289V16.6426C59.0289 15.9004 58.8929 15.2386 58.6207 14.6572C58.361 14.0635 57.9651 13.5934 57.4332 13.2471C56.9013 12.9007 56.221 12.7275 55.3922 12.7275C54.6871 12.7275 54.081 12.8822 53.5739 13.1914C53.0667 13.5007 52.6523 13.9336 52.3307 14.4902C52.0215 15.0469 51.7864 15.7025 51.6256 16.457C51.4772 17.1992 51.403 18.0156 51.403 18.9062V19.6484C51.403 20.4525 51.5143 21.1947 51.737 21.875C51.972 22.5553 52.2998 23.1429 52.7204 23.6377C53.1533 24.1325 53.6728 24.516 54.2789 24.7881C54.8974 25.0602 55.5963 25.1963 56.3756 25.1963C57.3405 25.1963 58.2373 25.0107 59.0661 24.6396C59.9072 24.2562 60.6308 23.681 61.237 22.9141L63.8346 25.7344C63.414 26.3405 62.8388 26.9219 62.109 27.4785C61.3916 28.0352 60.5257 28.4928 59.5114 28.8516C58.497 29.1979 57.3405 29.3711 56.0416 29.3711ZM72.9353 13.21V29H67.5916V8.92383H72.6013L72.9353 13.21ZM72.156 18.2568H70.7087C70.7087 16.7725 70.9005 15.4365 71.2839 14.249C71.6674 13.0492 72.2055 12.0286 72.8982 11.1875C73.5909 10.334 74.4135 9.68457 75.366 9.23926C76.3308 8.78158 77.407 8.55273 78.5945 8.55273C79.5346 8.55273 80.3943 8.6888 81.1736 8.96094C81.9529 9.23307 82.6208 9.66602 83.1775 10.2598C83.7465 10.8535 84.1794 11.639 84.4763 12.6162C84.7856 13.5934 84.9402 14.7871 84.9402 16.1973V29H79.5593V16.1787C79.5593 15.2881 79.4356 14.5954 79.1882 14.1006C78.9408 13.6058 78.5759 13.2594 78.0935 13.0615C77.6235 12.8512 77.0421 12.7461 76.3494 12.7461C75.6319 12.7461 75.0072 12.8883 74.4753 13.1729C73.9558 13.4574 73.5229 13.8532 73.1765 14.3604C72.8425 14.8551 72.5889 15.4365 72.4158 16.1045C72.2426 16.7725 72.156 17.4899 72.156 18.2568ZM96.2118 25.1035L100.665 8.92383H106.25L99.4774 29H96.1005L96.2118 25.1035ZM93.1503 8.92383L97.6219 25.1221L97.7147 29H94.3192L87.5468 8.92383H93.1503ZM118.004 29.3711C116.445 29.3711 115.048 29.1237 113.811 28.6289C112.574 28.1217 111.522 27.4229 110.656 26.5322C109.803 25.6416 109.147 24.6087 108.689 23.4336C108.232 22.2461 108.003 20.9844 108.003 19.6484V18.9062C108.003 17.3848 108.219 15.9932 108.652 14.7314C109.085 13.4697 109.704 12.375 110.508 11.4473C111.324 10.5195 112.314 9.80827 113.477 9.31348C114.639 8.80632 115.951 8.55273 117.41 8.55273C118.833 8.55273 120.094 8.78776 121.195 9.25781C122.296 9.72786 123.218 10.3958 123.96 11.2617C124.715 12.1276 125.284 13.1667 125.667 14.3789C126.05 15.5788 126.242 16.9147 126.242 18.3867V20.6133H110.285V17.0508H120.991V16.6426C120.991 15.9004 120.855 15.2386 120.583 14.6572C120.323 14.0635 119.927 13.5934 119.396 13.2471C118.864 12.9007 118.183 12.7275 117.354 12.7275C116.649 12.7275 116.043 12.8822 115.536 13.1914C115.029 13.5007 114.615 13.9336 114.293 14.4902C113.984 15.0469 113.749 15.7025 113.588 16.457C113.439 17.1992 113.365 18.0156 113.365 18.9062V19.6484C113.365 20.4525 113.477 21.1947 113.699 21.875C113.934 22.5553 114.262 23.1429 114.683 23.6377C115.116 24.1325 115.635 24.516 116.241 24.7881C116.86 25.0602 117.559 25.1963 118.338 25.1963C119.303 25.1963 120.2 25.0107 121.028 24.6396C121.869 24.2562 122.593 23.681 123.199 22.9141L125.797 25.7344C125.376 26.3405 124.801 26.9219 124.071 27.4785C123.354 28.0352 122.488 28.4928 121.474 28.8516C120.459 29.1979 119.303 29.3711 118.004 29.3711ZM134.898 13.21V29H129.554V8.92383H134.564L134.898 13.21ZM134.118 18.2568H132.671C132.671 16.7725 132.863 15.4365 133.246 14.249C133.63 13.0492 134.168 12.0286 134.86 11.1875C135.553 10.334 136.376 9.68457 137.328 9.23926C138.293 8.78158 139.369 8.55273 140.557 8.55273C141.497 8.55273 142.357 8.6888 143.136 8.96094C143.915 9.23307 144.583 9.66602 145.14 10.2598C145.709 10.8535 146.142 11.639 146.439 12.6162C146.748 13.5934 146.902 14.7871 146.902 16.1973V29H141.522V16.1787C141.522 15.2881 141.398 14.5954 141.151 14.1006C140.903 13.6058 140.538 13.2594 140.056 13.0615C139.586 12.8512 139.004 12.7461 138.312 12.7461C137.594 12.7461 136.97 12.8883 136.438 13.1729C135.918 13.4574 135.485 13.8532 135.139 14.3604C134.805 14.8551 134.551 15.4365 134.378 16.1045C134.205 16.7725 134.118 17.4899 134.118 18.2568ZM156.987 8.92383V29H151.624V8.92383H156.987ZM151.29 3.69141C151.29 2.91211 151.562 2.26888 152.107 1.76172C152.651 1.25456 153.381 1.00098 154.296 1.00098C155.199 1.00098 155.923 1.25456 156.467 1.76172C157.024 2.26888 157.302 2.91211 157.302 3.69141C157.302 4.4707 157.024 5.11393 156.467 5.62109C155.923 6.12826 155.199 6.38184 154.296 6.38184C153.381 6.38184 152.651 6.12826 152.107 5.62109C151.562 5.11393 151.29 4.4707 151.29 3.69141ZM173.639 24.6211V0.5H179.02V29H174.177L173.639 24.6211ZM160.948 19.2031V18.8135C160.948 17.2796 161.121 15.888 161.467 14.6387C161.814 13.377 162.321 12.2946 162.989 11.3916C163.657 10.4886 164.479 9.78971 165.456 9.29492C166.434 8.80013 167.547 8.55273 168.796 8.55273C169.971 8.55273 170.998 8.80013 171.876 9.29492C172.767 9.78971 173.522 10.4948 174.14 11.4102C174.771 12.3132 175.278 13.3831 175.661 14.6201C176.045 15.8447 176.323 17.1868 176.496 18.6465V19.5C176.323 20.8978 176.045 22.1966 175.661 23.3965C175.278 24.5964 174.771 25.6478 174.14 26.5508C173.522 27.4414 172.767 28.1341 171.876 28.6289C170.986 29.1237 169.947 29.3711 168.759 29.3711C167.51 29.3711 166.397 29.1175 165.419 28.6104C164.454 28.1032 163.638 27.3919 162.97 26.4766C162.314 25.5612 161.814 24.485 161.467 23.248C161.121 22.0111 160.948 20.6628 160.948 19.2031ZM166.291 18.8135V19.2031C166.291 20.0319 166.353 20.805 166.477 21.5225C166.613 22.2399 166.829 22.877 167.126 23.4336C167.436 23.9779 167.831 24.4046 168.314 24.7139C168.809 25.0107 169.409 25.1592 170.114 25.1592C171.029 25.1592 171.784 24.9551 172.377 24.5469C172.971 24.1263 173.423 23.5511 173.732 22.8213C174.053 22.0915 174.239 21.2503 174.288 20.2979V17.8672C174.251 17.0879 174.14 16.389 173.954 15.7705C173.781 15.1396 173.522 14.6016 173.175 14.1562C172.841 13.7109 172.421 13.3646 171.913 13.1172C171.419 12.8698 170.831 12.7461 170.151 12.7461C169.458 12.7461 168.864 12.9069 168.369 13.2285C167.875 13.5378 167.473 13.9645 167.163 14.5088C166.867 15.0531 166.644 15.6963 166.495 16.4385C166.359 17.1683 166.291 17.96 166.291 18.8135ZM182.721 19.166V18.7764C182.721 17.3044 182.931 15.9499 183.352 14.7129C183.773 13.4635 184.385 12.3812 185.189 11.4658C185.993 10.5505 186.983 9.83919 188.158 9.33203C189.333 8.8125 190.681 8.55273 192.203 8.55273C193.724 8.55273 195.079 8.8125 196.266 9.33203C197.454 9.83919 198.449 10.5505 199.253 11.4658C200.07 12.3812 200.688 13.4635 201.109 14.7129C201.529 15.9499 201.74 17.3044 201.74 18.7764V19.166C201.74 20.6257 201.529 21.9801 201.109 23.2295C200.688 24.4665 200.07 25.5488 199.253 26.4766C198.449 27.3919 197.46 28.1032 196.285 28.6104C195.11 29.1175 193.761 29.3711 192.24 29.3711C190.718 29.3711 189.364 29.1175 188.176 28.6104C187.001 28.1032 186.005 27.3919 185.189 26.4766C184.385 25.5488 183.773 24.4665 183.352 23.2295C182.931 21.9801 182.721 20.6257 182.721 19.166ZM188.065 18.7764V19.166C188.065 20.0072 188.139 20.7926 188.288 21.5225C188.436 22.2523 188.671 22.8955 188.993 23.4521C189.327 23.9964 189.76 24.4232 190.292 24.7324C190.823 25.0417 191.473 25.1963 192.24 25.1963C192.982 25.1963 193.619 25.0417 194.151 24.7324C194.683 24.4232 195.11 23.9964 195.431 23.4521C195.753 22.8955 195.988 22.2523 196.136 21.5225C196.297 20.7926 196.377 20.0072 196.377 19.166V18.7764C196.377 17.96 196.297 17.193 196.136 16.4756C195.988 15.7458 195.747 15.1025 195.413 14.5459C195.091 13.9769 194.664 13.5316 194.132 13.21C193.6 12.8883 192.957 12.7275 192.203 12.7275C191.448 12.7275 190.805 12.8883 190.273 13.21C189.753 13.5316 189.327 13.9769 188.993 14.5459C188.671 15.1025 188.436 15.7458 188.288 16.4756C188.139 17.193 188.065 17.96 188.065 18.7764ZM216.258 23.4521C216.258 23.0687 216.147 22.7223 215.924 22.4131C215.702 22.1038 215.287 21.8193 214.681 21.5596C214.087 21.2874 213.228 21.04 212.102 20.8174C211.088 20.5947 210.142 20.3164 209.263 19.9824C208.397 19.6361 207.643 19.2217 207 18.7393C206.369 18.2568 205.874 17.6878 205.515 17.0322C205.157 16.3643 204.977 15.6035 204.977 14.75C204.977 13.9089 205.157 13.1172 205.515 12.375C205.886 11.6328 206.412 10.9772 207.092 10.4082C207.785 9.82682 208.626 9.37533 209.616 9.05371C210.618 8.71973 211.743 8.55273 212.993 8.55273C214.737 8.55273 216.234 8.83105 217.483 9.3877C218.745 9.94434 219.71 10.7113 220.378 11.6885C221.058 12.6533 221.398 13.7542 221.398 14.9912H216.054C216.054 14.4717 215.943 14.0078 215.72 13.5996C215.51 13.179 215.176 12.8512 214.718 12.6162C214.273 12.3688 213.692 12.2451 212.974 12.2451C212.38 12.2451 211.867 12.3503 211.434 12.5605C211.001 12.7585 210.667 13.0306 210.432 13.377C210.21 13.7109 210.098 14.082 210.098 14.4902C210.098 14.7995 210.16 15.0778 210.284 15.3252C210.42 15.5602 210.636 15.7767 210.933 15.9746C211.23 16.1725 211.614 16.3581 212.084 16.5312C212.566 16.6921 213.16 16.8405 213.865 16.9766C215.312 17.2734 216.605 17.6631 217.743 18.1455C218.881 18.6156 219.784 19.2588 220.452 20.0752C221.12 20.8792 221.454 21.9368 221.454 23.248C221.454 24.1387 221.256 24.9551 220.86 25.6973C220.464 26.4395 219.895 27.0889 219.153 27.6455C218.411 28.1898 217.52 28.6165 216.481 28.9258C215.454 29.2227 214.298 29.3711 213.011 29.3711C211.143 29.3711 209.56 29.0371 208.261 28.3691C206.975 27.7012 205.998 26.8538 205.33 25.8271C204.674 24.7881 204.346 23.7243 204.346 22.6357H209.412C209.436 23.3656 209.622 23.9531 209.968 24.3984C210.327 24.8438 210.779 25.1654 211.323 25.3633C211.879 25.5612 212.479 25.6602 213.123 25.6602C213.815 25.6602 214.391 25.5674 214.848 25.3818C215.306 25.1839 215.652 24.9242 215.887 24.6025C216.135 24.2686 216.258 23.8851 216.258 23.4521ZM231.334 1.98438L230.721 20.7432H226.268L225.637 1.98438H231.334ZM225.489 26.5508C225.489 25.7591 225.761 25.1035 226.305 24.584C226.862 24.0521 227.592 23.7861 228.495 23.7861C229.41 23.7861 230.14 24.0521 230.684 24.584C231.229 25.1035 231.501 25.7591 231.501 26.5508C231.501 27.3177 231.229 27.9671 230.684 28.499C230.14 29.0309 229.41 29.2969 228.495 29.2969C227.592 29.2969 226.862 29.0309 226.305 28.499C225.761 27.9671 225.489 27.3177 225.489 26.5508Z" fill="#460BFF"/>
</svg>
