<svg width="44" height="50" viewBox="0 0 44 50" fill="none" xmlns="http://www.w3.org/2000/svg">
<path d="M5.75389 23.752C3.4598 23.752 1.71191 24.899 1.71191 26.4284C1.71191 27.9578 3.4598 29.1049 5.75389 29.1049C8.04798 29.1049 9.79587 27.9578 9.79587 26.4284C9.79587 24.899 8.04798 23.752 5.75389 23.752Z" fill="#460BFF"/>
<path d="M33.5403 26.2754C31.2098 26.2754 29.4619 27.4224 29.4619 28.9901C29.4619 30.5577 31.2098 31.7048 33.5403 31.7048C35.8708 31.7048 37.6187 30.5577 37.6187 28.9901C37.6187 27.4224 35.8708 26.2754 33.5403 26.2754Z" fill="#460BFF"/>
<mask id="mask0_528_1359" style="mask-type:luminance" maskUnits="userSpaceOnUse" x="34" y="43" width="10" height="7">
<path d="M34.7246 43.375H43.1023V49.1536H34.7246V43.375Z" fill="white"/>
</mask>
<g mask="url(#mask0_528_1359)">
<path d="M39.0381 43.6348C36.744 43.6348 34.9961 44.7844 34.9961 46.3138C34.9961 47.8432 36.744 48.9903 39.0381 48.9903C41.3322 48.9903 43.0825 47.8432 43.0825 46.3138C43.0825 44.7844 41.3322 43.6348 39.0381 43.6348Z" fill="#460BFF"/>
</g>
<path d="M20.8311 41.2241L33.6853 45.3943C33.8309 44.8973 34.0858 44.4384 34.4136 44.0179L21.5593 39.8477C21.4137 40.3447 21.1588 40.8035 20.8311 41.2241Z" fill="#460BFF"/>
<path d="M16.168 36.2539C13.8739 36.2539 12.126 37.401 12.126 38.9304C12.126 40.4598 13.8739 41.6068 16.168 41.6068C18.4645 41.6068 20.2124 40.4598 20.2124 38.9304C20.2124 37.401 18.5009 36.2539 16.168 36.2539Z" fill="#460BFF"/>
<path d="M13.036 15.912C13.036 15.7973 13.0724 15.6826 13.0724 15.5679L13.4002 14.1914C11.6159 14.6885 10.2686 15.4914 10.2686 16.7149C10.2686 19.2792 16.1312 19.9675 19.6294 19.9675C23.1252 19.9675 28.9879 19.2792 28.9879 16.7149C28.9879 15.4914 27.6406 14.6885 25.8563 14.1914L26.184 15.5679C26.2204 15.6826 26.2204 15.7973 26.2204 15.912C26.9851 16.1796 27.4585 16.4855 27.5313 16.7149C27.3492 17.2885 24.3997 18.4381 19.6658 18.4381C14.8567 18.4381 11.9436 17.2885 11.7615 16.7532C11.798 16.4855 12.2349 16.1796 13.036 15.912Z" fill="#460BFF"/>
<mask id="mask1_528_1359" style="mask-type:luminance" maskUnits="userSpaceOnUse" x="14" y="0" width="11" height="18">
<path d="M14.2158 0H24.7808V17.2722H14.2158V0Z" fill="white"/>
</mask>
<g mask="url(#mask1_528_1359)">
<path d="M15.8033 12.89C15.4756 12.89 15.1843 13.1194 15.0751 13.4636L14.4924 15.9106C14.4196 16.14 14.4924 16.3694 14.6381 16.5606C14.7838 16.7518 15.0022 16.8665 15.2207 16.8665H24.0354C24.2539 16.8665 24.4724 16.7518 24.618 16.5606C24.7637 16.3694 24.8001 16.14 24.7637 15.9106L24.1446 13.4636C24.0718 13.1194 23.7805 12.89 23.4163 12.89H23.0158C22.4696 12.1253 22.1783 10.9018 22.1783 9.29591C22.1783 7.46062 22.5424 6.12238 23.2707 5.39591C23.4892 5.1665 23.562 4.86062 23.4528 4.55473C23.3435 4.24885 23.0886 4.05767 22.7609 4.05767H20.3211V3.29297H21.3407C21.7413 3.29297 22.069 2.94885 22.069 2.52826C22.069 2.10767 21.7413 1.76356 21.3407 1.76356H20.3211V0.807675C20.3211 0.387087 19.9934 0.0429688 19.5929 0.0429688C19.1923 0.0429688 18.8646 0.387087 18.8646 0.807675V1.84003H17.8425C17.442 1.84003 17.1143 2.18414 17.1143 2.60473C17.1143 3.02532 17.442 3.36944 17.8425 3.36944H18.8646V4.13414H16.4224C16.1311 4.13414 15.8398 4.32532 15.7305 4.6312C15.6213 4.93709 15.6941 5.24297 15.9126 5.47238C16.6409 6.19885 17.005 7.53709 17.005 9.37238C17.005 10.9783 16.7137 12.1636 16.1675 12.9665H15.8033V12.89ZM22.8701 14.4194L23.0886 15.3371H16.1311L16.3496 14.4194H22.8701Z" fill="#460BFF"/>
</g>
<mask id="mask2_528_1359" style="mask-type:luminance" maskUnits="userSpaceOnUse" x="0" y="33" width="5" height="5">
<path d="M0 33.5859H4.89407V37.5012H0V33.5859Z" fill="white"/>
</mask>
<g mask="url(#mask2_528_1359)">
<path d="M4.51548 34.0753C4.29699 33.7311 3.82361 33.6164 3.49588 33.8458L2.36704 34.6105L1.2382 33.8458C0.910471 33.6164 0.437086 33.6929 0.218601 34.0753C0.000115767 34.4194 0.0729447 34.9164 0.437086 35.1458L1.01971 35.5664L0.437086 35.987C0.109358 36.2164 0.000115767 36.6753 0.218601 37.0576C0.364258 37.287 0.582743 37.4017 0.837643 37.4017C0.983299 37.4017 1.12896 37.3635 1.2382 37.287L2.36704 36.5223L3.49588 37.287C3.60512 37.3635 3.75078 37.4017 3.89644 37.4017C4.15134 37.4017 4.36982 37.287 4.51548 37.0576C4.73396 36.7135 4.66113 36.2164 4.29699 35.987L3.71436 35.5664L4.29699 35.1458C4.62472 34.8782 4.73396 34.4194 4.51548 34.0753Z" fill="#460BFF"/>
</g>
<path d="M41.1141 35.0303C40.8956 34.6862 40.4222 34.5715 40.0945 34.8009L38.9657 35.5656L37.8368 34.8009C37.5091 34.5715 37.0357 34.648 36.8172 35.0303C36.5987 35.3744 36.6716 35.8715 37.0357 36.1009L37.6183 36.5215L37.0357 36.9421C36.708 37.1715 36.5987 37.6303 36.8172 38.0127C36.9629 38.2421 37.1814 38.3568 37.4363 38.3568C37.5819 38.3568 37.7276 38.3186 37.8368 38.2421L38.9657 37.4774L40.0945 38.2421C40.2038 38.3186 40.3494 38.3568 40.4951 38.3568C40.75 38.3568 40.9685 38.2421 41.1141 38.0127C41.3326 37.6686 41.2598 37.1715 40.8956 36.9421L40.313 36.5215L40.8956 36.1009C41.2598 35.8333 41.3326 35.3744 41.1141 35.0303Z" fill="#460BFF"/>
<path d="M32.0467 19.9288C31.8282 19.5847 31.3549 19.4699 31.0271 19.6994L29.8983 20.4641L28.7694 19.6994C28.4417 19.4699 27.9683 19.5464 27.7499 19.9288C27.5314 20.2729 27.6042 20.7699 27.9683 20.9994L28.551 21.4199L27.9683 21.8405C27.6406 22.0699 27.5314 22.5288 27.7499 22.9111C27.8955 23.1405 28.114 23.2552 28.3689 23.2552C28.5145 23.2552 28.6602 23.217 28.7694 23.1405L29.8983 22.3758L31.0271 23.1405C31.1364 23.217 31.282 23.2552 31.4277 23.2552C31.6826 23.2552 31.9011 23.1405 32.0467 22.9111C32.2652 22.567 32.1924 22.0699 31.8282 21.8405L31.2456 21.4199L31.8282 20.9994C32.1924 20.7317 32.2652 20.2729 32.0467 19.9288Z" fill="#460BFF"/>
<path d="M29.8618 32.2014C29.3884 31.8956 28.9879 31.5132 28.6966 31.1309L20.0664 35.9103C20.5034 36.2544 20.8675 36.6367 21.1224 37.0573L29.8618 32.2014Z" fill="#460BFF"/>
<path d="M28.0053 29.1807C28.0053 29.1043 28.0053 29.0278 28.0053 28.9513C28.0053 28.4925 28.0782 28.0719 28.2602 27.6513L11.2888 26.1602C11.2888 26.2366 11.2888 26.3131 11.2888 26.4278C11.2888 26.8866 11.216 27.3072 11.0703 27.6896L28.0053 29.1807Z" fill="#460BFF"/>
<path d="M14.2379 20.9609L9.61328 23.3698C10.0503 23.7139 10.4144 24.0962 10.7057 24.5168L16.8233 21.3433C16.0222 21.2668 15.1118 21.1521 14.2379 20.9609Z" fill="#460BFF"/>
</svg>
